G75*
%MOIN*%
%OFA0B0*%
%FSLAX25Y25*%
%IPPOS*%
%LPD*%
%AMOC8*
5,1,8,0,0,1.08239X$1,22.5*
%
%ADD10C,0.00000*%
D10*
X0037684Y0002078D02*
X0510613Y0002078D01*
X0510613Y0002079D02*
X0510751Y0002081D01*
X0510889Y0002087D01*
X0511027Y0002096D01*
X0511164Y0002110D01*
X0511301Y0002127D01*
X0511437Y0002149D01*
X0511573Y0002174D01*
X0511708Y0002202D01*
X0511842Y0002235D01*
X0511975Y0002271D01*
X0512107Y0002311D01*
X0512238Y0002355D01*
X0512368Y0002403D01*
X0512496Y0002454D01*
X0512623Y0002508D01*
X0512748Y0002566D01*
X0512872Y0002628D01*
X0512993Y0002693D01*
X0513113Y0002761D01*
X0513231Y0002833D01*
X0513347Y0002908D01*
X0513461Y0002987D01*
X0513572Y0003068D01*
X0513681Y0003153D01*
X0513788Y0003240D01*
X0513892Y0003331D01*
X0513994Y0003424D01*
X0514093Y0003520D01*
X0514189Y0003619D01*
X0514282Y0003721D01*
X0514373Y0003825D01*
X0514460Y0003932D01*
X0514545Y0004041D01*
X0514626Y0004152D01*
X0514705Y0004266D01*
X0514780Y0004382D01*
X0514852Y0004500D01*
X0514920Y0004620D01*
X0514985Y0004741D01*
X0515047Y0004865D01*
X0515105Y0004990D01*
X0515159Y0005117D01*
X0515210Y0005245D01*
X0515258Y0005375D01*
X0515302Y0005506D01*
X0515342Y0005638D01*
X0515378Y0005771D01*
X0515411Y0005905D01*
X0515439Y0006040D01*
X0515464Y0006176D01*
X0515486Y0006312D01*
X0515503Y0006449D01*
X0515517Y0006586D01*
X0515526Y0006724D01*
X0515532Y0006862D01*
X0515534Y0007000D01*
X0515534Y0082077D01*
X0515532Y0082196D01*
X0515526Y0082314D01*
X0515517Y0082432D01*
X0515504Y0082550D01*
X0515487Y0082668D01*
X0515466Y0082785D01*
X0515441Y0082901D01*
X0515413Y0083016D01*
X0515381Y0083130D01*
X0515345Y0083244D01*
X0515306Y0083356D01*
X0515263Y0083466D01*
X0515217Y0083576D01*
X0515167Y0083683D01*
X0515114Y0083789D01*
X0515058Y0083894D01*
X0514998Y0083996D01*
X0514935Y0084097D01*
X0514868Y0084195D01*
X0514799Y0084291D01*
X0514726Y0084385D01*
X0514651Y0084477D01*
X0514573Y0084566D01*
X0514491Y0084652D01*
X0514407Y0084736D01*
X0514321Y0084818D01*
X0514232Y0084896D01*
X0514140Y0084971D01*
X0514046Y0085044D01*
X0513950Y0085113D01*
X0513852Y0085180D01*
X0513751Y0085243D01*
X0513649Y0085303D01*
X0513544Y0085359D01*
X0513438Y0085412D01*
X0513331Y0085462D01*
X0513221Y0085508D01*
X0513111Y0085551D01*
X0512999Y0085590D01*
X0512885Y0085626D01*
X0512771Y0085658D01*
X0512656Y0085686D01*
X0512540Y0085711D01*
X0512423Y0085732D01*
X0512305Y0085749D01*
X0512187Y0085762D01*
X0512069Y0085771D01*
X0511951Y0085777D01*
X0511832Y0085779D01*
X0036833Y0085779D01*
X0036678Y0085777D01*
X0036523Y0085771D01*
X0036368Y0085762D01*
X0036214Y0085748D01*
X0036059Y0085731D01*
X0035906Y0085710D01*
X0035753Y0085684D01*
X0035600Y0085656D01*
X0035449Y0085623D01*
X0035298Y0085587D01*
X0035148Y0085546D01*
X0034999Y0085503D01*
X0034852Y0085455D01*
X0034705Y0085404D01*
X0034560Y0085349D01*
X0034417Y0085291D01*
X0034274Y0085228D01*
X0034134Y0085163D01*
X0033995Y0085094D01*
X0033858Y0085021D01*
X0033722Y0084946D01*
X0033589Y0084866D01*
X0033458Y0084784D01*
X0033329Y0084698D01*
X0033202Y0084609D01*
X0033077Y0084517D01*
X0032954Y0084422D01*
X0032834Y0084324D01*
X0032717Y0084222D01*
X0032602Y0084118D01*
X0032489Y0084011D01*
X0032380Y0083902D01*
X0032273Y0083789D01*
X0032169Y0083674D01*
X0032067Y0083557D01*
X0031969Y0083437D01*
X0031874Y0083314D01*
X0031782Y0083189D01*
X0031693Y0083062D01*
X0031607Y0082933D01*
X0031525Y0082802D01*
X0031445Y0082668D01*
X0031370Y0082533D01*
X0031297Y0082396D01*
X0031228Y0082257D01*
X0031163Y0082117D01*
X0031100Y0081974D01*
X0031042Y0081831D01*
X0030987Y0081686D01*
X0030936Y0081539D01*
X0030888Y0081392D01*
X0030845Y0081243D01*
X0030804Y0081093D01*
X0030768Y0080942D01*
X0030735Y0080791D01*
X0030707Y0080638D01*
X0030681Y0080485D01*
X0030660Y0080332D01*
X0030643Y0080177D01*
X0030629Y0080023D01*
X0030620Y0079868D01*
X0030614Y0079713D01*
X0030612Y0079558D01*
X0030613Y0079558D02*
X0030613Y0009149D01*
X0030615Y0008978D01*
X0030621Y0008807D01*
X0030632Y0008637D01*
X0030646Y0008467D01*
X0030665Y0008297D01*
X0030687Y0008127D01*
X0030714Y0007959D01*
X0030745Y0007790D01*
X0030780Y0007623D01*
X0030818Y0007457D01*
X0030861Y0007291D01*
X0030908Y0007127D01*
X0030959Y0006964D01*
X0031014Y0006802D01*
X0031073Y0006642D01*
X0031135Y0006483D01*
X0031201Y0006325D01*
X0031271Y0006169D01*
X0031345Y0006015D01*
X0031423Y0005863D01*
X0031504Y0005713D01*
X0031589Y0005564D01*
X0031677Y0005418D01*
X0031769Y0005274D01*
X0031865Y0005132D01*
X0031963Y0004993D01*
X0032066Y0004856D01*
X0032171Y0004721D01*
X0032280Y0004589D01*
X0032391Y0004460D01*
X0032506Y0004334D01*
X0032624Y0004210D01*
X0032745Y0004089D01*
X0032869Y0003971D01*
X0032995Y0003856D01*
X0033124Y0003745D01*
X0033256Y0003636D01*
X0033391Y0003531D01*
X0033528Y0003428D01*
X0033667Y0003330D01*
X0033809Y0003234D01*
X0033953Y0003142D01*
X0034099Y0003054D01*
X0034248Y0002969D01*
X0034398Y0002888D01*
X0034550Y0002810D01*
X0034704Y0002736D01*
X0034860Y0002666D01*
X0035018Y0002600D01*
X0035177Y0002538D01*
X0035337Y0002479D01*
X0035499Y0002424D01*
X0035662Y0002373D01*
X0035826Y0002326D01*
X0035992Y0002283D01*
X0036158Y0002245D01*
X0036325Y0002210D01*
X0036494Y0002179D01*
X0036662Y0002152D01*
X0036832Y0002130D01*
X0037002Y0002111D01*
X0037172Y0002097D01*
X0037342Y0002086D01*
X0037513Y0002080D01*
X0037684Y0002078D01*
X0049314Y0012078D02*
X0049316Y0012236D01*
X0049322Y0012394D01*
X0049332Y0012552D01*
X0049346Y0012710D01*
X0049364Y0012867D01*
X0049385Y0013024D01*
X0049411Y0013180D01*
X0049441Y0013336D01*
X0049474Y0013491D01*
X0049512Y0013644D01*
X0049553Y0013797D01*
X0049598Y0013949D01*
X0049647Y0014100D01*
X0049700Y0014249D01*
X0049756Y0014397D01*
X0049816Y0014543D01*
X0049880Y0014688D01*
X0049948Y0014831D01*
X0050019Y0014973D01*
X0050093Y0015113D01*
X0050171Y0015250D01*
X0050253Y0015386D01*
X0050337Y0015520D01*
X0050426Y0015651D01*
X0050517Y0015780D01*
X0050612Y0015907D01*
X0050709Y0016032D01*
X0050810Y0016154D01*
X0050914Y0016273D01*
X0051021Y0016390D01*
X0051131Y0016504D01*
X0051244Y0016615D01*
X0051359Y0016724D01*
X0051477Y0016829D01*
X0051598Y0016931D01*
X0051721Y0017031D01*
X0051847Y0017127D01*
X0051975Y0017220D01*
X0052105Y0017310D01*
X0052238Y0017396D01*
X0052373Y0017480D01*
X0052509Y0017559D01*
X0052648Y0017636D01*
X0052789Y0017708D01*
X0052931Y0017778D01*
X0053075Y0017843D01*
X0053221Y0017905D01*
X0053368Y0017963D01*
X0053517Y0018018D01*
X0053667Y0018069D01*
X0053818Y0018116D01*
X0053970Y0018159D01*
X0054123Y0018198D01*
X0054278Y0018234D01*
X0054433Y0018265D01*
X0054589Y0018293D01*
X0054745Y0018317D01*
X0054902Y0018337D01*
X0055060Y0018353D01*
X0055217Y0018365D01*
X0055376Y0018373D01*
X0055534Y0018377D01*
X0055692Y0018377D01*
X0055850Y0018373D01*
X0056009Y0018365D01*
X0056166Y0018353D01*
X0056324Y0018337D01*
X0056481Y0018317D01*
X0056637Y0018293D01*
X0056793Y0018265D01*
X0056948Y0018234D01*
X0057103Y0018198D01*
X0057256Y0018159D01*
X0057408Y0018116D01*
X0057559Y0018069D01*
X0057709Y0018018D01*
X0057858Y0017963D01*
X0058005Y0017905D01*
X0058151Y0017843D01*
X0058295Y0017778D01*
X0058437Y0017708D01*
X0058578Y0017636D01*
X0058717Y0017559D01*
X0058853Y0017480D01*
X0058988Y0017396D01*
X0059121Y0017310D01*
X0059251Y0017220D01*
X0059379Y0017127D01*
X0059505Y0017031D01*
X0059628Y0016931D01*
X0059749Y0016829D01*
X0059867Y0016724D01*
X0059982Y0016615D01*
X0060095Y0016504D01*
X0060205Y0016390D01*
X0060312Y0016273D01*
X0060416Y0016154D01*
X0060517Y0016032D01*
X0060614Y0015907D01*
X0060709Y0015780D01*
X0060800Y0015651D01*
X0060889Y0015520D01*
X0060973Y0015386D01*
X0061055Y0015250D01*
X0061133Y0015113D01*
X0061207Y0014973D01*
X0061278Y0014831D01*
X0061346Y0014688D01*
X0061410Y0014543D01*
X0061470Y0014397D01*
X0061526Y0014249D01*
X0061579Y0014100D01*
X0061628Y0013949D01*
X0061673Y0013797D01*
X0061714Y0013644D01*
X0061752Y0013491D01*
X0061785Y0013336D01*
X0061815Y0013180D01*
X0061841Y0013024D01*
X0061862Y0012867D01*
X0061880Y0012710D01*
X0061894Y0012552D01*
X0061904Y0012394D01*
X0061910Y0012236D01*
X0061912Y0012078D01*
X0061910Y0011920D01*
X0061904Y0011762D01*
X0061894Y0011604D01*
X0061880Y0011446D01*
X0061862Y0011289D01*
X0061841Y0011132D01*
X0061815Y0010976D01*
X0061785Y0010820D01*
X0061752Y0010665D01*
X0061714Y0010512D01*
X0061673Y0010359D01*
X0061628Y0010207D01*
X0061579Y0010056D01*
X0061526Y0009907D01*
X0061470Y0009759D01*
X0061410Y0009613D01*
X0061346Y0009468D01*
X0061278Y0009325D01*
X0061207Y0009183D01*
X0061133Y0009043D01*
X0061055Y0008906D01*
X0060973Y0008770D01*
X0060889Y0008636D01*
X0060800Y0008505D01*
X0060709Y0008376D01*
X0060614Y0008249D01*
X0060517Y0008124D01*
X0060416Y0008002D01*
X0060312Y0007883D01*
X0060205Y0007766D01*
X0060095Y0007652D01*
X0059982Y0007541D01*
X0059867Y0007432D01*
X0059749Y0007327D01*
X0059628Y0007225D01*
X0059505Y0007125D01*
X0059379Y0007029D01*
X0059251Y0006936D01*
X0059121Y0006846D01*
X0058988Y0006760D01*
X0058853Y0006676D01*
X0058717Y0006597D01*
X0058578Y0006520D01*
X0058437Y0006448D01*
X0058295Y0006378D01*
X0058151Y0006313D01*
X0058005Y0006251D01*
X0057858Y0006193D01*
X0057709Y0006138D01*
X0057559Y0006087D01*
X0057408Y0006040D01*
X0057256Y0005997D01*
X0057103Y0005958D01*
X0056948Y0005922D01*
X0056793Y0005891D01*
X0056637Y0005863D01*
X0056481Y0005839D01*
X0056324Y0005819D01*
X0056166Y0005803D01*
X0056009Y0005791D01*
X0055850Y0005783D01*
X0055692Y0005779D01*
X0055534Y0005779D01*
X0055376Y0005783D01*
X0055217Y0005791D01*
X0055060Y0005803D01*
X0054902Y0005819D01*
X0054745Y0005839D01*
X0054589Y0005863D01*
X0054433Y0005891D01*
X0054278Y0005922D01*
X0054123Y0005958D01*
X0053970Y0005997D01*
X0053818Y0006040D01*
X0053667Y0006087D01*
X0053517Y0006138D01*
X0053368Y0006193D01*
X0053221Y0006251D01*
X0053075Y0006313D01*
X0052931Y0006378D01*
X0052789Y0006448D01*
X0052648Y0006520D01*
X0052509Y0006597D01*
X0052373Y0006676D01*
X0052238Y0006760D01*
X0052105Y0006846D01*
X0051975Y0006936D01*
X0051847Y0007029D01*
X0051721Y0007125D01*
X0051598Y0007225D01*
X0051477Y0007327D01*
X0051359Y0007432D01*
X0051244Y0007541D01*
X0051131Y0007652D01*
X0051021Y0007766D01*
X0050914Y0007883D01*
X0050810Y0008002D01*
X0050709Y0008124D01*
X0050612Y0008249D01*
X0050517Y0008376D01*
X0050426Y0008505D01*
X0050337Y0008636D01*
X0050253Y0008770D01*
X0050171Y0008906D01*
X0050093Y0009043D01*
X0050019Y0009183D01*
X0049948Y0009325D01*
X0049880Y0009468D01*
X0049816Y0009613D01*
X0049756Y0009759D01*
X0049700Y0009907D01*
X0049647Y0010056D01*
X0049598Y0010207D01*
X0049553Y0010359D01*
X0049512Y0010512D01*
X0049474Y0010665D01*
X0049441Y0010820D01*
X0049411Y0010976D01*
X0049385Y0011132D01*
X0049364Y0011289D01*
X0049346Y0011446D01*
X0049332Y0011604D01*
X0049322Y0011762D01*
X0049316Y0011920D01*
X0049314Y0012078D01*
X0229314Y0042078D02*
X0229316Y0042236D01*
X0229322Y0042394D01*
X0229332Y0042552D01*
X0229346Y0042710D01*
X0229364Y0042867D01*
X0229385Y0043024D01*
X0229411Y0043180D01*
X0229441Y0043336D01*
X0229474Y0043491D01*
X0229512Y0043644D01*
X0229553Y0043797D01*
X0229598Y0043949D01*
X0229647Y0044100D01*
X0229700Y0044249D01*
X0229756Y0044397D01*
X0229816Y0044543D01*
X0229880Y0044688D01*
X0229948Y0044831D01*
X0230019Y0044973D01*
X0230093Y0045113D01*
X0230171Y0045250D01*
X0230253Y0045386D01*
X0230337Y0045520D01*
X0230426Y0045651D01*
X0230517Y0045780D01*
X0230612Y0045907D01*
X0230709Y0046032D01*
X0230810Y0046154D01*
X0230914Y0046273D01*
X0231021Y0046390D01*
X0231131Y0046504D01*
X0231244Y0046615D01*
X0231359Y0046724D01*
X0231477Y0046829D01*
X0231598Y0046931D01*
X0231721Y0047031D01*
X0231847Y0047127D01*
X0231975Y0047220D01*
X0232105Y0047310D01*
X0232238Y0047396D01*
X0232373Y0047480D01*
X0232509Y0047559D01*
X0232648Y0047636D01*
X0232789Y0047708D01*
X0232931Y0047778D01*
X0233075Y0047843D01*
X0233221Y0047905D01*
X0233368Y0047963D01*
X0233517Y0048018D01*
X0233667Y0048069D01*
X0233818Y0048116D01*
X0233970Y0048159D01*
X0234123Y0048198D01*
X0234278Y0048234D01*
X0234433Y0048265D01*
X0234589Y0048293D01*
X0234745Y0048317D01*
X0234902Y0048337D01*
X0235060Y0048353D01*
X0235217Y0048365D01*
X0235376Y0048373D01*
X0235534Y0048377D01*
X0235692Y0048377D01*
X0235850Y0048373D01*
X0236009Y0048365D01*
X0236166Y0048353D01*
X0236324Y0048337D01*
X0236481Y0048317D01*
X0236637Y0048293D01*
X0236793Y0048265D01*
X0236948Y0048234D01*
X0237103Y0048198D01*
X0237256Y0048159D01*
X0237408Y0048116D01*
X0237559Y0048069D01*
X0237709Y0048018D01*
X0237858Y0047963D01*
X0238005Y0047905D01*
X0238151Y0047843D01*
X0238295Y0047778D01*
X0238437Y0047708D01*
X0238578Y0047636D01*
X0238717Y0047559D01*
X0238853Y0047480D01*
X0238988Y0047396D01*
X0239121Y0047310D01*
X0239251Y0047220D01*
X0239379Y0047127D01*
X0239505Y0047031D01*
X0239628Y0046931D01*
X0239749Y0046829D01*
X0239867Y0046724D01*
X0239982Y0046615D01*
X0240095Y0046504D01*
X0240205Y0046390D01*
X0240312Y0046273D01*
X0240416Y0046154D01*
X0240517Y0046032D01*
X0240614Y0045907D01*
X0240709Y0045780D01*
X0240800Y0045651D01*
X0240889Y0045520D01*
X0240973Y0045386D01*
X0241055Y0045250D01*
X0241133Y0045113D01*
X0241207Y0044973D01*
X0241278Y0044831D01*
X0241346Y0044688D01*
X0241410Y0044543D01*
X0241470Y0044397D01*
X0241526Y0044249D01*
X0241579Y0044100D01*
X0241628Y0043949D01*
X0241673Y0043797D01*
X0241714Y0043644D01*
X0241752Y0043491D01*
X0241785Y0043336D01*
X0241815Y0043180D01*
X0241841Y0043024D01*
X0241862Y0042867D01*
X0241880Y0042710D01*
X0241894Y0042552D01*
X0241904Y0042394D01*
X0241910Y0042236D01*
X0241912Y0042078D01*
X0241910Y0041920D01*
X0241904Y0041762D01*
X0241894Y0041604D01*
X0241880Y0041446D01*
X0241862Y0041289D01*
X0241841Y0041132D01*
X0241815Y0040976D01*
X0241785Y0040820D01*
X0241752Y0040665D01*
X0241714Y0040512D01*
X0241673Y0040359D01*
X0241628Y0040207D01*
X0241579Y0040056D01*
X0241526Y0039907D01*
X0241470Y0039759D01*
X0241410Y0039613D01*
X0241346Y0039468D01*
X0241278Y0039325D01*
X0241207Y0039183D01*
X0241133Y0039043D01*
X0241055Y0038906D01*
X0240973Y0038770D01*
X0240889Y0038636D01*
X0240800Y0038505D01*
X0240709Y0038376D01*
X0240614Y0038249D01*
X0240517Y0038124D01*
X0240416Y0038002D01*
X0240312Y0037883D01*
X0240205Y0037766D01*
X0240095Y0037652D01*
X0239982Y0037541D01*
X0239867Y0037432D01*
X0239749Y0037327D01*
X0239628Y0037225D01*
X0239505Y0037125D01*
X0239379Y0037029D01*
X0239251Y0036936D01*
X0239121Y0036846D01*
X0238988Y0036760D01*
X0238853Y0036676D01*
X0238717Y0036597D01*
X0238578Y0036520D01*
X0238437Y0036448D01*
X0238295Y0036378D01*
X0238151Y0036313D01*
X0238005Y0036251D01*
X0237858Y0036193D01*
X0237709Y0036138D01*
X0237559Y0036087D01*
X0237408Y0036040D01*
X0237256Y0035997D01*
X0237103Y0035958D01*
X0236948Y0035922D01*
X0236793Y0035891D01*
X0236637Y0035863D01*
X0236481Y0035839D01*
X0236324Y0035819D01*
X0236166Y0035803D01*
X0236009Y0035791D01*
X0235850Y0035783D01*
X0235692Y0035779D01*
X0235534Y0035779D01*
X0235376Y0035783D01*
X0235217Y0035791D01*
X0235060Y0035803D01*
X0234902Y0035819D01*
X0234745Y0035839D01*
X0234589Y0035863D01*
X0234433Y0035891D01*
X0234278Y0035922D01*
X0234123Y0035958D01*
X0233970Y0035997D01*
X0233818Y0036040D01*
X0233667Y0036087D01*
X0233517Y0036138D01*
X0233368Y0036193D01*
X0233221Y0036251D01*
X0233075Y0036313D01*
X0232931Y0036378D01*
X0232789Y0036448D01*
X0232648Y0036520D01*
X0232509Y0036597D01*
X0232373Y0036676D01*
X0232238Y0036760D01*
X0232105Y0036846D01*
X0231975Y0036936D01*
X0231847Y0037029D01*
X0231721Y0037125D01*
X0231598Y0037225D01*
X0231477Y0037327D01*
X0231359Y0037432D01*
X0231244Y0037541D01*
X0231131Y0037652D01*
X0231021Y0037766D01*
X0230914Y0037883D01*
X0230810Y0038002D01*
X0230709Y0038124D01*
X0230612Y0038249D01*
X0230517Y0038376D01*
X0230426Y0038505D01*
X0230337Y0038636D01*
X0230253Y0038770D01*
X0230171Y0038906D01*
X0230093Y0039043D01*
X0230019Y0039183D01*
X0229948Y0039325D01*
X0229880Y0039468D01*
X0229816Y0039613D01*
X0229756Y0039759D01*
X0229700Y0039907D01*
X0229647Y0040056D01*
X0229598Y0040207D01*
X0229553Y0040359D01*
X0229512Y0040512D01*
X0229474Y0040665D01*
X0229441Y0040820D01*
X0229411Y0040976D01*
X0229385Y0041132D01*
X0229364Y0041289D01*
X0229346Y0041446D01*
X0229332Y0041604D01*
X0229322Y0041762D01*
X0229316Y0041920D01*
X0229314Y0042078D01*
X0049314Y0077078D02*
X0049316Y0077236D01*
X0049322Y0077394D01*
X0049332Y0077552D01*
X0049346Y0077710D01*
X0049364Y0077867D01*
X0049385Y0078024D01*
X0049411Y0078180D01*
X0049441Y0078336D01*
X0049474Y0078491D01*
X0049512Y0078644D01*
X0049553Y0078797D01*
X0049598Y0078949D01*
X0049647Y0079100D01*
X0049700Y0079249D01*
X0049756Y0079397D01*
X0049816Y0079543D01*
X0049880Y0079688D01*
X0049948Y0079831D01*
X0050019Y0079973D01*
X0050093Y0080113D01*
X0050171Y0080250D01*
X0050253Y0080386D01*
X0050337Y0080520D01*
X0050426Y0080651D01*
X0050517Y0080780D01*
X0050612Y0080907D01*
X0050709Y0081032D01*
X0050810Y0081154D01*
X0050914Y0081273D01*
X0051021Y0081390D01*
X0051131Y0081504D01*
X0051244Y0081615D01*
X0051359Y0081724D01*
X0051477Y0081829D01*
X0051598Y0081931D01*
X0051721Y0082031D01*
X0051847Y0082127D01*
X0051975Y0082220D01*
X0052105Y0082310D01*
X0052238Y0082396D01*
X0052373Y0082480D01*
X0052509Y0082559D01*
X0052648Y0082636D01*
X0052789Y0082708D01*
X0052931Y0082778D01*
X0053075Y0082843D01*
X0053221Y0082905D01*
X0053368Y0082963D01*
X0053517Y0083018D01*
X0053667Y0083069D01*
X0053818Y0083116D01*
X0053970Y0083159D01*
X0054123Y0083198D01*
X0054278Y0083234D01*
X0054433Y0083265D01*
X0054589Y0083293D01*
X0054745Y0083317D01*
X0054902Y0083337D01*
X0055060Y0083353D01*
X0055217Y0083365D01*
X0055376Y0083373D01*
X0055534Y0083377D01*
X0055692Y0083377D01*
X0055850Y0083373D01*
X0056009Y0083365D01*
X0056166Y0083353D01*
X0056324Y0083337D01*
X0056481Y0083317D01*
X0056637Y0083293D01*
X0056793Y0083265D01*
X0056948Y0083234D01*
X0057103Y0083198D01*
X0057256Y0083159D01*
X0057408Y0083116D01*
X0057559Y0083069D01*
X0057709Y0083018D01*
X0057858Y0082963D01*
X0058005Y0082905D01*
X0058151Y0082843D01*
X0058295Y0082778D01*
X0058437Y0082708D01*
X0058578Y0082636D01*
X0058717Y0082559D01*
X0058853Y0082480D01*
X0058988Y0082396D01*
X0059121Y0082310D01*
X0059251Y0082220D01*
X0059379Y0082127D01*
X0059505Y0082031D01*
X0059628Y0081931D01*
X0059749Y0081829D01*
X0059867Y0081724D01*
X0059982Y0081615D01*
X0060095Y0081504D01*
X0060205Y0081390D01*
X0060312Y0081273D01*
X0060416Y0081154D01*
X0060517Y0081032D01*
X0060614Y0080907D01*
X0060709Y0080780D01*
X0060800Y0080651D01*
X0060889Y0080520D01*
X0060973Y0080386D01*
X0061055Y0080250D01*
X0061133Y0080113D01*
X0061207Y0079973D01*
X0061278Y0079831D01*
X0061346Y0079688D01*
X0061410Y0079543D01*
X0061470Y0079397D01*
X0061526Y0079249D01*
X0061579Y0079100D01*
X0061628Y0078949D01*
X0061673Y0078797D01*
X0061714Y0078644D01*
X0061752Y0078491D01*
X0061785Y0078336D01*
X0061815Y0078180D01*
X0061841Y0078024D01*
X0061862Y0077867D01*
X0061880Y0077710D01*
X0061894Y0077552D01*
X0061904Y0077394D01*
X0061910Y0077236D01*
X0061912Y0077078D01*
X0061910Y0076920D01*
X0061904Y0076762D01*
X0061894Y0076604D01*
X0061880Y0076446D01*
X0061862Y0076289D01*
X0061841Y0076132D01*
X0061815Y0075976D01*
X0061785Y0075820D01*
X0061752Y0075665D01*
X0061714Y0075512D01*
X0061673Y0075359D01*
X0061628Y0075207D01*
X0061579Y0075056D01*
X0061526Y0074907D01*
X0061470Y0074759D01*
X0061410Y0074613D01*
X0061346Y0074468D01*
X0061278Y0074325D01*
X0061207Y0074183D01*
X0061133Y0074043D01*
X0061055Y0073906D01*
X0060973Y0073770D01*
X0060889Y0073636D01*
X0060800Y0073505D01*
X0060709Y0073376D01*
X0060614Y0073249D01*
X0060517Y0073124D01*
X0060416Y0073002D01*
X0060312Y0072883D01*
X0060205Y0072766D01*
X0060095Y0072652D01*
X0059982Y0072541D01*
X0059867Y0072432D01*
X0059749Y0072327D01*
X0059628Y0072225D01*
X0059505Y0072125D01*
X0059379Y0072029D01*
X0059251Y0071936D01*
X0059121Y0071846D01*
X0058988Y0071760D01*
X0058853Y0071676D01*
X0058717Y0071597D01*
X0058578Y0071520D01*
X0058437Y0071448D01*
X0058295Y0071378D01*
X0058151Y0071313D01*
X0058005Y0071251D01*
X0057858Y0071193D01*
X0057709Y0071138D01*
X0057559Y0071087D01*
X0057408Y0071040D01*
X0057256Y0070997D01*
X0057103Y0070958D01*
X0056948Y0070922D01*
X0056793Y0070891D01*
X0056637Y0070863D01*
X0056481Y0070839D01*
X0056324Y0070819D01*
X0056166Y0070803D01*
X0056009Y0070791D01*
X0055850Y0070783D01*
X0055692Y0070779D01*
X0055534Y0070779D01*
X0055376Y0070783D01*
X0055217Y0070791D01*
X0055060Y0070803D01*
X0054902Y0070819D01*
X0054745Y0070839D01*
X0054589Y0070863D01*
X0054433Y0070891D01*
X0054278Y0070922D01*
X0054123Y0070958D01*
X0053970Y0070997D01*
X0053818Y0071040D01*
X0053667Y0071087D01*
X0053517Y0071138D01*
X0053368Y0071193D01*
X0053221Y0071251D01*
X0053075Y0071313D01*
X0052931Y0071378D01*
X0052789Y0071448D01*
X0052648Y0071520D01*
X0052509Y0071597D01*
X0052373Y0071676D01*
X0052238Y0071760D01*
X0052105Y0071846D01*
X0051975Y0071936D01*
X0051847Y0072029D01*
X0051721Y0072125D01*
X0051598Y0072225D01*
X0051477Y0072327D01*
X0051359Y0072432D01*
X0051244Y0072541D01*
X0051131Y0072652D01*
X0051021Y0072766D01*
X0050914Y0072883D01*
X0050810Y0073002D01*
X0050709Y0073124D01*
X0050612Y0073249D01*
X0050517Y0073376D01*
X0050426Y0073505D01*
X0050337Y0073636D01*
X0050253Y0073770D01*
X0050171Y0073906D01*
X0050093Y0074043D01*
X0050019Y0074183D01*
X0049948Y0074325D01*
X0049880Y0074468D01*
X0049816Y0074613D01*
X0049756Y0074759D01*
X0049700Y0074907D01*
X0049647Y0075056D01*
X0049598Y0075207D01*
X0049553Y0075359D01*
X0049512Y0075512D01*
X0049474Y0075665D01*
X0049441Y0075820D01*
X0049411Y0075976D01*
X0049385Y0076132D01*
X0049364Y0076289D01*
X0049346Y0076446D01*
X0049332Y0076604D01*
X0049322Y0076762D01*
X0049316Y0076920D01*
X0049314Y0077078D01*
M02*
