G75*
%MOIN*%
%OFA0B0*%
%FSLAX25Y25*%
%IPPOS*%
%LPD*%
%AMOC8*
5,1,8,0,0,1.08239X$1,22.5*
%
%ADD10C,0.01142*%
%ADD11C,0.04724*%
%ADD12R,0.02500X0.05000*%
%ADD13OC8,0.05906*%
%ADD14R,0.06000X0.06000*%
%ADD15C,0.06600*%
%ADD16C,0.13000*%
%ADD17R,0.07874X0.04724*%
%ADD18C,0.05600*%
%ADD19C,0.05000*%
%ADD20R,0.03762X0.03762*%
%ADD21C,0.02400*%
%ADD22C,0.01600*%
D10*
X0067641Y0013849D02*
X0073585Y0013849D01*
X0073585Y0009283D01*
X0067641Y0009283D01*
X0067641Y0013849D01*
X0067641Y0010424D02*
X0073585Y0010424D01*
X0073585Y0011565D02*
X0067641Y0011565D01*
X0067641Y0012706D02*
X0073585Y0012706D01*
X0073585Y0013847D02*
X0067641Y0013847D01*
X0067641Y0024873D02*
X0073585Y0024873D01*
X0073585Y0020307D01*
X0067641Y0020307D01*
X0067641Y0024873D01*
X0067641Y0021448D02*
X0073585Y0021448D01*
X0073585Y0022589D02*
X0067641Y0022589D01*
X0067641Y0023730D02*
X0073585Y0023730D01*
X0073585Y0024871D02*
X0067641Y0024871D01*
D11*
X0125691Y0014519D02*
X0125691Y0009795D01*
X0135691Y0009795D02*
X0135691Y0014519D01*
X0195534Y0014519D02*
X0195534Y0009795D01*
X0215613Y0009795D02*
X0215613Y0014519D01*
X0215613Y0069637D02*
X0215613Y0074362D01*
X0195534Y0074362D02*
X0195534Y0069637D01*
X0135691Y0069637D02*
X0135691Y0074362D01*
X0125691Y0074362D02*
X0125691Y0069637D01*
D12*
X0102384Y0062078D03*
X0098841Y0062078D03*
D13*
X0255613Y0057078D03*
X0265613Y0057078D03*
X0295613Y0057078D03*
X0305613Y0057078D03*
X0335613Y0057078D03*
X0345613Y0057078D03*
X0375613Y0057078D03*
X0385613Y0057078D03*
X0415613Y0057078D03*
X0425613Y0057078D03*
X0455613Y0057078D03*
X0465613Y0057078D03*
X0495613Y0057078D03*
X0505613Y0057078D03*
X0505613Y0067078D03*
X0495613Y0067078D03*
X0465613Y0067078D03*
X0455613Y0067078D03*
X0425613Y0067078D03*
X0415613Y0067078D03*
X0385613Y0067078D03*
X0375613Y0067078D03*
X0345613Y0067078D03*
X0335613Y0067078D03*
X0305613Y0067078D03*
X0295613Y0067078D03*
X0265613Y0067078D03*
X0255613Y0067078D03*
X0255613Y0077078D03*
X0265613Y0077078D03*
X0295613Y0077078D03*
X0305613Y0077078D03*
X0335613Y0077078D03*
X0345613Y0077078D03*
X0375613Y0077078D03*
X0385613Y0077078D03*
X0415613Y0077078D03*
X0425613Y0077078D03*
X0455613Y0077078D03*
X0465613Y0077078D03*
X0495613Y0077078D03*
X0505613Y0077078D03*
X0505613Y0047078D03*
X0495613Y0047078D03*
X0465613Y0047078D03*
X0455613Y0047078D03*
X0425613Y0047078D03*
X0415613Y0047078D03*
X0385613Y0047078D03*
X0375613Y0047078D03*
X0345613Y0047078D03*
X0335613Y0047078D03*
X0305613Y0047078D03*
X0295613Y0047078D03*
X0265613Y0047078D03*
X0255613Y0047078D03*
X0255613Y0037078D03*
X0265613Y0037078D03*
X0295613Y0037078D03*
X0305613Y0037078D03*
X0335613Y0037078D03*
X0345613Y0037078D03*
X0375613Y0037078D03*
X0385613Y0037078D03*
X0415613Y0037078D03*
X0425613Y0037078D03*
X0455613Y0037078D03*
X0465613Y0037078D03*
X0495613Y0037078D03*
X0505613Y0037078D03*
X0505613Y0027078D03*
X0495613Y0027078D03*
X0465613Y0027078D03*
X0455613Y0027078D03*
X0425613Y0027078D03*
X0415613Y0027078D03*
X0385613Y0027078D03*
X0375613Y0027078D03*
X0345613Y0027078D03*
X0335613Y0027078D03*
X0305613Y0027078D03*
X0295613Y0027078D03*
X0265613Y0027078D03*
X0255613Y0027078D03*
X0255613Y0017078D03*
X0265613Y0017078D03*
X0295613Y0017078D03*
X0305613Y0017078D03*
X0335613Y0017078D03*
X0345613Y0017078D03*
X0375613Y0017078D03*
X0385613Y0017078D03*
X0415613Y0017078D03*
X0425613Y0017078D03*
X0455613Y0017078D03*
X0465613Y0017078D03*
X0495613Y0017078D03*
X0505613Y0017078D03*
X0505613Y0007078D03*
X0495613Y0007078D03*
X0465613Y0007078D03*
X0455613Y0007078D03*
X0425613Y0007078D03*
X0415613Y0007078D03*
X0385613Y0007078D03*
X0375613Y0007078D03*
X0345613Y0007078D03*
X0335613Y0007078D03*
X0305613Y0007078D03*
X0295613Y0007078D03*
X0265613Y0007078D03*
X0255613Y0007078D03*
D14*
X0085613Y0072078D03*
X0075613Y0072078D03*
D15*
X0058413Y0049500D03*
X0050613Y0049500D03*
X0050613Y0039657D03*
X0058413Y0039657D03*
D16*
X0039913Y0020878D03*
X0039913Y0068278D03*
D17*
X0080849Y0022078D03*
X0110376Y0022078D03*
X0110376Y0012078D03*
X0080849Y0012078D03*
D18*
X0110376Y0012078D02*
X0125613Y0012078D01*
X0125691Y0012157D02*
X0135691Y0012157D01*
X0110376Y0022078D02*
X0110376Y0026842D01*
X0125613Y0042078D01*
X0125613Y0071921D01*
X0125691Y0072000D02*
X0135691Y0072000D01*
X0085613Y0072078D02*
X0085613Y0052078D01*
X0070613Y0037078D01*
X0070613Y0022590D01*
X0080337Y0022590D01*
X0070613Y0037078D02*
X0063491Y0037078D01*
X0058413Y0039657D01*
D19*
X0080337Y0022590D02*
X0080849Y0022078D01*
X0125613Y0012078D02*
X0125691Y0012157D01*
X0125613Y0071921D02*
X0125691Y0072000D01*
D20*
X0110613Y0062078D03*
D21*
X0102384Y0062078D01*
X0098841Y0062078D02*
X0093113Y0062078D01*
X0093113Y0077078D01*
X0090613Y0082078D01*
X0075613Y0082078D01*
X0075613Y0072078D01*
D22*
X0033522Y0007029D02*
X0034381Y0005846D01*
X0035563Y0004987D01*
X0036953Y0004536D01*
X0037684Y0004478D01*
X0051229Y0004478D01*
X0050685Y0004703D01*
X0048238Y0007151D01*
X0046913Y0010348D01*
X0046913Y0013809D01*
X0048238Y0017006D01*
X0050685Y0019453D01*
X0053882Y0020777D01*
X0057343Y0020777D01*
X0060540Y0019453D01*
X0062987Y0017006D01*
X0064312Y0013809D01*
X0064312Y0010348D01*
X0062987Y0007151D01*
X0060540Y0004703D01*
X0059997Y0004478D01*
X0095613Y0004478D01*
X0095613Y0083379D01*
X0061614Y0083379D01*
X0062987Y0082006D01*
X0064312Y0078809D01*
X0064312Y0075348D01*
X0062987Y0072151D01*
X0060540Y0069703D01*
X0057343Y0068379D01*
X0053882Y0068379D01*
X0050685Y0069703D01*
X0048238Y0072151D01*
X0046913Y0075348D01*
X0046913Y0078809D01*
X0048238Y0082006D01*
X0049611Y0083379D01*
X0036833Y0083379D01*
X0036088Y0083306D01*
X0034711Y0082735D01*
X0033656Y0081681D01*
X0033086Y0080304D01*
X0033013Y0079558D01*
X0033013Y0073965D01*
X0034871Y0075823D01*
X0038142Y0077178D01*
X0041683Y0077178D01*
X0044954Y0075823D01*
X0047458Y0073320D01*
X0048813Y0070049D01*
X0048813Y0066508D01*
X0047458Y0063237D01*
X0044954Y0060733D01*
X0041683Y0059378D01*
X0038142Y0059378D01*
X0034871Y0060733D01*
X0033013Y0062592D01*
X0033013Y0026565D01*
X0034871Y0028423D01*
X0038142Y0029778D01*
X0041683Y0029778D01*
X0044954Y0028423D01*
X0047458Y0025920D01*
X0048813Y0022649D01*
X0048813Y0019108D01*
X0047458Y0015837D01*
X0044954Y0013333D01*
X0041683Y0011978D01*
X0038142Y0011978D01*
X0034871Y0013333D01*
X0033013Y0015192D01*
X0033013Y0009149D01*
X0033070Y0008419D01*
X0033522Y0007029D01*
X0033634Y0006874D02*
X0048515Y0006874D01*
X0047690Y0008472D02*
X0033066Y0008472D01*
X0033013Y0010071D02*
X0047028Y0010071D01*
X0046913Y0011669D02*
X0033013Y0011669D01*
X0033013Y0013268D02*
X0035029Y0013268D01*
X0033338Y0014866D02*
X0033013Y0014866D01*
X0044796Y0013268D02*
X0046913Y0013268D01*
X0046487Y0014866D02*
X0047352Y0014866D01*
X0047718Y0016465D02*
X0048014Y0016465D01*
X0048380Y0018063D02*
X0049295Y0018063D01*
X0048813Y0019662D02*
X0051189Y0019662D01*
X0048813Y0021260D02*
X0064669Y0021260D01*
X0064669Y0019716D02*
X0065122Y0018624D01*
X0065957Y0017788D01*
X0067049Y0017336D01*
X0074176Y0017336D01*
X0074307Y0017390D01*
X0076256Y0017390D01*
X0076434Y0017316D01*
X0079541Y0017316D01*
X0079874Y0017178D01*
X0081823Y0017178D01*
X0082156Y0017316D01*
X0085263Y0017316D01*
X0086145Y0017681D01*
X0086820Y0018357D01*
X0087186Y0019239D01*
X0087186Y0024918D01*
X0086820Y0025800D01*
X0086145Y0026475D01*
X0085263Y0026840D01*
X0083441Y0026840D01*
X0083283Y0026998D01*
X0081371Y0027790D01*
X0075813Y0027790D01*
X0075813Y0034924D01*
X0090021Y0049133D01*
X0090813Y0051044D01*
X0090813Y0068118D01*
X0091013Y0068601D01*
X0091013Y0075556D01*
X0090647Y0076438D01*
X0089972Y0077113D01*
X0089090Y0077478D01*
X0082135Y0077478D01*
X0081253Y0077113D01*
X0080578Y0076438D01*
X0080213Y0075556D01*
X0080213Y0068601D01*
X0080413Y0068118D01*
X0080413Y0054232D01*
X0068459Y0042278D01*
X0064736Y0042278D01*
X0062941Y0043190D01*
X0061641Y0044489D01*
X0061426Y0044578D01*
X0061641Y0044667D01*
X0063245Y0046271D01*
X0064113Y0048366D01*
X0064113Y0050633D01*
X0063245Y0052728D01*
X0061641Y0054332D01*
X0059546Y0055200D01*
X0057279Y0055200D01*
X0055184Y0054332D01*
X0054513Y0053661D01*
X0053841Y0054332D01*
X0051746Y0055200D01*
X0049479Y0055200D01*
X0047384Y0054332D01*
X0045780Y0052728D01*
X0044913Y0050633D01*
X0044913Y0048366D01*
X0045780Y0046271D01*
X0047384Y0044667D01*
X0048896Y0044041D01*
X0048808Y0044013D01*
X0048149Y0043677D01*
X0047551Y0043242D01*
X0047028Y0042719D01*
X0046593Y0042120D01*
X0046257Y0041461D01*
X0046028Y0040758D01*
X0045913Y0040027D01*
X0045913Y0039757D01*
X0050513Y0039757D01*
X0050513Y0039557D01*
X0050713Y0039557D01*
X0050713Y0034957D01*
X0050982Y0034957D01*
X0051713Y0035073D01*
X0052417Y0035301D01*
X0053076Y0035637D01*
X0053674Y0036072D01*
X0053805Y0036203D01*
X0055184Y0034825D01*
X0057279Y0033957D01*
X0058153Y0033957D01*
X0060399Y0032816D01*
X0060546Y0032670D01*
X0061316Y0032351D01*
X0062059Y0031973D01*
X0062266Y0031957D01*
X0062457Y0031878D01*
X0063291Y0031878D01*
X0064122Y0031814D01*
X0064319Y0031878D01*
X0065413Y0031878D01*
X0065413Y0026847D01*
X0065122Y0026556D01*
X0064669Y0025464D01*
X0064669Y0019716D01*
X0064692Y0019662D02*
X0060036Y0019662D01*
X0061930Y0018063D02*
X0065682Y0018063D01*
X0063212Y0016465D02*
X0095613Y0016465D01*
X0095613Y0018063D02*
X0086527Y0018063D01*
X0087186Y0019662D02*
X0095613Y0019662D01*
X0095613Y0021260D02*
X0087186Y0021260D01*
X0087186Y0022859D02*
X0095613Y0022859D01*
X0095613Y0024457D02*
X0087186Y0024457D01*
X0086564Y0026056D02*
X0095613Y0026056D01*
X0095613Y0027654D02*
X0081699Y0027654D01*
X0075813Y0029253D02*
X0095613Y0029253D01*
X0095613Y0030851D02*
X0075813Y0030851D01*
X0075813Y0032450D02*
X0095613Y0032450D01*
X0095613Y0034048D02*
X0075813Y0034048D01*
X0076535Y0035647D02*
X0095613Y0035647D01*
X0095613Y0037246D02*
X0078134Y0037246D01*
X0079732Y0038844D02*
X0095613Y0038844D01*
X0095613Y0040443D02*
X0081331Y0040443D01*
X0082929Y0042041D02*
X0095613Y0042041D01*
X0095613Y0043640D02*
X0084528Y0043640D01*
X0086126Y0045238D02*
X0095613Y0045238D01*
X0095613Y0046837D02*
X0087725Y0046837D01*
X0089323Y0048435D02*
X0095613Y0048435D01*
X0095613Y0050034D02*
X0090394Y0050034D01*
X0090813Y0051632D02*
X0095613Y0051632D01*
X0095613Y0053231D02*
X0090813Y0053231D01*
X0090813Y0054829D02*
X0095613Y0054829D01*
X0095613Y0056428D02*
X0090813Y0056428D01*
X0090813Y0058026D02*
X0095613Y0058026D01*
X0095613Y0059625D02*
X0090813Y0059625D01*
X0090813Y0061223D02*
X0095613Y0061223D01*
X0095613Y0062822D02*
X0090813Y0062822D01*
X0090813Y0064420D02*
X0095613Y0064420D01*
X0095613Y0066019D02*
X0090813Y0066019D01*
X0090813Y0067617D02*
X0095613Y0067617D01*
X0095613Y0069216D02*
X0091013Y0069216D01*
X0091013Y0070814D02*
X0095613Y0070814D01*
X0095613Y0072413D02*
X0091013Y0072413D01*
X0091013Y0074011D02*
X0095613Y0074011D01*
X0095613Y0075610D02*
X0090990Y0075610D01*
X0089742Y0077208D02*
X0095613Y0077208D01*
X0095613Y0078807D02*
X0064312Y0078807D01*
X0064312Y0077208D02*
X0081483Y0077208D01*
X0079733Y0075938D02*
X0079472Y0076199D01*
X0079153Y0076383D01*
X0078797Y0076478D01*
X0075813Y0076478D01*
X0075813Y0072278D01*
X0080013Y0072278D01*
X0080013Y0075263D01*
X0079917Y0075619D01*
X0079733Y0075938D01*
X0079920Y0075610D02*
X0080235Y0075610D01*
X0080213Y0074011D02*
X0080013Y0074011D01*
X0075813Y0074011D02*
X0075413Y0074011D01*
X0075413Y0075610D02*
X0075813Y0075610D01*
X0075413Y0076478D02*
X0072428Y0076478D01*
X0072072Y0076383D01*
X0071753Y0076199D01*
X0071492Y0075938D01*
X0071308Y0075619D01*
X0071213Y0075263D01*
X0071213Y0072278D01*
X0075413Y0072278D01*
X0075413Y0076478D01*
X0071306Y0075610D02*
X0064312Y0075610D01*
X0063758Y0074011D02*
X0071213Y0074011D01*
X0071213Y0072413D02*
X0063096Y0072413D01*
X0071213Y0071878D02*
X0071213Y0068894D01*
X0071308Y0068538D01*
X0071492Y0068219D01*
X0071753Y0067958D01*
X0072072Y0067774D01*
X0072428Y0067678D01*
X0075413Y0067678D01*
X0075413Y0071878D01*
X0075813Y0071878D01*
X0075813Y0072278D01*
X0075413Y0072278D01*
X0075413Y0071878D01*
X0071213Y0071878D01*
X0071213Y0070814D02*
X0061651Y0070814D01*
X0059363Y0069216D02*
X0071213Y0069216D01*
X0075413Y0069216D02*
X0075813Y0069216D01*
X0078797Y0067678D02*
X0079153Y0067774D01*
X0079472Y0067958D01*
X0079733Y0068219D01*
X0079917Y0068538D01*
X0080013Y0068894D01*
X0080013Y0071878D01*
X0075813Y0071878D01*
X0075813Y0067678D01*
X0078797Y0067678D01*
X0080413Y0067617D02*
X0048813Y0067617D01*
X0048610Y0066019D02*
X0080413Y0066019D01*
X0080413Y0064420D02*
X0047948Y0064420D01*
X0047043Y0062822D02*
X0080413Y0062822D01*
X0080413Y0061223D02*
X0045444Y0061223D01*
X0042278Y0059625D02*
X0080413Y0059625D01*
X0080413Y0058026D02*
X0033013Y0058026D01*
X0033013Y0059625D02*
X0037547Y0059625D01*
X0034381Y0061223D02*
X0033013Y0061223D01*
X0033013Y0056428D02*
X0080413Y0056428D01*
X0080413Y0054829D02*
X0060441Y0054829D01*
X0056385Y0054829D02*
X0052641Y0054829D01*
X0048585Y0054829D02*
X0033013Y0054829D01*
X0033013Y0053231D02*
X0046283Y0053231D01*
X0045326Y0051632D02*
X0033013Y0051632D01*
X0033013Y0050034D02*
X0044913Y0050034D01*
X0044913Y0048435D02*
X0033013Y0048435D01*
X0033013Y0046837D02*
X0045546Y0046837D01*
X0046813Y0045238D02*
X0033013Y0045238D01*
X0033013Y0043640D02*
X0048098Y0043640D01*
X0046552Y0042041D02*
X0033013Y0042041D01*
X0033013Y0040443D02*
X0045978Y0040443D01*
X0045913Y0039557D02*
X0045913Y0039287D01*
X0046028Y0038556D01*
X0046257Y0037853D01*
X0046593Y0037194D01*
X0047028Y0036595D01*
X0047551Y0036072D01*
X0048149Y0035637D01*
X0048808Y0035301D01*
X0049512Y0035073D01*
X0050243Y0034957D01*
X0050513Y0034957D01*
X0050513Y0039557D01*
X0045913Y0039557D01*
X0045983Y0038844D02*
X0033013Y0038844D01*
X0033013Y0037246D02*
X0046566Y0037246D01*
X0048136Y0035647D02*
X0033013Y0035647D01*
X0033013Y0034048D02*
X0057058Y0034048D01*
X0054362Y0035647D02*
X0053089Y0035647D01*
X0050713Y0035647D02*
X0050513Y0035647D01*
X0050513Y0037246D02*
X0050713Y0037246D01*
X0050713Y0038844D02*
X0050513Y0038844D01*
X0062491Y0043640D02*
X0069820Y0043640D01*
X0071418Y0045238D02*
X0062212Y0045238D01*
X0063479Y0046837D02*
X0073017Y0046837D01*
X0074616Y0048435D02*
X0064113Y0048435D01*
X0064113Y0050034D02*
X0076214Y0050034D01*
X0077813Y0051632D02*
X0063699Y0051632D01*
X0062743Y0053231D02*
X0079411Y0053231D01*
X0080013Y0069216D02*
X0080213Y0069216D01*
X0080213Y0070814D02*
X0080013Y0070814D01*
X0075813Y0070814D02*
X0075413Y0070814D01*
X0075413Y0072413D02*
X0075813Y0072413D01*
X0080013Y0072413D02*
X0080213Y0072413D01*
X0051862Y0069216D02*
X0048813Y0069216D01*
X0048495Y0070814D02*
X0049574Y0070814D01*
X0048129Y0072413D02*
X0047833Y0072413D01*
X0047467Y0074011D02*
X0046766Y0074011D01*
X0046913Y0075610D02*
X0045168Y0075610D01*
X0046913Y0077208D02*
X0033013Y0077208D01*
X0033013Y0075610D02*
X0034658Y0075610D01*
X0033059Y0074011D02*
X0033013Y0074011D01*
X0033013Y0078807D02*
X0046913Y0078807D01*
X0047575Y0080405D02*
X0033128Y0080405D01*
X0033979Y0082004D02*
X0048237Y0082004D01*
X0062988Y0082004D02*
X0095613Y0082004D01*
X0095613Y0080405D02*
X0063650Y0080405D01*
X0210613Y0080405D02*
X0225613Y0080405D01*
X0225613Y0078807D02*
X0210613Y0078807D01*
X0213214Y0077284D02*
X0213831Y0077696D01*
X0214515Y0077979D01*
X0215242Y0078124D01*
X0215613Y0078124D01*
X0215613Y0072000D01*
X0219375Y0072000D01*
X0219375Y0074732D01*
X0219230Y0075459D01*
X0218947Y0076144D01*
X0218535Y0076760D01*
X0218011Y0077284D01*
X0217395Y0077696D01*
X0216710Y0077979D01*
X0215983Y0078124D01*
X0215613Y0078124D01*
X0215613Y0072000D01*
X0215613Y0071999D01*
X0219375Y0071999D01*
X0219375Y0069267D01*
X0219230Y0068540D01*
X0218947Y0067855D01*
X0218535Y0067239D01*
X0218011Y0066715D01*
X0217395Y0066303D01*
X0216710Y0066020D01*
X0215983Y0065875D01*
X0215613Y0065875D01*
X0215613Y0071999D01*
X0215613Y0071999D01*
X0215613Y0065875D01*
X0215242Y0065875D01*
X0214515Y0066020D01*
X0213831Y0066303D01*
X0213214Y0066715D01*
X0212690Y0067239D01*
X0212279Y0067855D01*
X0211995Y0068540D01*
X0211850Y0069267D01*
X0211850Y0071999D01*
X0215612Y0071999D01*
X0215612Y0072000D01*
X0211850Y0072000D01*
X0211850Y0074732D01*
X0211995Y0075459D01*
X0212279Y0076144D01*
X0212690Y0076760D01*
X0213214Y0077284D01*
X0213139Y0077208D02*
X0210613Y0077208D01*
X0215613Y0077208D02*
X0215613Y0077208D01*
X0218087Y0077208D02*
X0225613Y0077208D01*
X0225613Y0075610D02*
X0219168Y0075610D01*
X0219375Y0074011D02*
X0225613Y0074011D01*
X0225613Y0072413D02*
X0219375Y0072413D01*
X0215613Y0072413D02*
X0215613Y0072413D01*
X0215613Y0072000D02*
X0215613Y0072000D01*
X0215613Y0070814D02*
X0215613Y0070814D01*
X0219375Y0070814D02*
X0225613Y0070814D01*
X0225613Y0069216D02*
X0219365Y0069216D01*
X0215613Y0069216D02*
X0215613Y0069216D01*
X0211861Y0069216D02*
X0210613Y0069216D01*
X0210613Y0070814D02*
X0211850Y0070814D01*
X0211850Y0072413D02*
X0210613Y0072413D01*
X0210613Y0074011D02*
X0211850Y0074011D01*
X0212057Y0075610D02*
X0210613Y0075610D01*
X0215613Y0075610D02*
X0215613Y0075610D01*
X0215613Y0074011D02*
X0215613Y0074011D01*
X0215613Y0067617D02*
X0215613Y0067617D01*
X0215613Y0066019D02*
X0215613Y0066019D01*
X0216705Y0066019D02*
X0225613Y0066019D01*
X0225613Y0067617D02*
X0218788Y0067617D01*
X0214520Y0066019D02*
X0210613Y0066019D01*
X0210613Y0067617D02*
X0212438Y0067617D01*
X0210613Y0064420D02*
X0225613Y0064420D01*
X0225613Y0062822D02*
X0210613Y0062822D01*
X0210613Y0061223D02*
X0225613Y0061223D01*
X0225613Y0059625D02*
X0210613Y0059625D01*
X0210613Y0058026D02*
X0225613Y0058026D01*
X0225613Y0056428D02*
X0210613Y0056428D01*
X0210613Y0054829D02*
X0225613Y0054829D01*
X0225613Y0053231D02*
X0210613Y0053231D01*
X0210613Y0051632D02*
X0513134Y0051632D01*
X0513134Y0052078D02*
X0508183Y0052078D01*
X0507830Y0051726D01*
X0503395Y0051726D01*
X0503043Y0052078D01*
X0498183Y0052078D01*
X0497830Y0051726D01*
X0493395Y0051726D01*
X0493043Y0052078D01*
X0468183Y0052078D01*
X0467830Y0051726D01*
X0463395Y0051726D01*
X0463043Y0052078D01*
X0458183Y0052078D01*
X0457830Y0051726D01*
X0453395Y0051726D01*
X0453043Y0052078D01*
X0428183Y0052078D01*
X0427830Y0051726D01*
X0423395Y0051726D01*
X0423043Y0052078D01*
X0418183Y0052078D01*
X0417830Y0051726D01*
X0413395Y0051726D01*
X0413043Y0052078D01*
X0388183Y0052078D01*
X0387830Y0051726D01*
X0383395Y0051726D01*
X0383043Y0052078D01*
X0378183Y0052078D01*
X0377830Y0051726D01*
X0373395Y0051726D01*
X0373043Y0052078D01*
X0348183Y0052078D01*
X0347830Y0051726D01*
X0343395Y0051726D01*
X0343043Y0052078D01*
X0338183Y0052078D01*
X0337830Y0051726D01*
X0333395Y0051726D01*
X0333043Y0052078D01*
X0308183Y0052078D01*
X0307830Y0051726D01*
X0303395Y0051726D01*
X0303043Y0052078D01*
X0298183Y0052078D01*
X0297830Y0051726D01*
X0293395Y0051726D01*
X0293043Y0052078D01*
X0268183Y0052078D01*
X0267830Y0051726D01*
X0263395Y0051726D01*
X0263043Y0052078D01*
X0258183Y0052078D01*
X0257830Y0051726D01*
X0253395Y0051726D01*
X0253043Y0052078D01*
X0225613Y0052078D01*
X0225613Y0082078D01*
X0210613Y0082078D01*
X0210613Y0032078D01*
X0253043Y0032078D01*
X0250260Y0034861D01*
X0250260Y0039295D01*
X0253395Y0042431D01*
X0257830Y0042431D01*
X0260613Y0039648D01*
X0263395Y0042431D01*
X0267830Y0042431D01*
X0270965Y0039295D01*
X0270965Y0034861D01*
X0268183Y0032078D01*
X0293043Y0032078D01*
X0290260Y0034861D01*
X0290260Y0039295D01*
X0293395Y0042431D01*
X0297830Y0042431D01*
X0300613Y0039648D01*
X0303395Y0042431D01*
X0307830Y0042431D01*
X0310965Y0039295D01*
X0310965Y0034861D01*
X0308183Y0032078D01*
X0333043Y0032078D01*
X0330260Y0034861D01*
X0330260Y0039295D01*
X0333395Y0042431D01*
X0337830Y0042431D01*
X0340613Y0039648D01*
X0343395Y0042431D01*
X0347830Y0042431D01*
X0350965Y0039295D01*
X0350965Y0034861D01*
X0348183Y0032078D01*
X0373043Y0032078D01*
X0370260Y0034861D01*
X0370260Y0039295D01*
X0373395Y0042431D01*
X0377830Y0042431D01*
X0380613Y0039648D01*
X0383395Y0042431D01*
X0387830Y0042431D01*
X0390965Y0039295D01*
X0390965Y0034861D01*
X0388183Y0032078D01*
X0413043Y0032078D01*
X0410260Y0034861D01*
X0410260Y0039295D01*
X0413395Y0042431D01*
X0417830Y0042431D01*
X0420613Y0039648D01*
X0423395Y0042431D01*
X0427830Y0042431D01*
X0430965Y0039295D01*
X0430965Y0034861D01*
X0428183Y0032078D01*
X0453043Y0032078D01*
X0450260Y0034861D01*
X0450260Y0039295D01*
X0453395Y0042431D01*
X0457830Y0042431D01*
X0460613Y0039648D01*
X0463395Y0042431D01*
X0467830Y0042431D01*
X0470965Y0039295D01*
X0470965Y0034861D01*
X0468183Y0032078D01*
X0493043Y0032078D01*
X0490260Y0034861D01*
X0490260Y0039295D01*
X0493395Y0042431D01*
X0497830Y0042431D01*
X0500613Y0039648D01*
X0503395Y0042431D01*
X0507830Y0042431D01*
X0510965Y0039295D01*
X0510965Y0034861D01*
X0508183Y0032078D01*
X0513134Y0032078D01*
X0513134Y0052078D01*
X0509965Y0048881D02*
X0507416Y0051431D01*
X0505797Y0051431D01*
X0505797Y0047263D01*
X0505428Y0047263D01*
X0505428Y0051431D01*
X0503810Y0051431D01*
X0501260Y0048881D01*
X0501260Y0047263D01*
X0505428Y0047263D01*
X0505428Y0046894D01*
X0501260Y0046894D01*
X0501260Y0045275D01*
X0503810Y0042726D01*
X0505428Y0042726D01*
X0505428Y0046894D01*
X0505797Y0046894D01*
X0505797Y0047263D01*
X0509965Y0047263D01*
X0509965Y0048881D01*
X0509965Y0048435D02*
X0513134Y0048435D01*
X0513134Y0046837D02*
X0509965Y0046837D01*
X0509965Y0046894D02*
X0505797Y0046894D01*
X0505797Y0042725D01*
X0507416Y0042726D01*
X0509965Y0045275D01*
X0509965Y0046894D01*
X0505797Y0046837D02*
X0505428Y0046837D01*
X0501260Y0046837D02*
X0499965Y0046837D01*
X0499965Y0046894D02*
X0495797Y0046894D01*
X0495797Y0047263D01*
X0495428Y0047263D01*
X0495428Y0051431D01*
X0493810Y0051431D01*
X0491260Y0048881D01*
X0491260Y0047263D01*
X0495428Y0047263D01*
X0495428Y0046894D01*
X0491260Y0046894D01*
X0491260Y0045275D01*
X0493810Y0042726D01*
X0495428Y0042726D01*
X0495428Y0046894D01*
X0495797Y0046894D01*
X0495797Y0042725D01*
X0497416Y0042726D01*
X0499965Y0045275D01*
X0499965Y0046894D01*
X0499965Y0047263D02*
X0495797Y0047263D01*
X0495797Y0051431D01*
X0497416Y0051431D01*
X0499965Y0048881D01*
X0499965Y0047263D01*
X0499965Y0048435D02*
X0501260Y0048435D01*
X0505428Y0048435D02*
X0505797Y0048435D01*
X0505797Y0050034D02*
X0505428Y0050034D01*
X0502412Y0050034D02*
X0498813Y0050034D01*
X0495797Y0050034D02*
X0495428Y0050034D01*
X0492412Y0050034D02*
X0468813Y0050034D01*
X0469965Y0048881D02*
X0467416Y0051431D01*
X0465797Y0051431D01*
X0465797Y0047263D01*
X0465428Y0047263D01*
X0465428Y0051431D01*
X0463810Y0051431D01*
X0461260Y0048881D01*
X0461260Y0047263D01*
X0465428Y0047263D01*
X0465428Y0046894D01*
X0461260Y0046894D01*
X0461260Y0045275D01*
X0463810Y0042726D01*
X0465428Y0042726D01*
X0465428Y0046894D01*
X0465797Y0046894D01*
X0465797Y0047263D01*
X0469965Y0047263D01*
X0469965Y0048881D01*
X0469965Y0048435D02*
X0491260Y0048435D01*
X0495428Y0048435D02*
X0495797Y0048435D01*
X0495797Y0046837D02*
X0495428Y0046837D01*
X0491260Y0046837D02*
X0469965Y0046837D01*
X0469965Y0046894D02*
X0465797Y0046894D01*
X0465797Y0042725D01*
X0467416Y0042726D01*
X0469965Y0045275D01*
X0469965Y0046894D01*
X0465797Y0046837D02*
X0465428Y0046837D01*
X0461260Y0046837D02*
X0459965Y0046837D01*
X0459965Y0046894D02*
X0455797Y0046894D01*
X0455797Y0047263D01*
X0455428Y0047263D01*
X0455428Y0051431D01*
X0453810Y0051431D01*
X0451260Y0048881D01*
X0451260Y0047263D01*
X0455428Y0047263D01*
X0455428Y0046894D01*
X0451260Y0046894D01*
X0451260Y0045275D01*
X0453810Y0042726D01*
X0455428Y0042726D01*
X0455428Y0046894D01*
X0455797Y0046894D01*
X0455797Y0042725D01*
X0457416Y0042726D01*
X0459965Y0045275D01*
X0459965Y0046894D01*
X0459965Y0047263D02*
X0459965Y0048881D01*
X0457416Y0051431D01*
X0455797Y0051431D01*
X0455797Y0047263D01*
X0459965Y0047263D01*
X0459965Y0048435D02*
X0461260Y0048435D01*
X0465428Y0048435D02*
X0465797Y0048435D01*
X0465797Y0050034D02*
X0465428Y0050034D01*
X0462412Y0050034D02*
X0458813Y0050034D01*
X0455797Y0050034D02*
X0455428Y0050034D01*
X0452412Y0050034D02*
X0428813Y0050034D01*
X0429965Y0048881D02*
X0427416Y0051431D01*
X0425797Y0051431D01*
X0425797Y0047263D01*
X0425428Y0047263D01*
X0425428Y0051431D01*
X0423810Y0051431D01*
X0421260Y0048881D01*
X0421260Y0047263D01*
X0425428Y0047263D01*
X0425428Y0046894D01*
X0421260Y0046894D01*
X0421260Y0045275D01*
X0423810Y0042726D01*
X0425428Y0042726D01*
X0425428Y0046894D01*
X0425797Y0046894D01*
X0425797Y0047263D01*
X0429965Y0047263D01*
X0429965Y0048881D01*
X0429965Y0048435D02*
X0451260Y0048435D01*
X0455428Y0048435D02*
X0455797Y0048435D01*
X0455797Y0046837D02*
X0455428Y0046837D01*
X0451260Y0046837D02*
X0429965Y0046837D01*
X0429965Y0046894D02*
X0425797Y0046894D01*
X0425797Y0042725D01*
X0427416Y0042726D01*
X0429965Y0045275D01*
X0429965Y0046894D01*
X0425797Y0046837D02*
X0425428Y0046837D01*
X0421260Y0046837D02*
X0419965Y0046837D01*
X0419965Y0046894D02*
X0415797Y0046894D01*
X0415797Y0047263D01*
X0415428Y0047263D01*
X0415428Y0051431D01*
X0413810Y0051431D01*
X0411260Y0048881D01*
X0411260Y0047263D01*
X0415428Y0047263D01*
X0415428Y0046894D01*
X0411260Y0046894D01*
X0411260Y0045275D01*
X0413810Y0042726D01*
X0415428Y0042726D01*
X0415428Y0046894D01*
X0415797Y0046894D01*
X0415797Y0042725D01*
X0417416Y0042726D01*
X0419965Y0045275D01*
X0419965Y0046894D01*
X0419965Y0047263D02*
X0415797Y0047263D01*
X0415797Y0051431D01*
X0417416Y0051431D01*
X0419965Y0048881D01*
X0419965Y0047263D01*
X0419965Y0048435D02*
X0421260Y0048435D01*
X0425428Y0048435D02*
X0425797Y0048435D01*
X0425797Y0050034D02*
X0425428Y0050034D01*
X0422412Y0050034D02*
X0418813Y0050034D01*
X0415797Y0050034D02*
X0415428Y0050034D01*
X0412412Y0050034D02*
X0388813Y0050034D01*
X0389965Y0048881D02*
X0387416Y0051431D01*
X0385797Y0051431D01*
X0385797Y0047263D01*
X0385428Y0047263D01*
X0385428Y0051431D01*
X0383810Y0051431D01*
X0381260Y0048881D01*
X0381260Y0047263D01*
X0385428Y0047263D01*
X0385428Y0046894D01*
X0381260Y0046894D01*
X0381260Y0045275D01*
X0383810Y0042726D01*
X0385428Y0042726D01*
X0385428Y0046894D01*
X0385797Y0046894D01*
X0385797Y0047263D01*
X0389965Y0047263D01*
X0389965Y0048881D01*
X0389965Y0048435D02*
X0411260Y0048435D01*
X0415428Y0048435D02*
X0415797Y0048435D01*
X0415797Y0046837D02*
X0415428Y0046837D01*
X0411260Y0046837D02*
X0389965Y0046837D01*
X0389965Y0046894D02*
X0385797Y0046894D01*
X0385797Y0042725D01*
X0387416Y0042726D01*
X0389965Y0045275D01*
X0389965Y0046894D01*
X0385797Y0046837D02*
X0385428Y0046837D01*
X0381260Y0046837D02*
X0379965Y0046837D01*
X0379965Y0046894D02*
X0375797Y0046894D01*
X0375797Y0047263D01*
X0375428Y0047263D01*
X0375428Y0051431D01*
X0373810Y0051431D01*
X0371260Y0048881D01*
X0371260Y0047263D01*
X0375428Y0047263D01*
X0375428Y0046894D01*
X0371260Y0046894D01*
X0371260Y0045275D01*
X0373810Y0042726D01*
X0375428Y0042726D01*
X0375428Y0046894D01*
X0375797Y0046894D01*
X0375797Y0042725D01*
X0377416Y0042726D01*
X0379965Y0045275D01*
X0379965Y0046894D01*
X0379965Y0047263D02*
X0375797Y0047263D01*
X0375797Y0051431D01*
X0377416Y0051431D01*
X0379965Y0048881D01*
X0379965Y0047263D01*
X0379965Y0048435D02*
X0381260Y0048435D01*
X0385428Y0048435D02*
X0385797Y0048435D01*
X0385797Y0050034D02*
X0385428Y0050034D01*
X0382412Y0050034D02*
X0378813Y0050034D01*
X0375797Y0050034D02*
X0375428Y0050034D01*
X0372412Y0050034D02*
X0348813Y0050034D01*
X0349965Y0048881D02*
X0347416Y0051431D01*
X0345797Y0051431D01*
X0345797Y0047263D01*
X0345428Y0047263D01*
X0345428Y0051431D01*
X0343810Y0051431D01*
X0341260Y0048881D01*
X0341260Y0047263D01*
X0345428Y0047263D01*
X0345428Y0046894D01*
X0341260Y0046894D01*
X0341260Y0045275D01*
X0343810Y0042726D01*
X0345428Y0042726D01*
X0345428Y0046894D01*
X0345797Y0046894D01*
X0345797Y0047263D01*
X0349965Y0047263D01*
X0349965Y0048881D01*
X0349965Y0048435D02*
X0371260Y0048435D01*
X0375428Y0048435D02*
X0375797Y0048435D01*
X0375797Y0046837D02*
X0375428Y0046837D01*
X0371260Y0046837D02*
X0349965Y0046837D01*
X0349965Y0046894D02*
X0345797Y0046894D01*
X0345797Y0042725D01*
X0347416Y0042726D01*
X0349965Y0045275D01*
X0349965Y0046894D01*
X0345797Y0046837D02*
X0345428Y0046837D01*
X0341260Y0046837D02*
X0339965Y0046837D01*
X0339965Y0046894D02*
X0335797Y0046894D01*
X0335797Y0047263D01*
X0335428Y0047263D01*
X0335428Y0051431D01*
X0333810Y0051431D01*
X0331260Y0048881D01*
X0331260Y0047263D01*
X0335428Y0047263D01*
X0335428Y0046894D01*
X0331260Y0046894D01*
X0331260Y0045275D01*
X0333810Y0042726D01*
X0335428Y0042726D01*
X0335428Y0046894D01*
X0335797Y0046894D01*
X0335797Y0042725D01*
X0337416Y0042726D01*
X0339965Y0045275D01*
X0339965Y0046894D01*
X0339965Y0047263D02*
X0335797Y0047263D01*
X0335797Y0051431D01*
X0337416Y0051431D01*
X0339965Y0048881D01*
X0339965Y0047263D01*
X0339965Y0048435D02*
X0341260Y0048435D01*
X0345428Y0048435D02*
X0345797Y0048435D01*
X0345797Y0050034D02*
X0345428Y0050034D01*
X0342412Y0050034D02*
X0338813Y0050034D01*
X0335797Y0050034D02*
X0335428Y0050034D01*
X0332412Y0050034D02*
X0308813Y0050034D01*
X0309965Y0048881D02*
X0307416Y0051431D01*
X0305797Y0051431D01*
X0305797Y0047263D01*
X0305428Y0047263D01*
X0305428Y0051431D01*
X0303810Y0051431D01*
X0301260Y0048881D01*
X0301260Y0047263D01*
X0305428Y0047263D01*
X0305428Y0046894D01*
X0301260Y0046894D01*
X0301260Y0045275D01*
X0303810Y0042726D01*
X0305428Y0042726D01*
X0305428Y0046894D01*
X0305797Y0046894D01*
X0305797Y0047263D01*
X0309965Y0047263D01*
X0309965Y0048881D01*
X0309965Y0048435D02*
X0331260Y0048435D01*
X0335428Y0048435D02*
X0335797Y0048435D01*
X0335797Y0046837D02*
X0335428Y0046837D01*
X0331260Y0046837D02*
X0309965Y0046837D01*
X0309965Y0046894D02*
X0305797Y0046894D01*
X0305797Y0042725D01*
X0307416Y0042726D01*
X0309965Y0045275D01*
X0309965Y0046894D01*
X0305797Y0046837D02*
X0305428Y0046837D01*
X0301260Y0046837D02*
X0299965Y0046837D01*
X0299965Y0046894D02*
X0295797Y0046894D01*
X0295797Y0047263D01*
X0295428Y0047263D01*
X0295428Y0051431D01*
X0293810Y0051431D01*
X0291260Y0048881D01*
X0291260Y0047263D01*
X0295428Y0047263D01*
X0295428Y0046894D01*
X0291260Y0046894D01*
X0291260Y0045275D01*
X0293810Y0042726D01*
X0295428Y0042726D01*
X0295428Y0046894D01*
X0295797Y0046894D01*
X0295797Y0042725D01*
X0297416Y0042726D01*
X0299965Y0045275D01*
X0299965Y0046894D01*
X0299965Y0047263D02*
X0299965Y0048881D01*
X0297416Y0051431D01*
X0295797Y0051431D01*
X0295797Y0047263D01*
X0299965Y0047263D01*
X0299965Y0048435D02*
X0301260Y0048435D01*
X0305428Y0048435D02*
X0305797Y0048435D01*
X0305797Y0050034D02*
X0305428Y0050034D01*
X0302412Y0050034D02*
X0298813Y0050034D01*
X0295797Y0050034D02*
X0295428Y0050034D01*
X0292412Y0050034D02*
X0268813Y0050034D01*
X0269965Y0048881D02*
X0267416Y0051431D01*
X0265797Y0051431D01*
X0265797Y0047263D01*
X0265428Y0047263D01*
X0265428Y0051431D01*
X0263810Y0051431D01*
X0261260Y0048881D01*
X0261260Y0047263D01*
X0265428Y0047263D01*
X0265428Y0046894D01*
X0261260Y0046894D01*
X0261260Y0045275D01*
X0263810Y0042726D01*
X0265428Y0042726D01*
X0265428Y0046894D01*
X0265797Y0046894D01*
X0265797Y0047263D01*
X0269965Y0047263D01*
X0269965Y0048881D01*
X0269965Y0048435D02*
X0291260Y0048435D01*
X0295428Y0048435D02*
X0295797Y0048435D01*
X0295797Y0046837D02*
X0295428Y0046837D01*
X0291260Y0046837D02*
X0269965Y0046837D01*
X0269965Y0046894D02*
X0265797Y0046894D01*
X0265797Y0042725D01*
X0267416Y0042726D01*
X0269965Y0045275D01*
X0269965Y0046894D01*
X0265797Y0046837D02*
X0265428Y0046837D01*
X0261260Y0046837D02*
X0259965Y0046837D01*
X0259965Y0046894D02*
X0255797Y0046894D01*
X0255797Y0047263D01*
X0255428Y0047263D01*
X0255428Y0051431D01*
X0253810Y0051431D01*
X0251260Y0048881D01*
X0251260Y0047263D01*
X0255428Y0047263D01*
X0255428Y0046894D01*
X0251260Y0046894D01*
X0251260Y0045275D01*
X0253810Y0042726D01*
X0255428Y0042726D01*
X0255428Y0046894D01*
X0255797Y0046894D01*
X0255797Y0042725D01*
X0257416Y0042726D01*
X0259965Y0045275D01*
X0259965Y0046894D01*
X0259965Y0047263D02*
X0255797Y0047263D01*
X0255797Y0051431D01*
X0257416Y0051431D01*
X0259965Y0048881D01*
X0259965Y0047263D01*
X0259965Y0048435D02*
X0261260Y0048435D01*
X0265428Y0048435D02*
X0265797Y0048435D01*
X0265797Y0050034D02*
X0265428Y0050034D01*
X0262412Y0050034D02*
X0258813Y0050034D01*
X0255797Y0050034D02*
X0255428Y0050034D01*
X0252412Y0050034D02*
X0239139Y0050034D01*
X0240540Y0049453D02*
X0237343Y0050777D01*
X0233882Y0050777D01*
X0230685Y0049453D01*
X0228238Y0047006D01*
X0226913Y0043809D01*
X0226913Y0040348D01*
X0228238Y0037151D01*
X0230685Y0034703D01*
X0233882Y0033379D01*
X0237343Y0033379D01*
X0240540Y0034703D01*
X0242987Y0037151D01*
X0244312Y0040348D01*
X0244312Y0043809D01*
X0242987Y0047006D01*
X0240540Y0049453D01*
X0241558Y0048435D02*
X0251260Y0048435D01*
X0255428Y0048435D02*
X0255797Y0048435D01*
X0255797Y0046837D02*
X0255428Y0046837D01*
X0251260Y0046837D02*
X0243058Y0046837D01*
X0243720Y0045238D02*
X0251297Y0045238D01*
X0255428Y0045238D02*
X0255797Y0045238D01*
X0259928Y0045238D02*
X0261297Y0045238D01*
X0265428Y0045238D02*
X0265797Y0045238D01*
X0269928Y0045238D02*
X0291297Y0045238D01*
X0295428Y0045238D02*
X0295797Y0045238D01*
X0299928Y0045238D02*
X0301297Y0045238D01*
X0305428Y0045238D02*
X0305797Y0045238D01*
X0309928Y0045238D02*
X0331297Y0045238D01*
X0335428Y0045238D02*
X0335797Y0045238D01*
X0339928Y0045238D02*
X0341297Y0045238D01*
X0345428Y0045238D02*
X0345797Y0045238D01*
X0349928Y0045238D02*
X0371297Y0045238D01*
X0375428Y0045238D02*
X0375797Y0045238D01*
X0379928Y0045238D02*
X0381297Y0045238D01*
X0385428Y0045238D02*
X0385797Y0045238D01*
X0389928Y0045238D02*
X0411297Y0045238D01*
X0415428Y0045238D02*
X0415797Y0045238D01*
X0419928Y0045238D02*
X0421297Y0045238D01*
X0425428Y0045238D02*
X0425797Y0045238D01*
X0429928Y0045238D02*
X0451297Y0045238D01*
X0455428Y0045238D02*
X0455797Y0045238D01*
X0459928Y0045238D02*
X0461297Y0045238D01*
X0465428Y0045238D02*
X0465797Y0045238D01*
X0469928Y0045238D02*
X0491297Y0045238D01*
X0495428Y0045238D02*
X0495797Y0045238D01*
X0499928Y0045238D02*
X0501297Y0045238D01*
X0505428Y0045238D02*
X0505797Y0045238D01*
X0509928Y0045238D02*
X0513134Y0045238D01*
X0513134Y0043640D02*
X0508330Y0043640D01*
X0508220Y0042041D02*
X0513134Y0042041D01*
X0513134Y0040443D02*
X0509818Y0040443D01*
X0510965Y0038844D02*
X0513134Y0038844D01*
X0513134Y0037246D02*
X0510965Y0037246D01*
X0510965Y0035647D02*
X0513134Y0035647D01*
X0513134Y0034048D02*
X0510153Y0034048D01*
X0508554Y0032450D02*
X0513134Y0032450D01*
X0492671Y0032450D02*
X0468554Y0032450D01*
X0470153Y0034048D02*
X0491072Y0034048D01*
X0490260Y0035647D02*
X0470965Y0035647D01*
X0470965Y0037246D02*
X0490260Y0037246D01*
X0490260Y0038844D02*
X0470965Y0038844D01*
X0469818Y0040443D02*
X0491407Y0040443D01*
X0493005Y0042041D02*
X0468220Y0042041D01*
X0468330Y0043640D02*
X0492896Y0043640D01*
X0495428Y0043640D02*
X0495797Y0043640D01*
X0498330Y0043640D02*
X0502896Y0043640D01*
X0503005Y0042041D02*
X0498220Y0042041D01*
X0505428Y0043640D02*
X0505797Y0043640D01*
X0501407Y0040443D02*
X0499818Y0040443D01*
X0465797Y0043640D02*
X0465428Y0043640D01*
X0462896Y0043640D02*
X0458330Y0043640D01*
X0458220Y0042041D02*
X0463005Y0042041D01*
X0455797Y0043640D02*
X0455428Y0043640D01*
X0452896Y0043640D02*
X0428330Y0043640D01*
X0428220Y0042041D02*
X0453005Y0042041D01*
X0451407Y0040443D02*
X0429818Y0040443D01*
X0430965Y0038844D02*
X0450260Y0038844D01*
X0450260Y0037246D02*
X0430965Y0037246D01*
X0430965Y0035647D02*
X0450260Y0035647D01*
X0451072Y0034048D02*
X0430153Y0034048D01*
X0428554Y0032450D02*
X0452671Y0032450D01*
X0450260Y0027078D02*
X0430965Y0027078D01*
X0430965Y0024861D01*
X0428183Y0022078D01*
X0430965Y0019295D01*
X0430965Y0014861D01*
X0427830Y0011726D01*
X0423395Y0011726D01*
X0420613Y0014508D01*
X0417830Y0011726D01*
X0413395Y0011726D01*
X0410260Y0014861D01*
X0410260Y0019295D01*
X0413043Y0022078D01*
X0410260Y0024861D01*
X0410260Y0027078D01*
X0390965Y0027078D01*
X0390965Y0024861D01*
X0388183Y0022078D01*
X0390965Y0019295D01*
X0390965Y0014861D01*
X0387830Y0011726D01*
X0383395Y0011726D01*
X0380613Y0014508D01*
X0377830Y0011726D01*
X0373395Y0011726D01*
X0370260Y0014861D01*
X0370260Y0019295D01*
X0373043Y0022078D01*
X0370260Y0024861D01*
X0370260Y0027078D01*
X0350965Y0027078D01*
X0350965Y0024861D01*
X0348183Y0022078D01*
X0350965Y0019295D01*
X0350965Y0014861D01*
X0347830Y0011726D01*
X0343395Y0011726D01*
X0340613Y0014508D01*
X0337830Y0011726D01*
X0333395Y0011726D01*
X0330260Y0014861D01*
X0330260Y0019295D01*
X0333043Y0022078D01*
X0330260Y0024861D01*
X0330260Y0027078D01*
X0310965Y0027078D01*
X0310965Y0024861D01*
X0308183Y0022078D01*
X0310965Y0019295D01*
X0310965Y0014861D01*
X0307830Y0011726D01*
X0303395Y0011726D01*
X0300613Y0014508D01*
X0297830Y0011726D01*
X0293395Y0011726D01*
X0290260Y0014861D01*
X0290260Y0019295D01*
X0293043Y0022078D01*
X0290260Y0024861D01*
X0290260Y0027078D01*
X0270965Y0027078D01*
X0270965Y0024861D01*
X0268183Y0022078D01*
X0270965Y0019295D01*
X0270965Y0014861D01*
X0267830Y0011726D01*
X0263395Y0011726D01*
X0260613Y0014508D01*
X0257830Y0011726D01*
X0253395Y0011726D01*
X0250260Y0014861D01*
X0250260Y0019295D01*
X0253043Y0022078D01*
X0250260Y0024861D01*
X0250260Y0027078D01*
X0210613Y0027078D01*
X0210613Y0004478D01*
X0252057Y0004478D01*
X0251260Y0005275D01*
X0210613Y0005275D01*
X0213831Y0006461D02*
X0214515Y0006177D01*
X0215242Y0006033D01*
X0215613Y0006033D01*
X0215983Y0006033D01*
X0216710Y0006177D01*
X0217395Y0006461D01*
X0218011Y0006873D01*
X0218535Y0007397D01*
X0218947Y0008013D01*
X0219230Y0008697D01*
X0219375Y0009424D01*
X0219375Y0012157D01*
X0219375Y0014890D01*
X0219230Y0015617D01*
X0218947Y0016301D01*
X0218535Y0016917D01*
X0218011Y0017441D01*
X0217395Y0017853D01*
X0216710Y0018137D01*
X0215983Y0018281D01*
X0215613Y0018281D01*
X0215613Y0012157D01*
X0219375Y0012157D01*
X0215613Y0012157D01*
X0215613Y0012157D01*
X0215613Y0012157D01*
X0215613Y0006033D01*
X0215613Y0012157D01*
X0215613Y0012157D01*
X0215613Y0018281D01*
X0215242Y0018281D01*
X0214515Y0018137D01*
X0213831Y0017853D01*
X0213214Y0017441D01*
X0212690Y0016917D01*
X0212279Y0016301D01*
X0211995Y0015617D01*
X0211850Y0014890D01*
X0211850Y0012157D01*
X0215612Y0012157D01*
X0211850Y0012157D01*
X0211850Y0009424D01*
X0211995Y0008697D01*
X0212279Y0008013D01*
X0212690Y0007397D01*
X0213214Y0006873D01*
X0213831Y0006461D01*
X0213213Y0006874D02*
X0210613Y0006874D01*
X0215613Y0006874D02*
X0215613Y0006874D01*
X0218012Y0006874D02*
X0251260Y0006874D01*
X0251260Y0006894D02*
X0251260Y0005275D01*
X0251260Y0006894D02*
X0255428Y0006894D01*
X0255428Y0007263D01*
X0255428Y0011431D01*
X0253810Y0011431D01*
X0251260Y0008881D01*
X0251260Y0007263D01*
X0255428Y0007263D01*
X0255797Y0007263D01*
X0255797Y0011431D01*
X0257416Y0011431D01*
X0259965Y0008881D01*
X0259965Y0007263D01*
X0255797Y0007263D01*
X0255797Y0006894D01*
X0259965Y0006894D01*
X0259965Y0005275D01*
X0261260Y0005275D01*
X0262057Y0004478D01*
X0259168Y0004478D01*
X0259965Y0005275D01*
X0261260Y0005275D02*
X0261260Y0006894D01*
X0265428Y0006894D01*
X0265428Y0007263D01*
X0265428Y0011431D01*
X0263810Y0011431D01*
X0261260Y0008881D01*
X0261260Y0007263D01*
X0265428Y0007263D01*
X0265797Y0007263D01*
X0265797Y0011431D01*
X0267416Y0011431D01*
X0269965Y0008881D01*
X0269965Y0007263D01*
X0265797Y0007263D01*
X0265797Y0006894D01*
X0269965Y0006894D01*
X0269965Y0005275D01*
X0291260Y0005275D01*
X0292057Y0004478D01*
X0269168Y0004478D01*
X0269965Y0005275D01*
X0269965Y0006874D02*
X0291260Y0006874D01*
X0291260Y0006894D02*
X0291260Y0005275D01*
X0299168Y0004478D02*
X0299965Y0005275D01*
X0301260Y0005275D01*
X0302057Y0004478D01*
X0299168Y0004478D01*
X0299965Y0005275D02*
X0299965Y0006894D01*
X0295797Y0006894D01*
X0295797Y0007263D01*
X0295428Y0007263D01*
X0295428Y0011431D01*
X0293810Y0011431D01*
X0291260Y0008881D01*
X0291260Y0007263D01*
X0295428Y0007263D01*
X0295428Y0006894D01*
X0291260Y0006894D01*
X0295797Y0007263D02*
X0295797Y0011431D01*
X0297416Y0011431D01*
X0299965Y0008881D01*
X0299965Y0007263D01*
X0295797Y0007263D01*
X0295797Y0008472D02*
X0295428Y0008472D01*
X0291260Y0008472D02*
X0269965Y0008472D01*
X0265797Y0008472D02*
X0265428Y0008472D01*
X0261260Y0008472D02*
X0259965Y0008472D01*
X0255797Y0008472D02*
X0255428Y0008472D01*
X0251260Y0008472D02*
X0219137Y0008472D01*
X0215613Y0008472D02*
X0215613Y0008472D01*
X0212088Y0008472D02*
X0210613Y0008472D01*
X0210613Y0010071D02*
X0211850Y0010071D01*
X0215613Y0010071D02*
X0215613Y0010071D01*
X0219375Y0010071D02*
X0252449Y0010071D01*
X0255428Y0010071D02*
X0255797Y0010071D01*
X0258776Y0010071D02*
X0262449Y0010071D01*
X0265428Y0010071D02*
X0265797Y0010071D01*
X0268776Y0010071D02*
X0292449Y0010071D01*
X0295428Y0010071D02*
X0295797Y0010071D01*
X0298776Y0010071D02*
X0302449Y0010071D01*
X0301260Y0008881D02*
X0303810Y0011431D01*
X0305428Y0011431D01*
X0305428Y0007263D01*
X0305797Y0007263D01*
X0305797Y0011431D01*
X0307416Y0011431D01*
X0309965Y0008881D01*
X0309965Y0007263D01*
X0305797Y0007263D01*
X0305797Y0006894D01*
X0309965Y0006894D01*
X0309965Y0005275D01*
X0331260Y0005275D01*
X0332057Y0004478D01*
X0309168Y0004478D01*
X0309965Y0005275D01*
X0301260Y0005275D02*
X0301260Y0006894D01*
X0305428Y0006894D01*
X0305428Y0007263D01*
X0301260Y0007263D01*
X0301260Y0008881D01*
X0301260Y0008472D02*
X0299965Y0008472D01*
X0299965Y0006874D02*
X0301260Y0006874D01*
X0309965Y0006874D02*
X0331260Y0006874D01*
X0331260Y0006894D02*
X0331260Y0005275D01*
X0339168Y0004478D02*
X0339965Y0005275D01*
X0341260Y0005275D01*
X0342057Y0004478D01*
X0339168Y0004478D01*
X0339965Y0005275D02*
X0339965Y0006894D01*
X0335797Y0006894D01*
X0335797Y0007263D01*
X0335428Y0007263D01*
X0335428Y0011431D01*
X0333810Y0011431D01*
X0331260Y0008881D01*
X0331260Y0007263D01*
X0335428Y0007263D01*
X0335428Y0006894D01*
X0331260Y0006894D01*
X0335797Y0007263D02*
X0335797Y0011431D01*
X0337416Y0011431D01*
X0339965Y0008881D01*
X0339965Y0007263D01*
X0335797Y0007263D01*
X0335797Y0008472D02*
X0335428Y0008472D01*
X0331260Y0008472D02*
X0309965Y0008472D01*
X0305797Y0008472D02*
X0305428Y0008472D01*
X0305428Y0010071D02*
X0305797Y0010071D01*
X0308776Y0010071D02*
X0332449Y0010071D01*
X0335428Y0010071D02*
X0335797Y0010071D01*
X0338776Y0010071D02*
X0342449Y0010071D01*
X0341260Y0008881D02*
X0343810Y0011431D01*
X0345428Y0011431D01*
X0345428Y0007263D01*
X0345797Y0007263D01*
X0345797Y0011431D01*
X0347416Y0011431D01*
X0349965Y0008881D01*
X0349965Y0007263D01*
X0345797Y0007263D01*
X0345797Y0006894D01*
X0349965Y0006894D01*
X0349965Y0005275D01*
X0371260Y0005275D01*
X0372057Y0004478D01*
X0349168Y0004478D01*
X0349965Y0005275D01*
X0349965Y0006874D02*
X0371260Y0006874D01*
X0371260Y0006894D02*
X0371260Y0005275D01*
X0371260Y0006894D02*
X0375428Y0006894D01*
X0375428Y0007263D01*
X0375428Y0011431D01*
X0373810Y0011431D01*
X0371260Y0008881D01*
X0371260Y0007263D01*
X0375428Y0007263D01*
X0375797Y0007263D01*
X0375797Y0011431D01*
X0377416Y0011431D01*
X0379965Y0008881D01*
X0379965Y0007263D01*
X0375797Y0007263D01*
X0375797Y0006894D01*
X0379965Y0006894D01*
X0379965Y0005275D01*
X0381260Y0005275D01*
X0382057Y0004478D01*
X0379168Y0004478D01*
X0379965Y0005275D01*
X0381260Y0005275D02*
X0381260Y0006894D01*
X0385428Y0006894D01*
X0385428Y0007263D01*
X0385428Y0011431D01*
X0383810Y0011431D01*
X0381260Y0008881D01*
X0381260Y0007263D01*
X0385428Y0007263D01*
X0385797Y0007263D01*
X0385797Y0011431D01*
X0387416Y0011431D01*
X0389965Y0008881D01*
X0389965Y0007263D01*
X0385797Y0007263D01*
X0385797Y0006894D01*
X0389965Y0006894D01*
X0389965Y0005275D01*
X0411260Y0005275D01*
X0412057Y0004478D01*
X0389168Y0004478D01*
X0389965Y0005275D01*
X0389965Y0006874D02*
X0411260Y0006874D01*
X0411260Y0006894D02*
X0411260Y0005275D01*
X0411260Y0006894D02*
X0415428Y0006894D01*
X0415428Y0007263D01*
X0415428Y0011431D01*
X0413810Y0011431D01*
X0411260Y0008881D01*
X0411260Y0007263D01*
X0415428Y0007263D01*
X0415797Y0007263D01*
X0415797Y0011431D01*
X0417416Y0011431D01*
X0419965Y0008881D01*
X0419965Y0007263D01*
X0415797Y0007263D01*
X0415797Y0006894D01*
X0419965Y0006894D01*
X0419965Y0005275D01*
X0421260Y0005275D01*
X0422057Y0004478D01*
X0419168Y0004478D01*
X0419965Y0005275D01*
X0421260Y0005275D02*
X0421260Y0006894D01*
X0425428Y0006894D01*
X0425428Y0007263D01*
X0425428Y0011431D01*
X0423810Y0011431D01*
X0421260Y0008881D01*
X0421260Y0007263D01*
X0425428Y0007263D01*
X0425797Y0007263D01*
X0425797Y0011431D01*
X0427416Y0011431D01*
X0429965Y0008881D01*
X0429965Y0007263D01*
X0425797Y0007263D01*
X0425797Y0006894D01*
X0429965Y0006894D01*
X0429965Y0005275D01*
X0451260Y0005275D01*
X0452057Y0004478D01*
X0429168Y0004478D01*
X0429965Y0005275D01*
X0429965Y0006874D02*
X0451260Y0006874D01*
X0451260Y0006894D02*
X0451260Y0005275D01*
X0459168Y0004478D02*
X0459965Y0005275D01*
X0461260Y0005275D01*
X0462057Y0004478D01*
X0459168Y0004478D01*
X0459965Y0005275D02*
X0459965Y0006894D01*
X0455797Y0006894D01*
X0455797Y0007263D01*
X0455428Y0007263D01*
X0455428Y0011431D01*
X0453810Y0011431D01*
X0451260Y0008881D01*
X0451260Y0007263D01*
X0455428Y0007263D01*
X0455428Y0006894D01*
X0451260Y0006894D01*
X0455797Y0007263D02*
X0455797Y0011431D01*
X0457416Y0011431D01*
X0459965Y0008881D01*
X0459965Y0007263D01*
X0455797Y0007263D01*
X0455797Y0008472D02*
X0455428Y0008472D01*
X0451260Y0008472D02*
X0429965Y0008472D01*
X0425797Y0008472D02*
X0425428Y0008472D01*
X0421260Y0008472D02*
X0419965Y0008472D01*
X0415797Y0008472D02*
X0415428Y0008472D01*
X0411260Y0008472D02*
X0389965Y0008472D01*
X0385797Y0008472D02*
X0385428Y0008472D01*
X0381260Y0008472D02*
X0379965Y0008472D01*
X0375797Y0008472D02*
X0375428Y0008472D01*
X0371260Y0008472D02*
X0349965Y0008472D01*
X0345797Y0008472D02*
X0345428Y0008472D01*
X0345428Y0007263D02*
X0341260Y0007263D01*
X0341260Y0008881D01*
X0341260Y0008472D02*
X0339965Y0008472D01*
X0345428Y0007263D02*
X0345428Y0006894D01*
X0341260Y0006894D01*
X0341260Y0005275D01*
X0341260Y0006874D02*
X0339965Y0006874D01*
X0345428Y0010071D02*
X0345797Y0010071D01*
X0348776Y0010071D02*
X0372449Y0010071D01*
X0375428Y0010071D02*
X0375797Y0010071D01*
X0378776Y0010071D02*
X0382449Y0010071D01*
X0385428Y0010071D02*
X0385797Y0010071D01*
X0388776Y0010071D02*
X0412449Y0010071D01*
X0415428Y0010071D02*
X0415797Y0010071D01*
X0418776Y0010071D02*
X0422449Y0010071D01*
X0425428Y0010071D02*
X0425797Y0010071D01*
X0428776Y0010071D02*
X0452449Y0010071D01*
X0455428Y0010071D02*
X0455797Y0010071D01*
X0458776Y0010071D02*
X0462449Y0010071D01*
X0461260Y0008881D02*
X0463810Y0011431D01*
X0465428Y0011431D01*
X0465428Y0007263D01*
X0465797Y0007263D01*
X0465797Y0011431D01*
X0467416Y0011431D01*
X0469965Y0008881D01*
X0469965Y0007263D01*
X0465797Y0007263D01*
X0465797Y0006894D01*
X0469965Y0006894D01*
X0469965Y0005275D01*
X0491260Y0005275D01*
X0492057Y0004478D01*
X0469168Y0004478D01*
X0469965Y0005275D01*
X0461260Y0005275D02*
X0461260Y0006894D01*
X0465428Y0006894D01*
X0465428Y0007263D01*
X0461260Y0007263D01*
X0461260Y0008881D01*
X0461260Y0008472D02*
X0459965Y0008472D01*
X0465428Y0008472D02*
X0465797Y0008472D01*
X0469965Y0008472D02*
X0491260Y0008472D01*
X0491260Y0008881D02*
X0491260Y0007263D01*
X0495428Y0007263D01*
X0495428Y0011431D01*
X0493810Y0011431D01*
X0491260Y0008881D01*
X0495428Y0008472D02*
X0495797Y0008472D01*
X0495797Y0007263D02*
X0495428Y0007263D01*
X0495428Y0006894D01*
X0491260Y0006894D01*
X0491260Y0005275D01*
X0491260Y0006874D02*
X0469965Y0006874D01*
X0461260Y0006874D02*
X0459965Y0006874D01*
X0465428Y0010071D02*
X0465797Y0010071D01*
X0468776Y0010071D02*
X0492449Y0010071D01*
X0495428Y0010071D02*
X0495797Y0010071D01*
X0495797Y0011431D02*
X0495797Y0007263D01*
X0499965Y0007263D01*
X0499965Y0008881D01*
X0497416Y0011431D01*
X0495797Y0011431D01*
X0497830Y0011726D02*
X0493395Y0011726D01*
X0490260Y0014861D01*
X0490260Y0019295D01*
X0493043Y0022078D01*
X0490260Y0024861D01*
X0490260Y0027078D01*
X0470965Y0027078D01*
X0470965Y0024861D01*
X0468183Y0022078D01*
X0470965Y0019295D01*
X0470965Y0014861D01*
X0467830Y0011726D01*
X0463395Y0011726D01*
X0460613Y0014508D01*
X0457830Y0011726D01*
X0453395Y0011726D01*
X0450260Y0014861D01*
X0450260Y0019295D01*
X0453043Y0022078D01*
X0450260Y0024861D01*
X0450260Y0027078D01*
X0450260Y0026056D02*
X0430965Y0026056D01*
X0430562Y0024457D02*
X0450663Y0024457D01*
X0452262Y0022859D02*
X0428963Y0022859D01*
X0429000Y0021260D02*
X0452225Y0021260D01*
X0450626Y0019662D02*
X0430599Y0019662D01*
X0430965Y0018063D02*
X0450260Y0018063D01*
X0450260Y0016465D02*
X0430965Y0016465D01*
X0430965Y0014866D02*
X0450260Y0014866D01*
X0451853Y0013268D02*
X0429372Y0013268D01*
X0421853Y0013268D02*
X0419372Y0013268D01*
X0411853Y0013268D02*
X0389372Y0013268D01*
X0390965Y0014866D02*
X0410260Y0014866D01*
X0410260Y0016465D02*
X0390965Y0016465D01*
X0390965Y0018063D02*
X0410260Y0018063D01*
X0410626Y0019662D02*
X0390599Y0019662D01*
X0389000Y0021260D02*
X0412225Y0021260D01*
X0412262Y0022859D02*
X0388963Y0022859D01*
X0390562Y0024457D02*
X0410663Y0024457D01*
X0410260Y0026056D02*
X0390965Y0026056D01*
X0372262Y0022859D02*
X0348963Y0022859D01*
X0349000Y0021260D02*
X0372225Y0021260D01*
X0370626Y0019662D02*
X0350599Y0019662D01*
X0350965Y0018063D02*
X0370260Y0018063D01*
X0370260Y0016465D02*
X0350965Y0016465D01*
X0350965Y0014866D02*
X0370260Y0014866D01*
X0371853Y0013268D02*
X0349372Y0013268D01*
X0341853Y0013268D02*
X0339372Y0013268D01*
X0331853Y0013268D02*
X0309372Y0013268D01*
X0301853Y0013268D02*
X0299372Y0013268D01*
X0291853Y0013268D02*
X0269372Y0013268D01*
X0270965Y0014866D02*
X0290260Y0014866D01*
X0290260Y0016465D02*
X0270965Y0016465D01*
X0270965Y0018063D02*
X0290260Y0018063D01*
X0290626Y0019662D02*
X0270599Y0019662D01*
X0269000Y0021260D02*
X0292225Y0021260D01*
X0292262Y0022859D02*
X0268963Y0022859D01*
X0270562Y0024457D02*
X0290663Y0024457D01*
X0290260Y0026056D02*
X0270965Y0026056D01*
X0252262Y0022859D02*
X0210613Y0022859D01*
X0210613Y0024457D02*
X0250663Y0024457D01*
X0250260Y0026056D02*
X0210613Y0026056D01*
X0210613Y0021260D02*
X0252225Y0021260D01*
X0250626Y0019662D02*
X0210613Y0019662D01*
X0210613Y0018063D02*
X0214338Y0018063D01*
X0215613Y0018063D02*
X0215613Y0018063D01*
X0216887Y0018063D02*
X0250260Y0018063D01*
X0250260Y0016465D02*
X0218837Y0016465D01*
X0215613Y0016465D02*
X0215613Y0016465D01*
X0212388Y0016465D02*
X0210613Y0016465D01*
X0210613Y0014866D02*
X0211850Y0014866D01*
X0215613Y0014866D02*
X0215613Y0014866D01*
X0219375Y0014866D02*
X0250260Y0014866D01*
X0251853Y0013268D02*
X0219375Y0013268D01*
X0219375Y0011669D02*
X0513134Y0011669D01*
X0513134Y0013268D02*
X0509372Y0013268D01*
X0507830Y0011726D02*
X0503395Y0011726D01*
X0500613Y0014508D01*
X0497830Y0011726D01*
X0499372Y0013268D02*
X0501853Y0013268D01*
X0491853Y0013268D02*
X0469372Y0013268D01*
X0461853Y0013268D02*
X0459372Y0013268D01*
X0470965Y0014866D02*
X0490260Y0014866D01*
X0490260Y0016465D02*
X0470965Y0016465D01*
X0470965Y0018063D02*
X0490260Y0018063D01*
X0490626Y0019662D02*
X0470599Y0019662D01*
X0469000Y0021260D02*
X0492225Y0021260D01*
X0492262Y0022859D02*
X0468963Y0022859D01*
X0470562Y0024457D02*
X0490663Y0024457D01*
X0490260Y0026056D02*
X0470965Y0026056D01*
X0508183Y0022078D02*
X0510965Y0024861D01*
X0510965Y0027078D01*
X0513134Y0027078D01*
X0513134Y0007000D01*
X0513085Y0006508D01*
X0512709Y0005599D01*
X0512013Y0004903D01*
X0511104Y0004527D01*
X0510613Y0004478D01*
X0509168Y0004478D01*
X0509965Y0005275D01*
X0512385Y0005275D01*
X0509965Y0005275D02*
X0509965Y0006894D01*
X0505797Y0006894D01*
X0505797Y0007263D01*
X0505428Y0007263D01*
X0505428Y0011431D01*
X0503810Y0011431D01*
X0501260Y0008881D01*
X0501260Y0007263D01*
X0505428Y0007263D01*
X0505428Y0006894D01*
X0501260Y0006894D01*
X0501260Y0005275D01*
X0499965Y0005275D01*
X0499965Y0006894D01*
X0495797Y0006894D01*
X0495797Y0007263D01*
X0499965Y0006874D02*
X0501260Y0006874D01*
X0505797Y0007263D02*
X0505797Y0011431D01*
X0507416Y0011431D01*
X0509965Y0008881D01*
X0509965Y0007263D01*
X0505797Y0007263D01*
X0505797Y0008472D02*
X0505428Y0008472D01*
X0501260Y0008472D02*
X0499965Y0008472D01*
X0498776Y0010071D02*
X0502449Y0010071D01*
X0505428Y0010071D02*
X0505797Y0010071D01*
X0508776Y0010071D02*
X0513134Y0010071D01*
X0513134Y0008472D02*
X0509965Y0008472D01*
X0509965Y0006874D02*
X0513121Y0006874D01*
X0502057Y0004478D02*
X0499168Y0004478D01*
X0499965Y0005275D01*
X0501260Y0005275D02*
X0502057Y0004478D01*
X0507830Y0011726D02*
X0510965Y0014861D01*
X0510965Y0019295D01*
X0508183Y0022078D01*
X0508963Y0022859D02*
X0513134Y0022859D01*
X0513134Y0024457D02*
X0510562Y0024457D01*
X0510965Y0026056D02*
X0513134Y0026056D01*
X0513134Y0021260D02*
X0509000Y0021260D01*
X0510599Y0019662D02*
X0513134Y0019662D01*
X0513134Y0018063D02*
X0510965Y0018063D01*
X0510965Y0016465D02*
X0513134Y0016465D01*
X0513134Y0014866D02*
X0510965Y0014866D01*
X0421260Y0006874D02*
X0419965Y0006874D01*
X0381853Y0013268D02*
X0379372Y0013268D01*
X0379965Y0006874D02*
X0381260Y0006874D01*
X0330260Y0014866D02*
X0310965Y0014866D01*
X0310965Y0016465D02*
X0330260Y0016465D01*
X0330260Y0018063D02*
X0310965Y0018063D01*
X0310599Y0019662D02*
X0330626Y0019662D01*
X0332225Y0021260D02*
X0309000Y0021260D01*
X0308963Y0022859D02*
X0332262Y0022859D01*
X0330663Y0024457D02*
X0310562Y0024457D01*
X0310965Y0026056D02*
X0330260Y0026056D01*
X0350562Y0024457D02*
X0370663Y0024457D01*
X0370260Y0026056D02*
X0350965Y0026056D01*
X0348554Y0032450D02*
X0372671Y0032450D01*
X0371072Y0034048D02*
X0350153Y0034048D01*
X0350965Y0035647D02*
X0370260Y0035647D01*
X0370260Y0037246D02*
X0350965Y0037246D01*
X0350965Y0038844D02*
X0370260Y0038844D01*
X0371407Y0040443D02*
X0349818Y0040443D01*
X0348220Y0042041D02*
X0373005Y0042041D01*
X0372896Y0043640D02*
X0348330Y0043640D01*
X0345797Y0043640D02*
X0345428Y0043640D01*
X0342896Y0043640D02*
X0338330Y0043640D01*
X0338220Y0042041D02*
X0343005Y0042041D01*
X0341407Y0040443D02*
X0339818Y0040443D01*
X0331407Y0040443D02*
X0309818Y0040443D01*
X0301407Y0040443D02*
X0299818Y0040443D01*
X0291407Y0040443D02*
X0269818Y0040443D01*
X0270965Y0038844D02*
X0290260Y0038844D01*
X0290260Y0037246D02*
X0270965Y0037246D01*
X0270965Y0035647D02*
X0290260Y0035647D01*
X0291072Y0034048D02*
X0270153Y0034048D01*
X0268554Y0032450D02*
X0292671Y0032450D01*
X0308554Y0032450D02*
X0332671Y0032450D01*
X0331072Y0034048D02*
X0310153Y0034048D01*
X0310965Y0035647D02*
X0330260Y0035647D01*
X0330260Y0037246D02*
X0310965Y0037246D01*
X0310965Y0038844D02*
X0330260Y0038844D01*
X0333005Y0042041D02*
X0308220Y0042041D01*
X0308330Y0043640D02*
X0332896Y0043640D01*
X0335428Y0043640D02*
X0335797Y0043640D01*
X0305797Y0043640D02*
X0305428Y0043640D01*
X0302896Y0043640D02*
X0298330Y0043640D01*
X0298220Y0042041D02*
X0303005Y0042041D01*
X0295797Y0043640D02*
X0295428Y0043640D01*
X0292896Y0043640D02*
X0268330Y0043640D01*
X0268220Y0042041D02*
X0293005Y0042041D01*
X0265797Y0043640D02*
X0265428Y0043640D01*
X0262896Y0043640D02*
X0258330Y0043640D01*
X0258220Y0042041D02*
X0263005Y0042041D01*
X0255797Y0043640D02*
X0255428Y0043640D01*
X0252896Y0043640D02*
X0244312Y0043640D01*
X0244312Y0042041D02*
X0253005Y0042041D01*
X0251407Y0040443D02*
X0244312Y0040443D01*
X0243689Y0038844D02*
X0250260Y0038844D01*
X0250260Y0037246D02*
X0243027Y0037246D01*
X0241484Y0035647D02*
X0250260Y0035647D01*
X0251072Y0034048D02*
X0238959Y0034048D01*
X0232266Y0034048D02*
X0210613Y0034048D01*
X0210613Y0032450D02*
X0252671Y0032450D01*
X0229741Y0035647D02*
X0210613Y0035647D01*
X0210613Y0037246D02*
X0228198Y0037246D01*
X0227536Y0038844D02*
X0210613Y0038844D01*
X0210613Y0040443D02*
X0226913Y0040443D01*
X0226913Y0042041D02*
X0210613Y0042041D01*
X0210613Y0043640D02*
X0226913Y0043640D01*
X0227505Y0045238D02*
X0210613Y0045238D01*
X0210613Y0046837D02*
X0228168Y0046837D01*
X0229667Y0048435D02*
X0210613Y0048435D01*
X0210613Y0050034D02*
X0232086Y0050034D01*
X0259818Y0040443D02*
X0261407Y0040443D01*
X0375428Y0043640D02*
X0375797Y0043640D01*
X0378330Y0043640D02*
X0382896Y0043640D01*
X0383005Y0042041D02*
X0378220Y0042041D01*
X0385428Y0043640D02*
X0385797Y0043640D01*
X0388330Y0043640D02*
X0412896Y0043640D01*
X0413005Y0042041D02*
X0388220Y0042041D01*
X0389818Y0040443D02*
X0411407Y0040443D01*
X0410260Y0038844D02*
X0390965Y0038844D01*
X0390965Y0037246D02*
X0410260Y0037246D01*
X0410260Y0035647D02*
X0390965Y0035647D01*
X0390153Y0034048D02*
X0411072Y0034048D01*
X0412671Y0032450D02*
X0388554Y0032450D01*
X0381407Y0040443D02*
X0379818Y0040443D01*
X0415428Y0043640D02*
X0415797Y0043640D01*
X0418330Y0043640D02*
X0422896Y0043640D01*
X0423005Y0042041D02*
X0418220Y0042041D01*
X0419818Y0040443D02*
X0421407Y0040443D01*
X0425428Y0043640D02*
X0425797Y0043640D01*
X0459818Y0040443D02*
X0461407Y0040443D01*
X0508813Y0050034D02*
X0513134Y0050034D01*
X0261853Y0013268D02*
X0259372Y0013268D01*
X0259965Y0006874D02*
X0261260Y0006874D01*
X0215613Y0011669D02*
X0215613Y0011669D01*
X0215612Y0012157D02*
X0215612Y0012157D01*
X0215613Y0013268D02*
X0215613Y0013268D01*
X0211850Y0013268D02*
X0210613Y0013268D01*
X0210613Y0011669D02*
X0211850Y0011669D01*
X0095613Y0011669D02*
X0086186Y0011669D01*
X0086186Y0011697D02*
X0081230Y0011697D01*
X0081230Y0008316D01*
X0084970Y0008316D01*
X0085326Y0008411D01*
X0085645Y0008596D01*
X0085906Y0008856D01*
X0086090Y0009176D01*
X0086186Y0009532D01*
X0086186Y0011697D01*
X0086186Y0012459D02*
X0086186Y0014625D01*
X0086090Y0014981D01*
X0085906Y0015300D01*
X0085645Y0015561D01*
X0085326Y0015745D01*
X0084970Y0015840D01*
X0081230Y0015840D01*
X0081230Y0012459D01*
X0086186Y0012459D01*
X0086186Y0013268D02*
X0095613Y0013268D01*
X0095613Y0014866D02*
X0086121Y0014866D01*
X0081230Y0014866D02*
X0080468Y0014866D01*
X0080468Y0015840D02*
X0076727Y0015840D01*
X0076371Y0015745D01*
X0076052Y0015561D01*
X0075792Y0015300D01*
X0075607Y0014981D01*
X0075512Y0014625D01*
X0075512Y0014274D01*
X0075422Y0014611D01*
X0075162Y0015060D01*
X0074795Y0015427D01*
X0074346Y0015686D01*
X0073845Y0015821D01*
X0071240Y0015821D01*
X0071240Y0012194D01*
X0069985Y0012194D01*
X0069985Y0010939D01*
X0065669Y0010939D01*
X0065669Y0009023D01*
X0065804Y0008522D01*
X0066063Y0008073D01*
X0066430Y0007706D01*
X0066879Y0007446D01*
X0067381Y0007312D01*
X0069985Y0007312D01*
X0069985Y0010939D01*
X0071240Y0010939D01*
X0071240Y0007312D01*
X0073845Y0007312D01*
X0074346Y0007446D01*
X0074795Y0007706D01*
X0075162Y0008073D01*
X0075422Y0008522D01*
X0075556Y0009023D01*
X0075556Y0009367D01*
X0075607Y0009176D01*
X0075792Y0008856D01*
X0076052Y0008596D01*
X0076371Y0008411D01*
X0076727Y0008316D01*
X0080468Y0008316D01*
X0080468Y0011697D01*
X0081230Y0011697D01*
X0081230Y0012459D01*
X0080468Y0012459D01*
X0080468Y0011697D01*
X0075512Y0011697D01*
X0075512Y0010939D01*
X0071240Y0010939D01*
X0071240Y0012194D01*
X0075556Y0012194D01*
X0075556Y0012459D01*
X0080468Y0012459D01*
X0080468Y0015840D01*
X0075577Y0014866D02*
X0075274Y0014866D01*
X0071240Y0014866D02*
X0069985Y0014866D01*
X0069985Y0015821D02*
X0067381Y0015821D01*
X0066879Y0015686D01*
X0066430Y0015427D01*
X0066063Y0015060D01*
X0065804Y0014611D01*
X0065669Y0014109D01*
X0065669Y0012194D01*
X0069985Y0012194D01*
X0069985Y0015821D01*
X0065951Y0014866D02*
X0063874Y0014866D01*
X0064312Y0013268D02*
X0065669Y0013268D01*
X0064312Y0011669D02*
X0069985Y0011669D01*
X0071240Y0011669D02*
X0075512Y0011669D01*
X0071240Y0013268D02*
X0069985Y0013268D01*
X0080468Y0013268D02*
X0081230Y0013268D01*
X0081230Y0011669D02*
X0080468Y0011669D01*
X0080468Y0010071D02*
X0081230Y0010071D01*
X0086186Y0010071D02*
X0095613Y0010071D01*
X0095613Y0008472D02*
X0085432Y0008472D01*
X0081230Y0008472D02*
X0080468Y0008472D01*
X0076266Y0008472D02*
X0075393Y0008472D01*
X0071240Y0008472D02*
X0069985Y0008472D01*
X0065832Y0008472D02*
X0063535Y0008472D01*
X0064197Y0010071D02*
X0065669Y0010071D01*
X0069985Y0010071D02*
X0071240Y0010071D01*
X0062711Y0006874D02*
X0095613Y0006874D01*
X0095613Y0005275D02*
X0061112Y0005275D01*
X0050113Y0005275D02*
X0035167Y0005275D01*
X0048725Y0022859D02*
X0064669Y0022859D01*
X0064669Y0024457D02*
X0048063Y0024457D01*
X0047321Y0026056D02*
X0064914Y0026056D01*
X0065413Y0027654D02*
X0045723Y0027654D01*
X0042951Y0029253D02*
X0065413Y0029253D01*
X0065413Y0030851D02*
X0033013Y0030851D01*
X0033013Y0029253D02*
X0036874Y0029253D01*
X0034102Y0027654D02*
X0033013Y0027654D01*
X0033013Y0032450D02*
X0061077Y0032450D01*
X0210613Y0082004D02*
X0225613Y0082004D01*
M02*
