G75*
%MOIN*%
%OFA0B0*%
%FSLAX25Y25*%
%IPPOS*%
%LPD*%
%AMOC8*
5,1,8,0,0,1.08239X$1,22.5*
%
%ADD10C,0.04724*%
%ADD11OC8,0.05906*%
%ADD12R,0.06000X0.06000*%
%ADD13C,0.06600*%
%ADD14C,0.13000*%
%ADD15C,0.01600*%
%ADD16R,0.03762X0.03762*%
%ADD17C,0.03600*%
D10*
X0125691Y0009795D02*
X0125691Y0014519D01*
X0135691Y0014519D02*
X0135691Y0009795D01*
X0195534Y0009795D02*
X0195534Y0014519D01*
X0215613Y0014519D02*
X0215613Y0009795D01*
X0215613Y0069637D02*
X0215613Y0074362D01*
X0195534Y0074362D02*
X0195534Y0069637D01*
X0135691Y0069637D02*
X0135691Y0074362D01*
X0125691Y0074362D02*
X0125691Y0069637D01*
D11*
X0255613Y0067078D03*
X0265613Y0067078D03*
X0295613Y0067078D03*
X0305613Y0067078D03*
X0335613Y0067078D03*
X0345613Y0067078D03*
X0375613Y0067078D03*
X0385613Y0067078D03*
X0415613Y0067078D03*
X0425613Y0067078D03*
X0455613Y0067078D03*
X0465613Y0067078D03*
X0495613Y0067078D03*
X0505613Y0067078D03*
X0505613Y0057078D03*
X0495613Y0057078D03*
X0465613Y0057078D03*
X0455613Y0057078D03*
X0425613Y0057078D03*
X0415613Y0057078D03*
X0385613Y0057078D03*
X0375613Y0057078D03*
X0345613Y0057078D03*
X0335613Y0057078D03*
X0305613Y0057078D03*
X0295613Y0057078D03*
X0265613Y0057078D03*
X0255613Y0057078D03*
X0255613Y0047078D03*
X0265613Y0047078D03*
X0295613Y0047078D03*
X0305613Y0047078D03*
X0335613Y0047078D03*
X0345613Y0047078D03*
X0375613Y0047078D03*
X0385613Y0047078D03*
X0415613Y0047078D03*
X0425613Y0047078D03*
X0455613Y0047078D03*
X0465613Y0047078D03*
X0495613Y0047078D03*
X0505613Y0047078D03*
X0505613Y0037078D03*
X0495613Y0037078D03*
X0465613Y0037078D03*
X0455613Y0037078D03*
X0425613Y0037078D03*
X0415613Y0037078D03*
X0385613Y0037078D03*
X0375613Y0037078D03*
X0345613Y0037078D03*
X0335613Y0037078D03*
X0305613Y0037078D03*
X0295613Y0037078D03*
X0265613Y0037078D03*
X0255613Y0037078D03*
X0255613Y0027078D03*
X0265613Y0027078D03*
X0295613Y0027078D03*
X0305613Y0027078D03*
X0335613Y0027078D03*
X0345613Y0027078D03*
X0375613Y0027078D03*
X0385613Y0027078D03*
X0415613Y0027078D03*
X0425613Y0027078D03*
X0455613Y0027078D03*
X0465613Y0027078D03*
X0495613Y0027078D03*
X0505613Y0027078D03*
X0505613Y0017078D03*
X0495613Y0017078D03*
X0465613Y0017078D03*
X0455613Y0017078D03*
X0425613Y0017078D03*
X0415613Y0017078D03*
X0385613Y0017078D03*
X0375613Y0017078D03*
X0345613Y0017078D03*
X0335613Y0017078D03*
X0305613Y0017078D03*
X0295613Y0017078D03*
X0265613Y0017078D03*
X0255613Y0017078D03*
X0255613Y0007078D03*
X0265613Y0007078D03*
X0295613Y0007078D03*
X0305613Y0007078D03*
X0335613Y0007078D03*
X0345613Y0007078D03*
X0375613Y0007078D03*
X0385613Y0007078D03*
X0415613Y0007078D03*
X0425613Y0007078D03*
X0455613Y0007078D03*
X0465613Y0007078D03*
X0495613Y0007078D03*
X0505613Y0007078D03*
X0505613Y0077078D03*
X0495613Y0077078D03*
X0465613Y0077078D03*
X0455613Y0077078D03*
X0425613Y0077078D03*
X0415613Y0077078D03*
X0385613Y0077078D03*
X0375613Y0077078D03*
X0345613Y0077078D03*
X0335613Y0077078D03*
X0305613Y0077078D03*
X0295613Y0077078D03*
X0265613Y0077078D03*
X0255613Y0077078D03*
D12*
X0085613Y0072078D03*
X0075613Y0072078D03*
D13*
X0058413Y0049500D03*
X0050613Y0049500D03*
X0050613Y0039657D03*
X0058413Y0039657D03*
D14*
X0039913Y0020878D03*
X0039913Y0068278D03*
D15*
X0105613Y0077078D02*
X0105613Y0004478D01*
X0250643Y0004478D01*
X0250260Y0004861D01*
X0250260Y0009295D01*
X0253395Y0012431D01*
X0257830Y0012431D01*
X0260613Y0009648D01*
X0263395Y0012431D01*
X0267830Y0012431D01*
X0270965Y0009295D01*
X0270965Y0004861D01*
X0270583Y0004478D01*
X0290643Y0004478D01*
X0290260Y0004861D01*
X0290260Y0009295D01*
X0293395Y0012431D01*
X0297830Y0012431D01*
X0300613Y0009648D01*
X0303395Y0012431D01*
X0307830Y0012431D01*
X0310965Y0009295D01*
X0310965Y0004861D01*
X0310583Y0004478D01*
X0330643Y0004478D01*
X0330260Y0004861D01*
X0330260Y0009295D01*
X0333395Y0012431D01*
X0337830Y0012431D01*
X0340613Y0009648D01*
X0343395Y0012431D01*
X0347830Y0012431D01*
X0350965Y0009295D01*
X0350965Y0004861D01*
X0350583Y0004478D01*
X0370643Y0004478D01*
X0370260Y0004861D01*
X0370260Y0009295D01*
X0373395Y0012431D01*
X0377830Y0012431D01*
X0380613Y0009648D01*
X0383395Y0012431D01*
X0387830Y0012431D01*
X0390965Y0009295D01*
X0390965Y0004861D01*
X0390583Y0004478D01*
X0410643Y0004478D01*
X0410260Y0004861D01*
X0410260Y0009295D01*
X0413395Y0012431D01*
X0417830Y0012431D01*
X0420613Y0009648D01*
X0423395Y0012431D01*
X0427830Y0012431D01*
X0430965Y0009295D01*
X0430965Y0004861D01*
X0430583Y0004478D01*
X0450643Y0004478D01*
X0450260Y0004861D01*
X0450260Y0009295D01*
X0453395Y0012431D01*
X0457830Y0012431D01*
X0460613Y0009648D01*
X0463395Y0012431D01*
X0467830Y0012431D01*
X0470965Y0009295D01*
X0470965Y0004861D01*
X0470583Y0004478D01*
X0490643Y0004478D01*
X0490260Y0004861D01*
X0490260Y0009295D01*
X0493395Y0012431D01*
X0497830Y0012431D01*
X0500613Y0009648D01*
X0503395Y0012431D01*
X0507830Y0012431D01*
X0510965Y0009295D01*
X0510965Y0004861D01*
X0510583Y0004478D01*
X0510613Y0004478D01*
X0511104Y0004527D01*
X0512013Y0004903D01*
X0512709Y0005599D01*
X0513085Y0006508D01*
X0513134Y0007000D01*
X0513134Y0047078D01*
X0510965Y0047078D01*
X0510965Y0044861D01*
X0507830Y0041726D01*
X0503395Y0041726D01*
X0500613Y0044508D01*
X0497830Y0041726D01*
X0493395Y0041726D01*
X0490260Y0044861D01*
X0490260Y0047078D01*
X0470965Y0047078D01*
X0470965Y0044861D01*
X0467830Y0041726D01*
X0463395Y0041726D01*
X0460613Y0044508D01*
X0457830Y0041726D01*
X0453395Y0041726D01*
X0450260Y0044861D01*
X0450260Y0047078D01*
X0430965Y0047078D01*
X0430965Y0044861D01*
X0427830Y0041726D01*
X0423395Y0041726D01*
X0420613Y0044508D01*
X0417830Y0041726D01*
X0413395Y0041726D01*
X0410260Y0044861D01*
X0410260Y0047078D01*
X0390965Y0047078D01*
X0390965Y0044861D01*
X0387830Y0041726D01*
X0383395Y0041726D01*
X0380613Y0044508D01*
X0377830Y0041726D01*
X0373395Y0041726D01*
X0370260Y0044861D01*
X0370260Y0047078D01*
X0350965Y0047078D01*
X0350965Y0044861D01*
X0347830Y0041726D01*
X0343395Y0041726D01*
X0340613Y0044508D01*
X0337830Y0041726D01*
X0333395Y0041726D01*
X0330260Y0044861D01*
X0330260Y0047078D01*
X0310965Y0047078D01*
X0310965Y0044861D01*
X0307830Y0041726D01*
X0303395Y0041726D01*
X0300613Y0044508D01*
X0297830Y0041726D01*
X0293395Y0041726D01*
X0290260Y0044861D01*
X0290260Y0047078D01*
X0270965Y0047078D01*
X0270965Y0044861D01*
X0267830Y0041726D01*
X0263395Y0041726D01*
X0260613Y0044508D01*
X0257830Y0041726D01*
X0253395Y0041726D01*
X0250260Y0044861D01*
X0250260Y0047078D01*
X0242915Y0047078D01*
X0242987Y0047006D01*
X0244312Y0043809D01*
X0244312Y0040348D01*
X0242987Y0037151D01*
X0240540Y0034703D01*
X0237343Y0033379D01*
X0233882Y0033379D01*
X0230685Y0034703D01*
X0228238Y0037151D01*
X0226913Y0040348D01*
X0226913Y0043809D01*
X0228238Y0047006D01*
X0228310Y0047078D01*
X0200613Y0047078D01*
X0200613Y0077078D01*
X0198138Y0077078D01*
X0198456Y0076760D01*
X0198868Y0076144D01*
X0199151Y0075459D01*
X0199296Y0074732D01*
X0199296Y0072000D01*
X0195534Y0072000D01*
X0195534Y0071999D01*
X0195534Y0065875D01*
X0195904Y0065875D01*
X0196631Y0066020D01*
X0197316Y0066303D01*
X0197932Y0066715D01*
X0198456Y0067239D01*
X0198868Y0067855D01*
X0199151Y0068540D01*
X0199296Y0069267D01*
X0199296Y0071999D01*
X0195534Y0071999D01*
X0195534Y0071999D01*
X0195534Y0065875D01*
X0195163Y0065875D01*
X0194436Y0066020D01*
X0193752Y0066303D01*
X0193136Y0066715D01*
X0192612Y0067239D01*
X0192200Y0067855D01*
X0191916Y0068540D01*
X0191772Y0069267D01*
X0191772Y0071999D01*
X0195534Y0071999D01*
X0195534Y0072000D01*
X0191772Y0072000D01*
X0191772Y0074732D01*
X0191916Y0075459D01*
X0192200Y0076144D01*
X0192612Y0076760D01*
X0192930Y0077078D01*
X0139710Y0077078D01*
X0139729Y0077059D01*
X0140454Y0075309D01*
X0140454Y0068690D01*
X0139729Y0066940D01*
X0138389Y0065600D01*
X0136639Y0064875D01*
X0134744Y0064875D01*
X0132994Y0065600D01*
X0131654Y0066940D01*
X0130929Y0068690D01*
X0130929Y0075309D01*
X0131654Y0077059D01*
X0131673Y0077078D01*
X0129710Y0077078D01*
X0129729Y0077059D01*
X0130454Y0075309D01*
X0130454Y0068690D01*
X0129729Y0066940D01*
X0128389Y0065600D01*
X0126639Y0064875D01*
X0124744Y0064875D01*
X0122994Y0065600D01*
X0121654Y0066940D01*
X0120929Y0068690D01*
X0120929Y0075309D01*
X0121654Y0077059D01*
X0121673Y0077078D01*
X0105613Y0077078D01*
X0105613Y0075610D02*
X0121054Y0075610D01*
X0120929Y0074011D02*
X0105613Y0074011D01*
X0105613Y0072413D02*
X0120929Y0072413D01*
X0120929Y0070814D02*
X0105613Y0070814D01*
X0105613Y0069216D02*
X0120929Y0069216D01*
X0121373Y0067617D02*
X0105613Y0067617D01*
X0105613Y0066019D02*
X0122575Y0066019D01*
X0128808Y0066019D02*
X0132575Y0066019D01*
X0131373Y0067617D02*
X0130009Y0067617D01*
X0138808Y0066019D02*
X0194441Y0066019D01*
X0195534Y0066019D02*
X0195534Y0066019D01*
X0196626Y0066019D02*
X0200613Y0066019D01*
X0200613Y0067617D02*
X0198709Y0067617D01*
X0195534Y0067617D02*
X0195534Y0067617D01*
X0192359Y0067617D02*
X0140009Y0067617D01*
X0140454Y0069216D02*
X0191782Y0069216D01*
X0195534Y0069216D02*
X0195534Y0069216D01*
X0199286Y0069216D02*
X0200613Y0069216D01*
X0205613Y0069216D02*
X0210850Y0069216D01*
X0210850Y0068690D02*
X0211575Y0066940D01*
X0212915Y0065600D01*
X0214665Y0064875D01*
X0216560Y0064875D01*
X0218310Y0065600D01*
X0219650Y0066940D01*
X0220375Y0068690D01*
X0220375Y0075309D01*
X0219650Y0077059D01*
X0218310Y0078399D01*
X0216560Y0079124D01*
X0214665Y0079124D01*
X0212915Y0078399D01*
X0211575Y0077059D01*
X0210850Y0075309D01*
X0210850Y0068690D01*
X0211295Y0067617D02*
X0205613Y0067617D01*
X0205613Y0066019D02*
X0212496Y0066019D01*
X0218729Y0066019D02*
X0250260Y0066019D01*
X0250260Y0067617D02*
X0219930Y0067617D01*
X0220375Y0069216D02*
X0250260Y0069216D01*
X0250260Y0069295D02*
X0250260Y0064861D01*
X0253395Y0061726D01*
X0257830Y0061726D01*
X0260613Y0064508D01*
X0263395Y0061726D01*
X0267830Y0061726D01*
X0270965Y0064861D01*
X0270965Y0069295D01*
X0268183Y0072078D01*
X0270965Y0074861D01*
X0270965Y0079295D01*
X0268183Y0082078D01*
X0293043Y0082078D01*
X0290260Y0079295D01*
X0290260Y0074861D01*
X0293043Y0072078D01*
X0290260Y0069295D01*
X0290260Y0064861D01*
X0293395Y0061726D01*
X0297830Y0061726D01*
X0300613Y0064508D01*
X0303395Y0061726D01*
X0307830Y0061726D01*
X0310965Y0064861D01*
X0310965Y0069295D01*
X0308183Y0072078D01*
X0310965Y0074861D01*
X0310965Y0079295D01*
X0308183Y0082078D01*
X0333043Y0082078D01*
X0330260Y0079295D01*
X0330260Y0074861D01*
X0333043Y0072078D01*
X0330260Y0069295D01*
X0330260Y0064861D01*
X0333395Y0061726D01*
X0337830Y0061726D01*
X0340613Y0064508D01*
X0343395Y0061726D01*
X0347830Y0061726D01*
X0350965Y0064861D01*
X0350965Y0069295D01*
X0348183Y0072078D01*
X0350965Y0074861D01*
X0350965Y0079295D01*
X0348183Y0082078D01*
X0373043Y0082078D01*
X0370260Y0079295D01*
X0370260Y0074861D01*
X0373043Y0072078D01*
X0370260Y0069295D01*
X0370260Y0064861D01*
X0373395Y0061726D01*
X0377830Y0061726D01*
X0380613Y0064508D01*
X0383395Y0061726D01*
X0387830Y0061726D01*
X0390965Y0064861D01*
X0390965Y0069295D01*
X0388183Y0072078D01*
X0390965Y0074861D01*
X0390965Y0079295D01*
X0388183Y0082078D01*
X0413043Y0082078D01*
X0410260Y0079295D01*
X0410260Y0074861D01*
X0413043Y0072078D01*
X0410260Y0069295D01*
X0410260Y0064861D01*
X0413395Y0061726D01*
X0417830Y0061726D01*
X0420613Y0064508D01*
X0423395Y0061726D01*
X0427830Y0061726D01*
X0430965Y0064861D01*
X0430965Y0069295D01*
X0428183Y0072078D01*
X0430965Y0074861D01*
X0430965Y0079295D01*
X0428183Y0082078D01*
X0453043Y0082078D01*
X0450260Y0079295D01*
X0450260Y0074861D01*
X0453043Y0072078D01*
X0450260Y0069295D01*
X0450260Y0064861D01*
X0453395Y0061726D01*
X0457830Y0061726D01*
X0460613Y0064508D01*
X0463395Y0061726D01*
X0467830Y0061726D01*
X0470965Y0064861D01*
X0470965Y0069295D01*
X0468183Y0072078D01*
X0470965Y0074861D01*
X0470965Y0079295D01*
X0468183Y0082078D01*
X0493043Y0082078D01*
X0490260Y0079295D01*
X0490260Y0074861D01*
X0493043Y0072078D01*
X0490260Y0069295D01*
X0490260Y0064861D01*
X0493395Y0061726D01*
X0497830Y0061726D01*
X0500613Y0064508D01*
X0503395Y0061726D01*
X0507830Y0061726D01*
X0510965Y0064861D01*
X0510965Y0069295D01*
X0508183Y0072078D01*
X0510965Y0074861D01*
X0510965Y0079295D01*
X0508183Y0082078D01*
X0513134Y0082078D01*
X0513134Y0082077D01*
X0513134Y0052078D01*
X0508183Y0052078D01*
X0507830Y0052431D01*
X0503395Y0052431D01*
X0503043Y0052078D01*
X0498183Y0052078D01*
X0497830Y0052431D01*
X0493395Y0052431D01*
X0493043Y0052078D01*
X0468183Y0052078D01*
X0467830Y0052431D01*
X0463395Y0052431D01*
X0463043Y0052078D01*
X0458183Y0052078D01*
X0457830Y0052431D01*
X0453395Y0052431D01*
X0453043Y0052078D01*
X0428183Y0052078D01*
X0427830Y0052431D01*
X0423395Y0052431D01*
X0423043Y0052078D01*
X0418183Y0052078D01*
X0417830Y0052431D01*
X0413395Y0052431D01*
X0413043Y0052078D01*
X0388183Y0052078D01*
X0387830Y0052431D01*
X0383395Y0052431D01*
X0383043Y0052078D01*
X0378183Y0052078D01*
X0377830Y0052431D01*
X0373395Y0052431D01*
X0373043Y0052078D01*
X0348183Y0052078D01*
X0347830Y0052431D01*
X0343395Y0052431D01*
X0343043Y0052078D01*
X0338183Y0052078D01*
X0337830Y0052431D01*
X0333395Y0052431D01*
X0333043Y0052078D01*
X0308183Y0052078D01*
X0307830Y0052431D01*
X0303395Y0052431D01*
X0303043Y0052078D01*
X0298183Y0052078D01*
X0297830Y0052431D01*
X0293395Y0052431D01*
X0293043Y0052078D01*
X0268183Y0052078D01*
X0267830Y0052431D01*
X0263395Y0052431D01*
X0263043Y0052078D01*
X0258183Y0052078D01*
X0257830Y0052431D01*
X0253395Y0052431D01*
X0253043Y0052078D01*
X0205613Y0052078D01*
X0205613Y0082078D01*
X0253043Y0082078D01*
X0250260Y0079295D01*
X0250260Y0074861D01*
X0253043Y0072078D01*
X0250260Y0069295D01*
X0251779Y0070814D02*
X0220375Y0070814D01*
X0220375Y0072413D02*
X0252708Y0072413D01*
X0251110Y0074011D02*
X0220375Y0074011D01*
X0220250Y0075610D02*
X0250260Y0075610D01*
X0250260Y0077208D02*
X0219501Y0077208D01*
X0217325Y0078807D02*
X0250260Y0078807D01*
X0251370Y0080405D02*
X0205613Y0080405D01*
X0205613Y0078807D02*
X0213900Y0078807D01*
X0211724Y0077208D02*
X0205613Y0077208D01*
X0205613Y0075610D02*
X0210975Y0075610D01*
X0210850Y0074011D02*
X0205613Y0074011D01*
X0200613Y0074011D02*
X0199296Y0074011D01*
X0199089Y0075610D02*
X0200613Y0075610D01*
X0191979Y0075610D02*
X0140329Y0075610D01*
X0140454Y0074011D02*
X0191772Y0074011D01*
X0191772Y0072413D02*
X0140454Y0072413D01*
X0140454Y0070814D02*
X0191772Y0070814D01*
X0195534Y0070814D02*
X0195534Y0070814D01*
X0199296Y0070814D02*
X0200613Y0070814D01*
X0205613Y0070814D02*
X0210850Y0070814D01*
X0210850Y0072413D02*
X0205613Y0072413D01*
X0200613Y0072413D02*
X0199296Y0072413D01*
X0200613Y0064420D02*
X0105613Y0064420D01*
X0105613Y0062822D02*
X0200613Y0062822D01*
X0205613Y0062822D02*
X0252299Y0062822D01*
X0253810Y0061431D02*
X0251260Y0058881D01*
X0251260Y0057263D01*
X0255428Y0057263D01*
X0255428Y0061431D01*
X0253810Y0061431D01*
X0253602Y0061223D02*
X0205613Y0061223D01*
X0200613Y0061223D02*
X0105613Y0061223D01*
X0105613Y0059625D02*
X0200613Y0059625D01*
X0200613Y0058026D02*
X0105613Y0058026D01*
X0105613Y0056428D02*
X0200613Y0056428D01*
X0205613Y0056428D02*
X0251260Y0056428D01*
X0251260Y0056894D02*
X0251260Y0055275D01*
X0253810Y0052726D01*
X0255428Y0052726D01*
X0255428Y0056894D01*
X0251260Y0056894D01*
X0255428Y0056894D02*
X0255428Y0057263D01*
X0255797Y0057263D01*
X0255797Y0061431D01*
X0257416Y0061431D01*
X0259965Y0058881D01*
X0259965Y0057263D01*
X0255797Y0057263D01*
X0255797Y0056894D01*
X0259965Y0056894D01*
X0259965Y0055275D01*
X0257416Y0052726D01*
X0255797Y0052725D01*
X0255797Y0056894D01*
X0255428Y0056894D01*
X0255428Y0056428D02*
X0255797Y0056428D01*
X0259965Y0056428D02*
X0261260Y0056428D01*
X0261260Y0056894D02*
X0261260Y0055275D01*
X0263810Y0052726D01*
X0265428Y0052726D01*
X0265428Y0056894D01*
X0261260Y0056894D01*
X0261260Y0057263D02*
X0265428Y0057263D01*
X0265428Y0061431D01*
X0263810Y0061431D01*
X0261260Y0058881D01*
X0261260Y0057263D01*
X0261260Y0058026D02*
X0259965Y0058026D01*
X0259222Y0059625D02*
X0262003Y0059625D01*
X0265428Y0059625D02*
X0265797Y0059625D01*
X0265797Y0058026D02*
X0265428Y0058026D01*
X0265428Y0057263D02*
X0265797Y0057263D01*
X0265797Y0061431D01*
X0267416Y0061431D01*
X0269965Y0058881D01*
X0269965Y0057263D01*
X0265797Y0057263D01*
X0265797Y0056894D01*
X0269965Y0056894D01*
X0269965Y0055275D01*
X0267416Y0052726D01*
X0265797Y0052725D01*
X0265797Y0056894D01*
X0265428Y0056894D01*
X0265428Y0057263D01*
X0265428Y0056428D02*
X0265797Y0056428D01*
X0269965Y0056428D02*
X0291260Y0056428D01*
X0291260Y0056894D02*
X0291260Y0055275D01*
X0293810Y0052726D01*
X0295428Y0052726D01*
X0295428Y0056894D01*
X0291260Y0056894D01*
X0291260Y0057263D02*
X0295428Y0057263D01*
X0295428Y0061431D01*
X0293810Y0061431D01*
X0291260Y0058881D01*
X0291260Y0057263D01*
X0291260Y0058026D02*
X0269965Y0058026D01*
X0269222Y0059625D02*
X0292003Y0059625D01*
X0295428Y0059625D02*
X0295797Y0059625D01*
X0295797Y0058026D02*
X0295428Y0058026D01*
X0295428Y0057263D02*
X0295797Y0057263D01*
X0295797Y0061431D01*
X0297416Y0061431D01*
X0299965Y0058881D01*
X0299965Y0057263D01*
X0295797Y0057263D01*
X0295797Y0056894D01*
X0299965Y0056894D01*
X0299965Y0055275D01*
X0297416Y0052726D01*
X0295797Y0052725D01*
X0295797Y0056894D01*
X0295428Y0056894D01*
X0295428Y0057263D01*
X0295428Y0056428D02*
X0295797Y0056428D01*
X0299965Y0056428D02*
X0301260Y0056428D01*
X0301260Y0056894D02*
X0301260Y0055275D01*
X0303810Y0052726D01*
X0305428Y0052726D01*
X0305428Y0056894D01*
X0301260Y0056894D01*
X0301260Y0057263D02*
X0305428Y0057263D01*
X0305428Y0061431D01*
X0303810Y0061431D01*
X0301260Y0058881D01*
X0301260Y0057263D01*
X0301260Y0058026D02*
X0299965Y0058026D01*
X0299222Y0059625D02*
X0302003Y0059625D01*
X0305428Y0059625D02*
X0305797Y0059625D01*
X0305797Y0058026D02*
X0305428Y0058026D01*
X0305428Y0057263D02*
X0305797Y0057263D01*
X0305797Y0061431D01*
X0307416Y0061431D01*
X0309965Y0058881D01*
X0309965Y0057263D01*
X0305797Y0057263D01*
X0305797Y0056894D01*
X0309965Y0056894D01*
X0309965Y0055275D01*
X0307416Y0052726D01*
X0305797Y0052725D01*
X0305797Y0056894D01*
X0305428Y0056894D01*
X0305428Y0057263D01*
X0305428Y0056428D02*
X0305797Y0056428D01*
X0309965Y0056428D02*
X0331260Y0056428D01*
X0331260Y0056894D02*
X0331260Y0055275D01*
X0333810Y0052726D01*
X0335428Y0052726D01*
X0335428Y0056894D01*
X0331260Y0056894D01*
X0331260Y0057263D02*
X0335428Y0057263D01*
X0335428Y0061431D01*
X0333810Y0061431D01*
X0331260Y0058881D01*
X0331260Y0057263D01*
X0331260Y0058026D02*
X0309965Y0058026D01*
X0309222Y0059625D02*
X0332003Y0059625D01*
X0335428Y0059625D02*
X0335797Y0059625D01*
X0335797Y0058026D02*
X0335428Y0058026D01*
X0335428Y0057263D02*
X0335797Y0057263D01*
X0335797Y0061431D01*
X0337416Y0061431D01*
X0339965Y0058881D01*
X0339965Y0057263D01*
X0335797Y0057263D01*
X0335797Y0056894D01*
X0339965Y0056894D01*
X0339965Y0055275D01*
X0337416Y0052726D01*
X0335797Y0052725D01*
X0335797Y0056894D01*
X0335428Y0056894D01*
X0335428Y0057263D01*
X0335428Y0056428D02*
X0335797Y0056428D01*
X0339965Y0056428D02*
X0341260Y0056428D01*
X0341260Y0056894D02*
X0341260Y0055275D01*
X0343810Y0052726D01*
X0345428Y0052726D01*
X0345428Y0056894D01*
X0341260Y0056894D01*
X0341260Y0057263D02*
X0345428Y0057263D01*
X0345428Y0061431D01*
X0343810Y0061431D01*
X0341260Y0058881D01*
X0341260Y0057263D01*
X0341260Y0058026D02*
X0339965Y0058026D01*
X0339222Y0059625D02*
X0342003Y0059625D01*
X0345428Y0059625D02*
X0345797Y0059625D01*
X0345797Y0058026D02*
X0345428Y0058026D01*
X0345428Y0057263D02*
X0345797Y0057263D01*
X0345797Y0061431D01*
X0347416Y0061431D01*
X0349965Y0058881D01*
X0349965Y0057263D01*
X0345797Y0057263D01*
X0345797Y0056894D01*
X0349965Y0056894D01*
X0349965Y0055275D01*
X0347416Y0052726D01*
X0345797Y0052725D01*
X0345797Y0056894D01*
X0345428Y0056894D01*
X0345428Y0057263D01*
X0345428Y0056428D02*
X0345797Y0056428D01*
X0349965Y0056428D02*
X0371260Y0056428D01*
X0371260Y0056894D02*
X0371260Y0055275D01*
X0373810Y0052726D01*
X0375428Y0052726D01*
X0375428Y0056894D01*
X0371260Y0056894D01*
X0371260Y0057263D02*
X0375428Y0057263D01*
X0375428Y0061431D01*
X0373810Y0061431D01*
X0371260Y0058881D01*
X0371260Y0057263D01*
X0371260Y0058026D02*
X0349965Y0058026D01*
X0349222Y0059625D02*
X0372003Y0059625D01*
X0375428Y0059625D02*
X0375797Y0059625D01*
X0375797Y0058026D02*
X0375428Y0058026D01*
X0375428Y0057263D02*
X0375797Y0057263D01*
X0375797Y0061431D01*
X0377416Y0061431D01*
X0379965Y0058881D01*
X0379965Y0057263D01*
X0375797Y0057263D01*
X0375797Y0056894D01*
X0379965Y0056894D01*
X0379965Y0055275D01*
X0377416Y0052726D01*
X0375797Y0052725D01*
X0375797Y0056894D01*
X0375428Y0056894D01*
X0375428Y0057263D01*
X0375428Y0056428D02*
X0375797Y0056428D01*
X0379965Y0056428D02*
X0381260Y0056428D01*
X0381260Y0056894D02*
X0381260Y0055275D01*
X0383810Y0052726D01*
X0385428Y0052726D01*
X0385428Y0056894D01*
X0381260Y0056894D01*
X0381260Y0057263D02*
X0385428Y0057263D01*
X0385428Y0061431D01*
X0383810Y0061431D01*
X0381260Y0058881D01*
X0381260Y0057263D01*
X0381260Y0058026D02*
X0379965Y0058026D01*
X0379222Y0059625D02*
X0382003Y0059625D01*
X0385428Y0059625D02*
X0385797Y0059625D01*
X0385797Y0058026D02*
X0385428Y0058026D01*
X0385428Y0057263D02*
X0385797Y0057263D01*
X0385797Y0061431D01*
X0387416Y0061431D01*
X0389965Y0058881D01*
X0389965Y0057263D01*
X0385797Y0057263D01*
X0385797Y0056894D01*
X0389965Y0056894D01*
X0389965Y0055275D01*
X0387416Y0052726D01*
X0385797Y0052725D01*
X0385797Y0056894D01*
X0385428Y0056894D01*
X0385428Y0057263D01*
X0385428Y0056428D02*
X0385797Y0056428D01*
X0389965Y0056428D02*
X0411260Y0056428D01*
X0411260Y0056894D02*
X0411260Y0055275D01*
X0413810Y0052726D01*
X0415428Y0052726D01*
X0415428Y0056894D01*
X0411260Y0056894D01*
X0411260Y0057263D02*
X0415428Y0057263D01*
X0415428Y0061431D01*
X0413810Y0061431D01*
X0411260Y0058881D01*
X0411260Y0057263D01*
X0411260Y0058026D02*
X0389965Y0058026D01*
X0389222Y0059625D02*
X0412003Y0059625D01*
X0415428Y0059625D02*
X0415797Y0059625D01*
X0415797Y0058026D02*
X0415428Y0058026D01*
X0415428Y0057263D02*
X0415797Y0057263D01*
X0415797Y0061431D01*
X0417416Y0061431D01*
X0419965Y0058881D01*
X0419965Y0057263D01*
X0415797Y0057263D01*
X0415797Y0056894D01*
X0419965Y0056894D01*
X0419965Y0055275D01*
X0417416Y0052726D01*
X0415797Y0052725D01*
X0415797Y0056894D01*
X0415428Y0056894D01*
X0415428Y0057263D01*
X0415428Y0056428D02*
X0415797Y0056428D01*
X0419965Y0056428D02*
X0421260Y0056428D01*
X0421260Y0056894D02*
X0421260Y0055275D01*
X0423810Y0052726D01*
X0425428Y0052726D01*
X0425428Y0056894D01*
X0421260Y0056894D01*
X0421260Y0057263D02*
X0425428Y0057263D01*
X0425428Y0061431D01*
X0423810Y0061431D01*
X0421260Y0058881D01*
X0421260Y0057263D01*
X0421260Y0058026D02*
X0419965Y0058026D01*
X0419222Y0059625D02*
X0422003Y0059625D01*
X0425428Y0059625D02*
X0425797Y0059625D01*
X0425797Y0058026D02*
X0425428Y0058026D01*
X0425428Y0057263D02*
X0425797Y0057263D01*
X0425797Y0061431D01*
X0427416Y0061431D01*
X0429965Y0058881D01*
X0429965Y0057263D01*
X0425797Y0057263D01*
X0425797Y0056894D01*
X0429965Y0056894D01*
X0429965Y0055275D01*
X0427416Y0052726D01*
X0425797Y0052725D01*
X0425797Y0056894D01*
X0425428Y0056894D01*
X0425428Y0057263D01*
X0425428Y0056428D02*
X0425797Y0056428D01*
X0429965Y0056428D02*
X0451260Y0056428D01*
X0451260Y0056894D02*
X0451260Y0055275D01*
X0453810Y0052726D01*
X0455428Y0052726D01*
X0455428Y0056894D01*
X0451260Y0056894D01*
X0451260Y0057263D02*
X0455428Y0057263D01*
X0455428Y0061431D01*
X0453810Y0061431D01*
X0451260Y0058881D01*
X0451260Y0057263D01*
X0451260Y0058026D02*
X0429965Y0058026D01*
X0429222Y0059625D02*
X0452003Y0059625D01*
X0455428Y0059625D02*
X0455797Y0059625D01*
X0455797Y0058026D02*
X0455428Y0058026D01*
X0455428Y0057263D02*
X0455797Y0057263D01*
X0455797Y0061431D01*
X0457416Y0061431D01*
X0459965Y0058881D01*
X0459965Y0057263D01*
X0455797Y0057263D01*
X0455797Y0056894D01*
X0459965Y0056894D01*
X0459965Y0055275D01*
X0457416Y0052726D01*
X0455797Y0052725D01*
X0455797Y0056894D01*
X0455428Y0056894D01*
X0455428Y0057263D01*
X0455428Y0056428D02*
X0455797Y0056428D01*
X0459965Y0056428D02*
X0461260Y0056428D01*
X0461260Y0056894D02*
X0461260Y0055275D01*
X0463810Y0052726D01*
X0465428Y0052726D01*
X0465428Y0056894D01*
X0461260Y0056894D01*
X0461260Y0057263D02*
X0465428Y0057263D01*
X0465428Y0061431D01*
X0463810Y0061431D01*
X0461260Y0058881D01*
X0461260Y0057263D01*
X0461260Y0058026D02*
X0459965Y0058026D01*
X0459222Y0059625D02*
X0462003Y0059625D01*
X0465428Y0059625D02*
X0465797Y0059625D01*
X0465797Y0058026D02*
X0465428Y0058026D01*
X0465428Y0057263D02*
X0465797Y0057263D01*
X0465797Y0061431D01*
X0467416Y0061431D01*
X0469965Y0058881D01*
X0469965Y0057263D01*
X0465797Y0057263D01*
X0465797Y0056894D01*
X0469965Y0056894D01*
X0469965Y0055275D01*
X0467416Y0052726D01*
X0465797Y0052725D01*
X0465797Y0056894D01*
X0465428Y0056894D01*
X0465428Y0057263D01*
X0465428Y0056428D02*
X0465797Y0056428D01*
X0469965Y0056428D02*
X0491260Y0056428D01*
X0491260Y0056894D02*
X0491260Y0055275D01*
X0493810Y0052726D01*
X0495428Y0052726D01*
X0495428Y0056894D01*
X0491260Y0056894D01*
X0491260Y0057263D02*
X0495428Y0057263D01*
X0495428Y0061431D01*
X0493810Y0061431D01*
X0491260Y0058881D01*
X0491260Y0057263D01*
X0491260Y0058026D02*
X0469965Y0058026D01*
X0469222Y0059625D02*
X0492003Y0059625D01*
X0495428Y0059625D02*
X0495797Y0059625D01*
X0495797Y0058026D02*
X0495428Y0058026D01*
X0495428Y0057263D02*
X0495797Y0057263D01*
X0495797Y0061431D01*
X0497416Y0061431D01*
X0499965Y0058881D01*
X0499965Y0057263D01*
X0495797Y0057263D01*
X0495797Y0056894D01*
X0499965Y0056894D01*
X0499965Y0055275D01*
X0497416Y0052726D01*
X0495797Y0052725D01*
X0495797Y0056894D01*
X0495428Y0056894D01*
X0495428Y0057263D01*
X0495428Y0056428D02*
X0495797Y0056428D01*
X0499965Y0056428D02*
X0501260Y0056428D01*
X0501260Y0056894D02*
X0501260Y0055275D01*
X0503810Y0052726D01*
X0505428Y0052726D01*
X0505428Y0056894D01*
X0501260Y0056894D01*
X0501260Y0057263D02*
X0505428Y0057263D01*
X0505428Y0061431D01*
X0503810Y0061431D01*
X0501260Y0058881D01*
X0501260Y0057263D01*
X0501260Y0058026D02*
X0499965Y0058026D01*
X0499222Y0059625D02*
X0502003Y0059625D01*
X0505428Y0059625D02*
X0505797Y0059625D01*
X0505797Y0058026D02*
X0505428Y0058026D01*
X0505428Y0057263D02*
X0505797Y0057263D01*
X0505797Y0061431D01*
X0507416Y0061431D01*
X0509965Y0058881D01*
X0509965Y0057263D01*
X0505797Y0057263D01*
X0505797Y0056894D01*
X0509965Y0056894D01*
X0509965Y0055275D01*
X0507416Y0052726D01*
X0505797Y0052725D01*
X0505797Y0056894D01*
X0505428Y0056894D01*
X0505428Y0057263D01*
X0505428Y0056428D02*
X0505797Y0056428D01*
X0509965Y0056428D02*
X0513134Y0056428D01*
X0513134Y0058026D02*
X0509965Y0058026D01*
X0509222Y0059625D02*
X0513134Y0059625D01*
X0513134Y0061223D02*
X0507623Y0061223D01*
X0505797Y0061223D02*
X0505428Y0061223D01*
X0503602Y0061223D02*
X0497623Y0061223D01*
X0495797Y0061223D02*
X0495428Y0061223D01*
X0493602Y0061223D02*
X0467623Y0061223D01*
X0465797Y0061223D02*
X0465428Y0061223D01*
X0463602Y0061223D02*
X0457623Y0061223D01*
X0455797Y0061223D02*
X0455428Y0061223D01*
X0453602Y0061223D02*
X0427623Y0061223D01*
X0425797Y0061223D02*
X0425428Y0061223D01*
X0423602Y0061223D02*
X0417623Y0061223D01*
X0415797Y0061223D02*
X0415428Y0061223D01*
X0413602Y0061223D02*
X0387623Y0061223D01*
X0385797Y0061223D02*
X0385428Y0061223D01*
X0383602Y0061223D02*
X0377623Y0061223D01*
X0375797Y0061223D02*
X0375428Y0061223D01*
X0373602Y0061223D02*
X0347623Y0061223D01*
X0345797Y0061223D02*
X0345428Y0061223D01*
X0343602Y0061223D02*
X0337623Y0061223D01*
X0335797Y0061223D02*
X0335428Y0061223D01*
X0333602Y0061223D02*
X0307623Y0061223D01*
X0305797Y0061223D02*
X0305428Y0061223D01*
X0303602Y0061223D02*
X0297623Y0061223D01*
X0295797Y0061223D02*
X0295428Y0061223D01*
X0293602Y0061223D02*
X0267623Y0061223D01*
X0265797Y0061223D02*
X0265428Y0061223D01*
X0263602Y0061223D02*
X0257623Y0061223D01*
X0255797Y0061223D02*
X0255428Y0061223D01*
X0255428Y0059625D02*
X0255797Y0059625D01*
X0255797Y0058026D02*
X0255428Y0058026D01*
X0252003Y0059625D02*
X0205613Y0059625D01*
X0205613Y0058026D02*
X0251260Y0058026D01*
X0251706Y0054829D02*
X0205613Y0054829D01*
X0200613Y0054829D02*
X0105613Y0054829D01*
X0105613Y0053231D02*
X0200613Y0053231D01*
X0205613Y0053231D02*
X0253305Y0053231D01*
X0255428Y0053231D02*
X0255797Y0053231D01*
X0257921Y0053231D02*
X0263305Y0053231D01*
X0265428Y0053231D02*
X0265797Y0053231D01*
X0267921Y0053231D02*
X0293305Y0053231D01*
X0295428Y0053231D02*
X0295797Y0053231D01*
X0297921Y0053231D02*
X0303305Y0053231D01*
X0305428Y0053231D02*
X0305797Y0053231D01*
X0307921Y0053231D02*
X0333305Y0053231D01*
X0335428Y0053231D02*
X0335797Y0053231D01*
X0337921Y0053231D02*
X0343305Y0053231D01*
X0345428Y0053231D02*
X0345797Y0053231D01*
X0347921Y0053231D02*
X0373305Y0053231D01*
X0375428Y0053231D02*
X0375797Y0053231D01*
X0377921Y0053231D02*
X0383305Y0053231D01*
X0385428Y0053231D02*
X0385797Y0053231D01*
X0387921Y0053231D02*
X0413305Y0053231D01*
X0415428Y0053231D02*
X0415797Y0053231D01*
X0417921Y0053231D02*
X0423305Y0053231D01*
X0425428Y0053231D02*
X0425797Y0053231D01*
X0427921Y0053231D02*
X0453305Y0053231D01*
X0455428Y0053231D02*
X0455797Y0053231D01*
X0457921Y0053231D02*
X0463305Y0053231D01*
X0465428Y0053231D02*
X0465797Y0053231D01*
X0467921Y0053231D02*
X0493305Y0053231D01*
X0495428Y0053231D02*
X0495797Y0053231D01*
X0497921Y0053231D02*
X0503305Y0053231D01*
X0505428Y0053231D02*
X0505797Y0053231D01*
X0507921Y0053231D02*
X0513134Y0053231D01*
X0513134Y0054829D02*
X0509519Y0054829D01*
X0505797Y0054829D02*
X0505428Y0054829D01*
X0501706Y0054829D02*
X0499519Y0054829D01*
X0495797Y0054829D02*
X0495428Y0054829D01*
X0491706Y0054829D02*
X0469519Y0054829D01*
X0465797Y0054829D02*
X0465428Y0054829D01*
X0461706Y0054829D02*
X0459519Y0054829D01*
X0455797Y0054829D02*
X0455428Y0054829D01*
X0451706Y0054829D02*
X0429519Y0054829D01*
X0425797Y0054829D02*
X0425428Y0054829D01*
X0421706Y0054829D02*
X0419519Y0054829D01*
X0415797Y0054829D02*
X0415428Y0054829D01*
X0411706Y0054829D02*
X0389519Y0054829D01*
X0385797Y0054829D02*
X0385428Y0054829D01*
X0381706Y0054829D02*
X0379519Y0054829D01*
X0375797Y0054829D02*
X0375428Y0054829D01*
X0371706Y0054829D02*
X0349519Y0054829D01*
X0345797Y0054829D02*
X0345428Y0054829D01*
X0341706Y0054829D02*
X0339519Y0054829D01*
X0335797Y0054829D02*
X0335428Y0054829D01*
X0331706Y0054829D02*
X0309519Y0054829D01*
X0305797Y0054829D02*
X0305428Y0054829D01*
X0301706Y0054829D02*
X0299519Y0054829D01*
X0295797Y0054829D02*
X0295428Y0054829D01*
X0291706Y0054829D02*
X0269519Y0054829D01*
X0265797Y0054829D02*
X0265428Y0054829D01*
X0261706Y0054829D02*
X0259519Y0054829D01*
X0255797Y0054829D02*
X0255428Y0054829D01*
X0258926Y0062822D02*
X0262299Y0062822D01*
X0268926Y0062822D02*
X0292299Y0062822D01*
X0298926Y0062822D02*
X0302299Y0062822D01*
X0308926Y0062822D02*
X0332299Y0062822D01*
X0338926Y0062822D02*
X0342299Y0062822D01*
X0348926Y0062822D02*
X0372299Y0062822D01*
X0370701Y0064420D02*
X0350524Y0064420D01*
X0350965Y0066019D02*
X0370260Y0066019D01*
X0370260Y0067617D02*
X0350965Y0067617D01*
X0350965Y0069216D02*
X0370260Y0069216D01*
X0371779Y0070814D02*
X0349447Y0070814D01*
X0348517Y0072413D02*
X0372708Y0072413D01*
X0371110Y0074011D02*
X0350116Y0074011D01*
X0350965Y0075610D02*
X0370260Y0075610D01*
X0370260Y0077208D02*
X0350965Y0077208D01*
X0350965Y0078807D02*
X0370260Y0078807D01*
X0371370Y0080405D02*
X0349855Y0080405D01*
X0348257Y0082004D02*
X0372968Y0082004D01*
X0388257Y0082004D02*
X0412968Y0082004D01*
X0411370Y0080405D02*
X0389855Y0080405D01*
X0390965Y0078807D02*
X0410260Y0078807D01*
X0410260Y0077208D02*
X0390965Y0077208D01*
X0390965Y0075610D02*
X0410260Y0075610D01*
X0411110Y0074011D02*
X0390116Y0074011D01*
X0388517Y0072413D02*
X0412708Y0072413D01*
X0411779Y0070814D02*
X0389447Y0070814D01*
X0390965Y0069216D02*
X0410260Y0069216D01*
X0410260Y0067617D02*
X0390965Y0067617D01*
X0390965Y0066019D02*
X0410260Y0066019D01*
X0410701Y0064420D02*
X0390524Y0064420D01*
X0388926Y0062822D02*
X0412299Y0062822D01*
X0418926Y0062822D02*
X0422299Y0062822D01*
X0428926Y0062822D02*
X0452299Y0062822D01*
X0458926Y0062822D02*
X0462299Y0062822D01*
X0468926Y0062822D02*
X0492299Y0062822D01*
X0498926Y0062822D02*
X0502299Y0062822D01*
X0508926Y0062822D02*
X0513134Y0062822D01*
X0513134Y0064420D02*
X0510524Y0064420D01*
X0510965Y0066019D02*
X0513134Y0066019D01*
X0513134Y0067617D02*
X0510965Y0067617D01*
X0510965Y0069216D02*
X0513134Y0069216D01*
X0513134Y0070814D02*
X0509447Y0070814D01*
X0508517Y0072413D02*
X0513134Y0072413D01*
X0513134Y0074011D02*
X0510116Y0074011D01*
X0510965Y0075610D02*
X0513134Y0075610D01*
X0513134Y0077208D02*
X0510965Y0077208D01*
X0510965Y0078807D02*
X0513134Y0078807D01*
X0513134Y0080405D02*
X0509855Y0080405D01*
X0508257Y0082004D02*
X0513134Y0082004D01*
X0492968Y0082004D02*
X0468257Y0082004D01*
X0469855Y0080405D02*
X0491370Y0080405D01*
X0490260Y0078807D02*
X0470965Y0078807D01*
X0470965Y0077208D02*
X0490260Y0077208D01*
X0490260Y0075610D02*
X0470965Y0075610D01*
X0470116Y0074011D02*
X0491110Y0074011D01*
X0492708Y0072413D02*
X0468517Y0072413D01*
X0469447Y0070814D02*
X0491779Y0070814D01*
X0490260Y0069216D02*
X0470965Y0069216D01*
X0470965Y0067617D02*
X0490260Y0067617D01*
X0490260Y0066019D02*
X0470965Y0066019D01*
X0470524Y0064420D02*
X0490701Y0064420D01*
X0500524Y0064420D02*
X0500701Y0064420D01*
X0460701Y0064420D02*
X0460524Y0064420D01*
X0450701Y0064420D02*
X0430524Y0064420D01*
X0430965Y0066019D02*
X0450260Y0066019D01*
X0450260Y0067617D02*
X0430965Y0067617D01*
X0430965Y0069216D02*
X0450260Y0069216D01*
X0451779Y0070814D02*
X0429447Y0070814D01*
X0428517Y0072413D02*
X0452708Y0072413D01*
X0451110Y0074011D02*
X0430116Y0074011D01*
X0430965Y0075610D02*
X0450260Y0075610D01*
X0450260Y0077208D02*
X0430965Y0077208D01*
X0430965Y0078807D02*
X0450260Y0078807D01*
X0451370Y0080405D02*
X0429855Y0080405D01*
X0428257Y0082004D02*
X0452968Y0082004D01*
X0420701Y0064420D02*
X0420524Y0064420D01*
X0382299Y0062822D02*
X0378926Y0062822D01*
X0380524Y0064420D02*
X0380701Y0064420D01*
X0340701Y0064420D02*
X0340524Y0064420D01*
X0330701Y0064420D02*
X0310524Y0064420D01*
X0310965Y0066019D02*
X0330260Y0066019D01*
X0330260Y0067617D02*
X0310965Y0067617D01*
X0310965Y0069216D02*
X0330260Y0069216D01*
X0331779Y0070814D02*
X0309447Y0070814D01*
X0308517Y0072413D02*
X0332708Y0072413D01*
X0331110Y0074011D02*
X0310116Y0074011D01*
X0310965Y0075610D02*
X0330260Y0075610D01*
X0330260Y0077208D02*
X0310965Y0077208D01*
X0310965Y0078807D02*
X0330260Y0078807D01*
X0331370Y0080405D02*
X0309855Y0080405D01*
X0308257Y0082004D02*
X0332968Y0082004D01*
X0292968Y0082004D02*
X0268257Y0082004D01*
X0269855Y0080405D02*
X0291370Y0080405D01*
X0290260Y0078807D02*
X0270965Y0078807D01*
X0270965Y0077208D02*
X0290260Y0077208D01*
X0290260Y0075610D02*
X0270965Y0075610D01*
X0270116Y0074011D02*
X0291110Y0074011D01*
X0292708Y0072413D02*
X0268517Y0072413D01*
X0269447Y0070814D02*
X0291779Y0070814D01*
X0290260Y0069216D02*
X0270965Y0069216D01*
X0270965Y0067617D02*
X0290260Y0067617D01*
X0290260Y0066019D02*
X0270965Y0066019D01*
X0270524Y0064420D02*
X0290701Y0064420D01*
X0300524Y0064420D02*
X0300701Y0064420D01*
X0260701Y0064420D02*
X0260524Y0064420D01*
X0250701Y0064420D02*
X0205613Y0064420D01*
X0130929Y0069216D02*
X0130454Y0069216D01*
X0130454Y0070814D02*
X0130929Y0070814D01*
X0130929Y0072413D02*
X0130454Y0072413D01*
X0130454Y0074011D02*
X0130929Y0074011D01*
X0131054Y0075610D02*
X0130329Y0075610D01*
X0205613Y0082004D02*
X0252968Y0082004D01*
X0200613Y0051632D02*
X0105613Y0051632D01*
X0105613Y0050034D02*
X0200613Y0050034D01*
X0200613Y0048435D02*
X0105613Y0048435D01*
X0105613Y0046837D02*
X0228168Y0046837D01*
X0227505Y0045238D02*
X0105613Y0045238D01*
X0105613Y0043640D02*
X0226913Y0043640D01*
X0226913Y0042041D02*
X0105613Y0042041D01*
X0105613Y0040443D02*
X0226913Y0040443D01*
X0227536Y0038844D02*
X0105613Y0038844D01*
X0105613Y0037246D02*
X0228198Y0037246D01*
X0229741Y0035647D02*
X0105613Y0035647D01*
X0105613Y0034048D02*
X0232266Y0034048D01*
X0238959Y0034048D02*
X0252487Y0034048D01*
X0251260Y0035275D02*
X0253810Y0032726D01*
X0255428Y0032726D01*
X0255428Y0036894D01*
X0251260Y0036894D01*
X0251260Y0035275D01*
X0251260Y0035647D02*
X0241484Y0035647D01*
X0243027Y0037246D02*
X0255428Y0037246D01*
X0255428Y0037263D02*
X0255428Y0036894D01*
X0255797Y0036894D01*
X0255797Y0037263D01*
X0255428Y0037263D01*
X0255428Y0041431D01*
X0253810Y0041431D01*
X0251260Y0038881D01*
X0251260Y0037263D01*
X0255428Y0037263D01*
X0255797Y0037263D02*
X0255797Y0041431D01*
X0257416Y0041431D01*
X0259965Y0038881D01*
X0259965Y0037263D01*
X0255797Y0037263D01*
X0255797Y0037246D02*
X0265428Y0037246D01*
X0265428Y0037263D02*
X0265428Y0036894D01*
X0261260Y0036894D01*
X0261260Y0035275D01*
X0263810Y0032726D01*
X0265428Y0032726D01*
X0265428Y0036894D01*
X0265797Y0036894D01*
X0265797Y0037263D01*
X0265428Y0037263D01*
X0265428Y0041431D01*
X0263810Y0041431D01*
X0261260Y0038881D01*
X0261260Y0037263D01*
X0265428Y0037263D01*
X0265797Y0037263D02*
X0265797Y0041431D01*
X0267416Y0041431D01*
X0269965Y0038881D01*
X0269965Y0037263D01*
X0265797Y0037263D01*
X0265797Y0037246D02*
X0295428Y0037246D01*
X0295428Y0037263D02*
X0295428Y0036894D01*
X0291260Y0036894D01*
X0291260Y0035275D01*
X0293810Y0032726D01*
X0295428Y0032726D01*
X0295428Y0036894D01*
X0295797Y0036894D01*
X0295797Y0037263D01*
X0295428Y0037263D01*
X0295428Y0041431D01*
X0293810Y0041431D01*
X0291260Y0038881D01*
X0291260Y0037263D01*
X0295428Y0037263D01*
X0295797Y0037263D02*
X0295797Y0041431D01*
X0297416Y0041431D01*
X0299965Y0038881D01*
X0299965Y0037263D01*
X0295797Y0037263D01*
X0295797Y0037246D02*
X0305428Y0037246D01*
X0305428Y0037263D02*
X0305428Y0036894D01*
X0301260Y0036894D01*
X0301260Y0035275D01*
X0303810Y0032726D01*
X0305428Y0032726D01*
X0305428Y0036894D01*
X0305797Y0036894D01*
X0305797Y0037263D01*
X0305428Y0037263D01*
X0305428Y0041431D01*
X0303810Y0041431D01*
X0301260Y0038881D01*
X0301260Y0037263D01*
X0305428Y0037263D01*
X0305797Y0037263D02*
X0305797Y0041431D01*
X0307416Y0041431D01*
X0309965Y0038881D01*
X0309965Y0037263D01*
X0305797Y0037263D01*
X0305797Y0037246D02*
X0335428Y0037246D01*
X0335428Y0037263D02*
X0335428Y0036894D01*
X0331260Y0036894D01*
X0331260Y0035275D01*
X0333810Y0032726D01*
X0335428Y0032726D01*
X0335428Y0036894D01*
X0335797Y0036894D01*
X0335797Y0037263D01*
X0335428Y0037263D01*
X0335428Y0041431D01*
X0333810Y0041431D01*
X0331260Y0038881D01*
X0331260Y0037263D01*
X0335428Y0037263D01*
X0335797Y0037263D02*
X0335797Y0041431D01*
X0337416Y0041431D01*
X0339965Y0038881D01*
X0339965Y0037263D01*
X0335797Y0037263D01*
X0335797Y0037246D02*
X0345428Y0037246D01*
X0345428Y0037263D02*
X0345428Y0036894D01*
X0341260Y0036894D01*
X0341260Y0035275D01*
X0343810Y0032726D01*
X0345428Y0032726D01*
X0345428Y0036894D01*
X0345797Y0036894D01*
X0345797Y0037263D01*
X0345428Y0037263D01*
X0345428Y0041431D01*
X0343810Y0041431D01*
X0341260Y0038881D01*
X0341260Y0037263D01*
X0345428Y0037263D01*
X0345797Y0037263D02*
X0345797Y0041431D01*
X0347416Y0041431D01*
X0349965Y0038881D01*
X0349965Y0037263D01*
X0345797Y0037263D01*
X0345797Y0037246D02*
X0375428Y0037246D01*
X0375428Y0037263D02*
X0375428Y0036894D01*
X0371260Y0036894D01*
X0371260Y0035275D01*
X0373810Y0032726D01*
X0375428Y0032726D01*
X0375428Y0036894D01*
X0375797Y0036894D01*
X0375797Y0037263D01*
X0375428Y0037263D01*
X0375428Y0041431D01*
X0373810Y0041431D01*
X0371260Y0038881D01*
X0371260Y0037263D01*
X0375428Y0037263D01*
X0375797Y0037263D02*
X0375797Y0041431D01*
X0377416Y0041431D01*
X0379965Y0038881D01*
X0379965Y0037263D01*
X0375797Y0037263D01*
X0375797Y0037246D02*
X0385428Y0037246D01*
X0385428Y0037263D02*
X0385428Y0036894D01*
X0381260Y0036894D01*
X0381260Y0035275D01*
X0383810Y0032726D01*
X0385428Y0032726D01*
X0385428Y0036894D01*
X0385797Y0036894D01*
X0385797Y0037263D01*
X0385428Y0037263D01*
X0385428Y0041431D01*
X0383810Y0041431D01*
X0381260Y0038881D01*
X0381260Y0037263D01*
X0385428Y0037263D01*
X0385797Y0037263D02*
X0385797Y0041431D01*
X0387416Y0041431D01*
X0389965Y0038881D01*
X0389965Y0037263D01*
X0385797Y0037263D01*
X0385797Y0037246D02*
X0415428Y0037246D01*
X0415428Y0037263D02*
X0415428Y0036894D01*
X0411260Y0036894D01*
X0411260Y0035275D01*
X0413810Y0032726D01*
X0415428Y0032726D01*
X0415428Y0036894D01*
X0415797Y0036894D01*
X0415797Y0037263D01*
X0415428Y0037263D01*
X0415428Y0041431D01*
X0413810Y0041431D01*
X0411260Y0038881D01*
X0411260Y0037263D01*
X0415428Y0037263D01*
X0415797Y0037263D02*
X0415797Y0041431D01*
X0417416Y0041431D01*
X0419965Y0038881D01*
X0419965Y0037263D01*
X0415797Y0037263D01*
X0415797Y0037246D02*
X0425428Y0037246D01*
X0425428Y0037263D02*
X0425428Y0036894D01*
X0421260Y0036894D01*
X0421260Y0035275D01*
X0423810Y0032726D01*
X0425428Y0032726D01*
X0425428Y0036894D01*
X0425797Y0036894D01*
X0425797Y0037263D01*
X0425428Y0037263D01*
X0425428Y0041431D01*
X0423810Y0041431D01*
X0421260Y0038881D01*
X0421260Y0037263D01*
X0425428Y0037263D01*
X0425797Y0037263D02*
X0425797Y0041431D01*
X0427416Y0041431D01*
X0429965Y0038881D01*
X0429965Y0037263D01*
X0425797Y0037263D01*
X0425797Y0037246D02*
X0455428Y0037246D01*
X0455428Y0037263D02*
X0455428Y0036894D01*
X0451260Y0036894D01*
X0451260Y0035275D01*
X0453810Y0032726D01*
X0455428Y0032726D01*
X0455428Y0036894D01*
X0455797Y0036894D01*
X0455797Y0037263D01*
X0455428Y0037263D01*
X0455428Y0041431D01*
X0453810Y0041431D01*
X0451260Y0038881D01*
X0451260Y0037263D01*
X0455428Y0037263D01*
X0455797Y0037263D02*
X0455797Y0041431D01*
X0457416Y0041431D01*
X0459965Y0038881D01*
X0459965Y0037263D01*
X0455797Y0037263D01*
X0455797Y0037246D02*
X0465428Y0037246D01*
X0465428Y0037263D02*
X0465428Y0036894D01*
X0461260Y0036894D01*
X0461260Y0035275D01*
X0463810Y0032726D01*
X0465428Y0032726D01*
X0465428Y0036894D01*
X0465797Y0036894D01*
X0465797Y0037263D01*
X0465428Y0037263D01*
X0465428Y0041431D01*
X0463810Y0041431D01*
X0461260Y0038881D01*
X0461260Y0037263D01*
X0465428Y0037263D01*
X0465797Y0037263D02*
X0465797Y0041431D01*
X0467416Y0041431D01*
X0469965Y0038881D01*
X0469965Y0037263D01*
X0465797Y0037263D01*
X0465797Y0037246D02*
X0495428Y0037246D01*
X0495428Y0037263D02*
X0495428Y0036894D01*
X0491260Y0036894D01*
X0491260Y0035275D01*
X0493810Y0032726D01*
X0495428Y0032726D01*
X0495428Y0036894D01*
X0495797Y0036894D01*
X0495797Y0037263D01*
X0495428Y0037263D01*
X0495428Y0041431D01*
X0493810Y0041431D01*
X0491260Y0038881D01*
X0491260Y0037263D01*
X0495428Y0037263D01*
X0495797Y0037263D02*
X0495797Y0041431D01*
X0497416Y0041431D01*
X0499965Y0038881D01*
X0499965Y0037263D01*
X0495797Y0037263D01*
X0495797Y0037246D02*
X0505428Y0037246D01*
X0505428Y0037263D02*
X0505428Y0036894D01*
X0501260Y0036894D01*
X0501260Y0035275D01*
X0503810Y0032726D01*
X0505428Y0032726D01*
X0505428Y0036894D01*
X0505797Y0036894D01*
X0505797Y0037263D01*
X0505428Y0037263D01*
X0505428Y0041431D01*
X0503810Y0041431D01*
X0501260Y0038881D01*
X0501260Y0037263D01*
X0505428Y0037263D01*
X0505797Y0037263D02*
X0505797Y0041431D01*
X0507416Y0041431D01*
X0509965Y0038881D01*
X0509965Y0037263D01*
X0505797Y0037263D01*
X0505797Y0037246D02*
X0513134Y0037246D01*
X0513134Y0035647D02*
X0509965Y0035647D01*
X0509965Y0035275D02*
X0509965Y0036894D01*
X0505797Y0036894D01*
X0505797Y0032725D01*
X0507416Y0032726D01*
X0509965Y0035275D01*
X0508739Y0034048D02*
X0513134Y0034048D01*
X0513134Y0032450D02*
X0105613Y0032450D01*
X0105613Y0030851D02*
X0253230Y0030851D01*
X0253810Y0031431D02*
X0251260Y0028881D01*
X0251260Y0027263D01*
X0255428Y0027263D01*
X0255428Y0031431D01*
X0253810Y0031431D01*
X0255428Y0030851D02*
X0255797Y0030851D01*
X0255797Y0031431D02*
X0255797Y0027263D01*
X0255428Y0027263D01*
X0255428Y0026894D01*
X0251260Y0026894D01*
X0251260Y0025275D01*
X0253810Y0022726D01*
X0255428Y0022726D01*
X0255428Y0026894D01*
X0255797Y0026894D01*
X0255797Y0027263D01*
X0259965Y0027263D01*
X0259965Y0028881D01*
X0257416Y0031431D01*
X0255797Y0031431D01*
X0255797Y0032725D02*
X0257416Y0032726D01*
X0259965Y0035275D01*
X0259965Y0036894D01*
X0255797Y0036894D01*
X0255797Y0032725D01*
X0261260Y0028881D02*
X0263810Y0031431D01*
X0265428Y0031431D01*
X0265428Y0027263D01*
X0265797Y0027263D01*
X0265797Y0031431D01*
X0267416Y0031431D01*
X0269965Y0028881D01*
X0269965Y0027263D01*
X0265797Y0027263D01*
X0265797Y0026894D01*
X0269965Y0026894D01*
X0269965Y0025275D01*
X0267416Y0022726D01*
X0265797Y0022725D01*
X0265797Y0026894D01*
X0265428Y0026894D01*
X0261260Y0026894D01*
X0261260Y0025275D01*
X0263810Y0022726D01*
X0265428Y0022726D01*
X0265428Y0026894D01*
X0265428Y0027263D01*
X0261260Y0027263D01*
X0261260Y0028881D01*
X0261632Y0029253D02*
X0259594Y0029253D01*
X0259965Y0027654D02*
X0261260Y0027654D01*
X0259965Y0026894D02*
X0255797Y0026894D01*
X0255797Y0022725D01*
X0257416Y0022726D01*
X0259965Y0025275D01*
X0259965Y0026894D01*
X0259965Y0026056D02*
X0261260Y0026056D01*
X0265428Y0026056D02*
X0265797Y0026056D01*
X0269965Y0026056D02*
X0291260Y0026056D01*
X0291260Y0025275D02*
X0293810Y0022726D01*
X0295428Y0022726D01*
X0295428Y0026894D01*
X0291260Y0026894D01*
X0291260Y0025275D01*
X0292078Y0024457D02*
X0269147Y0024457D01*
X0265797Y0024457D02*
X0265428Y0024457D01*
X0262078Y0024457D02*
X0259147Y0024457D01*
X0255797Y0024457D02*
X0255428Y0024457D01*
X0252078Y0024457D02*
X0105613Y0024457D01*
X0105613Y0022859D02*
X0253676Y0022859D01*
X0253810Y0021431D02*
X0251260Y0018881D01*
X0251260Y0017263D01*
X0255428Y0017263D01*
X0255428Y0021431D01*
X0253810Y0021431D01*
X0253639Y0021260D02*
X0105613Y0021260D01*
X0105613Y0019662D02*
X0252041Y0019662D01*
X0255428Y0019662D02*
X0255797Y0019662D01*
X0255797Y0021260D02*
X0255428Y0021260D01*
X0255797Y0021431D02*
X0255797Y0017263D01*
X0255428Y0017263D01*
X0255428Y0016894D01*
X0251260Y0016894D01*
X0251260Y0015275D01*
X0253810Y0012726D01*
X0255428Y0012726D01*
X0255428Y0016894D01*
X0255797Y0016894D01*
X0255797Y0017263D01*
X0259965Y0017263D01*
X0259965Y0018881D01*
X0257416Y0021431D01*
X0255797Y0021431D01*
X0255797Y0022859D02*
X0255428Y0022859D01*
X0257549Y0022859D02*
X0263676Y0022859D01*
X0263810Y0021431D02*
X0261260Y0018881D01*
X0261260Y0017263D01*
X0265428Y0017263D01*
X0265428Y0021431D01*
X0263810Y0021431D01*
X0263639Y0021260D02*
X0257586Y0021260D01*
X0259185Y0019662D02*
X0262041Y0019662D01*
X0265428Y0019662D02*
X0265797Y0019662D01*
X0265797Y0021260D02*
X0265428Y0021260D01*
X0265797Y0021431D02*
X0265797Y0017263D01*
X0265428Y0017263D01*
X0265428Y0016894D01*
X0261260Y0016894D01*
X0261260Y0015275D01*
X0263810Y0012726D01*
X0265428Y0012726D01*
X0265428Y0016894D01*
X0265797Y0016894D01*
X0265797Y0017263D01*
X0269965Y0017263D01*
X0269965Y0018881D01*
X0267416Y0021431D01*
X0265797Y0021431D01*
X0265797Y0022859D02*
X0265428Y0022859D01*
X0267549Y0022859D02*
X0293676Y0022859D01*
X0293810Y0021431D02*
X0291260Y0018881D01*
X0291260Y0017263D01*
X0295428Y0017263D01*
X0295428Y0021431D01*
X0293810Y0021431D01*
X0293639Y0021260D02*
X0267586Y0021260D01*
X0269185Y0019662D02*
X0292041Y0019662D01*
X0295428Y0019662D02*
X0295797Y0019662D01*
X0295797Y0021260D02*
X0295428Y0021260D01*
X0295797Y0021431D02*
X0295797Y0017263D01*
X0295428Y0017263D01*
X0295428Y0016894D01*
X0291260Y0016894D01*
X0291260Y0015275D01*
X0293810Y0012726D01*
X0295428Y0012726D01*
X0295428Y0016894D01*
X0295797Y0016894D01*
X0295797Y0017263D01*
X0299965Y0017263D01*
X0299965Y0018881D01*
X0297416Y0021431D01*
X0295797Y0021431D01*
X0295797Y0022725D02*
X0297416Y0022726D01*
X0299965Y0025275D01*
X0299965Y0026894D01*
X0295797Y0026894D01*
X0295797Y0027263D01*
X0295428Y0027263D01*
X0295428Y0031431D01*
X0293810Y0031431D01*
X0291260Y0028881D01*
X0291260Y0027263D01*
X0295428Y0027263D01*
X0295428Y0026894D01*
X0295797Y0026894D01*
X0295797Y0022725D01*
X0295797Y0022859D02*
X0295428Y0022859D01*
X0297549Y0022859D02*
X0303676Y0022859D01*
X0303810Y0022726D02*
X0301260Y0025275D01*
X0301260Y0026894D01*
X0305428Y0026894D01*
X0305428Y0027263D01*
X0305428Y0031431D01*
X0303810Y0031431D01*
X0301260Y0028881D01*
X0301260Y0027263D01*
X0305428Y0027263D01*
X0305797Y0027263D01*
X0305797Y0031431D01*
X0307416Y0031431D01*
X0309965Y0028881D01*
X0309965Y0027263D01*
X0305797Y0027263D01*
X0305797Y0026894D01*
X0309965Y0026894D01*
X0309965Y0025275D01*
X0307416Y0022726D01*
X0305797Y0022725D01*
X0305797Y0026894D01*
X0305428Y0026894D01*
X0305428Y0022726D01*
X0303810Y0022726D01*
X0303810Y0021431D02*
X0301260Y0018881D01*
X0301260Y0017263D01*
X0305428Y0017263D01*
X0305428Y0021431D01*
X0303810Y0021431D01*
X0303639Y0021260D02*
X0297586Y0021260D01*
X0299185Y0019662D02*
X0302041Y0019662D01*
X0305428Y0019662D02*
X0305797Y0019662D01*
X0305797Y0021260D02*
X0305428Y0021260D01*
X0305797Y0021431D02*
X0305797Y0017263D01*
X0305428Y0017263D01*
X0305428Y0016894D01*
X0301260Y0016894D01*
X0301260Y0015275D01*
X0303810Y0012726D01*
X0305428Y0012726D01*
X0305428Y0016894D01*
X0305797Y0016894D01*
X0305797Y0017263D01*
X0309965Y0017263D01*
X0309965Y0018881D01*
X0307416Y0021431D01*
X0305797Y0021431D01*
X0305797Y0022859D02*
X0305428Y0022859D01*
X0307549Y0022859D02*
X0333676Y0022859D01*
X0333810Y0022726D02*
X0331260Y0025275D01*
X0331260Y0026894D01*
X0335428Y0026894D01*
X0335428Y0027263D01*
X0335428Y0031431D01*
X0333810Y0031431D01*
X0331260Y0028881D01*
X0331260Y0027263D01*
X0335428Y0027263D01*
X0335797Y0027263D01*
X0335797Y0031431D01*
X0337416Y0031431D01*
X0339965Y0028881D01*
X0339965Y0027263D01*
X0335797Y0027263D01*
X0335797Y0026894D01*
X0339965Y0026894D01*
X0339965Y0025275D01*
X0337416Y0022726D01*
X0335797Y0022725D01*
X0335797Y0026894D01*
X0335428Y0026894D01*
X0335428Y0022726D01*
X0333810Y0022726D01*
X0333810Y0021431D02*
X0331260Y0018881D01*
X0331260Y0017263D01*
X0335428Y0017263D01*
X0335428Y0021431D01*
X0333810Y0021431D01*
X0333639Y0021260D02*
X0307586Y0021260D01*
X0309185Y0019662D02*
X0332041Y0019662D01*
X0335428Y0019662D02*
X0335797Y0019662D01*
X0335797Y0021260D02*
X0335428Y0021260D01*
X0335797Y0021431D02*
X0335797Y0017263D01*
X0335428Y0017263D01*
X0335428Y0016894D01*
X0331260Y0016894D01*
X0331260Y0015275D01*
X0333810Y0012726D01*
X0335428Y0012726D01*
X0335428Y0016894D01*
X0335797Y0016894D01*
X0335797Y0017263D01*
X0339965Y0017263D01*
X0339965Y0018881D01*
X0337416Y0021431D01*
X0335797Y0021431D01*
X0335797Y0022859D02*
X0335428Y0022859D01*
X0337549Y0022859D02*
X0343676Y0022859D01*
X0343810Y0022726D02*
X0341260Y0025275D01*
X0341260Y0026894D01*
X0345428Y0026894D01*
X0345428Y0027263D01*
X0345428Y0031431D01*
X0343810Y0031431D01*
X0341260Y0028881D01*
X0341260Y0027263D01*
X0345428Y0027263D01*
X0345797Y0027263D01*
X0345797Y0031431D01*
X0347416Y0031431D01*
X0349965Y0028881D01*
X0349965Y0027263D01*
X0345797Y0027263D01*
X0345797Y0026894D01*
X0349965Y0026894D01*
X0349965Y0025275D01*
X0347416Y0022726D01*
X0345797Y0022725D01*
X0345797Y0026894D01*
X0345428Y0026894D01*
X0345428Y0022726D01*
X0343810Y0022726D01*
X0343810Y0021431D02*
X0341260Y0018881D01*
X0341260Y0017263D01*
X0345428Y0017263D01*
X0345428Y0021431D01*
X0343810Y0021431D01*
X0343639Y0021260D02*
X0337586Y0021260D01*
X0339185Y0019662D02*
X0342041Y0019662D01*
X0345428Y0019662D02*
X0345797Y0019662D01*
X0345797Y0021260D02*
X0345428Y0021260D01*
X0345797Y0021431D02*
X0345797Y0017263D01*
X0345428Y0017263D01*
X0345428Y0016894D01*
X0341260Y0016894D01*
X0341260Y0015275D01*
X0343810Y0012726D01*
X0345428Y0012726D01*
X0345428Y0016894D01*
X0345797Y0016894D01*
X0345797Y0017263D01*
X0349965Y0017263D01*
X0349965Y0018881D01*
X0347416Y0021431D01*
X0345797Y0021431D01*
X0345797Y0022859D02*
X0345428Y0022859D01*
X0347549Y0022859D02*
X0373676Y0022859D01*
X0373810Y0022726D02*
X0371260Y0025275D01*
X0371260Y0026894D01*
X0375428Y0026894D01*
X0375428Y0027263D01*
X0375428Y0031431D01*
X0373810Y0031431D01*
X0371260Y0028881D01*
X0371260Y0027263D01*
X0375428Y0027263D01*
X0375797Y0027263D01*
X0375797Y0031431D01*
X0377416Y0031431D01*
X0379965Y0028881D01*
X0379965Y0027263D01*
X0375797Y0027263D01*
X0375797Y0026894D01*
X0379965Y0026894D01*
X0379965Y0025275D01*
X0377416Y0022726D01*
X0375797Y0022725D01*
X0375797Y0026894D01*
X0375428Y0026894D01*
X0375428Y0022726D01*
X0373810Y0022726D01*
X0373810Y0021431D02*
X0371260Y0018881D01*
X0371260Y0017263D01*
X0375428Y0017263D01*
X0375428Y0021431D01*
X0373810Y0021431D01*
X0373639Y0021260D02*
X0347586Y0021260D01*
X0349185Y0019662D02*
X0372041Y0019662D01*
X0375428Y0019662D02*
X0375797Y0019662D01*
X0375797Y0021260D02*
X0375428Y0021260D01*
X0375797Y0021431D02*
X0375797Y0017263D01*
X0375428Y0017263D01*
X0375428Y0016894D01*
X0371260Y0016894D01*
X0371260Y0015275D01*
X0373810Y0012726D01*
X0375428Y0012726D01*
X0375428Y0016894D01*
X0375797Y0016894D01*
X0375797Y0017263D01*
X0379965Y0017263D01*
X0379965Y0018881D01*
X0377416Y0021431D01*
X0375797Y0021431D01*
X0375797Y0022859D02*
X0375428Y0022859D01*
X0377549Y0022859D02*
X0383676Y0022859D01*
X0383810Y0022726D02*
X0381260Y0025275D01*
X0381260Y0026894D01*
X0385428Y0026894D01*
X0385428Y0027263D01*
X0385428Y0031431D01*
X0383810Y0031431D01*
X0381260Y0028881D01*
X0381260Y0027263D01*
X0385428Y0027263D01*
X0385797Y0027263D01*
X0385797Y0031431D01*
X0387416Y0031431D01*
X0389965Y0028881D01*
X0389965Y0027263D01*
X0385797Y0027263D01*
X0385797Y0026894D01*
X0389965Y0026894D01*
X0389965Y0025275D01*
X0387416Y0022726D01*
X0385797Y0022725D01*
X0385797Y0026894D01*
X0385428Y0026894D01*
X0385428Y0022726D01*
X0383810Y0022726D01*
X0383810Y0021431D02*
X0381260Y0018881D01*
X0381260Y0017263D01*
X0385428Y0017263D01*
X0385428Y0021431D01*
X0383810Y0021431D01*
X0383639Y0021260D02*
X0377586Y0021260D01*
X0379185Y0019662D02*
X0382041Y0019662D01*
X0385428Y0019662D02*
X0385797Y0019662D01*
X0385797Y0021260D02*
X0385428Y0021260D01*
X0385797Y0021431D02*
X0385797Y0017263D01*
X0385428Y0017263D01*
X0385428Y0016894D01*
X0381260Y0016894D01*
X0381260Y0015275D01*
X0383810Y0012726D01*
X0385428Y0012726D01*
X0385428Y0016894D01*
X0385797Y0016894D01*
X0385797Y0017263D01*
X0389965Y0017263D01*
X0389965Y0018881D01*
X0387416Y0021431D01*
X0385797Y0021431D01*
X0385797Y0022859D02*
X0385428Y0022859D01*
X0387549Y0022859D02*
X0413676Y0022859D01*
X0413810Y0022726D02*
X0411260Y0025275D01*
X0411260Y0026894D01*
X0415428Y0026894D01*
X0415428Y0027263D01*
X0415428Y0031431D01*
X0413810Y0031431D01*
X0411260Y0028881D01*
X0411260Y0027263D01*
X0415428Y0027263D01*
X0415797Y0027263D01*
X0415797Y0031431D01*
X0417416Y0031431D01*
X0419965Y0028881D01*
X0419965Y0027263D01*
X0415797Y0027263D01*
X0415797Y0026894D01*
X0419965Y0026894D01*
X0419965Y0025275D01*
X0417416Y0022726D01*
X0415797Y0022725D01*
X0415797Y0026894D01*
X0415428Y0026894D01*
X0415428Y0022726D01*
X0413810Y0022726D01*
X0413810Y0021431D02*
X0411260Y0018881D01*
X0411260Y0017263D01*
X0415428Y0017263D01*
X0415428Y0021431D01*
X0413810Y0021431D01*
X0413639Y0021260D02*
X0387586Y0021260D01*
X0389185Y0019662D02*
X0412041Y0019662D01*
X0415428Y0019662D02*
X0415797Y0019662D01*
X0415797Y0021260D02*
X0415428Y0021260D01*
X0415797Y0021431D02*
X0415797Y0017263D01*
X0415428Y0017263D01*
X0415428Y0016894D01*
X0411260Y0016894D01*
X0411260Y0015275D01*
X0413810Y0012726D01*
X0415428Y0012726D01*
X0415428Y0016894D01*
X0415797Y0016894D01*
X0415797Y0017263D01*
X0419965Y0017263D01*
X0419965Y0018881D01*
X0417416Y0021431D01*
X0415797Y0021431D01*
X0415797Y0022859D02*
X0415428Y0022859D01*
X0417549Y0022859D02*
X0423676Y0022859D01*
X0423810Y0022726D02*
X0421260Y0025275D01*
X0421260Y0026894D01*
X0425428Y0026894D01*
X0425428Y0027263D01*
X0425428Y0031431D01*
X0423810Y0031431D01*
X0421260Y0028881D01*
X0421260Y0027263D01*
X0425428Y0027263D01*
X0425797Y0027263D01*
X0425797Y0031431D01*
X0427416Y0031431D01*
X0429965Y0028881D01*
X0429965Y0027263D01*
X0425797Y0027263D01*
X0425797Y0026894D01*
X0429965Y0026894D01*
X0429965Y0025275D01*
X0427416Y0022726D01*
X0425797Y0022725D01*
X0425797Y0026894D01*
X0425428Y0026894D01*
X0425428Y0022726D01*
X0423810Y0022726D01*
X0423810Y0021431D02*
X0421260Y0018881D01*
X0421260Y0017263D01*
X0425428Y0017263D01*
X0425428Y0021431D01*
X0423810Y0021431D01*
X0423639Y0021260D02*
X0417586Y0021260D01*
X0419185Y0019662D02*
X0422041Y0019662D01*
X0425428Y0019662D02*
X0425797Y0019662D01*
X0425797Y0021260D02*
X0425428Y0021260D01*
X0425797Y0021431D02*
X0425797Y0017263D01*
X0425428Y0017263D01*
X0425428Y0016894D01*
X0421260Y0016894D01*
X0421260Y0015275D01*
X0423810Y0012726D01*
X0425428Y0012726D01*
X0425428Y0016894D01*
X0425797Y0016894D01*
X0425797Y0017263D01*
X0429965Y0017263D01*
X0429965Y0018881D01*
X0427416Y0021431D01*
X0425797Y0021431D01*
X0425797Y0022859D02*
X0425428Y0022859D01*
X0427549Y0022859D02*
X0453676Y0022859D01*
X0453810Y0022726D02*
X0451260Y0025275D01*
X0451260Y0026894D01*
X0455428Y0026894D01*
X0455428Y0027263D01*
X0455428Y0031431D01*
X0453810Y0031431D01*
X0451260Y0028881D01*
X0451260Y0027263D01*
X0455428Y0027263D01*
X0455797Y0027263D01*
X0455797Y0031431D01*
X0457416Y0031431D01*
X0459965Y0028881D01*
X0459965Y0027263D01*
X0455797Y0027263D01*
X0455797Y0026894D01*
X0459965Y0026894D01*
X0459965Y0025275D01*
X0457416Y0022726D01*
X0455797Y0022725D01*
X0455797Y0026894D01*
X0455428Y0026894D01*
X0455428Y0022726D01*
X0453810Y0022726D01*
X0453810Y0021431D02*
X0451260Y0018881D01*
X0451260Y0017263D01*
X0455428Y0017263D01*
X0455428Y0021431D01*
X0453810Y0021431D01*
X0453639Y0021260D02*
X0427586Y0021260D01*
X0429185Y0019662D02*
X0452041Y0019662D01*
X0455428Y0019662D02*
X0455797Y0019662D01*
X0455797Y0021260D02*
X0455428Y0021260D01*
X0455797Y0021431D02*
X0455797Y0017263D01*
X0455428Y0017263D01*
X0455428Y0016894D01*
X0451260Y0016894D01*
X0451260Y0015275D01*
X0453810Y0012726D01*
X0455428Y0012726D01*
X0455428Y0016894D01*
X0455797Y0016894D01*
X0455797Y0017263D01*
X0459965Y0017263D01*
X0459965Y0018881D01*
X0457416Y0021431D01*
X0455797Y0021431D01*
X0455797Y0022859D02*
X0455428Y0022859D01*
X0457549Y0022859D02*
X0463676Y0022859D01*
X0463810Y0022726D02*
X0461260Y0025275D01*
X0461260Y0026894D01*
X0465428Y0026894D01*
X0465428Y0027263D01*
X0465428Y0031431D01*
X0463810Y0031431D01*
X0461260Y0028881D01*
X0461260Y0027263D01*
X0465428Y0027263D01*
X0465797Y0027263D01*
X0465797Y0031431D01*
X0467416Y0031431D01*
X0469965Y0028881D01*
X0469965Y0027263D01*
X0465797Y0027263D01*
X0465797Y0026894D01*
X0469965Y0026894D01*
X0469965Y0025275D01*
X0467416Y0022726D01*
X0465797Y0022725D01*
X0465797Y0026894D01*
X0465428Y0026894D01*
X0465428Y0022726D01*
X0463810Y0022726D01*
X0463810Y0021431D02*
X0461260Y0018881D01*
X0461260Y0017263D01*
X0465428Y0017263D01*
X0465428Y0021431D01*
X0463810Y0021431D01*
X0463639Y0021260D02*
X0457586Y0021260D01*
X0459185Y0019662D02*
X0462041Y0019662D01*
X0465428Y0019662D02*
X0465797Y0019662D01*
X0465797Y0021260D02*
X0465428Y0021260D01*
X0465797Y0021431D02*
X0465797Y0017263D01*
X0465428Y0017263D01*
X0465428Y0016894D01*
X0461260Y0016894D01*
X0461260Y0015275D01*
X0463810Y0012726D01*
X0465428Y0012726D01*
X0465428Y0016894D01*
X0465797Y0016894D01*
X0465797Y0017263D01*
X0469965Y0017263D01*
X0469965Y0018881D01*
X0467416Y0021431D01*
X0465797Y0021431D01*
X0465797Y0022859D02*
X0465428Y0022859D01*
X0467549Y0022859D02*
X0493676Y0022859D01*
X0493810Y0022726D02*
X0491260Y0025275D01*
X0491260Y0026894D01*
X0495428Y0026894D01*
X0495428Y0027263D01*
X0495428Y0031431D01*
X0493810Y0031431D01*
X0491260Y0028881D01*
X0491260Y0027263D01*
X0495428Y0027263D01*
X0495797Y0027263D01*
X0495797Y0031431D01*
X0497416Y0031431D01*
X0499965Y0028881D01*
X0499965Y0027263D01*
X0495797Y0027263D01*
X0495797Y0026894D01*
X0499965Y0026894D01*
X0499965Y0025275D01*
X0497416Y0022726D01*
X0495797Y0022725D01*
X0495797Y0026894D01*
X0495428Y0026894D01*
X0495428Y0022726D01*
X0493810Y0022726D01*
X0493810Y0021431D02*
X0491260Y0018881D01*
X0491260Y0017263D01*
X0495428Y0017263D01*
X0495428Y0021431D01*
X0493810Y0021431D01*
X0493639Y0021260D02*
X0467586Y0021260D01*
X0469185Y0019662D02*
X0492041Y0019662D01*
X0495428Y0019662D02*
X0495797Y0019662D01*
X0495797Y0021260D02*
X0495428Y0021260D01*
X0495797Y0021431D02*
X0495797Y0017263D01*
X0495428Y0017263D01*
X0495428Y0016894D01*
X0491260Y0016894D01*
X0491260Y0015275D01*
X0493810Y0012726D01*
X0495428Y0012726D01*
X0495428Y0016894D01*
X0495797Y0016894D01*
X0495797Y0017263D01*
X0499965Y0017263D01*
X0499965Y0018881D01*
X0497416Y0021431D01*
X0495797Y0021431D01*
X0495797Y0022859D02*
X0495428Y0022859D01*
X0497549Y0022859D02*
X0503676Y0022859D01*
X0503810Y0022726D02*
X0501260Y0025275D01*
X0501260Y0026894D01*
X0505428Y0026894D01*
X0505428Y0027263D01*
X0505428Y0031431D01*
X0503810Y0031431D01*
X0501260Y0028881D01*
X0501260Y0027263D01*
X0505428Y0027263D01*
X0505797Y0027263D01*
X0505797Y0031431D01*
X0507416Y0031431D01*
X0509965Y0028881D01*
X0509965Y0027263D01*
X0505797Y0027263D01*
X0505797Y0026894D01*
X0509965Y0026894D01*
X0509965Y0025275D01*
X0507416Y0022726D01*
X0505797Y0022725D01*
X0505797Y0026894D01*
X0505428Y0026894D01*
X0505428Y0022726D01*
X0503810Y0022726D01*
X0503810Y0021431D02*
X0501260Y0018881D01*
X0501260Y0017263D01*
X0505428Y0017263D01*
X0505428Y0021431D01*
X0503810Y0021431D01*
X0503639Y0021260D02*
X0497586Y0021260D01*
X0499185Y0019662D02*
X0502041Y0019662D01*
X0505428Y0019662D02*
X0505797Y0019662D01*
X0505797Y0021260D02*
X0505428Y0021260D01*
X0505797Y0021431D02*
X0505797Y0017263D01*
X0505428Y0017263D01*
X0505428Y0016894D01*
X0501260Y0016894D01*
X0501260Y0015275D01*
X0503810Y0012726D01*
X0505428Y0012726D01*
X0505428Y0016894D01*
X0505797Y0016894D01*
X0505797Y0017263D01*
X0509965Y0017263D01*
X0509965Y0018881D01*
X0507416Y0021431D01*
X0505797Y0021431D01*
X0505797Y0022859D02*
X0505428Y0022859D01*
X0507549Y0022859D02*
X0513134Y0022859D01*
X0513134Y0024457D02*
X0509147Y0024457D01*
X0505797Y0024457D02*
X0505428Y0024457D01*
X0502078Y0024457D02*
X0499147Y0024457D01*
X0495797Y0024457D02*
X0495428Y0024457D01*
X0492078Y0024457D02*
X0469147Y0024457D01*
X0465797Y0024457D02*
X0465428Y0024457D01*
X0462078Y0024457D02*
X0459147Y0024457D01*
X0455797Y0024457D02*
X0455428Y0024457D01*
X0452078Y0024457D02*
X0429147Y0024457D01*
X0425797Y0024457D02*
X0425428Y0024457D01*
X0422078Y0024457D02*
X0419147Y0024457D01*
X0415797Y0024457D02*
X0415428Y0024457D01*
X0412078Y0024457D02*
X0389147Y0024457D01*
X0385797Y0024457D02*
X0385428Y0024457D01*
X0382078Y0024457D02*
X0379147Y0024457D01*
X0375797Y0024457D02*
X0375428Y0024457D01*
X0372078Y0024457D02*
X0349147Y0024457D01*
X0345797Y0024457D02*
X0345428Y0024457D01*
X0342078Y0024457D02*
X0339147Y0024457D01*
X0335797Y0024457D02*
X0335428Y0024457D01*
X0332078Y0024457D02*
X0309147Y0024457D01*
X0305797Y0024457D02*
X0305428Y0024457D01*
X0302078Y0024457D02*
X0299147Y0024457D01*
X0295797Y0024457D02*
X0295428Y0024457D01*
X0295428Y0026056D02*
X0295797Y0026056D01*
X0295797Y0027263D02*
X0299965Y0027263D01*
X0299965Y0028881D01*
X0297416Y0031431D01*
X0295797Y0031431D01*
X0295797Y0027263D01*
X0295797Y0027654D02*
X0295428Y0027654D01*
X0295428Y0029253D02*
X0295797Y0029253D01*
X0299594Y0029253D02*
X0301632Y0029253D01*
X0301260Y0027654D02*
X0299965Y0027654D01*
X0291632Y0029253D02*
X0269594Y0029253D01*
X0269965Y0027654D02*
X0291260Y0027654D01*
X0299965Y0026056D02*
X0301260Y0026056D01*
X0305428Y0026056D02*
X0305797Y0026056D01*
X0309965Y0026056D02*
X0331260Y0026056D01*
X0335428Y0026056D02*
X0335797Y0026056D01*
X0339965Y0026056D02*
X0341260Y0026056D01*
X0345428Y0026056D02*
X0345797Y0026056D01*
X0349965Y0026056D02*
X0371260Y0026056D01*
X0375428Y0026056D02*
X0375797Y0026056D01*
X0379965Y0026056D02*
X0381260Y0026056D01*
X0385428Y0026056D02*
X0385797Y0026056D01*
X0389965Y0026056D02*
X0411260Y0026056D01*
X0415428Y0026056D02*
X0415797Y0026056D01*
X0419965Y0026056D02*
X0421260Y0026056D01*
X0425428Y0026056D02*
X0425797Y0026056D01*
X0429965Y0026056D02*
X0451260Y0026056D01*
X0455428Y0026056D02*
X0455797Y0026056D01*
X0459965Y0026056D02*
X0461260Y0026056D01*
X0465428Y0026056D02*
X0465797Y0026056D01*
X0469965Y0026056D02*
X0491260Y0026056D01*
X0495428Y0026056D02*
X0495797Y0026056D01*
X0499965Y0026056D02*
X0501260Y0026056D01*
X0505428Y0026056D02*
X0505797Y0026056D01*
X0509965Y0026056D02*
X0513134Y0026056D01*
X0513134Y0027654D02*
X0509965Y0027654D01*
X0509594Y0029253D02*
X0513134Y0029253D01*
X0513134Y0030851D02*
X0507995Y0030851D01*
X0505797Y0030851D02*
X0505428Y0030851D01*
X0503230Y0030851D02*
X0497995Y0030851D01*
X0495797Y0030851D02*
X0495428Y0030851D01*
X0493230Y0030851D02*
X0467995Y0030851D01*
X0465797Y0030851D02*
X0465428Y0030851D01*
X0463230Y0030851D02*
X0457995Y0030851D01*
X0455797Y0030851D02*
X0455428Y0030851D01*
X0453230Y0030851D02*
X0427995Y0030851D01*
X0425797Y0030851D02*
X0425428Y0030851D01*
X0423230Y0030851D02*
X0417995Y0030851D01*
X0415797Y0030851D02*
X0415428Y0030851D01*
X0413230Y0030851D02*
X0387995Y0030851D01*
X0385797Y0030851D02*
X0385428Y0030851D01*
X0383230Y0030851D02*
X0377995Y0030851D01*
X0375797Y0030851D02*
X0375428Y0030851D01*
X0373230Y0030851D02*
X0347995Y0030851D01*
X0345797Y0030851D02*
X0345428Y0030851D01*
X0343230Y0030851D02*
X0337995Y0030851D01*
X0335797Y0030851D02*
X0335428Y0030851D01*
X0333230Y0030851D02*
X0307995Y0030851D01*
X0305797Y0030851D02*
X0305428Y0030851D01*
X0303230Y0030851D02*
X0297995Y0030851D01*
X0295797Y0030851D02*
X0295428Y0030851D01*
X0293230Y0030851D02*
X0267995Y0030851D01*
X0265797Y0030851D02*
X0265428Y0030851D01*
X0263230Y0030851D02*
X0257995Y0030851D01*
X0255797Y0029253D02*
X0255428Y0029253D01*
X0255428Y0027654D02*
X0255797Y0027654D01*
X0251632Y0029253D02*
X0105613Y0029253D01*
X0105613Y0027654D02*
X0251260Y0027654D01*
X0251260Y0026056D02*
X0105613Y0026056D01*
X0122994Y0018556D02*
X0124744Y0019281D01*
X0126639Y0019281D01*
X0128389Y0018556D01*
X0129729Y0017217D01*
X0130454Y0015466D01*
X0130454Y0008848D01*
X0129729Y0007097D01*
X0128389Y0005758D01*
X0126639Y0005033D01*
X0124744Y0005033D01*
X0122994Y0005758D01*
X0121654Y0007097D01*
X0120929Y0008848D01*
X0120929Y0015466D01*
X0121654Y0017217D01*
X0122994Y0018556D01*
X0122501Y0018063D02*
X0105613Y0018063D01*
X0105613Y0016465D02*
X0121343Y0016465D01*
X0120929Y0014866D02*
X0105613Y0014866D01*
X0105613Y0013268D02*
X0120929Y0013268D01*
X0120929Y0011669D02*
X0105613Y0011669D01*
X0105613Y0010071D02*
X0120929Y0010071D01*
X0121085Y0008472D02*
X0105613Y0008472D01*
X0105613Y0006874D02*
X0121878Y0006874D01*
X0124158Y0005275D02*
X0105613Y0005275D01*
X0127224Y0005275D02*
X0134158Y0005275D01*
X0134744Y0005033D02*
X0132994Y0005758D01*
X0131654Y0007097D01*
X0130929Y0008848D01*
X0130929Y0015466D01*
X0131654Y0017217D01*
X0132994Y0018556D01*
X0134744Y0019281D01*
X0136639Y0019281D01*
X0138389Y0018556D01*
X0139729Y0017217D01*
X0140454Y0015466D01*
X0140454Y0008848D01*
X0139729Y0007097D01*
X0138389Y0005758D01*
X0136639Y0005033D01*
X0134744Y0005033D01*
X0137224Y0005275D02*
X0214079Y0005275D01*
X0214665Y0005033D02*
X0216560Y0005033D01*
X0218310Y0005758D01*
X0219650Y0007097D01*
X0220375Y0008848D01*
X0220375Y0015466D01*
X0219650Y0017217D01*
X0218310Y0018556D01*
X0216560Y0019281D01*
X0214665Y0019281D01*
X0212915Y0018556D01*
X0211575Y0017217D01*
X0210850Y0015466D01*
X0210850Y0008848D01*
X0211575Y0007097D01*
X0212915Y0005758D01*
X0214665Y0005033D01*
X0217146Y0005275D02*
X0250260Y0005275D01*
X0250260Y0006874D02*
X0219426Y0006874D01*
X0220219Y0008472D02*
X0250260Y0008472D01*
X0251035Y0010071D02*
X0220375Y0010071D01*
X0220375Y0011669D02*
X0252634Y0011669D01*
X0253267Y0013268D02*
X0220375Y0013268D01*
X0220375Y0014866D02*
X0251669Y0014866D01*
X0255428Y0014866D02*
X0255797Y0014866D01*
X0257416Y0012726D02*
X0259965Y0015275D01*
X0259965Y0016894D01*
X0255797Y0016894D01*
X0255797Y0012726D01*
X0257416Y0012726D01*
X0257958Y0013268D02*
X0263267Y0013268D01*
X0262634Y0011669D02*
X0258591Y0011669D01*
X0255797Y0013268D02*
X0255428Y0013268D01*
X0259556Y0014866D02*
X0261669Y0014866D01*
X0265428Y0014866D02*
X0265797Y0014866D01*
X0267416Y0012726D02*
X0269965Y0015275D01*
X0269965Y0016894D01*
X0265797Y0016894D01*
X0265797Y0012726D01*
X0267416Y0012726D01*
X0267958Y0013268D02*
X0293267Y0013268D01*
X0292634Y0011669D02*
X0268591Y0011669D01*
X0265797Y0013268D02*
X0265428Y0013268D01*
X0269556Y0014866D02*
X0291669Y0014866D01*
X0295428Y0014866D02*
X0295797Y0014866D01*
X0297416Y0012726D02*
X0299965Y0015275D01*
X0299965Y0016894D01*
X0295797Y0016894D01*
X0295797Y0012726D01*
X0297416Y0012726D01*
X0297958Y0013268D02*
X0303267Y0013268D01*
X0302634Y0011669D02*
X0298591Y0011669D01*
X0295797Y0013268D02*
X0295428Y0013268D01*
X0299556Y0014866D02*
X0301669Y0014866D01*
X0305428Y0014866D02*
X0305797Y0014866D01*
X0307416Y0012726D02*
X0309965Y0015275D01*
X0309965Y0016894D01*
X0305797Y0016894D01*
X0305797Y0012726D01*
X0307416Y0012726D01*
X0307958Y0013268D02*
X0333267Y0013268D01*
X0332634Y0011669D02*
X0308591Y0011669D01*
X0305797Y0013268D02*
X0305428Y0013268D01*
X0309556Y0014866D02*
X0331669Y0014866D01*
X0335428Y0014866D02*
X0335797Y0014866D01*
X0337416Y0012726D02*
X0339965Y0015275D01*
X0339965Y0016894D01*
X0335797Y0016894D01*
X0335797Y0012726D01*
X0337416Y0012726D01*
X0337958Y0013268D02*
X0343267Y0013268D01*
X0342634Y0011669D02*
X0338591Y0011669D01*
X0335797Y0013268D02*
X0335428Y0013268D01*
X0339556Y0014866D02*
X0341669Y0014866D01*
X0345428Y0014866D02*
X0345797Y0014866D01*
X0347416Y0012726D02*
X0349965Y0015275D01*
X0349965Y0016894D01*
X0345797Y0016894D01*
X0345797Y0012726D01*
X0347416Y0012726D01*
X0347958Y0013268D02*
X0373267Y0013268D01*
X0372634Y0011669D02*
X0348591Y0011669D01*
X0345797Y0013268D02*
X0345428Y0013268D01*
X0349556Y0014866D02*
X0371669Y0014866D01*
X0375428Y0014866D02*
X0375797Y0014866D01*
X0377416Y0012726D02*
X0379965Y0015275D01*
X0379965Y0016894D01*
X0375797Y0016894D01*
X0375797Y0012726D01*
X0377416Y0012726D01*
X0377958Y0013268D02*
X0383267Y0013268D01*
X0382634Y0011669D02*
X0378591Y0011669D01*
X0375797Y0013268D02*
X0375428Y0013268D01*
X0379556Y0014866D02*
X0381669Y0014866D01*
X0385428Y0014866D02*
X0385797Y0014866D01*
X0387416Y0012726D02*
X0389965Y0015275D01*
X0389965Y0016894D01*
X0385797Y0016894D01*
X0385797Y0012726D01*
X0387416Y0012726D01*
X0387958Y0013268D02*
X0413267Y0013268D01*
X0412634Y0011669D02*
X0388591Y0011669D01*
X0385797Y0013268D02*
X0385428Y0013268D01*
X0389556Y0014866D02*
X0411669Y0014866D01*
X0415428Y0014866D02*
X0415797Y0014866D01*
X0417416Y0012726D02*
X0419965Y0015275D01*
X0419965Y0016894D01*
X0415797Y0016894D01*
X0415797Y0012726D01*
X0417416Y0012726D01*
X0417958Y0013268D02*
X0423267Y0013268D01*
X0422634Y0011669D02*
X0418591Y0011669D01*
X0415797Y0013268D02*
X0415428Y0013268D01*
X0419556Y0014866D02*
X0421669Y0014866D01*
X0425428Y0014866D02*
X0425797Y0014866D01*
X0427416Y0012726D02*
X0429965Y0015275D01*
X0429965Y0016894D01*
X0425797Y0016894D01*
X0425797Y0012726D01*
X0427416Y0012726D01*
X0427958Y0013268D02*
X0453267Y0013268D01*
X0452634Y0011669D02*
X0428591Y0011669D01*
X0425797Y0013268D02*
X0425428Y0013268D01*
X0429556Y0014866D02*
X0451669Y0014866D01*
X0455428Y0014866D02*
X0455797Y0014866D01*
X0457416Y0012726D02*
X0459965Y0015275D01*
X0459965Y0016894D01*
X0455797Y0016894D01*
X0455797Y0012726D01*
X0457416Y0012726D01*
X0457958Y0013268D02*
X0463267Y0013268D01*
X0462634Y0011669D02*
X0458591Y0011669D01*
X0455797Y0013268D02*
X0455428Y0013268D01*
X0465428Y0013268D02*
X0465797Y0013268D01*
X0465797Y0012726D02*
X0467416Y0012726D01*
X0469965Y0015275D01*
X0469965Y0016894D01*
X0465797Y0016894D01*
X0465797Y0012726D01*
X0467958Y0013268D02*
X0493267Y0013268D01*
X0492634Y0011669D02*
X0468591Y0011669D01*
X0470190Y0010071D02*
X0491035Y0010071D01*
X0490260Y0008472D02*
X0470965Y0008472D01*
X0470965Y0006874D02*
X0490260Y0006874D01*
X0490260Y0005275D02*
X0470965Y0005275D01*
X0450260Y0005275D02*
X0430965Y0005275D01*
X0430965Y0006874D02*
X0450260Y0006874D01*
X0450260Y0008472D02*
X0430965Y0008472D01*
X0430190Y0010071D02*
X0451035Y0010071D01*
X0460190Y0010071D02*
X0461035Y0010071D01*
X0461669Y0014866D02*
X0459556Y0014866D01*
X0465428Y0014866D02*
X0465797Y0014866D01*
X0469556Y0014866D02*
X0491669Y0014866D01*
X0495428Y0014866D02*
X0495797Y0014866D01*
X0497416Y0012726D02*
X0499965Y0015275D01*
X0499965Y0016894D01*
X0495797Y0016894D01*
X0495797Y0012726D01*
X0497416Y0012726D01*
X0497958Y0013268D02*
X0503267Y0013268D01*
X0502634Y0011669D02*
X0498591Y0011669D01*
X0495797Y0013268D02*
X0495428Y0013268D01*
X0499556Y0014866D02*
X0501669Y0014866D01*
X0505428Y0014866D02*
X0505797Y0014866D01*
X0507416Y0012726D02*
X0509965Y0015275D01*
X0509965Y0016894D01*
X0505797Y0016894D01*
X0505797Y0012726D01*
X0507416Y0012726D01*
X0507958Y0013268D02*
X0513134Y0013268D01*
X0513134Y0011669D02*
X0508591Y0011669D01*
X0505797Y0013268D02*
X0505428Y0013268D01*
X0509556Y0014866D02*
X0513134Y0014866D01*
X0513134Y0016465D02*
X0509965Y0016465D01*
X0505797Y0016465D02*
X0505428Y0016465D01*
X0501260Y0016465D02*
X0499965Y0016465D01*
X0495797Y0016465D02*
X0495428Y0016465D01*
X0491260Y0016465D02*
X0469965Y0016465D01*
X0465797Y0016465D02*
X0465428Y0016465D01*
X0461260Y0016465D02*
X0459965Y0016465D01*
X0455797Y0016465D02*
X0455428Y0016465D01*
X0451260Y0016465D02*
X0429965Y0016465D01*
X0425797Y0016465D02*
X0425428Y0016465D01*
X0421260Y0016465D02*
X0419965Y0016465D01*
X0415797Y0016465D02*
X0415428Y0016465D01*
X0411260Y0016465D02*
X0389965Y0016465D01*
X0385797Y0016465D02*
X0385428Y0016465D01*
X0381260Y0016465D02*
X0379965Y0016465D01*
X0375797Y0016465D02*
X0375428Y0016465D01*
X0371260Y0016465D02*
X0349965Y0016465D01*
X0345797Y0016465D02*
X0345428Y0016465D01*
X0341260Y0016465D02*
X0339965Y0016465D01*
X0335797Y0016465D02*
X0335428Y0016465D01*
X0331260Y0016465D02*
X0309965Y0016465D01*
X0305797Y0016465D02*
X0305428Y0016465D01*
X0301260Y0016465D02*
X0299965Y0016465D01*
X0295797Y0016465D02*
X0295428Y0016465D01*
X0291260Y0016465D02*
X0269965Y0016465D01*
X0265797Y0016465D02*
X0265428Y0016465D01*
X0261260Y0016465D02*
X0259965Y0016465D01*
X0255797Y0016465D02*
X0255428Y0016465D01*
X0251260Y0016465D02*
X0219961Y0016465D01*
X0218803Y0018063D02*
X0251260Y0018063D01*
X0255428Y0018063D02*
X0255797Y0018063D01*
X0259965Y0018063D02*
X0261260Y0018063D01*
X0265428Y0018063D02*
X0265797Y0018063D01*
X0269965Y0018063D02*
X0291260Y0018063D01*
X0295428Y0018063D02*
X0295797Y0018063D01*
X0299965Y0018063D02*
X0301260Y0018063D01*
X0305428Y0018063D02*
X0305797Y0018063D01*
X0309965Y0018063D02*
X0331260Y0018063D01*
X0335428Y0018063D02*
X0335797Y0018063D01*
X0339965Y0018063D02*
X0341260Y0018063D01*
X0345428Y0018063D02*
X0345797Y0018063D01*
X0349965Y0018063D02*
X0371260Y0018063D01*
X0375428Y0018063D02*
X0375797Y0018063D01*
X0379965Y0018063D02*
X0381260Y0018063D01*
X0385428Y0018063D02*
X0385797Y0018063D01*
X0389965Y0018063D02*
X0411260Y0018063D01*
X0415428Y0018063D02*
X0415797Y0018063D01*
X0419965Y0018063D02*
X0421260Y0018063D01*
X0425428Y0018063D02*
X0425797Y0018063D01*
X0429965Y0018063D02*
X0451260Y0018063D01*
X0455428Y0018063D02*
X0455797Y0018063D01*
X0459965Y0018063D02*
X0461260Y0018063D01*
X0465428Y0018063D02*
X0465797Y0018063D01*
X0469965Y0018063D02*
X0491260Y0018063D01*
X0495428Y0018063D02*
X0495797Y0018063D01*
X0499965Y0018063D02*
X0501260Y0018063D01*
X0505428Y0018063D02*
X0505797Y0018063D01*
X0509965Y0018063D02*
X0513134Y0018063D01*
X0513134Y0019662D02*
X0509185Y0019662D01*
X0507586Y0021260D02*
X0513134Y0021260D01*
X0505797Y0027654D02*
X0505428Y0027654D01*
X0505428Y0029253D02*
X0505797Y0029253D01*
X0501632Y0029253D02*
X0499594Y0029253D01*
X0499965Y0027654D02*
X0501260Y0027654D01*
X0495797Y0027654D02*
X0495428Y0027654D01*
X0495428Y0029253D02*
X0495797Y0029253D01*
X0491632Y0029253D02*
X0469594Y0029253D01*
X0469965Y0027654D02*
X0491260Y0027654D01*
X0465797Y0027654D02*
X0465428Y0027654D01*
X0465428Y0029253D02*
X0465797Y0029253D01*
X0461632Y0029253D02*
X0459594Y0029253D01*
X0459965Y0027654D02*
X0461260Y0027654D01*
X0455797Y0027654D02*
X0455428Y0027654D01*
X0455428Y0029253D02*
X0455797Y0029253D01*
X0451632Y0029253D02*
X0429594Y0029253D01*
X0429965Y0027654D02*
X0451260Y0027654D01*
X0455797Y0032725D02*
X0457416Y0032726D01*
X0459965Y0035275D01*
X0459965Y0036894D01*
X0455797Y0036894D01*
X0455797Y0032725D01*
X0455797Y0034048D02*
X0455428Y0034048D01*
X0452487Y0034048D02*
X0428739Y0034048D01*
X0429965Y0035275D02*
X0429965Y0036894D01*
X0425797Y0036894D01*
X0425797Y0032725D01*
X0427416Y0032726D01*
X0429965Y0035275D01*
X0429965Y0035647D02*
X0451260Y0035647D01*
X0455428Y0035647D02*
X0455797Y0035647D01*
X0459965Y0035647D02*
X0461260Y0035647D01*
X0465428Y0035647D02*
X0465797Y0035647D01*
X0465797Y0036894D02*
X0465797Y0032725D01*
X0467416Y0032726D01*
X0469965Y0035275D01*
X0469965Y0036894D01*
X0465797Y0036894D01*
X0469965Y0035647D02*
X0491260Y0035647D01*
X0495428Y0035647D02*
X0495797Y0035647D01*
X0495797Y0036894D02*
X0495797Y0032725D01*
X0497416Y0032726D01*
X0499965Y0035275D01*
X0499965Y0036894D01*
X0495797Y0036894D01*
X0499965Y0035647D02*
X0501260Y0035647D01*
X0505428Y0035647D02*
X0505797Y0035647D01*
X0505797Y0034048D02*
X0505428Y0034048D01*
X0502487Y0034048D02*
X0498739Y0034048D01*
X0495797Y0034048D02*
X0495428Y0034048D01*
X0492487Y0034048D02*
X0468739Y0034048D01*
X0465797Y0034048D02*
X0465428Y0034048D01*
X0462487Y0034048D02*
X0458739Y0034048D01*
X0459965Y0038844D02*
X0461260Y0038844D01*
X0465428Y0038844D02*
X0465797Y0038844D01*
X0469965Y0038844D02*
X0491260Y0038844D01*
X0495428Y0038844D02*
X0495797Y0038844D01*
X0499965Y0038844D02*
X0501260Y0038844D01*
X0505428Y0038844D02*
X0505797Y0038844D01*
X0509965Y0038844D02*
X0513134Y0038844D01*
X0513134Y0040443D02*
X0508404Y0040443D01*
X0505797Y0040443D02*
X0505428Y0040443D01*
X0502821Y0040443D02*
X0498404Y0040443D01*
X0495797Y0040443D02*
X0495428Y0040443D01*
X0492821Y0040443D02*
X0468404Y0040443D01*
X0465797Y0040443D02*
X0465428Y0040443D01*
X0462821Y0040443D02*
X0458404Y0040443D01*
X0455797Y0040443D02*
X0455428Y0040443D01*
X0452821Y0040443D02*
X0428404Y0040443D01*
X0425797Y0040443D02*
X0425428Y0040443D01*
X0422821Y0040443D02*
X0418404Y0040443D01*
X0415797Y0040443D02*
X0415428Y0040443D01*
X0412821Y0040443D02*
X0388404Y0040443D01*
X0385797Y0040443D02*
X0385428Y0040443D01*
X0382821Y0040443D02*
X0378404Y0040443D01*
X0375797Y0040443D02*
X0375428Y0040443D01*
X0372821Y0040443D02*
X0348404Y0040443D01*
X0345797Y0040443D02*
X0345428Y0040443D01*
X0342821Y0040443D02*
X0338404Y0040443D01*
X0335797Y0040443D02*
X0335428Y0040443D01*
X0332821Y0040443D02*
X0308404Y0040443D01*
X0305797Y0040443D02*
X0305428Y0040443D01*
X0302821Y0040443D02*
X0298404Y0040443D01*
X0295797Y0040443D02*
X0295428Y0040443D01*
X0292821Y0040443D02*
X0268404Y0040443D01*
X0265797Y0040443D02*
X0265428Y0040443D01*
X0262821Y0040443D02*
X0258404Y0040443D01*
X0255797Y0040443D02*
X0255428Y0040443D01*
X0252821Y0040443D02*
X0244312Y0040443D01*
X0244312Y0042041D02*
X0253080Y0042041D01*
X0251481Y0043640D02*
X0244312Y0043640D01*
X0243720Y0045238D02*
X0250260Y0045238D01*
X0250260Y0046837D02*
X0243058Y0046837D01*
X0259744Y0043640D02*
X0261481Y0043640D01*
X0263080Y0042041D02*
X0258145Y0042041D01*
X0268145Y0042041D02*
X0293080Y0042041D01*
X0291481Y0043640D02*
X0269744Y0043640D01*
X0270965Y0045238D02*
X0290260Y0045238D01*
X0290260Y0046837D02*
X0270965Y0046837D01*
X0298145Y0042041D02*
X0303080Y0042041D01*
X0301481Y0043640D02*
X0299744Y0043640D01*
X0308145Y0042041D02*
X0333080Y0042041D01*
X0331481Y0043640D02*
X0309744Y0043640D01*
X0310965Y0045238D02*
X0330260Y0045238D01*
X0330260Y0046837D02*
X0310965Y0046837D01*
X0338145Y0042041D02*
X0343080Y0042041D01*
X0341481Y0043640D02*
X0339744Y0043640D01*
X0348145Y0042041D02*
X0373080Y0042041D01*
X0371481Y0043640D02*
X0349744Y0043640D01*
X0350965Y0045238D02*
X0370260Y0045238D01*
X0370260Y0046837D02*
X0350965Y0046837D01*
X0378145Y0042041D02*
X0383080Y0042041D01*
X0381481Y0043640D02*
X0379744Y0043640D01*
X0388145Y0042041D02*
X0413080Y0042041D01*
X0411481Y0043640D02*
X0389744Y0043640D01*
X0390965Y0045238D02*
X0410260Y0045238D01*
X0410260Y0046837D02*
X0390965Y0046837D01*
X0418145Y0042041D02*
X0423080Y0042041D01*
X0421481Y0043640D02*
X0419744Y0043640D01*
X0428145Y0042041D02*
X0453080Y0042041D01*
X0451481Y0043640D02*
X0429744Y0043640D01*
X0430965Y0045238D02*
X0450260Y0045238D01*
X0450260Y0046837D02*
X0430965Y0046837D01*
X0458145Y0042041D02*
X0463080Y0042041D01*
X0461481Y0043640D02*
X0459744Y0043640D01*
X0468145Y0042041D02*
X0493080Y0042041D01*
X0491481Y0043640D02*
X0469744Y0043640D01*
X0470965Y0045238D02*
X0490260Y0045238D01*
X0490260Y0046837D02*
X0470965Y0046837D01*
X0498145Y0042041D02*
X0503080Y0042041D01*
X0501481Y0043640D02*
X0499744Y0043640D01*
X0508145Y0042041D02*
X0513134Y0042041D01*
X0513134Y0043640D02*
X0509744Y0043640D01*
X0510965Y0045238D02*
X0513134Y0045238D01*
X0513134Y0046837D02*
X0510965Y0046837D01*
X0455797Y0038844D02*
X0455428Y0038844D01*
X0451260Y0038844D02*
X0429965Y0038844D01*
X0425797Y0038844D02*
X0425428Y0038844D01*
X0421260Y0038844D02*
X0419965Y0038844D01*
X0415797Y0038844D02*
X0415428Y0038844D01*
X0411260Y0038844D02*
X0389965Y0038844D01*
X0385797Y0038844D02*
X0385428Y0038844D01*
X0381260Y0038844D02*
X0379965Y0038844D01*
X0375797Y0038844D02*
X0375428Y0038844D01*
X0371260Y0038844D02*
X0349965Y0038844D01*
X0345797Y0038844D02*
X0345428Y0038844D01*
X0341260Y0038844D02*
X0339965Y0038844D01*
X0335797Y0038844D02*
X0335428Y0038844D01*
X0331260Y0038844D02*
X0309965Y0038844D01*
X0305797Y0038844D02*
X0305428Y0038844D01*
X0301260Y0038844D02*
X0299965Y0038844D01*
X0295797Y0038844D02*
X0295428Y0038844D01*
X0291260Y0038844D02*
X0269965Y0038844D01*
X0265797Y0038844D02*
X0265428Y0038844D01*
X0261260Y0038844D02*
X0259965Y0038844D01*
X0255797Y0038844D02*
X0255428Y0038844D01*
X0251260Y0038844D02*
X0243689Y0038844D01*
X0255428Y0035647D02*
X0255797Y0035647D01*
X0259965Y0035647D02*
X0261260Y0035647D01*
X0265428Y0035647D02*
X0265797Y0035647D01*
X0265797Y0036894D02*
X0265797Y0032725D01*
X0267416Y0032726D01*
X0269965Y0035275D01*
X0269965Y0036894D01*
X0265797Y0036894D01*
X0269965Y0035647D02*
X0291260Y0035647D01*
X0295428Y0035647D02*
X0295797Y0035647D01*
X0295797Y0036894D02*
X0295797Y0032725D01*
X0297416Y0032726D01*
X0299965Y0035275D01*
X0299965Y0036894D01*
X0295797Y0036894D01*
X0299965Y0035647D02*
X0301260Y0035647D01*
X0305428Y0035647D02*
X0305797Y0035647D01*
X0305797Y0036894D02*
X0305797Y0032725D01*
X0307416Y0032726D01*
X0309965Y0035275D01*
X0309965Y0036894D01*
X0305797Y0036894D01*
X0309965Y0035647D02*
X0331260Y0035647D01*
X0335428Y0035647D02*
X0335797Y0035647D01*
X0335797Y0036894D02*
X0335797Y0032725D01*
X0337416Y0032726D01*
X0339965Y0035275D01*
X0339965Y0036894D01*
X0335797Y0036894D01*
X0339965Y0035647D02*
X0341260Y0035647D01*
X0345428Y0035647D02*
X0345797Y0035647D01*
X0345797Y0036894D02*
X0345797Y0032725D01*
X0347416Y0032726D01*
X0349965Y0035275D01*
X0349965Y0036894D01*
X0345797Y0036894D01*
X0349965Y0035647D02*
X0371260Y0035647D01*
X0375428Y0035647D02*
X0375797Y0035647D01*
X0375797Y0036894D02*
X0375797Y0032725D01*
X0377416Y0032726D01*
X0379965Y0035275D01*
X0379965Y0036894D01*
X0375797Y0036894D01*
X0379965Y0035647D02*
X0381260Y0035647D01*
X0385428Y0035647D02*
X0385797Y0035647D01*
X0385797Y0036894D02*
X0385797Y0032725D01*
X0387416Y0032726D01*
X0389965Y0035275D01*
X0389965Y0036894D01*
X0385797Y0036894D01*
X0389965Y0035647D02*
X0411260Y0035647D01*
X0415428Y0035647D02*
X0415797Y0035647D01*
X0415797Y0036894D02*
X0415797Y0032725D01*
X0417416Y0032726D01*
X0419965Y0035275D01*
X0419965Y0036894D01*
X0415797Y0036894D01*
X0419965Y0035647D02*
X0421260Y0035647D01*
X0425428Y0035647D02*
X0425797Y0035647D01*
X0425797Y0034048D02*
X0425428Y0034048D01*
X0422487Y0034048D02*
X0418739Y0034048D01*
X0415797Y0034048D02*
X0415428Y0034048D01*
X0412487Y0034048D02*
X0388739Y0034048D01*
X0385797Y0034048D02*
X0385428Y0034048D01*
X0382487Y0034048D02*
X0378739Y0034048D01*
X0375797Y0034048D02*
X0375428Y0034048D01*
X0372487Y0034048D02*
X0348739Y0034048D01*
X0345797Y0034048D02*
X0345428Y0034048D01*
X0342487Y0034048D02*
X0338739Y0034048D01*
X0335797Y0034048D02*
X0335428Y0034048D01*
X0332487Y0034048D02*
X0308739Y0034048D01*
X0305797Y0034048D02*
X0305428Y0034048D01*
X0302487Y0034048D02*
X0298739Y0034048D01*
X0295797Y0034048D02*
X0295428Y0034048D01*
X0292487Y0034048D02*
X0268739Y0034048D01*
X0265797Y0034048D02*
X0265428Y0034048D01*
X0262487Y0034048D02*
X0258739Y0034048D01*
X0255797Y0034048D02*
X0255428Y0034048D01*
X0265428Y0029253D02*
X0265797Y0029253D01*
X0265797Y0027654D02*
X0265428Y0027654D01*
X0255797Y0026056D02*
X0255428Y0026056D01*
X0212422Y0018063D02*
X0196809Y0018063D01*
X0196631Y0018137D02*
X0195904Y0018281D01*
X0195534Y0018281D01*
X0195534Y0012157D01*
X0199296Y0012157D01*
X0199296Y0014890D01*
X0199151Y0015617D01*
X0198868Y0016301D01*
X0198456Y0016917D01*
X0197932Y0017441D01*
X0197316Y0017853D01*
X0196631Y0018137D01*
X0195534Y0018063D02*
X0195534Y0018063D01*
X0195534Y0018281D02*
X0195163Y0018281D01*
X0194436Y0018137D01*
X0193752Y0017853D01*
X0193136Y0017441D01*
X0192612Y0016917D01*
X0192200Y0016301D01*
X0191916Y0015617D01*
X0191772Y0014890D01*
X0191772Y0012157D01*
X0191772Y0009424D01*
X0191916Y0008697D01*
X0192200Y0008013D01*
X0192612Y0007397D01*
X0193136Y0006873D01*
X0193752Y0006461D01*
X0194436Y0006177D01*
X0195163Y0006033D01*
X0195534Y0006033D01*
X0195904Y0006033D01*
X0196631Y0006177D01*
X0197316Y0006461D01*
X0197932Y0006873D01*
X0198456Y0007397D01*
X0198868Y0008013D01*
X0199151Y0008697D01*
X0199296Y0009424D01*
X0199296Y0012157D01*
X0195534Y0012157D01*
X0195534Y0012157D01*
X0195534Y0012157D01*
X0195534Y0006033D01*
X0195534Y0012157D01*
X0195534Y0012157D01*
X0195534Y0018281D01*
X0194259Y0018063D02*
X0138882Y0018063D01*
X0132501Y0018063D02*
X0128882Y0018063D01*
X0130040Y0016465D02*
X0131343Y0016465D01*
X0130929Y0014866D02*
X0130454Y0014866D01*
X0130454Y0013268D02*
X0130929Y0013268D01*
X0130929Y0011669D02*
X0130454Y0011669D01*
X0130454Y0010071D02*
X0130929Y0010071D01*
X0131085Y0008472D02*
X0130298Y0008472D01*
X0129505Y0006874D02*
X0131878Y0006874D01*
X0139505Y0006874D02*
X0193134Y0006874D01*
X0195534Y0006874D02*
X0195534Y0006874D01*
X0197933Y0006874D02*
X0211799Y0006874D01*
X0211006Y0008472D02*
X0199058Y0008472D01*
X0195534Y0008472D02*
X0195534Y0008472D01*
X0192009Y0008472D02*
X0140298Y0008472D01*
X0140454Y0010071D02*
X0191772Y0010071D01*
X0195534Y0010071D02*
X0195534Y0010071D01*
X0199296Y0010071D02*
X0210850Y0010071D01*
X0210850Y0011669D02*
X0199296Y0011669D01*
X0199296Y0013268D02*
X0210850Y0013268D01*
X0210850Y0014866D02*
X0199296Y0014866D01*
X0195534Y0014866D02*
X0195534Y0014866D01*
X0191772Y0014866D02*
X0140454Y0014866D01*
X0140454Y0013268D02*
X0191772Y0013268D01*
X0191772Y0012157D02*
X0195534Y0012157D01*
X0191772Y0012157D01*
X0191772Y0011669D02*
X0140454Y0011669D01*
X0140040Y0016465D02*
X0192309Y0016465D01*
X0195534Y0016465D02*
X0195534Y0016465D01*
X0198759Y0016465D02*
X0211264Y0016465D01*
X0195534Y0013268D02*
X0195534Y0013268D01*
X0195534Y0012157D02*
X0195534Y0012157D01*
X0195534Y0011669D02*
X0195534Y0011669D01*
X0260190Y0010071D02*
X0261035Y0010071D01*
X0270190Y0010071D02*
X0291035Y0010071D01*
X0290260Y0008472D02*
X0270965Y0008472D01*
X0270965Y0006874D02*
X0290260Y0006874D01*
X0290260Y0005275D02*
X0270965Y0005275D01*
X0300190Y0010071D02*
X0301035Y0010071D01*
X0310190Y0010071D02*
X0331035Y0010071D01*
X0330260Y0008472D02*
X0310965Y0008472D01*
X0310965Y0006874D02*
X0330260Y0006874D01*
X0330260Y0005275D02*
X0310965Y0005275D01*
X0340190Y0010071D02*
X0341035Y0010071D01*
X0350190Y0010071D02*
X0371035Y0010071D01*
X0370260Y0008472D02*
X0350965Y0008472D01*
X0350965Y0006874D02*
X0370260Y0006874D01*
X0370260Y0005275D02*
X0350965Y0005275D01*
X0380190Y0010071D02*
X0381035Y0010071D01*
X0390190Y0010071D02*
X0411035Y0010071D01*
X0410260Y0008472D02*
X0390965Y0008472D01*
X0390965Y0006874D02*
X0410260Y0006874D01*
X0410260Y0005275D02*
X0390965Y0005275D01*
X0420190Y0010071D02*
X0421035Y0010071D01*
X0500190Y0010071D02*
X0501035Y0010071D01*
X0510190Y0010071D02*
X0513134Y0010071D01*
X0513134Y0008472D02*
X0510965Y0008472D01*
X0510965Y0006874D02*
X0513121Y0006874D01*
X0512385Y0005275D02*
X0510965Y0005275D01*
X0425797Y0027654D02*
X0425428Y0027654D01*
X0425428Y0029253D02*
X0425797Y0029253D01*
X0421632Y0029253D02*
X0419594Y0029253D01*
X0419965Y0027654D02*
X0421260Y0027654D01*
X0415797Y0027654D02*
X0415428Y0027654D01*
X0415428Y0029253D02*
X0415797Y0029253D01*
X0411632Y0029253D02*
X0389594Y0029253D01*
X0389965Y0027654D02*
X0411260Y0027654D01*
X0385797Y0027654D02*
X0385428Y0027654D01*
X0385428Y0029253D02*
X0385797Y0029253D01*
X0381632Y0029253D02*
X0379594Y0029253D01*
X0379965Y0027654D02*
X0381260Y0027654D01*
X0375797Y0027654D02*
X0375428Y0027654D01*
X0375428Y0029253D02*
X0375797Y0029253D01*
X0371632Y0029253D02*
X0349594Y0029253D01*
X0349965Y0027654D02*
X0371260Y0027654D01*
X0345797Y0027654D02*
X0345428Y0027654D01*
X0345428Y0029253D02*
X0345797Y0029253D01*
X0341632Y0029253D02*
X0339594Y0029253D01*
X0339965Y0027654D02*
X0341260Y0027654D01*
X0335797Y0027654D02*
X0335428Y0027654D01*
X0335428Y0029253D02*
X0335797Y0029253D01*
X0331632Y0029253D02*
X0309594Y0029253D01*
X0309965Y0027654D02*
X0331260Y0027654D01*
X0305797Y0027654D02*
X0305428Y0027654D01*
X0305428Y0029253D02*
X0305797Y0029253D01*
D16*
X0110613Y0062078D03*
D17*
X0095613Y0082078D02*
X0085613Y0072078D01*
X0095613Y0082078D02*
X0225613Y0082078D01*
X0250613Y0057078D01*
X0255613Y0057078D01*
M02*
