G75*
%MOIN*%
%OFA0B0*%
%FSLAX25Y25*%
%IPPOS*%
%LPD*%
%AMOC8*
5,1,8,0,0,1.08239X$1,22.5*
%
%ADD10C,0.00400*%
D10*
X0144894Y0021511D02*
X0144894Y0025348D01*
X0147963Y0025348D02*
X0147963Y0023046D01*
X0147196Y0022278D01*
X0144894Y0022278D01*
X0144894Y0021511D02*
X0145661Y0020744D01*
X0146428Y0020744D01*
X0149498Y0022278D02*
X0151799Y0022278D01*
X0152567Y0023046D01*
X0152567Y0024580D01*
X0151799Y0025348D01*
X0149498Y0025348D01*
X0154101Y0024580D02*
X0154101Y0023813D01*
X0157171Y0023813D01*
X0157171Y0023046D02*
X0157171Y0024580D01*
X0156403Y0025348D01*
X0154869Y0025348D01*
X0154101Y0024580D01*
X0158705Y0024580D02*
X0159473Y0025348D01*
X0161775Y0025348D01*
X0161775Y0022278D01*
X0163309Y0022278D02*
X0163309Y0024580D01*
X0164077Y0025348D01*
X0166379Y0025348D01*
X0166379Y0022278D01*
X0167913Y0023813D02*
X0170982Y0023813D01*
X0170982Y0023046D02*
X0170982Y0024580D01*
X0170215Y0025348D01*
X0168681Y0025348D01*
X0167913Y0024580D01*
X0167913Y0023813D01*
X0168681Y0022278D02*
X0170215Y0022278D01*
X0170982Y0023046D01*
X0172517Y0022278D02*
X0174819Y0024580D01*
X0175586Y0023813D02*
X0172517Y0026882D01*
X0175586Y0026882D02*
X0175586Y0022278D01*
X0181725Y0023813D02*
X0181725Y0024580D01*
X0182492Y0025348D01*
X0184027Y0025348D01*
X0184794Y0024580D01*
X0184794Y0023046D01*
X0184027Y0022278D01*
X0182492Y0022278D01*
X0181725Y0023813D02*
X0184794Y0023813D01*
X0186329Y0023813D02*
X0186329Y0024580D01*
X0187096Y0025348D01*
X0188631Y0025348D01*
X0189398Y0024580D01*
X0189398Y0023046D01*
X0188631Y0022278D01*
X0187096Y0022278D01*
X0186329Y0023813D02*
X0189398Y0023813D01*
X0190933Y0022278D02*
X0192467Y0022278D01*
X0191700Y0022278D02*
X0191700Y0026882D01*
X0192467Y0026882D01*
X0198606Y0026882D02*
X0201675Y0023813D01*
X0200908Y0024580D02*
X0198606Y0022278D01*
X0197071Y0023046D02*
X0196304Y0022278D01*
X0194002Y0022278D01*
X0194002Y0021511D02*
X0194769Y0020744D01*
X0195537Y0020744D01*
X0194002Y0021511D02*
X0194002Y0025348D01*
X0197071Y0025348D02*
X0197071Y0023046D01*
X0201675Y0022278D02*
X0201675Y0026882D01*
X0207814Y0024580D02*
X0208581Y0025348D01*
X0210116Y0025348D01*
X0210883Y0024580D01*
X0210883Y0023046D01*
X0210116Y0022278D01*
X0208581Y0022278D01*
X0207814Y0023046D01*
X0207814Y0024580D01*
X0212418Y0025348D02*
X0213952Y0025348D01*
X0213185Y0026115D02*
X0213185Y0023046D01*
X0212418Y0022278D01*
X0220091Y0023046D02*
X0220858Y0023813D01*
X0222393Y0023813D01*
X0223160Y0024580D01*
X0222393Y0025348D01*
X0220091Y0025348D01*
X0224695Y0025348D02*
X0226997Y0023813D01*
X0224695Y0022278D01*
X0223160Y0022278D02*
X0220858Y0022278D01*
X0220091Y0023046D01*
X0226997Y0022278D02*
X0226997Y0026882D01*
X0229299Y0025348D02*
X0228532Y0024580D01*
X0228532Y0022278D01*
X0231601Y0022278D02*
X0231601Y0025348D01*
X0229299Y0025348D01*
X0233135Y0024580D02*
X0233135Y0022278D01*
X0235437Y0022278D01*
X0236205Y0023046D01*
X0235437Y0023813D01*
X0233135Y0023813D01*
X0233135Y0024580D02*
X0233903Y0025348D01*
X0235437Y0025348D01*
X0237739Y0024580D02*
X0237739Y0022278D01*
X0240809Y0022278D02*
X0240809Y0026882D01*
X0242343Y0026882D02*
X0245413Y0026882D01*
X0243878Y0026882D02*
X0243878Y0022278D01*
X0240809Y0024580D02*
X0240041Y0025348D01*
X0238507Y0025348D01*
X0237739Y0024580D01*
X0237739Y0037278D02*
X0240041Y0037278D01*
X0240809Y0038046D01*
X0240041Y0038813D01*
X0237739Y0038813D01*
X0237739Y0039580D02*
X0237739Y0037278D01*
X0236205Y0037278D02*
X0236205Y0040348D01*
X0234670Y0040348D02*
X0233903Y0040348D01*
X0234670Y0040348D02*
X0236205Y0038813D01*
X0237739Y0039580D02*
X0238507Y0040348D01*
X0240041Y0040348D01*
X0242343Y0041882D02*
X0243878Y0040348D01*
X0245413Y0041882D01*
X0245413Y0037278D01*
X0242343Y0037278D02*
X0242343Y0041882D01*
X0232368Y0039580D02*
X0231601Y0040348D01*
X0229299Y0040348D01*
X0227764Y0039580D02*
X0226997Y0040348D01*
X0225462Y0040348D01*
X0224695Y0039580D01*
X0224695Y0037278D01*
X0227764Y0037278D02*
X0227764Y0041882D01*
X0218556Y0041115D02*
X0217789Y0041882D01*
X0216254Y0041882D01*
X0215487Y0041115D01*
X0215487Y0040348D01*
X0218556Y0037278D01*
X0215487Y0037278D01*
X0213952Y0038046D02*
X0213185Y0037278D01*
X0211650Y0037278D01*
X0210883Y0038046D01*
X0210883Y0041115D01*
X0213952Y0038046D01*
X0213952Y0041115D01*
X0213185Y0041882D01*
X0211650Y0041882D01*
X0210883Y0041115D01*
X0209349Y0040348D02*
X0207814Y0041882D01*
X0207814Y0037278D01*
X0209349Y0037278D02*
X0206279Y0037278D01*
X0204745Y0038046D02*
X0203977Y0037278D01*
X0202443Y0037278D01*
X0201675Y0038046D01*
X0201675Y0038813D01*
X0202443Y0039580D01*
X0203977Y0039580D01*
X0204745Y0040348D01*
X0204745Y0041115D01*
X0203977Y0041882D01*
X0202443Y0041882D01*
X0201675Y0041115D01*
X0201675Y0040348D01*
X0202443Y0039580D01*
X0203977Y0039580D02*
X0204745Y0038813D01*
X0204745Y0038046D01*
X0195537Y0038813D02*
X0193235Y0038813D01*
X0192467Y0039580D01*
X0192467Y0041115D01*
X0193235Y0041882D01*
X0195537Y0041882D01*
X0195537Y0037278D01*
X0190933Y0037278D02*
X0190933Y0040348D01*
X0189398Y0040348D02*
X0188631Y0040348D01*
X0189398Y0040348D02*
X0190933Y0038813D01*
X0187096Y0039580D02*
X0187096Y0038046D01*
X0186329Y0037278D01*
X0184794Y0037278D01*
X0184027Y0038046D01*
X0184027Y0039580D01*
X0184794Y0040348D01*
X0186329Y0040348D01*
X0187096Y0039580D01*
X0182492Y0040348D02*
X0180958Y0040348D01*
X0181725Y0041115D02*
X0181725Y0038046D01*
X0180958Y0037278D01*
X0179423Y0038046D02*
X0178656Y0037278D01*
X0177121Y0037278D01*
X0176354Y0038046D01*
X0176354Y0039580D01*
X0177121Y0040348D01*
X0178656Y0040348D01*
X0179423Y0039580D01*
X0179423Y0038046D01*
X0170215Y0037278D02*
X0167146Y0037278D01*
X0168681Y0037278D02*
X0168681Y0041882D01*
X0170215Y0040348D01*
X0170215Y0044778D02*
X0170983Y0045546D01*
X0170983Y0047080D01*
X0170215Y0047848D01*
X0167913Y0047848D01*
X0166379Y0047080D02*
X0165611Y0047848D01*
X0164077Y0047848D01*
X0163309Y0047080D01*
X0163309Y0045546D01*
X0164077Y0044778D01*
X0165611Y0044778D01*
X0166379Y0045546D01*
X0166379Y0047080D01*
X0161775Y0047848D02*
X0159473Y0047848D01*
X0158705Y0047080D01*
X0158705Y0044778D01*
X0157171Y0044778D02*
X0156403Y0044778D01*
X0156403Y0045546D01*
X0157171Y0045546D01*
X0157171Y0044778D01*
X0161775Y0044778D02*
X0161775Y0047848D01*
X0167913Y0049382D02*
X0167913Y0044778D01*
X0170215Y0044778D01*
X0172517Y0044778D02*
X0172517Y0047080D01*
X0173284Y0047848D01*
X0175586Y0047848D01*
X0175586Y0044778D01*
X0177121Y0045546D02*
X0177121Y0047080D01*
X0177888Y0047848D01*
X0179423Y0047848D01*
X0180190Y0047080D01*
X0180190Y0045546D01*
X0179423Y0044778D01*
X0177888Y0044778D01*
X0177121Y0045546D01*
X0181725Y0044778D02*
X0184794Y0044778D01*
X0184794Y0049382D01*
X0194769Y0049382D02*
X0194769Y0044778D01*
X0194002Y0044778D02*
X0195537Y0044778D01*
X0197071Y0044778D02*
X0198606Y0044778D01*
X0197839Y0044778D02*
X0197839Y0049382D01*
X0198606Y0049382D01*
X0198606Y0050744D02*
X0199373Y0050744D01*
X0198606Y0050744D02*
X0197839Y0051511D01*
X0197839Y0055348D01*
X0200908Y0055348D02*
X0200908Y0053046D01*
X0200141Y0052278D01*
X0197839Y0052278D01*
X0202443Y0053046D02*
X0202443Y0054580D01*
X0203210Y0055348D01*
X0205512Y0055348D01*
X0205512Y0056882D02*
X0205512Y0052278D01*
X0203210Y0052278D01*
X0202443Y0053046D01*
X0211650Y0052278D02*
X0213952Y0052278D01*
X0214720Y0053046D01*
X0214720Y0054580D01*
X0213952Y0055348D01*
X0211650Y0055348D01*
X0211650Y0056882D02*
X0211650Y0052278D01*
X0217022Y0052278D02*
X0218556Y0052278D01*
X0219324Y0053046D01*
X0219324Y0054580D01*
X0218556Y0055348D01*
X0217022Y0055348D01*
X0216254Y0054580D01*
X0216254Y0053813D01*
X0219324Y0053813D01*
X0220858Y0054580D02*
X0220858Y0052278D01*
X0223928Y0052278D02*
X0223928Y0055348D01*
X0221626Y0055348D01*
X0220858Y0054580D01*
X0225462Y0055348D02*
X0227764Y0055348D01*
X0228532Y0054580D01*
X0228532Y0053046D01*
X0227764Y0052278D01*
X0225462Y0052278D01*
X0225462Y0051511D02*
X0225462Y0055348D01*
X0230834Y0055348D02*
X0230834Y0052278D01*
X0231601Y0052278D02*
X0230066Y0052278D01*
X0233135Y0053046D02*
X0233903Y0053813D01*
X0235437Y0053813D01*
X0236205Y0054580D01*
X0235437Y0055348D01*
X0233135Y0055348D01*
X0231601Y0055348D02*
X0230834Y0055348D01*
X0230834Y0056882D02*
X0230834Y0057650D01*
X0233135Y0058244D02*
X0233135Y0062848D01*
X0230834Y0062848D01*
X0230066Y0062080D01*
X0230066Y0060546D01*
X0230834Y0059778D01*
X0233135Y0059778D01*
X0234670Y0059778D02*
X0234670Y0062848D01*
X0237739Y0062848D02*
X0237739Y0060546D01*
X0236972Y0059778D01*
X0234670Y0059778D01*
X0239274Y0059778D02*
X0240041Y0060546D01*
X0240041Y0063615D01*
X0239274Y0062848D02*
X0240809Y0062848D01*
X0242343Y0063615D02*
X0243111Y0064382D01*
X0244645Y0064382D01*
X0245413Y0063615D01*
X0245413Y0062848D01*
X0244645Y0062080D01*
X0243111Y0062080D01*
X0242343Y0061313D01*
X0242343Y0060546D01*
X0243111Y0059778D01*
X0244645Y0059778D01*
X0245413Y0060546D01*
X0228532Y0059778D02*
X0226997Y0059778D01*
X0227764Y0059778D02*
X0227764Y0062848D01*
X0228532Y0062848D01*
X0225462Y0062080D02*
X0224695Y0062848D01*
X0222393Y0062848D01*
X0225462Y0062080D02*
X0225462Y0060546D01*
X0224695Y0059778D01*
X0222393Y0059778D01*
X0222393Y0064382D01*
X0216254Y0064382D02*
X0216254Y0060546D01*
X0215487Y0059778D01*
X0213952Y0059778D01*
X0213185Y0060546D01*
X0213185Y0064382D01*
X0211650Y0063615D02*
X0211650Y0062848D01*
X0210883Y0062080D01*
X0209349Y0062080D01*
X0208581Y0061313D01*
X0208581Y0060546D01*
X0209349Y0059778D01*
X0210883Y0059778D01*
X0211650Y0060546D01*
X0207047Y0059778D02*
X0204745Y0059778D01*
X0203977Y0060546D01*
X0203977Y0061313D01*
X0204745Y0062080D01*
X0207047Y0062080D01*
X0204745Y0062080D02*
X0203977Y0062848D01*
X0203977Y0063615D01*
X0204745Y0064382D01*
X0207047Y0064382D01*
X0207047Y0059778D01*
X0197839Y0059778D02*
X0197839Y0064382D01*
X0195537Y0064382D01*
X0194769Y0063615D01*
X0194769Y0062080D01*
X0195537Y0061313D01*
X0197839Y0061313D01*
X0193235Y0062080D02*
X0193235Y0060546D01*
X0192467Y0059778D01*
X0190933Y0059778D01*
X0190166Y0060546D01*
X0190166Y0062080D01*
X0190933Y0062848D01*
X0192467Y0062848D01*
X0193235Y0062080D01*
X0188631Y0062848D02*
X0188631Y0060546D01*
X0187864Y0059778D01*
X0187096Y0060546D01*
X0186329Y0059778D01*
X0185562Y0060546D01*
X0185562Y0062848D01*
X0184027Y0062080D02*
X0183260Y0062848D01*
X0181725Y0062848D01*
X0180958Y0062080D01*
X0180958Y0061313D01*
X0184027Y0061313D01*
X0184027Y0060546D02*
X0184027Y0062080D01*
X0179423Y0061313D02*
X0177888Y0062848D01*
X0177121Y0062848D01*
X0179423Y0062848D02*
X0179423Y0059778D01*
X0181725Y0059778D02*
X0183260Y0059778D01*
X0184027Y0060546D01*
X0170982Y0059778D02*
X0167913Y0062848D01*
X0167913Y0063615D01*
X0168681Y0064382D01*
X0170215Y0064382D01*
X0170982Y0063615D01*
X0170982Y0059778D02*
X0167913Y0059778D01*
X0163309Y0057650D02*
X0163309Y0056882D01*
X0163309Y0055348D02*
X0163309Y0052278D01*
X0162542Y0052278D02*
X0164077Y0052278D01*
X0165611Y0052278D02*
X0165611Y0054580D01*
X0166379Y0055348D01*
X0167913Y0055348D01*
X0168681Y0054580D01*
X0170215Y0052278D02*
X0171750Y0053813D01*
X0173284Y0052278D01*
X0173284Y0056882D01*
X0170215Y0056882D02*
X0170215Y0052278D01*
X0168681Y0052278D02*
X0168681Y0056882D01*
X0164077Y0055348D02*
X0163309Y0055348D01*
X0161007Y0055348D02*
X0159473Y0055348D01*
X0160240Y0056115D02*
X0160240Y0053046D01*
X0159473Y0052278D01*
X0157938Y0053046D02*
X0157171Y0052278D01*
X0156403Y0053046D01*
X0155636Y0052278D01*
X0154869Y0053046D01*
X0154869Y0055348D01*
X0153334Y0054580D02*
X0152567Y0055348D01*
X0151032Y0055348D01*
X0150265Y0054580D01*
X0150265Y0053813D01*
X0153334Y0053813D01*
X0153334Y0053046D02*
X0153334Y0054580D01*
X0157938Y0055348D02*
X0157938Y0053046D01*
X0153334Y0053046D02*
X0152567Y0052278D01*
X0151032Y0052278D01*
X0148730Y0052278D02*
X0147196Y0052278D01*
X0147963Y0052278D02*
X0147963Y0056882D01*
X0148730Y0056882D01*
X0145661Y0056882D02*
X0144894Y0056882D01*
X0144894Y0052278D01*
X0145661Y0052278D02*
X0144126Y0052278D01*
X0179423Y0052278D02*
X0179423Y0054580D01*
X0180190Y0055348D01*
X0180958Y0054580D01*
X0180958Y0052278D01*
X0182492Y0052278D02*
X0182492Y0055348D01*
X0181725Y0055348D01*
X0180958Y0054580D01*
X0184027Y0054580D02*
X0184794Y0055348D01*
X0186329Y0055348D01*
X0187096Y0054580D01*
X0187096Y0053046D01*
X0186329Y0052278D01*
X0184794Y0052278D01*
X0184027Y0053046D01*
X0184027Y0054580D01*
X0188631Y0056882D02*
X0191700Y0056882D01*
X0190166Y0056882D02*
X0190166Y0052278D01*
X0200908Y0050150D02*
X0200908Y0049382D01*
X0203210Y0049382D02*
X0203210Y0044778D01*
X0201675Y0044778D02*
X0200141Y0044778D01*
X0200908Y0044778D02*
X0200908Y0047848D01*
X0201675Y0047848D01*
X0203210Y0047080D02*
X0206279Y0047080D01*
X0206279Y0044778D02*
X0206279Y0049382D01*
X0212418Y0047080D02*
X0213185Y0047848D01*
X0214720Y0047848D01*
X0215487Y0047080D01*
X0215487Y0045546D01*
X0214720Y0044778D01*
X0213185Y0044778D01*
X0212418Y0046313D02*
X0215487Y0046313D01*
X0217022Y0047080D02*
X0217022Y0044778D01*
X0220091Y0044778D02*
X0220091Y0047848D01*
X0217789Y0047848D01*
X0217022Y0047080D01*
X0212418Y0047080D02*
X0212418Y0046313D01*
X0221626Y0047848D02*
X0222393Y0047848D01*
X0223928Y0046313D01*
X0225462Y0046313D02*
X0228532Y0046313D01*
X0228532Y0045546D02*
X0228532Y0047080D01*
X0227764Y0047848D01*
X0226230Y0047848D01*
X0225462Y0047080D01*
X0225462Y0046313D01*
X0226230Y0044778D02*
X0227764Y0044778D01*
X0228532Y0045546D01*
X0230066Y0044778D02*
X0230066Y0049382D01*
X0233135Y0049382D02*
X0233135Y0044778D01*
X0239274Y0044778D02*
X0239274Y0047080D01*
X0240041Y0047848D01*
X0242343Y0047848D01*
X0242343Y0044778D01*
X0243878Y0044778D02*
X0245413Y0044778D01*
X0244645Y0044778D02*
X0244645Y0047848D01*
X0245413Y0047848D01*
X0244645Y0049382D02*
X0244645Y0050150D01*
X0245413Y0052278D02*
X0243111Y0052278D01*
X0242343Y0053046D01*
X0242343Y0056115D01*
X0243111Y0056882D01*
X0245413Y0056882D01*
X0245413Y0052278D01*
X0240809Y0053046D02*
X0240809Y0054580D01*
X0240041Y0055348D01*
X0238507Y0055348D01*
X0237739Y0054580D01*
X0237739Y0053813D01*
X0240809Y0053813D01*
X0240809Y0053046D02*
X0240041Y0052278D01*
X0238507Y0052278D01*
X0236205Y0052278D02*
X0233903Y0052278D01*
X0233135Y0053046D01*
X0226230Y0050744D02*
X0225462Y0051511D01*
X0226230Y0050744D02*
X0226997Y0050744D01*
X0223928Y0047848D02*
X0223928Y0044778D01*
X0230066Y0047080D02*
X0233135Y0047080D01*
X0232368Y0039580D02*
X0232368Y0038046D01*
X0231601Y0037278D01*
X0229299Y0037278D01*
X0192467Y0043244D02*
X0190933Y0044778D01*
X0191700Y0044778D01*
X0191700Y0045546D01*
X0190933Y0045546D01*
X0190933Y0044778D01*
X0194769Y0049382D02*
X0195537Y0049382D01*
X0208581Y0063615D02*
X0209349Y0064382D01*
X0210883Y0064382D01*
X0211650Y0063615D01*
X0227764Y0064382D02*
X0227764Y0065150D01*
X0149498Y0026882D02*
X0149498Y0022278D01*
X0154869Y0022278D02*
X0156403Y0022278D01*
X0157171Y0023046D01*
X0158705Y0022278D02*
X0158705Y0024580D01*
M02*
