%
M48
M72
T01C0.0236
T02C0.0315
T03C0.0360
T04C0.0394
T05C0.0400
T06C0.0900
T07C0.1260
%
T01
X11061Y6208
T02
X12569Y7200
X13569Y7200
X19553Y7200
X21561Y7200
X21561Y1216
X19553Y1216
X13569Y1216
X12569Y1216
T03
X5841Y3966
X5061Y3966
X5061Y4950
X5841Y4950
T04
X25561Y4708
X26561Y4708
X29561Y4708
X30561Y4708
X33561Y4708
X34561Y4708
X37561Y4708
X38561Y4708
X41561Y4708
X42561Y4708
X45561Y4708
X46561Y4708
X49561Y4708
X50561Y4708
X50561Y3708
X49561Y3708
X46561Y3708
X45561Y3708
X42561Y3708
X41561Y3708
X38561Y3708
X37561Y3708
X34561Y3708
X33561Y3708
X30561Y3708
X29561Y3708
X26561Y3708
X25561Y3708
X25561Y2708
X26561Y2708
X29561Y2708
X30561Y2708
X33561Y2708
X34561Y2708
X37561Y2708
X38561Y2708
X41561Y2708
X42561Y2708
X45561Y2708
X46561Y2708
X49561Y2708
X50561Y2708
X50561Y1708
X49561Y1708
X46561Y1708
X45561Y1708
X42561Y1708
X41561Y1708
X38561Y1708
X37561Y1708
X34561Y1708
X33561Y1708
X30561Y1708
X29561Y1708
X26561Y1708
X25561Y1708
X25561Y708
X26561Y708
X29561Y708
X30561Y708
X33561Y708
X34561Y708
X37561Y708
X38561Y708
X41561Y708
X42561Y708
X45561Y708
X46561Y708
X49561Y708
X50561Y708
X50561Y5708
X49561Y5708
X46561Y5708
X45561Y5708
X42561Y5708
X41561Y5708
X38561Y5708
X37561Y5708
X34561Y5708
X33561Y5708
X30561Y5708
X29561Y5708
X26561Y5708
X25561Y5708
X25561Y6708
X26561Y6708
X29561Y6708
X30561Y6708
X33561Y6708
X34561Y6708
X37561Y6708
X38561Y6708
X41561Y6708
X42561Y6708
X45561Y6708
X46561Y6708
X49561Y6708
X50561Y6708
X50561Y7708
X49561Y7708
X46561Y7708
X45561Y7708
X42561Y7708
X41561Y7708
X38561Y7708
X37561Y7708
X34561Y7708
X33561Y7708
X30561Y7708
X29561Y7708
X26561Y7708
X25561Y7708
T05
X8561Y7208
X7561Y7208
T06
X3991Y6828
X3991Y2088
T07
X5561Y1208
X23561Y4208
X5561Y7708
M30
