G75*
%MOIN*%
%OFA0B0*%
%FSLAX25Y25*%
%IPPOS*%
%LPD*%
%AMOC8*
5,1,8,0,0,1.08239X$1,22.5*
%
%ADD10C,0.00000*%
D10*
X0097093Y0035671D02*
X0524384Y0035671D01*
X0524384Y0035670D02*
X0524472Y0035672D01*
X0524560Y0035678D01*
X0524647Y0035687D01*
X0524734Y0035701D01*
X0524820Y0035718D01*
X0524906Y0035739D01*
X0524990Y0035763D01*
X0525074Y0035792D01*
X0525155Y0035823D01*
X0525236Y0035859D01*
X0525315Y0035898D01*
X0525392Y0035940D01*
X0525467Y0035986D01*
X0525540Y0036035D01*
X0525611Y0036087D01*
X0525680Y0036142D01*
X0525746Y0036200D01*
X0525810Y0036260D01*
X0525870Y0036324D01*
X0525928Y0036390D01*
X0525983Y0036459D01*
X0526035Y0036530D01*
X0526084Y0036603D01*
X0526130Y0036678D01*
X0526172Y0036755D01*
X0526211Y0036834D01*
X0526247Y0036915D01*
X0526278Y0036996D01*
X0526307Y0037080D01*
X0526331Y0037164D01*
X0526352Y0037250D01*
X0526369Y0037336D01*
X0526383Y0037423D01*
X0526392Y0037510D01*
X0526398Y0037598D01*
X0526400Y0037686D01*
X0526400Y0124413D01*
X0526416Y0124559D01*
X0526428Y0124706D01*
X0526435Y0124853D01*
X0526439Y0125001D01*
X0526440Y0125148D01*
X0526436Y0125295D01*
X0526428Y0125443D01*
X0526417Y0125590D01*
X0526402Y0125736D01*
X0526383Y0125882D01*
X0526360Y0126028D01*
X0526333Y0126173D01*
X0526303Y0126317D01*
X0526268Y0126460D01*
X0526230Y0126603D01*
X0526189Y0126744D01*
X0526143Y0126884D01*
X0526094Y0127023D01*
X0526042Y0127161D01*
X0525985Y0127297D01*
X0525926Y0127432D01*
X0525862Y0127565D01*
X0525796Y0127696D01*
X0525725Y0127826D01*
X0525652Y0127953D01*
X0525575Y0128079D01*
X0525495Y0128203D01*
X0525412Y0128324D01*
X0525325Y0128444D01*
X0525236Y0128561D01*
X0525143Y0128675D01*
X0525047Y0128788D01*
X0524949Y0128897D01*
X0524848Y0129004D01*
X0524744Y0129108D01*
X0524637Y0129210D01*
X0524527Y0129309D01*
X0524415Y0129405D01*
X0524301Y0129497D01*
X0524184Y0129587D01*
X0524065Y0129674D01*
X0523944Y0129758D01*
X0523820Y0129838D01*
X0523695Y0129915D01*
X0523567Y0129989D01*
X0523438Y0130060D01*
X0523307Y0130127D01*
X0523174Y0130190D01*
X0523039Y0130250D01*
X0522903Y0130307D01*
X0522765Y0130360D01*
X0522627Y0130409D01*
X0522487Y0130455D01*
X0522345Y0130497D01*
X0522203Y0130535D01*
X0522060Y0130570D01*
X0521916Y0130601D01*
X0521771Y0130628D01*
X0521625Y0130651D01*
X0521479Y0130670D01*
X0521479Y0130671D02*
X0099312Y0130671D01*
X0094429Y0128714D02*
X0082945Y0117148D01*
X0079397Y0115671D02*
X0066479Y0115671D01*
X0079397Y0115671D02*
X0079533Y0115673D01*
X0079669Y0115678D01*
X0079805Y0115688D01*
X0079940Y0115701D01*
X0080075Y0115717D01*
X0080210Y0115737D01*
X0080343Y0115761D01*
X0080477Y0115789D01*
X0080609Y0115820D01*
X0080741Y0115855D01*
X0080871Y0115893D01*
X0081001Y0115935D01*
X0081129Y0115980D01*
X0081256Y0116029D01*
X0081381Y0116082D01*
X0081505Y0116137D01*
X0081628Y0116196D01*
X0081749Y0116259D01*
X0081868Y0116324D01*
X0081985Y0116393D01*
X0082101Y0116465D01*
X0082214Y0116540D01*
X0082325Y0116618D01*
X0082435Y0116700D01*
X0082542Y0116784D01*
X0082646Y0116871D01*
X0082748Y0116960D01*
X0082848Y0117053D01*
X0082945Y0117148D01*
X0094429Y0128715D02*
X0094553Y0128829D01*
X0094679Y0128941D01*
X0094807Y0129050D01*
X0094938Y0129156D01*
X0095072Y0129259D01*
X0095208Y0129358D01*
X0095346Y0129454D01*
X0095486Y0129547D01*
X0095629Y0129636D01*
X0095774Y0129722D01*
X0095921Y0129805D01*
X0096070Y0129884D01*
X0096220Y0129959D01*
X0096372Y0130031D01*
X0096526Y0130099D01*
X0096682Y0130164D01*
X0096839Y0130224D01*
X0096998Y0130282D01*
X0097157Y0130335D01*
X0097318Y0130384D01*
X0097481Y0130430D01*
X0097644Y0130471D01*
X0097808Y0130509D01*
X0097973Y0130543D01*
X0098139Y0130573D01*
X0098305Y0130599D01*
X0098472Y0130621D01*
X0098639Y0130639D01*
X0098807Y0130653D01*
X0098975Y0130663D01*
X0099144Y0130669D01*
X0099312Y0130671D01*
X0066478Y0115671D02*
X0066331Y0115668D01*
X0066184Y0115662D01*
X0066038Y0115652D01*
X0065892Y0115637D01*
X0065746Y0115619D01*
X0065600Y0115597D01*
X0065456Y0115572D01*
X0065312Y0115542D01*
X0065169Y0115508D01*
X0065026Y0115471D01*
X0064885Y0115430D01*
X0064745Y0115385D01*
X0064607Y0115337D01*
X0064469Y0115284D01*
X0064333Y0115228D01*
X0064199Y0115169D01*
X0064066Y0115106D01*
X0063935Y0115039D01*
X0063806Y0114969D01*
X0063678Y0114896D01*
X0063553Y0114819D01*
X0063430Y0114739D01*
X0063309Y0114656D01*
X0063190Y0114569D01*
X0063073Y0114480D01*
X0062959Y0114387D01*
X0062848Y0114291D01*
X0062739Y0114193D01*
X0062633Y0114091D01*
X0062529Y0113987D01*
X0062428Y0113880D01*
X0062330Y0113770D01*
X0062236Y0113658D01*
X0062144Y0113543D01*
X0062055Y0113426D01*
X0061969Y0113306D01*
X0061887Y0113185D01*
X0061808Y0113061D01*
X0061732Y0112935D01*
X0061659Y0112807D01*
X0061590Y0112677D01*
X0061525Y0112546D01*
X0061463Y0112412D01*
X0061404Y0112278D01*
X0061350Y0112141D01*
X0061298Y0112003D01*
X0061251Y0111864D01*
X0061207Y0111724D01*
X0061167Y0111583D01*
X0061131Y0111440D01*
X0061098Y0111297D01*
X0061070Y0111153D01*
X0061045Y0111008D01*
X0061024Y0110862D01*
X0061007Y0110716D01*
X0060994Y0110570D01*
X0060985Y0110423D01*
X0060979Y0110276D01*
X0060978Y0110129D01*
X0060979Y0110129D02*
X0060979Y0056166D01*
X0060955Y0056020D01*
X0060935Y0055874D01*
X0060918Y0055727D01*
X0060905Y0055580D01*
X0060896Y0055432D01*
X0060891Y0055284D01*
X0060890Y0055136D01*
X0060893Y0054989D01*
X0060899Y0054841D01*
X0060910Y0054693D01*
X0060924Y0054546D01*
X0060942Y0054400D01*
X0060964Y0054253D01*
X0060990Y0054108D01*
X0061020Y0053963D01*
X0061053Y0053819D01*
X0061090Y0053676D01*
X0061131Y0053534D01*
X0061176Y0053393D01*
X0061224Y0053253D01*
X0061276Y0053115D01*
X0061331Y0052978D01*
X0061390Y0052842D01*
X0061453Y0052708D01*
X0061519Y0052576D01*
X0061589Y0052445D01*
X0061661Y0052317D01*
X0061738Y0052190D01*
X0061817Y0052066D01*
X0061900Y0051943D01*
X0061986Y0051823D01*
X0062075Y0051705D01*
X0062167Y0051589D01*
X0062262Y0051476D01*
X0062360Y0051365D01*
X0062461Y0051257D01*
X0062565Y0051152D01*
X0062671Y0051049D01*
X0062780Y0050950D01*
X0062892Y0050853D01*
X0063006Y0050759D01*
X0063123Y0050668D01*
X0063242Y0050580D01*
X0063363Y0050495D01*
X0063486Y0050414D01*
X0063612Y0050336D01*
X0063739Y0050261D01*
X0063869Y0050189D01*
X0064000Y0050121D01*
X0064133Y0050056D01*
X0064267Y0049995D01*
X0064403Y0049938D01*
X0064541Y0049884D01*
X0064680Y0049833D01*
X0064820Y0049786D01*
X0064962Y0049743D01*
X0065104Y0049704D01*
X0065248Y0049668D01*
X0065392Y0049636D01*
X0065537Y0049608D01*
X0079474Y0049608D01*
X0082285Y0048434D02*
X0093365Y0037227D01*
X0093467Y0037127D01*
X0093572Y0037030D01*
X0093679Y0036935D01*
X0093789Y0036843D01*
X0093901Y0036755D01*
X0094016Y0036669D01*
X0094133Y0036587D01*
X0094252Y0036508D01*
X0094373Y0036432D01*
X0094496Y0036359D01*
X0094621Y0036290D01*
X0094748Y0036225D01*
X0094877Y0036162D01*
X0095007Y0036104D01*
X0095139Y0036049D01*
X0095273Y0035997D01*
X0095408Y0035949D01*
X0095544Y0035905D01*
X0095681Y0035865D01*
X0095819Y0035828D01*
X0095958Y0035795D01*
X0096098Y0035766D01*
X0096239Y0035741D01*
X0096380Y0035720D01*
X0096522Y0035702D01*
X0096664Y0035689D01*
X0096807Y0035679D01*
X0096950Y0035673D01*
X0097093Y0035671D01*
X0082285Y0048434D02*
X0082196Y0048522D01*
X0082104Y0048606D01*
X0082009Y0048688D01*
X0081912Y0048767D01*
X0081812Y0048842D01*
X0081710Y0048915D01*
X0081606Y0048984D01*
X0081499Y0049050D01*
X0081391Y0049112D01*
X0081281Y0049171D01*
X0081168Y0049226D01*
X0081055Y0049278D01*
X0080939Y0049326D01*
X0080822Y0049371D01*
X0080704Y0049412D01*
X0080585Y0049449D01*
X0080464Y0049482D01*
X0080342Y0049511D01*
X0080220Y0049537D01*
X0080097Y0049559D01*
X0079973Y0049576D01*
X0079849Y0049590D01*
X0079724Y0049600D01*
X0079599Y0049606D01*
X0079474Y0049608D01*
X0144471Y0068257D02*
X0144471Y0071013D01*
X0146046Y0072588D02*
X0146123Y0072586D01*
X0146200Y0072580D01*
X0146277Y0072571D01*
X0146353Y0072558D01*
X0146429Y0072541D01*
X0146503Y0072520D01*
X0146577Y0072496D01*
X0146649Y0072468D01*
X0146719Y0072437D01*
X0146788Y0072402D01*
X0146856Y0072364D01*
X0146921Y0072323D01*
X0146984Y0072278D01*
X0147045Y0072230D01*
X0147104Y0072180D01*
X0147160Y0072127D01*
X0147213Y0072071D01*
X0147263Y0072012D01*
X0147311Y0071951D01*
X0147356Y0071888D01*
X0147397Y0071823D01*
X0147435Y0071755D01*
X0147470Y0071686D01*
X0147501Y0071616D01*
X0147529Y0071544D01*
X0147553Y0071470D01*
X0147574Y0071396D01*
X0147591Y0071320D01*
X0147604Y0071244D01*
X0147613Y0071167D01*
X0147619Y0071090D01*
X0147621Y0071013D01*
X0147620Y0071013D02*
X0147620Y0068257D01*
X0147621Y0068257D02*
X0147619Y0068180D01*
X0147613Y0068103D01*
X0147604Y0068026D01*
X0147591Y0067950D01*
X0147574Y0067874D01*
X0147553Y0067800D01*
X0147529Y0067726D01*
X0147501Y0067654D01*
X0147470Y0067584D01*
X0147435Y0067515D01*
X0147397Y0067447D01*
X0147356Y0067382D01*
X0147311Y0067319D01*
X0147263Y0067258D01*
X0147213Y0067199D01*
X0147160Y0067143D01*
X0147104Y0067090D01*
X0147045Y0067040D01*
X0146984Y0066992D01*
X0146921Y0066947D01*
X0146856Y0066906D01*
X0146788Y0066868D01*
X0146719Y0066833D01*
X0146649Y0066802D01*
X0146577Y0066774D01*
X0146503Y0066750D01*
X0146429Y0066729D01*
X0146353Y0066712D01*
X0146277Y0066699D01*
X0146200Y0066690D01*
X0146123Y0066684D01*
X0146046Y0066682D01*
X0145969Y0066684D01*
X0145892Y0066690D01*
X0145815Y0066699D01*
X0145739Y0066712D01*
X0145663Y0066729D01*
X0145589Y0066750D01*
X0145515Y0066774D01*
X0145443Y0066802D01*
X0145373Y0066833D01*
X0145304Y0066868D01*
X0145236Y0066906D01*
X0145171Y0066947D01*
X0145108Y0066992D01*
X0145047Y0067040D01*
X0144988Y0067090D01*
X0144932Y0067143D01*
X0144879Y0067199D01*
X0144829Y0067258D01*
X0144781Y0067319D01*
X0144736Y0067382D01*
X0144695Y0067447D01*
X0144657Y0067515D01*
X0144622Y0067584D01*
X0144591Y0067654D01*
X0144563Y0067726D01*
X0144539Y0067800D01*
X0144518Y0067874D01*
X0144501Y0067950D01*
X0144488Y0068026D01*
X0144479Y0068103D01*
X0144473Y0068180D01*
X0144471Y0068257D01*
X0144471Y0071013D02*
X0144473Y0071090D01*
X0144479Y0071167D01*
X0144488Y0071244D01*
X0144501Y0071320D01*
X0144518Y0071396D01*
X0144539Y0071470D01*
X0144563Y0071544D01*
X0144591Y0071616D01*
X0144622Y0071686D01*
X0144657Y0071755D01*
X0144695Y0071823D01*
X0144736Y0071888D01*
X0144781Y0071951D01*
X0144829Y0072012D01*
X0144879Y0072071D01*
X0144932Y0072127D01*
X0144988Y0072180D01*
X0145047Y0072230D01*
X0145108Y0072278D01*
X0145171Y0072323D01*
X0145236Y0072364D01*
X0145304Y0072402D01*
X0145373Y0072437D01*
X0145443Y0072468D01*
X0145515Y0072496D01*
X0145589Y0072520D01*
X0145663Y0072541D01*
X0145739Y0072558D01*
X0145815Y0072571D01*
X0145892Y0072580D01*
X0145969Y0072586D01*
X0146046Y0072588D01*
X0138172Y0073769D02*
X0138172Y0076525D01*
X0138170Y0076602D01*
X0138164Y0076679D01*
X0138155Y0076756D01*
X0138142Y0076832D01*
X0138125Y0076908D01*
X0138104Y0076982D01*
X0138080Y0077056D01*
X0138052Y0077128D01*
X0138021Y0077198D01*
X0137986Y0077267D01*
X0137948Y0077335D01*
X0137907Y0077400D01*
X0137862Y0077463D01*
X0137814Y0077524D01*
X0137764Y0077583D01*
X0137711Y0077639D01*
X0137655Y0077692D01*
X0137596Y0077742D01*
X0137535Y0077790D01*
X0137472Y0077835D01*
X0137407Y0077876D01*
X0137339Y0077914D01*
X0137270Y0077949D01*
X0137200Y0077980D01*
X0137128Y0078008D01*
X0137054Y0078032D01*
X0136980Y0078053D01*
X0136904Y0078070D01*
X0136828Y0078083D01*
X0136751Y0078092D01*
X0136674Y0078098D01*
X0136597Y0078100D01*
X0136520Y0078098D01*
X0136443Y0078092D01*
X0136366Y0078083D01*
X0136290Y0078070D01*
X0136214Y0078053D01*
X0136140Y0078032D01*
X0136066Y0078008D01*
X0135994Y0077980D01*
X0135924Y0077949D01*
X0135855Y0077914D01*
X0135787Y0077876D01*
X0135722Y0077835D01*
X0135659Y0077790D01*
X0135598Y0077742D01*
X0135539Y0077692D01*
X0135483Y0077639D01*
X0135430Y0077583D01*
X0135380Y0077524D01*
X0135332Y0077463D01*
X0135287Y0077400D01*
X0135246Y0077335D01*
X0135208Y0077267D01*
X0135173Y0077198D01*
X0135142Y0077128D01*
X0135114Y0077056D01*
X0135090Y0076982D01*
X0135069Y0076908D01*
X0135052Y0076832D01*
X0135039Y0076756D01*
X0135030Y0076679D01*
X0135024Y0076602D01*
X0135022Y0076525D01*
X0135022Y0073769D01*
X0136597Y0072194D02*
X0136674Y0072196D01*
X0136751Y0072202D01*
X0136828Y0072211D01*
X0136904Y0072224D01*
X0136980Y0072241D01*
X0137054Y0072262D01*
X0137128Y0072286D01*
X0137200Y0072314D01*
X0137270Y0072345D01*
X0137339Y0072380D01*
X0137407Y0072418D01*
X0137472Y0072459D01*
X0137535Y0072504D01*
X0137596Y0072552D01*
X0137655Y0072602D01*
X0137711Y0072655D01*
X0137764Y0072711D01*
X0137814Y0072770D01*
X0137862Y0072831D01*
X0137907Y0072894D01*
X0137948Y0072959D01*
X0137986Y0073027D01*
X0138021Y0073096D01*
X0138052Y0073166D01*
X0138080Y0073238D01*
X0138104Y0073312D01*
X0138125Y0073386D01*
X0138142Y0073462D01*
X0138155Y0073538D01*
X0138164Y0073615D01*
X0138170Y0073692D01*
X0138172Y0073769D01*
X0136597Y0072194D02*
X0136520Y0072196D01*
X0136443Y0072202D01*
X0136366Y0072211D01*
X0136290Y0072224D01*
X0136214Y0072241D01*
X0136140Y0072262D01*
X0136066Y0072286D01*
X0135994Y0072314D01*
X0135924Y0072345D01*
X0135855Y0072380D01*
X0135787Y0072418D01*
X0135722Y0072459D01*
X0135659Y0072504D01*
X0135598Y0072552D01*
X0135539Y0072602D01*
X0135483Y0072655D01*
X0135430Y0072711D01*
X0135380Y0072770D01*
X0135332Y0072831D01*
X0135287Y0072894D01*
X0135246Y0072959D01*
X0135208Y0073027D01*
X0135173Y0073096D01*
X0135142Y0073166D01*
X0135114Y0073238D01*
X0135090Y0073312D01*
X0135069Y0073386D01*
X0135052Y0073462D01*
X0135039Y0073538D01*
X0135030Y0073615D01*
X0135024Y0073692D01*
X0135022Y0073769D01*
X0170849Y0086171D02*
X0173605Y0086171D01*
X0175180Y0087745D02*
X0175178Y0087822D01*
X0175172Y0087899D01*
X0175163Y0087976D01*
X0175150Y0088052D01*
X0175133Y0088128D01*
X0175112Y0088202D01*
X0175088Y0088276D01*
X0175060Y0088348D01*
X0175029Y0088418D01*
X0174994Y0088487D01*
X0174956Y0088555D01*
X0174915Y0088620D01*
X0174870Y0088683D01*
X0174822Y0088744D01*
X0174772Y0088803D01*
X0174719Y0088859D01*
X0174663Y0088912D01*
X0174604Y0088962D01*
X0174543Y0089010D01*
X0174480Y0089055D01*
X0174415Y0089096D01*
X0174347Y0089134D01*
X0174278Y0089169D01*
X0174208Y0089200D01*
X0174136Y0089228D01*
X0174062Y0089252D01*
X0173988Y0089273D01*
X0173912Y0089290D01*
X0173836Y0089303D01*
X0173759Y0089312D01*
X0173682Y0089318D01*
X0173605Y0089320D01*
X0170849Y0089320D01*
X0170772Y0089318D01*
X0170695Y0089312D01*
X0170618Y0089303D01*
X0170542Y0089290D01*
X0170466Y0089273D01*
X0170392Y0089252D01*
X0170318Y0089228D01*
X0170246Y0089200D01*
X0170176Y0089169D01*
X0170107Y0089134D01*
X0170039Y0089096D01*
X0169974Y0089055D01*
X0169911Y0089010D01*
X0169850Y0088962D01*
X0169791Y0088912D01*
X0169735Y0088859D01*
X0169682Y0088803D01*
X0169632Y0088744D01*
X0169584Y0088683D01*
X0169539Y0088620D01*
X0169498Y0088555D01*
X0169460Y0088487D01*
X0169425Y0088418D01*
X0169394Y0088348D01*
X0169366Y0088276D01*
X0169342Y0088202D01*
X0169321Y0088128D01*
X0169304Y0088052D01*
X0169291Y0087976D01*
X0169282Y0087899D01*
X0169276Y0087822D01*
X0169274Y0087745D01*
X0169276Y0087668D01*
X0169282Y0087591D01*
X0169291Y0087514D01*
X0169304Y0087438D01*
X0169321Y0087362D01*
X0169342Y0087288D01*
X0169366Y0087214D01*
X0169394Y0087142D01*
X0169425Y0087072D01*
X0169460Y0087003D01*
X0169498Y0086935D01*
X0169539Y0086870D01*
X0169584Y0086807D01*
X0169632Y0086746D01*
X0169682Y0086687D01*
X0169735Y0086631D01*
X0169791Y0086578D01*
X0169850Y0086528D01*
X0169911Y0086480D01*
X0169974Y0086435D01*
X0170039Y0086394D01*
X0170107Y0086356D01*
X0170176Y0086321D01*
X0170246Y0086290D01*
X0170318Y0086262D01*
X0170392Y0086238D01*
X0170466Y0086217D01*
X0170542Y0086200D01*
X0170618Y0086187D01*
X0170695Y0086178D01*
X0170772Y0086172D01*
X0170849Y0086170D01*
X0173605Y0086170D02*
X0173682Y0086172D01*
X0173759Y0086178D01*
X0173836Y0086187D01*
X0173912Y0086200D01*
X0173988Y0086217D01*
X0174062Y0086238D01*
X0174136Y0086262D01*
X0174208Y0086290D01*
X0174278Y0086321D01*
X0174347Y0086356D01*
X0174415Y0086394D01*
X0174480Y0086435D01*
X0174543Y0086480D01*
X0174604Y0086528D01*
X0174663Y0086578D01*
X0174719Y0086631D01*
X0174772Y0086687D01*
X0174822Y0086746D01*
X0174870Y0086807D01*
X0174915Y0086870D01*
X0174956Y0086935D01*
X0174994Y0087003D01*
X0175029Y0087072D01*
X0175060Y0087142D01*
X0175088Y0087214D01*
X0175112Y0087288D01*
X0175133Y0087362D01*
X0175150Y0087438D01*
X0175163Y0087514D01*
X0175172Y0087591D01*
X0175178Y0087668D01*
X0175180Y0087745D01*
X0068920Y0091529D02*
X0068922Y0091622D01*
X0068928Y0091714D01*
X0068938Y0091806D01*
X0068952Y0091897D01*
X0068969Y0091988D01*
X0068991Y0092078D01*
X0069016Y0092167D01*
X0069045Y0092255D01*
X0069078Y0092341D01*
X0069115Y0092426D01*
X0069155Y0092510D01*
X0069199Y0092591D01*
X0069246Y0092671D01*
X0069296Y0092749D01*
X0069350Y0092824D01*
X0069407Y0092897D01*
X0069467Y0092967D01*
X0069530Y0093035D01*
X0069596Y0093100D01*
X0069664Y0093162D01*
X0069735Y0093222D01*
X0069809Y0093278D01*
X0069885Y0093331D01*
X0069963Y0093380D01*
X0070043Y0093427D01*
X0070125Y0093469D01*
X0070209Y0093509D01*
X0070294Y0093544D01*
X0070381Y0093576D01*
X0070469Y0093605D01*
X0070558Y0093629D01*
X0070648Y0093650D01*
X0070739Y0093666D01*
X0070831Y0093679D01*
X0070923Y0093688D01*
X0071016Y0093693D01*
X0071108Y0093694D01*
X0071201Y0093691D01*
X0071293Y0093684D01*
X0071385Y0093673D01*
X0071476Y0093658D01*
X0071567Y0093640D01*
X0071657Y0093617D01*
X0071745Y0093591D01*
X0071833Y0093561D01*
X0071919Y0093527D01*
X0072003Y0093490D01*
X0072086Y0093448D01*
X0072167Y0093404D01*
X0072247Y0093356D01*
X0072324Y0093305D01*
X0072398Y0093250D01*
X0072471Y0093192D01*
X0072541Y0093132D01*
X0072608Y0093068D01*
X0072672Y0093002D01*
X0072734Y0092932D01*
X0072792Y0092861D01*
X0072847Y0092787D01*
X0072899Y0092710D01*
X0072948Y0092631D01*
X0072994Y0092551D01*
X0073036Y0092468D01*
X0073074Y0092384D01*
X0073109Y0092298D01*
X0073140Y0092211D01*
X0073167Y0092123D01*
X0073190Y0092033D01*
X0073210Y0091943D01*
X0073226Y0091852D01*
X0073238Y0091760D01*
X0073246Y0091668D01*
X0073250Y0091575D01*
X0073250Y0091483D01*
X0073246Y0091390D01*
X0073238Y0091298D01*
X0073226Y0091206D01*
X0073210Y0091115D01*
X0073190Y0091025D01*
X0073167Y0090935D01*
X0073140Y0090847D01*
X0073109Y0090760D01*
X0073074Y0090674D01*
X0073036Y0090590D01*
X0072994Y0090507D01*
X0072948Y0090427D01*
X0072899Y0090348D01*
X0072847Y0090271D01*
X0072792Y0090197D01*
X0072734Y0090126D01*
X0072672Y0090056D01*
X0072608Y0089990D01*
X0072541Y0089926D01*
X0072471Y0089866D01*
X0072398Y0089808D01*
X0072324Y0089753D01*
X0072247Y0089702D01*
X0072168Y0089654D01*
X0072086Y0089610D01*
X0072003Y0089568D01*
X0071919Y0089531D01*
X0071833Y0089497D01*
X0071745Y0089467D01*
X0071657Y0089441D01*
X0071567Y0089418D01*
X0071476Y0089400D01*
X0071385Y0089385D01*
X0071293Y0089374D01*
X0071201Y0089367D01*
X0071108Y0089364D01*
X0071016Y0089365D01*
X0070923Y0089370D01*
X0070831Y0089379D01*
X0070739Y0089392D01*
X0070648Y0089408D01*
X0070558Y0089429D01*
X0070469Y0089453D01*
X0070381Y0089482D01*
X0070294Y0089514D01*
X0070209Y0089549D01*
X0070125Y0089589D01*
X0070043Y0089631D01*
X0069963Y0089678D01*
X0069885Y0089727D01*
X0069809Y0089780D01*
X0069735Y0089836D01*
X0069664Y0089896D01*
X0069596Y0089958D01*
X0069530Y0090023D01*
X0069467Y0090091D01*
X0069407Y0090161D01*
X0069350Y0090234D01*
X0069296Y0090309D01*
X0069246Y0090387D01*
X0069199Y0090467D01*
X0069155Y0090548D01*
X0069115Y0090632D01*
X0069078Y0090717D01*
X0069045Y0090803D01*
X0069016Y0090891D01*
X0068991Y0090980D01*
X0068969Y0091070D01*
X0068952Y0091161D01*
X0068938Y0091252D01*
X0068928Y0091344D01*
X0068922Y0091436D01*
X0068920Y0091529D01*
X0068920Y0073812D02*
X0068922Y0073905D01*
X0068928Y0073997D01*
X0068938Y0074089D01*
X0068952Y0074180D01*
X0068969Y0074271D01*
X0068991Y0074361D01*
X0069016Y0074450D01*
X0069045Y0074538D01*
X0069078Y0074624D01*
X0069115Y0074709D01*
X0069155Y0074793D01*
X0069199Y0074874D01*
X0069246Y0074954D01*
X0069296Y0075032D01*
X0069350Y0075107D01*
X0069407Y0075180D01*
X0069467Y0075250D01*
X0069530Y0075318D01*
X0069596Y0075383D01*
X0069664Y0075445D01*
X0069735Y0075505D01*
X0069809Y0075561D01*
X0069885Y0075614D01*
X0069963Y0075663D01*
X0070043Y0075710D01*
X0070125Y0075752D01*
X0070209Y0075792D01*
X0070294Y0075827D01*
X0070381Y0075859D01*
X0070469Y0075888D01*
X0070558Y0075912D01*
X0070648Y0075933D01*
X0070739Y0075949D01*
X0070831Y0075962D01*
X0070923Y0075971D01*
X0071016Y0075976D01*
X0071108Y0075977D01*
X0071201Y0075974D01*
X0071293Y0075967D01*
X0071385Y0075956D01*
X0071476Y0075941D01*
X0071567Y0075923D01*
X0071657Y0075900D01*
X0071745Y0075874D01*
X0071833Y0075844D01*
X0071919Y0075810D01*
X0072003Y0075773D01*
X0072086Y0075731D01*
X0072167Y0075687D01*
X0072247Y0075639D01*
X0072324Y0075588D01*
X0072398Y0075533D01*
X0072471Y0075475D01*
X0072541Y0075415D01*
X0072608Y0075351D01*
X0072672Y0075285D01*
X0072734Y0075215D01*
X0072792Y0075144D01*
X0072847Y0075070D01*
X0072899Y0074993D01*
X0072948Y0074914D01*
X0072994Y0074834D01*
X0073036Y0074751D01*
X0073074Y0074667D01*
X0073109Y0074581D01*
X0073140Y0074494D01*
X0073167Y0074406D01*
X0073190Y0074316D01*
X0073210Y0074226D01*
X0073226Y0074135D01*
X0073238Y0074043D01*
X0073246Y0073951D01*
X0073250Y0073858D01*
X0073250Y0073766D01*
X0073246Y0073673D01*
X0073238Y0073581D01*
X0073226Y0073489D01*
X0073210Y0073398D01*
X0073190Y0073308D01*
X0073167Y0073218D01*
X0073140Y0073130D01*
X0073109Y0073043D01*
X0073074Y0072957D01*
X0073036Y0072873D01*
X0072994Y0072790D01*
X0072948Y0072710D01*
X0072899Y0072631D01*
X0072847Y0072554D01*
X0072792Y0072480D01*
X0072734Y0072409D01*
X0072672Y0072339D01*
X0072608Y0072273D01*
X0072541Y0072209D01*
X0072471Y0072149D01*
X0072398Y0072091D01*
X0072324Y0072036D01*
X0072247Y0071985D01*
X0072168Y0071937D01*
X0072086Y0071893D01*
X0072003Y0071851D01*
X0071919Y0071814D01*
X0071833Y0071780D01*
X0071745Y0071750D01*
X0071657Y0071724D01*
X0071567Y0071701D01*
X0071476Y0071683D01*
X0071385Y0071668D01*
X0071293Y0071657D01*
X0071201Y0071650D01*
X0071108Y0071647D01*
X0071016Y0071648D01*
X0070923Y0071653D01*
X0070831Y0071662D01*
X0070739Y0071675D01*
X0070648Y0071691D01*
X0070558Y0071712D01*
X0070469Y0071736D01*
X0070381Y0071765D01*
X0070294Y0071797D01*
X0070209Y0071832D01*
X0070125Y0071872D01*
X0070043Y0071914D01*
X0069963Y0071961D01*
X0069885Y0072010D01*
X0069809Y0072063D01*
X0069735Y0072119D01*
X0069664Y0072179D01*
X0069596Y0072241D01*
X0069530Y0072306D01*
X0069467Y0072374D01*
X0069407Y0072444D01*
X0069350Y0072517D01*
X0069296Y0072592D01*
X0069246Y0072670D01*
X0069199Y0072750D01*
X0069155Y0072831D01*
X0069115Y0072915D01*
X0069078Y0073000D01*
X0069045Y0073086D01*
X0069016Y0073174D01*
X0068991Y0073263D01*
X0068969Y0073353D01*
X0068952Y0073444D01*
X0068938Y0073535D01*
X0068928Y0073627D01*
X0068922Y0073719D01*
X0068920Y0073812D01*
X0155101Y0046013D02*
X0157857Y0046013D01*
X0157934Y0046011D01*
X0158011Y0046005D01*
X0158088Y0045996D01*
X0158164Y0045983D01*
X0158240Y0045966D01*
X0158314Y0045945D01*
X0158388Y0045921D01*
X0158460Y0045893D01*
X0158530Y0045862D01*
X0158599Y0045827D01*
X0158667Y0045789D01*
X0158732Y0045748D01*
X0158795Y0045703D01*
X0158856Y0045655D01*
X0158915Y0045605D01*
X0158971Y0045552D01*
X0159024Y0045496D01*
X0159074Y0045437D01*
X0159122Y0045376D01*
X0159167Y0045313D01*
X0159208Y0045248D01*
X0159246Y0045180D01*
X0159281Y0045111D01*
X0159312Y0045041D01*
X0159340Y0044969D01*
X0159364Y0044895D01*
X0159385Y0044821D01*
X0159402Y0044745D01*
X0159415Y0044669D01*
X0159424Y0044592D01*
X0159430Y0044515D01*
X0159432Y0044438D01*
X0159430Y0044361D01*
X0159424Y0044284D01*
X0159415Y0044207D01*
X0159402Y0044131D01*
X0159385Y0044055D01*
X0159364Y0043981D01*
X0159340Y0043907D01*
X0159312Y0043835D01*
X0159281Y0043765D01*
X0159246Y0043696D01*
X0159208Y0043628D01*
X0159167Y0043563D01*
X0159122Y0043500D01*
X0159074Y0043439D01*
X0159024Y0043380D01*
X0158971Y0043324D01*
X0158915Y0043271D01*
X0158856Y0043221D01*
X0158795Y0043173D01*
X0158732Y0043128D01*
X0158667Y0043087D01*
X0158599Y0043049D01*
X0158530Y0043014D01*
X0158460Y0042983D01*
X0158388Y0042955D01*
X0158314Y0042931D01*
X0158240Y0042910D01*
X0158164Y0042893D01*
X0158088Y0042880D01*
X0158011Y0042871D01*
X0157934Y0042865D01*
X0157857Y0042863D01*
X0157857Y0042864D02*
X0155101Y0042864D01*
X0153526Y0044438D02*
X0153528Y0044515D01*
X0153534Y0044592D01*
X0153543Y0044669D01*
X0153556Y0044745D01*
X0153573Y0044821D01*
X0153594Y0044895D01*
X0153618Y0044969D01*
X0153646Y0045041D01*
X0153677Y0045111D01*
X0153712Y0045180D01*
X0153750Y0045248D01*
X0153791Y0045313D01*
X0153836Y0045376D01*
X0153884Y0045437D01*
X0153934Y0045496D01*
X0153987Y0045552D01*
X0154043Y0045605D01*
X0154102Y0045655D01*
X0154163Y0045703D01*
X0154226Y0045748D01*
X0154291Y0045789D01*
X0154359Y0045827D01*
X0154428Y0045862D01*
X0154498Y0045893D01*
X0154570Y0045921D01*
X0154644Y0045945D01*
X0154718Y0045966D01*
X0154794Y0045983D01*
X0154870Y0045996D01*
X0154947Y0046005D01*
X0155024Y0046011D01*
X0155101Y0046013D01*
X0153526Y0044438D02*
X0153528Y0044361D01*
X0153534Y0044284D01*
X0153543Y0044207D01*
X0153556Y0044131D01*
X0153573Y0044055D01*
X0153594Y0043981D01*
X0153618Y0043907D01*
X0153646Y0043835D01*
X0153677Y0043765D01*
X0153712Y0043696D01*
X0153750Y0043628D01*
X0153791Y0043563D01*
X0153836Y0043500D01*
X0153884Y0043439D01*
X0153934Y0043380D01*
X0153987Y0043324D01*
X0154043Y0043271D01*
X0154102Y0043221D01*
X0154163Y0043173D01*
X0154226Y0043128D01*
X0154291Y0043087D01*
X0154359Y0043049D01*
X0154428Y0043014D01*
X0154498Y0042983D01*
X0154570Y0042955D01*
X0154644Y0042931D01*
X0154718Y0042910D01*
X0154794Y0042893D01*
X0154870Y0042880D01*
X0154947Y0042871D01*
X0155024Y0042865D01*
X0155101Y0042863D01*
X0172817Y0056052D02*
X0172817Y0058808D01*
X0174392Y0060383D02*
X0174469Y0060381D01*
X0174546Y0060375D01*
X0174623Y0060366D01*
X0174699Y0060353D01*
X0174775Y0060336D01*
X0174849Y0060315D01*
X0174923Y0060291D01*
X0174995Y0060263D01*
X0175065Y0060232D01*
X0175134Y0060197D01*
X0175202Y0060159D01*
X0175267Y0060118D01*
X0175330Y0060073D01*
X0175391Y0060025D01*
X0175450Y0059975D01*
X0175506Y0059922D01*
X0175559Y0059866D01*
X0175609Y0059807D01*
X0175657Y0059746D01*
X0175702Y0059683D01*
X0175743Y0059618D01*
X0175781Y0059550D01*
X0175816Y0059481D01*
X0175847Y0059411D01*
X0175875Y0059339D01*
X0175899Y0059265D01*
X0175920Y0059191D01*
X0175937Y0059115D01*
X0175950Y0059039D01*
X0175959Y0058962D01*
X0175965Y0058885D01*
X0175967Y0058808D01*
X0175967Y0056052D01*
X0175965Y0055975D01*
X0175959Y0055898D01*
X0175950Y0055821D01*
X0175937Y0055745D01*
X0175920Y0055669D01*
X0175899Y0055595D01*
X0175875Y0055521D01*
X0175847Y0055449D01*
X0175816Y0055379D01*
X0175781Y0055310D01*
X0175743Y0055242D01*
X0175702Y0055177D01*
X0175657Y0055114D01*
X0175609Y0055053D01*
X0175559Y0054994D01*
X0175506Y0054938D01*
X0175450Y0054885D01*
X0175391Y0054835D01*
X0175330Y0054787D01*
X0175267Y0054742D01*
X0175202Y0054701D01*
X0175134Y0054663D01*
X0175065Y0054628D01*
X0174995Y0054597D01*
X0174923Y0054569D01*
X0174849Y0054545D01*
X0174775Y0054524D01*
X0174699Y0054507D01*
X0174623Y0054494D01*
X0174546Y0054485D01*
X0174469Y0054479D01*
X0174392Y0054477D01*
X0174315Y0054479D01*
X0174238Y0054485D01*
X0174161Y0054494D01*
X0174085Y0054507D01*
X0174009Y0054524D01*
X0173935Y0054545D01*
X0173861Y0054569D01*
X0173789Y0054597D01*
X0173719Y0054628D01*
X0173650Y0054663D01*
X0173582Y0054701D01*
X0173517Y0054742D01*
X0173454Y0054787D01*
X0173393Y0054835D01*
X0173334Y0054885D01*
X0173278Y0054938D01*
X0173225Y0054994D01*
X0173175Y0055053D01*
X0173127Y0055114D01*
X0173082Y0055177D01*
X0173041Y0055242D01*
X0173003Y0055310D01*
X0172968Y0055379D01*
X0172937Y0055449D01*
X0172909Y0055521D01*
X0172885Y0055595D01*
X0172864Y0055669D01*
X0172847Y0055745D01*
X0172834Y0055821D01*
X0172825Y0055898D01*
X0172819Y0055975D01*
X0172817Y0056052D01*
X0172817Y0058808D02*
X0172819Y0058885D01*
X0172825Y0058962D01*
X0172834Y0059039D01*
X0172847Y0059115D01*
X0172864Y0059191D01*
X0172885Y0059265D01*
X0172909Y0059339D01*
X0172937Y0059411D01*
X0172968Y0059481D01*
X0173003Y0059550D01*
X0173041Y0059618D01*
X0173082Y0059683D01*
X0173127Y0059746D01*
X0173175Y0059807D01*
X0173225Y0059866D01*
X0173278Y0059922D01*
X0173334Y0059975D01*
X0173393Y0060025D01*
X0173454Y0060073D01*
X0173517Y0060118D01*
X0173582Y0060159D01*
X0173650Y0060197D01*
X0173719Y0060232D01*
X0173789Y0060263D01*
X0173861Y0060291D01*
X0173935Y0060315D01*
X0174009Y0060336D01*
X0174085Y0060353D01*
X0174161Y0060366D01*
X0174238Y0060375D01*
X0174315Y0060381D01*
X0174392Y0060383D01*
M02*
