G75*
%MOIN*%
%OFA0B0*%
%FSLAX25Y25*%
%IPPOS*%
%LPD*%
%AMOC8*
5,1,8,0,0,1.08239X$1,22.5*
%
%ADD10C,0.01100*%
%ADD11C,0.00800*%
%ADD12C,0.00400*%
%ADD13C,0.00600*%
%ADD14C,0.00500*%
%ADD15C,0.00200*%
%ADD16C,0.00300*%
%ADD17C,0.01000*%
D10*
X0277029Y0041221D02*
X0277029Y0047126D01*
X0279981Y0047126D01*
X0280965Y0046141D01*
X0280965Y0044173D01*
X0279981Y0043189D01*
X0277029Y0043189D01*
X0278997Y0043189D02*
X0280965Y0041221D01*
X0283474Y0041221D02*
X0287411Y0041221D01*
X0289920Y0041221D02*
X0292872Y0041221D01*
X0293856Y0042205D01*
X0293856Y0046141D01*
X0292872Y0047126D01*
X0289920Y0047126D01*
X0289920Y0041221D01*
X0296365Y0041221D02*
X0300302Y0044173D01*
X0296365Y0047126D01*
X0302811Y0047126D02*
X0305763Y0047126D01*
X0306747Y0046141D01*
X0306747Y0044173D01*
X0305763Y0043189D01*
X0302811Y0043189D01*
X0304779Y0043189D02*
X0306747Y0041221D01*
X0309256Y0041221D02*
X0313193Y0041221D01*
X0315702Y0041221D02*
X0318654Y0041221D01*
X0319638Y0042205D01*
X0319638Y0046141D01*
X0318654Y0047126D01*
X0315702Y0047126D01*
X0315702Y0041221D01*
X0322147Y0041221D02*
X0326084Y0044173D01*
X0322147Y0047126D01*
X0328593Y0047126D02*
X0331545Y0047126D01*
X0332529Y0046141D01*
X0332529Y0044173D01*
X0331545Y0043189D01*
X0328593Y0043189D01*
X0330561Y0043189D02*
X0332529Y0041221D01*
X0335038Y0041221D02*
X0338975Y0041221D01*
X0341484Y0041221D02*
X0344436Y0041221D01*
X0345420Y0042205D01*
X0345420Y0046141D01*
X0344436Y0047126D01*
X0341484Y0047126D01*
X0341484Y0041221D01*
X0347929Y0041221D02*
X0351866Y0044173D01*
X0347929Y0047126D01*
X0338975Y0047126D02*
X0335038Y0047126D01*
X0335038Y0041221D01*
X0328593Y0041221D02*
X0328593Y0047126D01*
X0335038Y0044173D02*
X0337007Y0044173D01*
X0354375Y0043189D02*
X0357327Y0043189D01*
X0358311Y0044173D01*
X0358311Y0046141D01*
X0357327Y0047126D01*
X0354375Y0047126D01*
X0354375Y0041221D01*
X0356343Y0043189D02*
X0358311Y0041221D01*
X0360820Y0041221D02*
X0364757Y0041221D01*
X0367266Y0041221D02*
X0370218Y0041221D01*
X0371202Y0042205D01*
X0371202Y0046141D01*
X0370218Y0047126D01*
X0367266Y0047126D01*
X0367266Y0041221D01*
X0373711Y0041221D02*
X0377648Y0044173D01*
X0373711Y0047126D01*
X0380157Y0047126D02*
X0383109Y0047126D01*
X0384093Y0046141D01*
X0384093Y0044173D01*
X0383109Y0043189D01*
X0380157Y0043189D01*
X0382125Y0043189D02*
X0384093Y0041221D01*
X0386602Y0041221D02*
X0390539Y0041221D01*
X0393048Y0041221D02*
X0396000Y0041221D01*
X0396984Y0042205D01*
X0396984Y0046141D01*
X0396000Y0047126D01*
X0393048Y0047126D01*
X0393048Y0041221D01*
X0399493Y0041221D02*
X0403430Y0044173D01*
X0399493Y0047126D01*
X0405939Y0047126D02*
X0408891Y0047126D01*
X0409875Y0046141D01*
X0409875Y0044173D01*
X0408891Y0043189D01*
X0405939Y0043189D01*
X0407907Y0043189D02*
X0409875Y0041221D01*
X0412384Y0041221D02*
X0416321Y0041221D01*
X0418830Y0041221D02*
X0421782Y0041221D01*
X0422766Y0042205D01*
X0422766Y0046141D01*
X0421782Y0047126D01*
X0418830Y0047126D01*
X0418830Y0041221D01*
X0425275Y0041221D02*
X0429212Y0044173D01*
X0425275Y0047126D01*
X0416321Y0047126D02*
X0412384Y0047126D01*
X0412384Y0041221D01*
X0405939Y0041221D02*
X0405939Y0047126D01*
X0412384Y0044173D02*
X0414353Y0044173D01*
X0431721Y0043189D02*
X0434673Y0043189D01*
X0435657Y0044173D01*
X0435657Y0046141D01*
X0434673Y0047126D01*
X0431721Y0047126D01*
X0431721Y0041221D01*
X0433689Y0043189D02*
X0435657Y0041221D01*
X0438166Y0041221D02*
X0442103Y0041221D01*
X0444612Y0041221D02*
X0447564Y0041221D01*
X0448548Y0042205D01*
X0448548Y0046141D01*
X0447564Y0047126D01*
X0444612Y0047126D01*
X0444612Y0041221D01*
X0451057Y0041221D02*
X0454994Y0044173D01*
X0451057Y0047126D01*
X0457503Y0047126D02*
X0460455Y0047126D01*
X0461439Y0046141D01*
X0461439Y0044173D01*
X0460455Y0043189D01*
X0457503Y0043189D01*
X0459471Y0043189D02*
X0461439Y0041221D01*
X0463948Y0041221D02*
X0467885Y0041221D01*
X0470394Y0041221D02*
X0473346Y0041221D01*
X0474330Y0042205D01*
X0474330Y0046141D01*
X0473346Y0047126D01*
X0470394Y0047126D01*
X0470394Y0041221D01*
X0476839Y0041221D02*
X0480776Y0044173D01*
X0476839Y0047126D01*
X0483285Y0047126D02*
X0486237Y0047126D01*
X0487221Y0046141D01*
X0487221Y0044173D01*
X0486237Y0043189D01*
X0483285Y0043189D01*
X0485253Y0043189D02*
X0487221Y0041221D01*
X0489730Y0041221D02*
X0493667Y0041221D01*
X0496176Y0041221D02*
X0499128Y0041221D01*
X0500112Y0042205D01*
X0500112Y0046141D01*
X0499128Y0047126D01*
X0496176Y0047126D01*
X0496176Y0041221D01*
X0502621Y0041221D02*
X0506558Y0044173D01*
X0502621Y0047126D01*
X0493667Y0047126D02*
X0489730Y0047126D01*
X0489730Y0041221D01*
X0483285Y0041221D02*
X0483285Y0047126D01*
X0489730Y0044173D02*
X0491698Y0044173D01*
X0509067Y0043189D02*
X0512019Y0043189D01*
X0513003Y0044173D01*
X0513003Y0046141D01*
X0512019Y0047126D01*
X0509067Y0047126D01*
X0509067Y0041221D01*
X0511035Y0043189D02*
X0513003Y0041221D01*
X0515512Y0041221D02*
X0519449Y0041221D01*
X0521958Y0041221D02*
X0524910Y0041221D01*
X0525894Y0042205D01*
X0525894Y0046141D01*
X0524910Y0047126D01*
X0521958Y0047126D01*
X0521958Y0041221D01*
X0528403Y0041221D02*
X0532340Y0044173D01*
X0528403Y0047126D01*
X0519449Y0047126D02*
X0515512Y0047126D01*
X0515512Y0041221D01*
X0515512Y0044173D02*
X0517480Y0044173D01*
X0467885Y0047126D02*
X0463948Y0047126D01*
X0463948Y0041221D01*
X0457503Y0041221D02*
X0457503Y0047126D01*
X0463948Y0044173D02*
X0465916Y0044173D01*
X0442103Y0047126D02*
X0438166Y0047126D01*
X0438166Y0041221D01*
X0438166Y0044173D02*
X0440135Y0044173D01*
X0390539Y0047126D02*
X0386602Y0047126D01*
X0386602Y0041221D01*
X0380157Y0041221D02*
X0380157Y0047126D01*
X0386602Y0044173D02*
X0388571Y0044173D01*
X0364757Y0047126D02*
X0360820Y0047126D01*
X0360820Y0041221D01*
X0360820Y0044173D02*
X0362789Y0044173D01*
X0313193Y0047126D02*
X0309256Y0047126D01*
X0309256Y0041221D01*
X0302811Y0041221D02*
X0302811Y0047126D01*
X0309256Y0044173D02*
X0311225Y0044173D01*
X0287411Y0047126D02*
X0283474Y0047126D01*
X0283474Y0041221D01*
X0283474Y0044173D02*
X0285443Y0044173D01*
X0215443Y0099221D02*
X0217411Y0103157D01*
X0213474Y0103157D02*
X0215443Y0099221D01*
X0210965Y0099221D02*
X0207029Y0099221D01*
X0210965Y0103157D01*
X0210965Y0104141D01*
X0209981Y0105126D01*
X0208013Y0105126D01*
X0207029Y0104141D01*
X0202552Y0105126D02*
X0200583Y0103157D01*
X0198074Y0102173D02*
X0194138Y0102173D01*
X0187411Y0103157D02*
X0185443Y0099221D01*
X0183474Y0103157D01*
X0180965Y0103157D02*
X0180965Y0104141D01*
X0179981Y0105126D01*
X0178013Y0105126D01*
X0177029Y0104141D01*
X0180965Y0103157D02*
X0177029Y0099221D01*
X0180965Y0099221D01*
X0174520Y0099221D02*
X0170583Y0099221D01*
X0172552Y0099221D02*
X0172552Y0105126D01*
X0170583Y0103157D01*
X0168074Y0102173D02*
X0164138Y0102173D01*
X0166106Y0104141D02*
X0166106Y0100205D01*
X0154188Y0103157D02*
X0152220Y0099221D01*
X0150251Y0103157D01*
X0147743Y0102173D02*
X0147743Y0100205D01*
X0146759Y0099221D01*
X0144790Y0099221D01*
X0143806Y0100205D01*
X0143806Y0102173D02*
X0145774Y0103157D01*
X0146759Y0103157D01*
X0147743Y0102173D01*
X0143806Y0102173D02*
X0143806Y0105126D01*
X0147743Y0105126D01*
X0139329Y0104141D02*
X0139329Y0100205D01*
X0137360Y0102173D02*
X0141297Y0102173D01*
X0200583Y0099221D02*
X0204520Y0099221D01*
X0202552Y0099221D02*
X0202552Y0105126D01*
D11*
X0133250Y0091289D02*
X0133250Y0036564D01*
X0177739Y0036564D01*
X0177739Y0091289D01*
X0133250Y0091289D01*
X0188172Y0089765D02*
X0188172Y0081104D01*
X0224786Y0081104D02*
X0224786Y0089765D01*
X0222620Y0089765D01*
X0222620Y0091930D01*
X0190337Y0091930D01*
X0190337Y0089765D01*
X0188172Y0089765D01*
X0188172Y0062206D02*
X0188172Y0049608D01*
X0190337Y0049608D01*
X0190337Y0047442D01*
X0222620Y0047442D01*
X0222620Y0049608D01*
X0224786Y0049608D01*
X0224786Y0062206D01*
X0167896Y0036171D02*
X0167896Y0022785D01*
X0145061Y0022785D01*
X0145061Y0036171D01*
X0063605Y0059049D02*
X0059668Y0059049D01*
X0059668Y0106293D01*
X0063605Y0106293D01*
X0075416Y0098419D02*
X0075416Y0066923D01*
D12*
X0093543Y0072241D02*
X0094310Y0073008D01*
X0094310Y0073775D01*
X0093543Y0074543D01*
X0089706Y0074543D01*
X0089706Y0075310D02*
X0089706Y0073775D01*
X0089706Y0076845D02*
X0089706Y0079147D01*
X0090474Y0079914D01*
X0092008Y0079914D01*
X0092776Y0079147D01*
X0092776Y0076845D01*
X0094310Y0076845D02*
X0089706Y0076845D01*
X0091241Y0081449D02*
X0089706Y0082983D01*
X0094310Y0082983D01*
X0094310Y0081449D02*
X0094310Y0084518D01*
X0094232Y0096340D02*
X0094232Y0097891D01*
X0093715Y0098408D01*
X0092681Y0098408D01*
X0092164Y0097891D01*
X0092164Y0096340D01*
X0095266Y0096340D01*
X0094232Y0097374D02*
X0095266Y0098408D01*
X0094749Y0099563D02*
X0095266Y0100080D01*
X0095266Y0101114D01*
X0094749Y0101631D01*
X0094232Y0101631D01*
X0093715Y0101114D01*
X0093715Y0100597D01*
X0093715Y0101114D02*
X0093198Y0101631D01*
X0092681Y0101631D01*
X0092164Y0101114D01*
X0092164Y0100080D01*
X0092681Y0099563D01*
X0232148Y0121883D02*
X0232148Y0124986D01*
X0233699Y0124986D01*
X0234217Y0124468D01*
X0234217Y0123434D01*
X0233699Y0122917D01*
X0232148Y0122917D01*
X0233182Y0122917D02*
X0234217Y0121883D01*
X0235371Y0121883D02*
X0237439Y0121883D01*
X0236405Y0121883D02*
X0236405Y0124986D01*
X0235371Y0123951D01*
X0262164Y0101114D02*
X0262681Y0101631D01*
X0263198Y0101631D01*
X0265266Y0099563D01*
X0265266Y0101631D01*
X0262164Y0101114D02*
X0262164Y0100080D01*
X0262681Y0099563D01*
X0262681Y0098408D02*
X0263715Y0098408D01*
X0264232Y0097891D01*
X0264232Y0096340D01*
X0264232Y0097374D02*
X0265266Y0098408D01*
X0262681Y0098408D02*
X0262164Y0097891D01*
X0262164Y0096340D01*
X0265266Y0096340D01*
X0213164Y0059707D02*
X0212396Y0060475D01*
X0210094Y0060475D01*
X0210094Y0055871D01*
X0212396Y0055871D01*
X0213164Y0056638D01*
X0213164Y0057405D01*
X0212396Y0058173D01*
X0210094Y0058173D01*
X0212396Y0058173D02*
X0213164Y0058940D01*
X0213164Y0059707D01*
X0203956Y0060475D02*
X0200887Y0057405D01*
X0201654Y0058173D02*
X0203956Y0055871D01*
X0200887Y0055871D02*
X0200887Y0060475D01*
X0199352Y0059707D02*
X0196283Y0056638D01*
X0197050Y0055871D01*
X0198585Y0055871D01*
X0199352Y0056638D01*
X0199352Y0059707D01*
X0198585Y0060475D01*
X0197050Y0060475D01*
X0196283Y0059707D01*
X0196283Y0056638D01*
X0194748Y0056638D02*
X0193981Y0055871D01*
X0192446Y0055871D01*
X0191679Y0056638D01*
X0191679Y0058173D02*
X0193213Y0058940D01*
X0193981Y0058940D01*
X0194748Y0058173D01*
X0194748Y0056638D01*
X0191679Y0058173D02*
X0191679Y0060475D01*
X0194748Y0060475D01*
X0153609Y0007471D02*
X0153609Y0002867D01*
X0152075Y0002867D02*
X0155144Y0002867D01*
X0150540Y0002867D02*
X0147471Y0007471D01*
X0150540Y0007471D02*
X0147471Y0002867D01*
X0152075Y0005936D02*
X0153609Y0007471D01*
D13*
X0105939Y0038471D02*
X0107407Y0041406D01*
X0104472Y0041406D02*
X0105939Y0038471D01*
X0102803Y0039205D02*
X0102803Y0039939D01*
X0102070Y0040672D01*
X0099868Y0040672D01*
X0099868Y0039205D01*
X0100602Y0038471D01*
X0102070Y0038471D01*
X0102803Y0039205D01*
X0101336Y0042140D02*
X0099868Y0040672D01*
X0101336Y0042140D02*
X0102803Y0042874D01*
X0096732Y0042874D02*
X0095264Y0041406D01*
X0096732Y0042874D02*
X0096732Y0038471D01*
X0095264Y0038471D02*
X0098200Y0038471D01*
X0089058Y0040672D02*
X0087591Y0040672D01*
X0088324Y0042140D02*
X0088324Y0038471D01*
X0085922Y0038471D02*
X0085922Y0041406D01*
X0088324Y0042140D02*
X0089058Y0042874D01*
X0082987Y0041406D02*
X0082987Y0039205D01*
X0083721Y0038471D01*
X0085922Y0038471D01*
X0081319Y0042140D02*
X0078383Y0039205D01*
X0078383Y0038471D01*
X0075981Y0038471D02*
X0075981Y0042874D01*
X0073779Y0040672D01*
X0076715Y0040672D01*
X0081319Y0042140D02*
X0081319Y0042874D01*
X0078383Y0042874D01*
X0106979Y0048171D02*
X0106979Y0054671D01*
X0100579Y0057671D02*
X0098079Y0057671D01*
X0099379Y0056371D02*
X0099379Y0058971D01*
X0106979Y0060671D02*
X0106979Y0064671D01*
X0106979Y0070671D02*
X0106979Y0084671D01*
X0106979Y0090671D02*
X0106979Y0094671D01*
X0100979Y0094171D02*
X0100979Y0095671D01*
X0100979Y0094171D02*
X0100977Y0094111D01*
X0100972Y0094050D01*
X0100963Y0093991D01*
X0100950Y0093932D01*
X0100934Y0093873D01*
X0100914Y0093816D01*
X0100891Y0093761D01*
X0100864Y0093706D01*
X0100835Y0093654D01*
X0100802Y0093603D01*
X0100766Y0093554D01*
X0100728Y0093508D01*
X0100686Y0093464D01*
X0100642Y0093422D01*
X0100596Y0093384D01*
X0100547Y0093348D01*
X0100496Y0093315D01*
X0100444Y0093286D01*
X0100389Y0093259D01*
X0100334Y0093236D01*
X0100277Y0093216D01*
X0100218Y0093200D01*
X0100159Y0093187D01*
X0100100Y0093178D01*
X0100039Y0093173D01*
X0099979Y0093171D01*
X0092979Y0093171D02*
X0092919Y0093173D01*
X0092858Y0093178D01*
X0092799Y0093187D01*
X0092740Y0093200D01*
X0092681Y0093216D01*
X0092624Y0093236D01*
X0092569Y0093259D01*
X0092514Y0093286D01*
X0092462Y0093315D01*
X0092411Y0093348D01*
X0092362Y0093384D01*
X0092316Y0093422D01*
X0092272Y0093464D01*
X0092230Y0093508D01*
X0092192Y0093554D01*
X0092156Y0093603D01*
X0092123Y0093654D01*
X0092094Y0093706D01*
X0092067Y0093761D01*
X0092044Y0093816D01*
X0092024Y0093873D01*
X0092008Y0093932D01*
X0091995Y0093991D01*
X0091986Y0094050D01*
X0091981Y0094111D01*
X0091979Y0094171D01*
X0091979Y0095671D01*
X0106979Y0100671D02*
X0106979Y0104671D01*
X0106979Y0110671D02*
X0106979Y0125171D01*
X0130979Y0125171D01*
X0130979Y0048171D01*
X0106979Y0048171D01*
X0084136Y0053171D02*
X0084139Y0053413D01*
X0084148Y0053654D01*
X0084163Y0053895D01*
X0084183Y0054136D01*
X0084210Y0054376D01*
X0084243Y0054615D01*
X0084281Y0054854D01*
X0084325Y0055091D01*
X0084375Y0055328D01*
X0084431Y0055563D01*
X0084493Y0055796D01*
X0084560Y0056028D01*
X0084633Y0056259D01*
X0084711Y0056487D01*
X0084796Y0056713D01*
X0084885Y0056938D01*
X0084980Y0057160D01*
X0085081Y0057379D01*
X0085187Y0057597D01*
X0085298Y0057811D01*
X0085415Y0058023D01*
X0085536Y0058231D01*
X0085663Y0058437D01*
X0085795Y0058639D01*
X0085932Y0058839D01*
X0086073Y0059034D01*
X0086219Y0059227D01*
X0086370Y0059415D01*
X0086526Y0059600D01*
X0086686Y0059781D01*
X0086850Y0059958D01*
X0087019Y0060131D01*
X0087192Y0060300D01*
X0087369Y0060464D01*
X0087550Y0060624D01*
X0087735Y0060780D01*
X0087923Y0060931D01*
X0088116Y0061077D01*
X0088311Y0061218D01*
X0088511Y0061355D01*
X0088713Y0061487D01*
X0088919Y0061614D01*
X0089127Y0061735D01*
X0089339Y0061852D01*
X0089553Y0061963D01*
X0089771Y0062069D01*
X0089990Y0062170D01*
X0090212Y0062265D01*
X0090437Y0062354D01*
X0090663Y0062439D01*
X0090891Y0062517D01*
X0091122Y0062590D01*
X0091354Y0062657D01*
X0091587Y0062719D01*
X0091822Y0062775D01*
X0092059Y0062825D01*
X0092296Y0062869D01*
X0092535Y0062907D01*
X0092774Y0062940D01*
X0093014Y0062967D01*
X0093255Y0062987D01*
X0093496Y0063002D01*
X0093737Y0063011D01*
X0093979Y0063014D01*
X0094221Y0063011D01*
X0094462Y0063002D01*
X0094703Y0062987D01*
X0094944Y0062967D01*
X0095184Y0062940D01*
X0095423Y0062907D01*
X0095662Y0062869D01*
X0095899Y0062825D01*
X0096136Y0062775D01*
X0096371Y0062719D01*
X0096604Y0062657D01*
X0096836Y0062590D01*
X0097067Y0062517D01*
X0097295Y0062439D01*
X0097521Y0062354D01*
X0097746Y0062265D01*
X0097968Y0062170D01*
X0098187Y0062069D01*
X0098405Y0061963D01*
X0098619Y0061852D01*
X0098831Y0061735D01*
X0099039Y0061614D01*
X0099245Y0061487D01*
X0099447Y0061355D01*
X0099647Y0061218D01*
X0099842Y0061077D01*
X0100035Y0060931D01*
X0100223Y0060780D01*
X0100408Y0060624D01*
X0100589Y0060464D01*
X0100766Y0060300D01*
X0100939Y0060131D01*
X0101108Y0059958D01*
X0101272Y0059781D01*
X0101432Y0059600D01*
X0101588Y0059415D01*
X0101739Y0059227D01*
X0101885Y0059034D01*
X0102026Y0058839D01*
X0102163Y0058639D01*
X0102295Y0058437D01*
X0102422Y0058231D01*
X0102543Y0058023D01*
X0102660Y0057811D01*
X0102771Y0057597D01*
X0102877Y0057379D01*
X0102978Y0057160D01*
X0103073Y0056938D01*
X0103162Y0056713D01*
X0103247Y0056487D01*
X0103325Y0056259D01*
X0103398Y0056028D01*
X0103465Y0055796D01*
X0103527Y0055563D01*
X0103583Y0055328D01*
X0103633Y0055091D01*
X0103677Y0054854D01*
X0103715Y0054615D01*
X0103748Y0054376D01*
X0103775Y0054136D01*
X0103795Y0053895D01*
X0103810Y0053654D01*
X0103819Y0053413D01*
X0103822Y0053171D01*
X0103819Y0052929D01*
X0103810Y0052688D01*
X0103795Y0052447D01*
X0103775Y0052206D01*
X0103748Y0051966D01*
X0103715Y0051727D01*
X0103677Y0051488D01*
X0103633Y0051251D01*
X0103583Y0051014D01*
X0103527Y0050779D01*
X0103465Y0050546D01*
X0103398Y0050314D01*
X0103325Y0050083D01*
X0103247Y0049855D01*
X0103162Y0049629D01*
X0103073Y0049404D01*
X0102978Y0049182D01*
X0102877Y0048963D01*
X0102771Y0048745D01*
X0102660Y0048531D01*
X0102543Y0048319D01*
X0102422Y0048111D01*
X0102295Y0047905D01*
X0102163Y0047703D01*
X0102026Y0047503D01*
X0101885Y0047308D01*
X0101739Y0047115D01*
X0101588Y0046927D01*
X0101432Y0046742D01*
X0101272Y0046561D01*
X0101108Y0046384D01*
X0100939Y0046211D01*
X0100766Y0046042D01*
X0100589Y0045878D01*
X0100408Y0045718D01*
X0100223Y0045562D01*
X0100035Y0045411D01*
X0099842Y0045265D01*
X0099647Y0045124D01*
X0099447Y0044987D01*
X0099245Y0044855D01*
X0099039Y0044728D01*
X0098831Y0044607D01*
X0098619Y0044490D01*
X0098405Y0044379D01*
X0098187Y0044273D01*
X0097968Y0044172D01*
X0097746Y0044077D01*
X0097521Y0043988D01*
X0097295Y0043903D01*
X0097067Y0043825D01*
X0096836Y0043752D01*
X0096604Y0043685D01*
X0096371Y0043623D01*
X0096136Y0043567D01*
X0095899Y0043517D01*
X0095662Y0043473D01*
X0095423Y0043435D01*
X0095184Y0043402D01*
X0094944Y0043375D01*
X0094703Y0043355D01*
X0094462Y0043340D01*
X0094221Y0043331D01*
X0093979Y0043328D01*
X0093737Y0043331D01*
X0093496Y0043340D01*
X0093255Y0043355D01*
X0093014Y0043375D01*
X0092774Y0043402D01*
X0092535Y0043435D01*
X0092296Y0043473D01*
X0092059Y0043517D01*
X0091822Y0043567D01*
X0091587Y0043623D01*
X0091354Y0043685D01*
X0091122Y0043752D01*
X0090891Y0043825D01*
X0090663Y0043903D01*
X0090437Y0043988D01*
X0090212Y0044077D01*
X0089990Y0044172D01*
X0089771Y0044273D01*
X0089553Y0044379D01*
X0089339Y0044490D01*
X0089127Y0044607D01*
X0088919Y0044728D01*
X0088713Y0044855D01*
X0088511Y0044987D01*
X0088311Y0045124D01*
X0088116Y0045265D01*
X0087923Y0045411D01*
X0087735Y0045562D01*
X0087550Y0045718D01*
X0087369Y0045878D01*
X0087192Y0046042D01*
X0087019Y0046211D01*
X0086850Y0046384D01*
X0086686Y0046561D01*
X0086526Y0046742D01*
X0086370Y0046927D01*
X0086219Y0047115D01*
X0086073Y0047308D01*
X0085932Y0047503D01*
X0085795Y0047703D01*
X0085663Y0047905D01*
X0085536Y0048111D01*
X0085415Y0048319D01*
X0085298Y0048531D01*
X0085187Y0048745D01*
X0085081Y0048963D01*
X0084980Y0049182D01*
X0084885Y0049404D01*
X0084796Y0049629D01*
X0084711Y0049855D01*
X0084633Y0050083D01*
X0084560Y0050314D01*
X0084493Y0050546D01*
X0084431Y0050779D01*
X0084375Y0051014D01*
X0084325Y0051251D01*
X0084281Y0051488D01*
X0084243Y0051727D01*
X0084210Y0051966D01*
X0084183Y0052206D01*
X0084163Y0052447D01*
X0084148Y0052688D01*
X0084139Y0052929D01*
X0084136Y0053171D01*
X0261979Y0094171D02*
X0261979Y0095671D01*
X0261979Y0094171D02*
X0261981Y0094111D01*
X0261986Y0094050D01*
X0261995Y0093991D01*
X0262008Y0093932D01*
X0262024Y0093873D01*
X0262044Y0093816D01*
X0262067Y0093761D01*
X0262094Y0093706D01*
X0262123Y0093654D01*
X0262156Y0093603D01*
X0262192Y0093554D01*
X0262230Y0093508D01*
X0262272Y0093464D01*
X0262316Y0093422D01*
X0262362Y0093384D01*
X0262411Y0093348D01*
X0262462Y0093315D01*
X0262514Y0093286D01*
X0262569Y0093259D01*
X0262624Y0093236D01*
X0262681Y0093216D01*
X0262740Y0093200D01*
X0262799Y0093187D01*
X0262858Y0093178D01*
X0262919Y0093173D01*
X0262979Y0093171D01*
X0269979Y0093171D02*
X0270039Y0093173D01*
X0270100Y0093178D01*
X0270159Y0093187D01*
X0270218Y0093200D01*
X0270277Y0093216D01*
X0270334Y0093236D01*
X0270389Y0093259D01*
X0270444Y0093286D01*
X0270496Y0093315D01*
X0270547Y0093348D01*
X0270596Y0093384D01*
X0270642Y0093422D01*
X0270686Y0093464D01*
X0270728Y0093508D01*
X0270766Y0093554D01*
X0270802Y0093603D01*
X0270835Y0093654D01*
X0270864Y0093706D01*
X0270891Y0093761D01*
X0270914Y0093816D01*
X0270934Y0093873D01*
X0270950Y0093932D01*
X0270963Y0093991D01*
X0270972Y0094050D01*
X0270977Y0094111D01*
X0270979Y0094171D01*
X0270979Y0095671D01*
X0301479Y0093171D02*
X0301479Y0098171D01*
X0303979Y0100671D01*
X0318979Y0100671D01*
X0321479Y0103171D01*
X0321479Y0108171D01*
X0318979Y0110671D01*
X0303979Y0110671D01*
X0301479Y0113171D01*
X0301479Y0118171D01*
X0303979Y0120671D01*
X0318979Y0120671D01*
X0321479Y0118171D01*
X0321479Y0113171D01*
X0318979Y0110671D01*
X0303979Y0110671D02*
X0301479Y0108171D01*
X0301479Y0103171D01*
X0303979Y0100671D01*
X0318979Y0100671D02*
X0321479Y0098171D01*
X0321479Y0093171D01*
X0318979Y0090671D01*
X0303979Y0090671D01*
X0301479Y0093171D01*
X0303979Y0090671D02*
X0301479Y0088171D01*
X0301479Y0083171D01*
X0303979Y0080671D01*
X0318979Y0080671D01*
X0321479Y0083171D01*
X0321479Y0088171D01*
X0318979Y0090671D01*
X0318979Y0080671D02*
X0321479Y0078171D01*
X0321479Y0073171D01*
X0318979Y0070671D01*
X0303979Y0070671D01*
X0301479Y0073171D01*
X0301479Y0078171D01*
X0303979Y0080671D01*
X0303979Y0070671D02*
X0301479Y0068171D01*
X0301479Y0063171D01*
X0303979Y0060671D01*
X0318979Y0060671D01*
X0321479Y0063171D01*
X0321479Y0068171D01*
X0318979Y0070671D01*
X0318979Y0060671D02*
X0321479Y0058171D01*
X0321479Y0053171D01*
X0318979Y0050671D01*
X0303979Y0050671D01*
X0301479Y0053171D01*
X0301479Y0058171D01*
X0303979Y0060671D01*
X0303979Y0050671D02*
X0301479Y0048171D01*
X0301479Y0043171D01*
X0303979Y0040671D01*
X0318979Y0040671D01*
X0321479Y0043171D01*
X0321479Y0045671D01*
X0321479Y0048171D01*
X0318979Y0050671D01*
X0371479Y0053171D02*
X0373979Y0050671D01*
X0388979Y0050671D01*
X0391479Y0053171D01*
X0391479Y0058171D01*
X0388979Y0060671D01*
X0373979Y0060671D01*
X0371479Y0063171D01*
X0371479Y0068171D01*
X0373979Y0070671D01*
X0388979Y0070671D01*
X0391479Y0073171D01*
X0391479Y0078171D01*
X0388979Y0080671D01*
X0373979Y0080671D01*
X0371479Y0083171D01*
X0371479Y0088171D01*
X0373979Y0090671D01*
X0388979Y0090671D01*
X0391479Y0093171D01*
X0391479Y0098171D01*
X0388979Y0100671D01*
X0373979Y0100671D01*
X0371479Y0103171D01*
X0371479Y0108171D01*
X0373979Y0110671D01*
X0388979Y0110671D01*
X0391479Y0108171D01*
X0391479Y0103171D01*
X0388979Y0100671D01*
X0373979Y0100671D02*
X0371479Y0098171D01*
X0371479Y0093171D01*
X0373979Y0090671D01*
X0388979Y0090671D02*
X0391479Y0088171D01*
X0391479Y0083171D01*
X0388979Y0080671D01*
X0373979Y0080671D02*
X0371479Y0078171D01*
X0371479Y0073171D01*
X0373979Y0070671D01*
X0388979Y0070671D02*
X0391479Y0068171D01*
X0391479Y0063171D01*
X0388979Y0060671D01*
X0373979Y0060671D02*
X0371479Y0058171D01*
X0371479Y0053171D01*
X0373979Y0050671D02*
X0371479Y0048171D01*
X0371479Y0043171D01*
X0373979Y0040671D01*
X0388979Y0040671D01*
X0391479Y0043171D01*
X0391479Y0045671D01*
X0391479Y0048171D01*
X0388979Y0050671D01*
X0436479Y0053171D02*
X0436479Y0058171D01*
X0438979Y0060671D01*
X0453979Y0060671D01*
X0456479Y0063171D01*
X0456479Y0068171D01*
X0453979Y0070671D01*
X0438979Y0070671D01*
X0436479Y0073171D01*
X0436479Y0078171D01*
X0438979Y0080671D01*
X0453979Y0080671D01*
X0456479Y0083171D01*
X0456479Y0088171D01*
X0453979Y0090671D01*
X0438979Y0090671D01*
X0436479Y0093171D01*
X0436479Y0098171D01*
X0438979Y0100671D01*
X0453979Y0100671D01*
X0456479Y0103171D01*
X0456479Y0108171D01*
X0453979Y0110671D01*
X0438979Y0110671D01*
X0436479Y0113171D01*
X0436479Y0118171D01*
X0438979Y0120671D01*
X0453979Y0120671D01*
X0456479Y0118171D01*
X0456479Y0113171D01*
X0453979Y0110671D01*
X0438979Y0110671D02*
X0436479Y0108171D01*
X0436479Y0103171D01*
X0438979Y0100671D01*
X0453979Y0100671D02*
X0456479Y0098171D01*
X0456479Y0093171D01*
X0453979Y0090671D01*
X0438979Y0090671D02*
X0436479Y0088171D01*
X0436479Y0083171D01*
X0438979Y0080671D01*
X0453979Y0080671D02*
X0456479Y0078171D01*
X0456479Y0073171D01*
X0453979Y0070671D01*
X0438979Y0070671D02*
X0436479Y0068171D01*
X0436479Y0063171D01*
X0438979Y0060671D01*
X0453979Y0060671D02*
X0456479Y0058171D01*
X0456479Y0053171D01*
X0453979Y0050671D01*
X0438979Y0050671D01*
X0436479Y0053171D01*
X0438979Y0050671D02*
X0436479Y0048171D01*
X0436479Y0043171D01*
X0438979Y0040671D01*
X0453979Y0040671D01*
X0456479Y0043171D01*
X0456479Y0045671D01*
X0456479Y0048171D01*
X0453979Y0050671D01*
X0506479Y0053171D02*
X0508979Y0050671D01*
X0523979Y0050671D01*
X0526479Y0053171D01*
X0526479Y0058171D01*
X0523979Y0060671D01*
X0508979Y0060671D01*
X0506479Y0063171D01*
X0506479Y0068171D01*
X0508979Y0070671D01*
X0523979Y0070671D01*
X0526479Y0073171D01*
X0526479Y0078171D01*
X0523979Y0080671D01*
X0508979Y0080671D01*
X0506479Y0083171D01*
X0506479Y0088171D01*
X0508979Y0090671D01*
X0523979Y0090671D01*
X0526479Y0093171D01*
X0526479Y0098171D01*
X0523979Y0100671D01*
X0508979Y0100671D01*
X0506479Y0103171D01*
X0506479Y0108171D01*
X0508979Y0110671D01*
X0523979Y0110671D01*
X0526479Y0108171D01*
X0526479Y0103171D01*
X0523979Y0100671D01*
X0508979Y0100671D02*
X0506479Y0098171D01*
X0506479Y0093171D01*
X0508979Y0090671D01*
X0523979Y0090671D02*
X0526479Y0088171D01*
X0526479Y0083171D01*
X0523979Y0080671D01*
X0508979Y0080671D02*
X0506479Y0078171D01*
X0506479Y0073171D01*
X0508979Y0070671D01*
X0523979Y0070671D02*
X0526479Y0068171D01*
X0526479Y0063171D01*
X0523979Y0060671D01*
X0508979Y0060671D02*
X0506479Y0058171D01*
X0506479Y0053171D01*
X0508979Y0050671D02*
X0506479Y0048171D01*
X0506479Y0043171D01*
X0508979Y0040671D01*
X0523979Y0040671D01*
X0526479Y0043171D01*
X0526479Y0045671D01*
X0526479Y0048171D01*
X0523979Y0050671D01*
X0523979Y0110671D02*
X0526479Y0113171D01*
X0526479Y0118171D01*
X0523979Y0120671D01*
X0508979Y0120671D01*
X0506479Y0118171D01*
X0506479Y0113171D01*
X0508979Y0110671D01*
X0391479Y0113171D02*
X0388979Y0110671D01*
X0391479Y0113171D02*
X0391479Y0118171D01*
X0388979Y0120671D01*
X0373979Y0120671D01*
X0371479Y0118171D01*
X0371479Y0113171D01*
X0373979Y0110671D01*
X0270979Y0115671D02*
X0270979Y0117171D01*
X0270977Y0117231D01*
X0270972Y0117292D01*
X0270963Y0117351D01*
X0270950Y0117410D01*
X0270934Y0117469D01*
X0270914Y0117526D01*
X0270891Y0117581D01*
X0270864Y0117636D01*
X0270835Y0117688D01*
X0270802Y0117739D01*
X0270766Y0117788D01*
X0270728Y0117834D01*
X0270686Y0117878D01*
X0270642Y0117920D01*
X0270596Y0117958D01*
X0270547Y0117994D01*
X0270496Y0118027D01*
X0270444Y0118056D01*
X0270389Y0118083D01*
X0270334Y0118106D01*
X0270277Y0118126D01*
X0270218Y0118142D01*
X0270159Y0118155D01*
X0270100Y0118164D01*
X0270039Y0118169D01*
X0269979Y0118171D01*
X0262979Y0118171D02*
X0262919Y0118169D01*
X0262858Y0118164D01*
X0262799Y0118155D01*
X0262740Y0118142D01*
X0262681Y0118126D01*
X0262624Y0118106D01*
X0262569Y0118083D01*
X0262514Y0118056D01*
X0262462Y0118027D01*
X0262411Y0117994D01*
X0262362Y0117958D01*
X0262316Y0117920D01*
X0262272Y0117878D01*
X0262230Y0117834D01*
X0262192Y0117788D01*
X0262156Y0117739D01*
X0262123Y0117688D01*
X0262094Y0117636D01*
X0262067Y0117581D01*
X0262044Y0117526D01*
X0262024Y0117469D01*
X0262008Y0117410D01*
X0261995Y0117351D01*
X0261986Y0117292D01*
X0261981Y0117231D01*
X0261979Y0117171D01*
X0261979Y0115671D01*
X0252979Y0116171D02*
X0251479Y0116171D01*
X0252979Y0116171D02*
X0253039Y0116173D01*
X0253100Y0116178D01*
X0253159Y0116187D01*
X0253218Y0116200D01*
X0253277Y0116216D01*
X0253334Y0116236D01*
X0253389Y0116259D01*
X0253444Y0116286D01*
X0253496Y0116315D01*
X0253547Y0116348D01*
X0253596Y0116384D01*
X0253642Y0116422D01*
X0253686Y0116464D01*
X0253728Y0116508D01*
X0253766Y0116554D01*
X0253802Y0116603D01*
X0253835Y0116654D01*
X0253864Y0116706D01*
X0253891Y0116761D01*
X0253914Y0116816D01*
X0253934Y0116873D01*
X0253950Y0116932D01*
X0253963Y0116991D01*
X0253972Y0117050D01*
X0253977Y0117111D01*
X0253979Y0117171D01*
X0231479Y0116171D02*
X0229979Y0116171D01*
X0229919Y0116173D01*
X0229858Y0116178D01*
X0229799Y0116187D01*
X0229740Y0116200D01*
X0229681Y0116216D01*
X0229624Y0116236D01*
X0229569Y0116259D01*
X0229514Y0116286D01*
X0229462Y0116315D01*
X0229411Y0116348D01*
X0229362Y0116384D01*
X0229316Y0116422D01*
X0229272Y0116464D01*
X0229230Y0116508D01*
X0229192Y0116554D01*
X0229156Y0116603D01*
X0229123Y0116654D01*
X0229094Y0116706D01*
X0229067Y0116761D01*
X0229044Y0116816D01*
X0229024Y0116873D01*
X0229008Y0116932D01*
X0228995Y0116991D01*
X0228986Y0117050D01*
X0228981Y0117111D01*
X0228979Y0117171D01*
X0228979Y0124171D02*
X0228981Y0124231D01*
X0228986Y0124292D01*
X0228995Y0124351D01*
X0229008Y0124410D01*
X0229024Y0124469D01*
X0229044Y0124526D01*
X0229067Y0124581D01*
X0229094Y0124636D01*
X0229123Y0124688D01*
X0229156Y0124739D01*
X0229192Y0124788D01*
X0229230Y0124834D01*
X0229272Y0124878D01*
X0229316Y0124920D01*
X0229362Y0124958D01*
X0229411Y0124994D01*
X0229462Y0125027D01*
X0229514Y0125056D01*
X0229569Y0125083D01*
X0229624Y0125106D01*
X0229681Y0125126D01*
X0229740Y0125142D01*
X0229799Y0125155D01*
X0229858Y0125164D01*
X0229919Y0125169D01*
X0229979Y0125171D01*
X0231479Y0125171D01*
X0251479Y0125171D02*
X0252979Y0125171D01*
X0253039Y0125169D01*
X0253100Y0125164D01*
X0253159Y0125155D01*
X0253218Y0125142D01*
X0253277Y0125126D01*
X0253334Y0125106D01*
X0253389Y0125083D01*
X0253444Y0125056D01*
X0253496Y0125027D01*
X0253547Y0124994D01*
X0253596Y0124958D01*
X0253642Y0124920D01*
X0253686Y0124878D01*
X0253728Y0124834D01*
X0253766Y0124788D01*
X0253802Y0124739D01*
X0253835Y0124688D01*
X0253864Y0124636D01*
X0253891Y0124581D01*
X0253914Y0124526D01*
X0253934Y0124469D01*
X0253950Y0124410D01*
X0253963Y0124351D01*
X0253972Y0124292D01*
X0253977Y0124231D01*
X0253979Y0124171D01*
X0100979Y0117171D02*
X0100979Y0115671D01*
X0100979Y0117171D02*
X0100977Y0117231D01*
X0100972Y0117292D01*
X0100963Y0117351D01*
X0100950Y0117410D01*
X0100934Y0117469D01*
X0100914Y0117526D01*
X0100891Y0117581D01*
X0100864Y0117636D01*
X0100835Y0117688D01*
X0100802Y0117739D01*
X0100766Y0117788D01*
X0100728Y0117834D01*
X0100686Y0117878D01*
X0100642Y0117920D01*
X0100596Y0117958D01*
X0100547Y0117994D01*
X0100496Y0118027D01*
X0100444Y0118056D01*
X0100389Y0118083D01*
X0100334Y0118106D01*
X0100277Y0118126D01*
X0100218Y0118142D01*
X0100159Y0118155D01*
X0100100Y0118164D01*
X0100039Y0118169D01*
X0099979Y0118171D01*
X0092979Y0118171D02*
X0092919Y0118169D01*
X0092858Y0118164D01*
X0092799Y0118155D01*
X0092740Y0118142D01*
X0092681Y0118126D01*
X0092624Y0118106D01*
X0092569Y0118083D01*
X0092514Y0118056D01*
X0092462Y0118027D01*
X0092411Y0117994D01*
X0092362Y0117958D01*
X0092316Y0117920D01*
X0092272Y0117878D01*
X0092230Y0117834D01*
X0092192Y0117788D01*
X0092156Y0117739D01*
X0092123Y0117688D01*
X0092094Y0117636D01*
X0092067Y0117581D01*
X0092044Y0117526D01*
X0092024Y0117469D01*
X0092008Y0117410D01*
X0091995Y0117351D01*
X0091986Y0117292D01*
X0091981Y0117231D01*
X0091979Y0117171D01*
X0091979Y0115671D01*
D14*
X0096171Y0114498D02*
X0100174Y0114498D01*
X0098840Y0114498D02*
X0097505Y0116499D01*
X0098840Y0114498D02*
X0100174Y0116499D01*
X0100174Y0113023D02*
X0100174Y0110354D01*
X0097505Y0113023D01*
X0096838Y0113023D01*
X0096171Y0112356D01*
X0096171Y0111021D01*
X0096838Y0110354D01*
X0118046Y0108172D02*
X0119797Y0108172D01*
X0120381Y0107588D01*
X0120381Y0107004D01*
X0119797Y0106421D01*
X0118629Y0106421D01*
X0118046Y0107004D01*
X0118046Y0108172D01*
X0119213Y0109340D01*
X0120381Y0109924D01*
X0142476Y0115693D02*
X0144976Y0115693D01*
X0143743Y0116920D02*
X0143743Y0114420D01*
X0126881Y0119504D02*
X0126297Y0118921D01*
X0125129Y0118921D01*
X0124546Y0119504D01*
X0124546Y0121840D01*
X0125129Y0122424D01*
X0126297Y0122424D01*
X0126881Y0121840D01*
X0123198Y0121840D02*
X0122614Y0122424D01*
X0120862Y0122424D01*
X0120862Y0118921D01*
X0122614Y0118921D01*
X0123198Y0119504D01*
X0123198Y0121840D01*
X0119515Y0120672D02*
X0117179Y0120672D01*
X0115831Y0119504D02*
X0115248Y0118921D01*
X0114080Y0118921D01*
X0113496Y0119504D01*
X0113496Y0121840D01*
X0114080Y0122424D01*
X0115248Y0122424D01*
X0115831Y0121840D01*
X0112148Y0121840D02*
X0111564Y0122424D01*
X0109813Y0122424D01*
X0109813Y0118921D01*
X0111564Y0118921D01*
X0112148Y0119504D01*
X0112148Y0121840D01*
X0172476Y0115693D02*
X0174976Y0115693D01*
X0173743Y0116920D02*
X0173743Y0114420D01*
X0202476Y0115693D02*
X0204976Y0115693D01*
X0203743Y0116920D02*
X0203743Y0114420D01*
X0246162Y0116975D02*
X0248831Y0119644D01*
X0248831Y0120311D01*
X0248164Y0120979D01*
X0246829Y0120979D01*
X0246162Y0120311D01*
X0250306Y0120979D02*
X0250306Y0116975D01*
X0250306Y0118310D02*
X0252307Y0116975D01*
X0250306Y0118310D02*
X0252307Y0119644D01*
X0248831Y0116975D02*
X0246162Y0116975D01*
X0266171Y0114498D02*
X0270174Y0114498D01*
X0268840Y0114498D02*
X0267505Y0116499D01*
X0268840Y0114498D02*
X0270174Y0116499D01*
X0270174Y0113023D02*
X0270174Y0110354D01*
X0267505Y0113023D01*
X0266838Y0113023D01*
X0266171Y0112356D01*
X0266171Y0111021D01*
X0266838Y0110354D01*
X0254766Y0087049D02*
X0253191Y0087049D01*
X0253191Y0078387D01*
X0236262Y0078387D01*
X0236262Y0037049D01*
X0248073Y0037049D01*
X0248073Y0044923D01*
X0259884Y0044923D01*
X0259884Y0037049D01*
X0248073Y0037049D01*
X0259884Y0037049D02*
X0271695Y0037049D01*
X0271695Y0078387D01*
X0253191Y0078387D01*
X0254766Y0078781D02*
X0254766Y0087049D01*
X0243386Y0060671D02*
X0243389Y0060931D01*
X0243399Y0061191D01*
X0243415Y0061450D01*
X0243437Y0061709D01*
X0243466Y0061968D01*
X0243501Y0062225D01*
X0243542Y0062482D01*
X0243590Y0062738D01*
X0243643Y0062992D01*
X0243703Y0063245D01*
X0243770Y0063496D01*
X0243842Y0063746D01*
X0243921Y0063994D01*
X0244005Y0064240D01*
X0244096Y0064483D01*
X0244192Y0064725D01*
X0244295Y0064964D01*
X0244403Y0065200D01*
X0244517Y0065434D01*
X0244637Y0065665D01*
X0244762Y0065892D01*
X0244893Y0066117D01*
X0245029Y0066338D01*
X0245171Y0066556D01*
X0245318Y0066771D01*
X0245471Y0066981D01*
X0245628Y0067188D01*
X0245791Y0067391D01*
X0245958Y0067590D01*
X0246130Y0067785D01*
X0246307Y0067975D01*
X0246489Y0068161D01*
X0246675Y0068343D01*
X0246865Y0068520D01*
X0247060Y0068692D01*
X0247259Y0068859D01*
X0247462Y0069022D01*
X0247669Y0069179D01*
X0247879Y0069332D01*
X0248094Y0069479D01*
X0248312Y0069621D01*
X0248533Y0069757D01*
X0248758Y0069888D01*
X0248985Y0070013D01*
X0249216Y0070133D01*
X0249450Y0070247D01*
X0249686Y0070355D01*
X0249925Y0070458D01*
X0250167Y0070554D01*
X0250410Y0070645D01*
X0250656Y0070729D01*
X0250904Y0070808D01*
X0251154Y0070880D01*
X0251405Y0070947D01*
X0251658Y0071007D01*
X0251912Y0071060D01*
X0252168Y0071108D01*
X0252425Y0071149D01*
X0252682Y0071184D01*
X0252941Y0071213D01*
X0253200Y0071235D01*
X0253459Y0071251D01*
X0253719Y0071261D01*
X0253979Y0071264D01*
X0254239Y0071261D01*
X0254499Y0071251D01*
X0254758Y0071235D01*
X0255017Y0071213D01*
X0255276Y0071184D01*
X0255533Y0071149D01*
X0255790Y0071108D01*
X0256046Y0071060D01*
X0256300Y0071007D01*
X0256553Y0070947D01*
X0256804Y0070880D01*
X0257054Y0070808D01*
X0257302Y0070729D01*
X0257548Y0070645D01*
X0257791Y0070554D01*
X0258033Y0070458D01*
X0258272Y0070355D01*
X0258508Y0070247D01*
X0258742Y0070133D01*
X0258973Y0070013D01*
X0259200Y0069888D01*
X0259425Y0069757D01*
X0259646Y0069621D01*
X0259864Y0069479D01*
X0260079Y0069332D01*
X0260289Y0069179D01*
X0260496Y0069022D01*
X0260699Y0068859D01*
X0260898Y0068692D01*
X0261093Y0068520D01*
X0261283Y0068343D01*
X0261469Y0068161D01*
X0261651Y0067975D01*
X0261828Y0067785D01*
X0262000Y0067590D01*
X0262167Y0067391D01*
X0262330Y0067188D01*
X0262487Y0066981D01*
X0262640Y0066771D01*
X0262787Y0066556D01*
X0262929Y0066338D01*
X0263065Y0066117D01*
X0263196Y0065892D01*
X0263321Y0065665D01*
X0263441Y0065434D01*
X0263555Y0065200D01*
X0263663Y0064964D01*
X0263766Y0064725D01*
X0263862Y0064483D01*
X0263953Y0064240D01*
X0264037Y0063994D01*
X0264116Y0063746D01*
X0264188Y0063496D01*
X0264255Y0063245D01*
X0264315Y0062992D01*
X0264368Y0062738D01*
X0264416Y0062482D01*
X0264457Y0062225D01*
X0264492Y0061968D01*
X0264521Y0061709D01*
X0264543Y0061450D01*
X0264559Y0061191D01*
X0264569Y0060931D01*
X0264572Y0060671D01*
X0264569Y0060411D01*
X0264559Y0060151D01*
X0264543Y0059892D01*
X0264521Y0059633D01*
X0264492Y0059374D01*
X0264457Y0059117D01*
X0264416Y0058860D01*
X0264368Y0058604D01*
X0264315Y0058350D01*
X0264255Y0058097D01*
X0264188Y0057846D01*
X0264116Y0057596D01*
X0264037Y0057348D01*
X0263953Y0057102D01*
X0263862Y0056859D01*
X0263766Y0056617D01*
X0263663Y0056378D01*
X0263555Y0056142D01*
X0263441Y0055908D01*
X0263321Y0055677D01*
X0263196Y0055450D01*
X0263065Y0055225D01*
X0262929Y0055004D01*
X0262787Y0054786D01*
X0262640Y0054571D01*
X0262487Y0054361D01*
X0262330Y0054154D01*
X0262167Y0053951D01*
X0262000Y0053752D01*
X0261828Y0053557D01*
X0261651Y0053367D01*
X0261469Y0053181D01*
X0261283Y0052999D01*
X0261093Y0052822D01*
X0260898Y0052650D01*
X0260699Y0052483D01*
X0260496Y0052320D01*
X0260289Y0052163D01*
X0260079Y0052010D01*
X0259864Y0051863D01*
X0259646Y0051721D01*
X0259425Y0051585D01*
X0259200Y0051454D01*
X0258973Y0051329D01*
X0258742Y0051209D01*
X0258508Y0051095D01*
X0258272Y0050987D01*
X0258033Y0050884D01*
X0257791Y0050788D01*
X0257548Y0050697D01*
X0257302Y0050613D01*
X0257054Y0050534D01*
X0256804Y0050462D01*
X0256553Y0050395D01*
X0256300Y0050335D01*
X0256046Y0050282D01*
X0255790Y0050234D01*
X0255533Y0050193D01*
X0255276Y0050158D01*
X0255017Y0050129D01*
X0254758Y0050107D01*
X0254499Y0050091D01*
X0254239Y0050081D01*
X0253979Y0050078D01*
X0253719Y0050081D01*
X0253459Y0050091D01*
X0253200Y0050107D01*
X0252941Y0050129D01*
X0252682Y0050158D01*
X0252425Y0050193D01*
X0252168Y0050234D01*
X0251912Y0050282D01*
X0251658Y0050335D01*
X0251405Y0050395D01*
X0251154Y0050462D01*
X0250904Y0050534D01*
X0250656Y0050613D01*
X0250410Y0050697D01*
X0250167Y0050788D01*
X0249925Y0050884D01*
X0249686Y0050987D01*
X0249450Y0051095D01*
X0249216Y0051209D01*
X0248985Y0051329D01*
X0248758Y0051454D01*
X0248533Y0051585D01*
X0248312Y0051721D01*
X0248094Y0051863D01*
X0247879Y0052010D01*
X0247669Y0052163D01*
X0247462Y0052320D01*
X0247259Y0052483D01*
X0247060Y0052650D01*
X0246865Y0052822D01*
X0246675Y0052999D01*
X0246489Y0053181D01*
X0246307Y0053367D01*
X0246130Y0053557D01*
X0245958Y0053752D01*
X0245791Y0053951D01*
X0245628Y0054154D01*
X0245471Y0054361D01*
X0245318Y0054571D01*
X0245171Y0054786D01*
X0245029Y0055004D01*
X0244893Y0055225D01*
X0244762Y0055450D01*
X0244637Y0055677D01*
X0244517Y0055908D01*
X0244403Y0056142D01*
X0244295Y0056378D01*
X0244192Y0056617D01*
X0244096Y0056859D01*
X0244005Y0057102D01*
X0243921Y0057348D01*
X0243842Y0057596D01*
X0243770Y0057846D01*
X0243703Y0058097D01*
X0243643Y0058350D01*
X0243590Y0058604D01*
X0243542Y0058860D01*
X0243501Y0059117D01*
X0243466Y0059374D01*
X0243437Y0059633D01*
X0243415Y0059892D01*
X0243399Y0060151D01*
X0243389Y0060411D01*
X0243386Y0060671D01*
X0241529Y0060671D02*
X0241533Y0060977D01*
X0241544Y0061282D01*
X0241563Y0061587D01*
X0241589Y0061891D01*
X0241623Y0062195D01*
X0241664Y0062498D01*
X0241712Y0062799D01*
X0241768Y0063100D01*
X0241832Y0063399D01*
X0241902Y0063696D01*
X0241980Y0063992D01*
X0242065Y0064285D01*
X0242157Y0064576D01*
X0242257Y0064865D01*
X0242363Y0065152D01*
X0242477Y0065435D01*
X0242597Y0065716D01*
X0242724Y0065994D01*
X0242858Y0066269D01*
X0242999Y0066540D01*
X0243146Y0066808D01*
X0243300Y0067072D01*
X0243461Y0067332D01*
X0243627Y0067588D01*
X0243800Y0067840D01*
X0243979Y0068087D01*
X0244164Y0068331D01*
X0244355Y0068569D01*
X0244552Y0068803D01*
X0244754Y0069032D01*
X0244962Y0069256D01*
X0245176Y0069474D01*
X0245394Y0069688D01*
X0245618Y0069896D01*
X0245847Y0070098D01*
X0246081Y0070295D01*
X0246319Y0070486D01*
X0246563Y0070671D01*
X0246810Y0070850D01*
X0247062Y0071023D01*
X0247318Y0071189D01*
X0247578Y0071350D01*
X0247842Y0071504D01*
X0248110Y0071651D01*
X0248381Y0071792D01*
X0248656Y0071926D01*
X0248934Y0072053D01*
X0249215Y0072173D01*
X0249498Y0072287D01*
X0249785Y0072393D01*
X0250074Y0072493D01*
X0250365Y0072585D01*
X0250658Y0072670D01*
X0250954Y0072748D01*
X0251251Y0072818D01*
X0251550Y0072882D01*
X0251851Y0072938D01*
X0252152Y0072986D01*
X0252455Y0073027D01*
X0252759Y0073061D01*
X0253063Y0073087D01*
X0253368Y0073106D01*
X0253673Y0073117D01*
X0253979Y0073121D01*
X0254285Y0073117D01*
X0254590Y0073106D01*
X0254895Y0073087D01*
X0255199Y0073061D01*
X0255503Y0073027D01*
X0255806Y0072986D01*
X0256107Y0072938D01*
X0256408Y0072882D01*
X0256707Y0072818D01*
X0257004Y0072748D01*
X0257300Y0072670D01*
X0257593Y0072585D01*
X0257884Y0072493D01*
X0258173Y0072393D01*
X0258460Y0072287D01*
X0258743Y0072173D01*
X0259024Y0072053D01*
X0259302Y0071926D01*
X0259577Y0071792D01*
X0259848Y0071651D01*
X0260116Y0071504D01*
X0260380Y0071350D01*
X0260640Y0071189D01*
X0260896Y0071023D01*
X0261148Y0070850D01*
X0261395Y0070671D01*
X0261639Y0070486D01*
X0261877Y0070295D01*
X0262111Y0070098D01*
X0262340Y0069896D01*
X0262564Y0069688D01*
X0262782Y0069474D01*
X0262996Y0069256D01*
X0263204Y0069032D01*
X0263406Y0068803D01*
X0263603Y0068569D01*
X0263794Y0068331D01*
X0263979Y0068087D01*
X0264158Y0067840D01*
X0264331Y0067588D01*
X0264497Y0067332D01*
X0264658Y0067072D01*
X0264812Y0066808D01*
X0264959Y0066540D01*
X0265100Y0066269D01*
X0265234Y0065994D01*
X0265361Y0065716D01*
X0265481Y0065435D01*
X0265595Y0065152D01*
X0265701Y0064865D01*
X0265801Y0064576D01*
X0265893Y0064285D01*
X0265978Y0063992D01*
X0266056Y0063696D01*
X0266126Y0063399D01*
X0266190Y0063100D01*
X0266246Y0062799D01*
X0266294Y0062498D01*
X0266335Y0062195D01*
X0266369Y0061891D01*
X0266395Y0061587D01*
X0266414Y0061282D01*
X0266425Y0060977D01*
X0266429Y0060671D01*
X0266425Y0060365D01*
X0266414Y0060060D01*
X0266395Y0059755D01*
X0266369Y0059451D01*
X0266335Y0059147D01*
X0266294Y0058844D01*
X0266246Y0058543D01*
X0266190Y0058242D01*
X0266126Y0057943D01*
X0266056Y0057646D01*
X0265978Y0057350D01*
X0265893Y0057057D01*
X0265801Y0056766D01*
X0265701Y0056477D01*
X0265595Y0056190D01*
X0265481Y0055907D01*
X0265361Y0055626D01*
X0265234Y0055348D01*
X0265100Y0055073D01*
X0264959Y0054802D01*
X0264812Y0054534D01*
X0264658Y0054270D01*
X0264497Y0054010D01*
X0264331Y0053754D01*
X0264158Y0053502D01*
X0263979Y0053255D01*
X0263794Y0053011D01*
X0263603Y0052773D01*
X0263406Y0052539D01*
X0263204Y0052310D01*
X0262996Y0052086D01*
X0262782Y0051868D01*
X0262564Y0051654D01*
X0262340Y0051446D01*
X0262111Y0051244D01*
X0261877Y0051047D01*
X0261639Y0050856D01*
X0261395Y0050671D01*
X0261148Y0050492D01*
X0260896Y0050319D01*
X0260640Y0050153D01*
X0260380Y0049992D01*
X0260116Y0049838D01*
X0259848Y0049691D01*
X0259577Y0049550D01*
X0259302Y0049416D01*
X0259024Y0049289D01*
X0258743Y0049169D01*
X0258460Y0049055D01*
X0258173Y0048949D01*
X0257884Y0048849D01*
X0257593Y0048757D01*
X0257300Y0048672D01*
X0257004Y0048594D01*
X0256707Y0048524D01*
X0256408Y0048460D01*
X0256107Y0048404D01*
X0255806Y0048356D01*
X0255503Y0048315D01*
X0255199Y0048281D01*
X0254895Y0048255D01*
X0254590Y0048236D01*
X0254285Y0048225D01*
X0253979Y0048221D01*
X0253673Y0048225D01*
X0253368Y0048236D01*
X0253063Y0048255D01*
X0252759Y0048281D01*
X0252455Y0048315D01*
X0252152Y0048356D01*
X0251851Y0048404D01*
X0251550Y0048460D01*
X0251251Y0048524D01*
X0250954Y0048594D01*
X0250658Y0048672D01*
X0250365Y0048757D01*
X0250074Y0048849D01*
X0249785Y0048949D01*
X0249498Y0049055D01*
X0249215Y0049169D01*
X0248934Y0049289D01*
X0248656Y0049416D01*
X0248381Y0049550D01*
X0248110Y0049691D01*
X0247842Y0049838D01*
X0247578Y0049992D01*
X0247318Y0050153D01*
X0247062Y0050319D01*
X0246810Y0050492D01*
X0246563Y0050671D01*
X0246319Y0050856D01*
X0246081Y0051047D01*
X0245847Y0051244D01*
X0245618Y0051446D01*
X0245394Y0051654D01*
X0245176Y0051868D01*
X0244962Y0052086D01*
X0244754Y0052310D01*
X0244552Y0052539D01*
X0244355Y0052773D01*
X0244164Y0053011D01*
X0243979Y0053255D01*
X0243800Y0053502D01*
X0243627Y0053754D01*
X0243461Y0054010D01*
X0243300Y0054270D01*
X0243146Y0054534D01*
X0242999Y0054802D01*
X0242858Y0055073D01*
X0242724Y0055348D01*
X0242597Y0055626D01*
X0242477Y0055907D01*
X0242363Y0056190D01*
X0242257Y0056477D01*
X0242157Y0056766D01*
X0242065Y0057057D01*
X0241980Y0057350D01*
X0241902Y0057646D01*
X0241832Y0057943D01*
X0241768Y0058242D01*
X0241712Y0058543D01*
X0241664Y0058844D01*
X0241623Y0059147D01*
X0241589Y0059451D01*
X0241563Y0059755D01*
X0241544Y0060060D01*
X0241533Y0060365D01*
X0241529Y0060671D01*
X0321479Y0045671D02*
X0326479Y0050671D01*
X0321479Y0045671D02*
X0326479Y0040671D01*
X0391479Y0045671D02*
X0396479Y0050671D01*
X0391479Y0045671D02*
X0396479Y0040671D01*
X0456479Y0045671D02*
X0461479Y0050671D01*
X0456479Y0045671D02*
X0461479Y0040671D01*
X0526479Y0045671D02*
X0531479Y0050671D01*
X0526479Y0045671D02*
X0531479Y0040671D01*
X0120381Y0055921D02*
X0118046Y0055921D01*
X0119213Y0055921D02*
X0119213Y0059424D01*
X0118046Y0058256D01*
D15*
X0202479Y0070671D02*
X0202481Y0070797D01*
X0202487Y0070923D01*
X0202497Y0071049D01*
X0202511Y0071175D01*
X0202529Y0071300D01*
X0202551Y0071424D01*
X0202576Y0071548D01*
X0202606Y0071671D01*
X0202639Y0071792D01*
X0202677Y0071913D01*
X0202718Y0072032D01*
X0202763Y0072151D01*
X0202811Y0072267D01*
X0202863Y0072382D01*
X0202919Y0072495D01*
X0202979Y0072607D01*
X0203042Y0072716D01*
X0203108Y0072824D01*
X0203177Y0072929D01*
X0203250Y0073032D01*
X0203327Y0073133D01*
X0203406Y0073231D01*
X0203488Y0073327D01*
X0203574Y0073420D01*
X0203662Y0073511D01*
X0203753Y0073598D01*
X0203847Y0073683D01*
X0203943Y0073764D01*
X0204042Y0073843D01*
X0204143Y0073918D01*
X0204247Y0073990D01*
X0204353Y0074059D01*
X0204461Y0074125D01*
X0204571Y0074187D01*
X0204683Y0074245D01*
X0204796Y0074300D01*
X0204912Y0074351D01*
X0205029Y0074399D01*
X0205147Y0074443D01*
X0205267Y0074483D01*
X0205388Y0074519D01*
X0205510Y0074552D01*
X0205633Y0074581D01*
X0205757Y0074605D01*
X0205881Y0074626D01*
X0206006Y0074643D01*
X0206132Y0074656D01*
X0206258Y0074665D01*
X0206384Y0074670D01*
X0206511Y0074671D01*
X0206637Y0074668D01*
X0206763Y0074661D01*
X0206889Y0074650D01*
X0207014Y0074635D01*
X0207139Y0074616D01*
X0207263Y0074593D01*
X0207387Y0074567D01*
X0207509Y0074536D01*
X0207631Y0074502D01*
X0207751Y0074463D01*
X0207870Y0074421D01*
X0207988Y0074376D01*
X0208104Y0074326D01*
X0208219Y0074273D01*
X0208331Y0074216D01*
X0208442Y0074156D01*
X0208551Y0074092D01*
X0208658Y0074025D01*
X0208763Y0073955D01*
X0208866Y0073881D01*
X0208966Y0073804D01*
X0209064Y0073724D01*
X0209159Y0073641D01*
X0209251Y0073555D01*
X0209341Y0073466D01*
X0209428Y0073374D01*
X0209511Y0073280D01*
X0209592Y0073183D01*
X0209670Y0073083D01*
X0209745Y0072981D01*
X0209816Y0072877D01*
X0209884Y0072770D01*
X0209948Y0072662D01*
X0210009Y0072551D01*
X0210067Y0072439D01*
X0210121Y0072325D01*
X0210171Y0072209D01*
X0210218Y0072092D01*
X0210261Y0071973D01*
X0210300Y0071853D01*
X0210336Y0071732D01*
X0210367Y0071609D01*
X0210395Y0071486D01*
X0210419Y0071362D01*
X0210439Y0071237D01*
X0210455Y0071112D01*
X0210467Y0070986D01*
X0210475Y0070860D01*
X0210479Y0070734D01*
X0210479Y0070608D01*
X0210475Y0070482D01*
X0210467Y0070356D01*
X0210455Y0070230D01*
X0210439Y0070105D01*
X0210419Y0069980D01*
X0210395Y0069856D01*
X0210367Y0069733D01*
X0210336Y0069610D01*
X0210300Y0069489D01*
X0210261Y0069369D01*
X0210218Y0069250D01*
X0210171Y0069133D01*
X0210121Y0069017D01*
X0210067Y0068903D01*
X0210009Y0068791D01*
X0209948Y0068680D01*
X0209884Y0068572D01*
X0209816Y0068465D01*
X0209745Y0068361D01*
X0209670Y0068259D01*
X0209592Y0068159D01*
X0209511Y0068062D01*
X0209428Y0067968D01*
X0209341Y0067876D01*
X0209251Y0067787D01*
X0209159Y0067701D01*
X0209064Y0067618D01*
X0208966Y0067538D01*
X0208866Y0067461D01*
X0208763Y0067387D01*
X0208658Y0067317D01*
X0208551Y0067250D01*
X0208442Y0067186D01*
X0208331Y0067126D01*
X0208219Y0067069D01*
X0208104Y0067016D01*
X0207988Y0066966D01*
X0207870Y0066921D01*
X0207751Y0066879D01*
X0207631Y0066840D01*
X0207509Y0066806D01*
X0207387Y0066775D01*
X0207263Y0066749D01*
X0207139Y0066726D01*
X0207014Y0066707D01*
X0206889Y0066692D01*
X0206763Y0066681D01*
X0206637Y0066674D01*
X0206511Y0066671D01*
X0206384Y0066672D01*
X0206258Y0066677D01*
X0206132Y0066686D01*
X0206006Y0066699D01*
X0205881Y0066716D01*
X0205757Y0066737D01*
X0205633Y0066761D01*
X0205510Y0066790D01*
X0205388Y0066823D01*
X0205267Y0066859D01*
X0205147Y0066899D01*
X0205029Y0066943D01*
X0204912Y0066991D01*
X0204796Y0067042D01*
X0204683Y0067097D01*
X0204571Y0067155D01*
X0204461Y0067217D01*
X0204353Y0067283D01*
X0204247Y0067352D01*
X0204143Y0067424D01*
X0204042Y0067499D01*
X0203943Y0067578D01*
X0203847Y0067659D01*
X0203753Y0067744D01*
X0203662Y0067831D01*
X0203574Y0067922D01*
X0203488Y0068015D01*
X0203406Y0068111D01*
X0203327Y0068209D01*
X0203250Y0068310D01*
X0203177Y0068413D01*
X0203108Y0068518D01*
X0203042Y0068626D01*
X0202979Y0068735D01*
X0202919Y0068847D01*
X0202863Y0068960D01*
X0202811Y0069075D01*
X0202763Y0069191D01*
X0202718Y0069310D01*
X0202677Y0069429D01*
X0202639Y0069550D01*
X0202606Y0069671D01*
X0202576Y0069794D01*
X0202551Y0069918D01*
X0202529Y0070042D01*
X0202511Y0070167D01*
X0202497Y0070293D01*
X0202487Y0070419D01*
X0202481Y0070545D01*
X0202479Y0070671D01*
X0200979Y0070671D02*
X0200981Y0070819D01*
X0200987Y0070967D01*
X0200997Y0071115D01*
X0201011Y0071263D01*
X0201029Y0071410D01*
X0201051Y0071557D01*
X0201077Y0071703D01*
X0201106Y0071848D01*
X0201140Y0071993D01*
X0201178Y0072136D01*
X0201219Y0072279D01*
X0201264Y0072420D01*
X0201314Y0072560D01*
X0201366Y0072698D01*
X0201423Y0072836D01*
X0201483Y0072971D01*
X0201547Y0073105D01*
X0201614Y0073237D01*
X0201685Y0073367D01*
X0201760Y0073496D01*
X0201838Y0073622D01*
X0201919Y0073746D01*
X0202003Y0073868D01*
X0202091Y0073987D01*
X0202182Y0074104D01*
X0202276Y0074219D01*
X0202374Y0074331D01*
X0202474Y0074440D01*
X0202577Y0074547D01*
X0202683Y0074651D01*
X0202791Y0074752D01*
X0202903Y0074850D01*
X0203017Y0074945D01*
X0203133Y0075036D01*
X0203252Y0075125D01*
X0203373Y0075210D01*
X0203497Y0075292D01*
X0203623Y0075371D01*
X0203750Y0075446D01*
X0203880Y0075518D01*
X0204012Y0075587D01*
X0204145Y0075651D01*
X0204280Y0075712D01*
X0204417Y0075770D01*
X0204555Y0075824D01*
X0204695Y0075874D01*
X0204836Y0075920D01*
X0204978Y0075962D01*
X0205121Y0076001D01*
X0205265Y0076035D01*
X0205411Y0076066D01*
X0205556Y0076093D01*
X0205703Y0076116D01*
X0205850Y0076135D01*
X0205998Y0076150D01*
X0206145Y0076161D01*
X0206294Y0076168D01*
X0206442Y0076171D01*
X0206590Y0076170D01*
X0206738Y0076165D01*
X0206886Y0076156D01*
X0207034Y0076143D01*
X0207182Y0076126D01*
X0207328Y0076105D01*
X0207475Y0076080D01*
X0207620Y0076051D01*
X0207765Y0076019D01*
X0207908Y0075982D01*
X0208051Y0075942D01*
X0208193Y0075897D01*
X0208333Y0075849D01*
X0208472Y0075797D01*
X0208609Y0075742D01*
X0208745Y0075682D01*
X0208880Y0075619D01*
X0209012Y0075553D01*
X0209143Y0075483D01*
X0209272Y0075409D01*
X0209398Y0075332D01*
X0209523Y0075252D01*
X0209645Y0075168D01*
X0209766Y0075081D01*
X0209883Y0074991D01*
X0209999Y0074897D01*
X0210111Y0074801D01*
X0210221Y0074702D01*
X0210329Y0074599D01*
X0210433Y0074494D01*
X0210535Y0074386D01*
X0210633Y0074275D01*
X0210729Y0074162D01*
X0210822Y0074046D01*
X0210911Y0073928D01*
X0210997Y0073807D01*
X0211080Y0073684D01*
X0211160Y0073559D01*
X0211236Y0073432D01*
X0211309Y0073302D01*
X0211378Y0073171D01*
X0211443Y0073038D01*
X0211506Y0072904D01*
X0211564Y0072767D01*
X0211619Y0072629D01*
X0211669Y0072490D01*
X0211717Y0072349D01*
X0211760Y0072208D01*
X0211800Y0072065D01*
X0211835Y0071921D01*
X0211867Y0071776D01*
X0211895Y0071630D01*
X0211919Y0071484D01*
X0211939Y0071337D01*
X0211955Y0071189D01*
X0211967Y0071042D01*
X0211975Y0070893D01*
X0211979Y0070745D01*
X0211979Y0070597D01*
X0211975Y0070449D01*
X0211967Y0070300D01*
X0211955Y0070153D01*
X0211939Y0070005D01*
X0211919Y0069858D01*
X0211895Y0069712D01*
X0211867Y0069566D01*
X0211835Y0069421D01*
X0211800Y0069277D01*
X0211760Y0069134D01*
X0211717Y0068993D01*
X0211669Y0068852D01*
X0211619Y0068713D01*
X0211564Y0068575D01*
X0211506Y0068438D01*
X0211443Y0068304D01*
X0211378Y0068171D01*
X0211309Y0068040D01*
X0211236Y0067910D01*
X0211160Y0067783D01*
X0211080Y0067658D01*
X0210997Y0067535D01*
X0210911Y0067414D01*
X0210822Y0067296D01*
X0210729Y0067180D01*
X0210633Y0067067D01*
X0210535Y0066956D01*
X0210433Y0066848D01*
X0210329Y0066743D01*
X0210221Y0066640D01*
X0210111Y0066541D01*
X0209999Y0066445D01*
X0209883Y0066351D01*
X0209766Y0066261D01*
X0209645Y0066174D01*
X0209523Y0066090D01*
X0209398Y0066010D01*
X0209272Y0065933D01*
X0209143Y0065859D01*
X0209012Y0065789D01*
X0208880Y0065723D01*
X0208745Y0065660D01*
X0208609Y0065600D01*
X0208472Y0065545D01*
X0208333Y0065493D01*
X0208193Y0065445D01*
X0208051Y0065400D01*
X0207908Y0065360D01*
X0207765Y0065323D01*
X0207620Y0065291D01*
X0207475Y0065262D01*
X0207328Y0065237D01*
X0207182Y0065216D01*
X0207034Y0065199D01*
X0206886Y0065186D01*
X0206738Y0065177D01*
X0206590Y0065172D01*
X0206442Y0065171D01*
X0206294Y0065174D01*
X0206145Y0065181D01*
X0205998Y0065192D01*
X0205850Y0065207D01*
X0205703Y0065226D01*
X0205556Y0065249D01*
X0205411Y0065276D01*
X0205265Y0065307D01*
X0205121Y0065341D01*
X0204978Y0065380D01*
X0204836Y0065422D01*
X0204695Y0065468D01*
X0204555Y0065518D01*
X0204417Y0065572D01*
X0204280Y0065630D01*
X0204145Y0065691D01*
X0204012Y0065755D01*
X0203880Y0065824D01*
X0203750Y0065896D01*
X0203623Y0065971D01*
X0203497Y0066050D01*
X0203373Y0066132D01*
X0203252Y0066217D01*
X0203133Y0066306D01*
X0203017Y0066397D01*
X0202903Y0066492D01*
X0202791Y0066590D01*
X0202683Y0066691D01*
X0202577Y0066795D01*
X0202474Y0066902D01*
X0202374Y0067011D01*
X0202276Y0067123D01*
X0202182Y0067238D01*
X0202091Y0067355D01*
X0202003Y0067474D01*
X0201919Y0067596D01*
X0201838Y0067720D01*
X0201760Y0067846D01*
X0201685Y0067975D01*
X0201614Y0068105D01*
X0201547Y0068237D01*
X0201483Y0068371D01*
X0201423Y0068506D01*
X0201366Y0068644D01*
X0201314Y0068782D01*
X0201264Y0068922D01*
X0201219Y0069063D01*
X0201178Y0069206D01*
X0201140Y0069349D01*
X0201106Y0069494D01*
X0201077Y0069639D01*
X0201051Y0069785D01*
X0201029Y0069932D01*
X0201011Y0070079D01*
X0200997Y0070227D01*
X0200987Y0070375D01*
X0200981Y0070523D01*
X0200979Y0070671D01*
D16*
X0200664Y0080821D02*
X0200664Y0084724D01*
X0199363Y0083423D01*
X0198098Y0084073D02*
X0198098Y0082772D01*
X0197448Y0082122D01*
X0195496Y0082122D01*
X0194231Y0082122D02*
X0194231Y0084724D01*
X0195496Y0084724D02*
X0197448Y0084724D01*
X0198098Y0084073D01*
X0195496Y0084724D02*
X0195496Y0080821D01*
X0194231Y0082122D02*
X0192930Y0080821D01*
X0191629Y0082122D01*
X0191629Y0084724D01*
X0196797Y0082122D02*
X0198098Y0080821D01*
X0199363Y0080821D02*
X0201966Y0080821D01*
D17*
X0212679Y0115671D02*
X0212679Y0125671D01*
X0206479Y0128671D02*
X0206287Y0128669D01*
X0206095Y0128662D01*
X0205903Y0128650D01*
X0205711Y0128634D01*
X0205520Y0128613D01*
X0205330Y0128588D01*
X0205140Y0128558D01*
X0204951Y0128524D01*
X0204763Y0128485D01*
X0204576Y0128441D01*
X0204390Y0128393D01*
X0204205Y0128341D01*
X0204021Y0128284D01*
X0203839Y0128223D01*
X0203659Y0128157D01*
X0203480Y0128087D01*
X0203302Y0128013D01*
X0203127Y0127935D01*
X0202953Y0127852D01*
X0202782Y0127765D01*
X0202613Y0127675D01*
X0202446Y0127580D01*
X0202281Y0127481D01*
X0202118Y0127378D01*
X0201959Y0127271D01*
X0201801Y0127161D01*
X0201647Y0127047D01*
X0201495Y0126929D01*
X0201346Y0126807D01*
X0201200Y0126682D01*
X0201058Y0126554D01*
X0200918Y0126422D01*
X0200781Y0126287D01*
X0200648Y0126148D01*
X0200518Y0126007D01*
X0200392Y0125862D01*
X0200269Y0125714D01*
X0200150Y0125564D01*
X0200034Y0125410D01*
X0199922Y0125254D01*
X0199814Y0125095D01*
X0199709Y0124934D01*
X0199609Y0124770D01*
X0199513Y0124604D01*
X0199420Y0124436D01*
X0199533Y0116702D02*
X0199632Y0116533D01*
X0199736Y0116367D01*
X0199843Y0116203D01*
X0199954Y0116042D01*
X0200069Y0115884D01*
X0200188Y0115729D01*
X0200311Y0115576D01*
X0200437Y0115427D01*
X0200567Y0115281D01*
X0200701Y0115138D01*
X0200838Y0114998D01*
X0200978Y0114862D01*
X0201122Y0114729D01*
X0201269Y0114600D01*
X0201419Y0114474D01*
X0201572Y0114353D01*
X0201728Y0114234D01*
X0201887Y0114120D01*
X0202048Y0114010D01*
X0202213Y0113904D01*
X0202379Y0113801D01*
X0202549Y0113703D01*
X0202720Y0113609D01*
X0202894Y0113519D01*
X0203070Y0113434D01*
X0203248Y0113352D01*
X0203428Y0113276D01*
X0203610Y0113203D01*
X0203793Y0113135D01*
X0203978Y0113072D01*
X0204165Y0113013D01*
X0204353Y0112959D01*
X0204542Y0112909D01*
X0204732Y0112864D01*
X0204924Y0112824D01*
X0205116Y0112788D01*
X0205309Y0112757D01*
X0205503Y0112731D01*
X0205698Y0112709D01*
X0205893Y0112693D01*
X0206088Y0112681D01*
X0206284Y0112673D01*
X0206479Y0112671D01*
X0182679Y0115671D02*
X0182679Y0125671D01*
X0176479Y0128671D02*
X0176287Y0128669D01*
X0176095Y0128662D01*
X0175903Y0128650D01*
X0175711Y0128634D01*
X0175520Y0128613D01*
X0175330Y0128588D01*
X0175140Y0128558D01*
X0174951Y0128524D01*
X0174763Y0128485D01*
X0174576Y0128441D01*
X0174390Y0128393D01*
X0174205Y0128341D01*
X0174021Y0128284D01*
X0173839Y0128223D01*
X0173659Y0128157D01*
X0173480Y0128087D01*
X0173302Y0128013D01*
X0173127Y0127935D01*
X0172953Y0127852D01*
X0172782Y0127765D01*
X0172613Y0127675D01*
X0172446Y0127580D01*
X0172281Y0127481D01*
X0172118Y0127378D01*
X0171959Y0127271D01*
X0171801Y0127161D01*
X0171647Y0127047D01*
X0171495Y0126929D01*
X0171346Y0126807D01*
X0171200Y0126682D01*
X0171058Y0126554D01*
X0170918Y0126422D01*
X0170781Y0126287D01*
X0170648Y0126148D01*
X0170518Y0126007D01*
X0170392Y0125862D01*
X0170269Y0125714D01*
X0170150Y0125564D01*
X0170034Y0125410D01*
X0169922Y0125254D01*
X0169814Y0125095D01*
X0169709Y0124934D01*
X0169609Y0124770D01*
X0169513Y0124604D01*
X0169420Y0124436D01*
X0169533Y0116702D02*
X0169632Y0116533D01*
X0169736Y0116367D01*
X0169843Y0116203D01*
X0169954Y0116042D01*
X0170069Y0115884D01*
X0170188Y0115729D01*
X0170311Y0115576D01*
X0170437Y0115427D01*
X0170567Y0115281D01*
X0170701Y0115138D01*
X0170838Y0114998D01*
X0170978Y0114862D01*
X0171122Y0114729D01*
X0171269Y0114600D01*
X0171419Y0114474D01*
X0171572Y0114353D01*
X0171728Y0114234D01*
X0171887Y0114120D01*
X0172048Y0114010D01*
X0172213Y0113904D01*
X0172379Y0113801D01*
X0172549Y0113703D01*
X0172720Y0113609D01*
X0172894Y0113519D01*
X0173070Y0113434D01*
X0173248Y0113352D01*
X0173428Y0113276D01*
X0173610Y0113203D01*
X0173793Y0113135D01*
X0173978Y0113072D01*
X0174165Y0113013D01*
X0174353Y0112959D01*
X0174542Y0112909D01*
X0174732Y0112864D01*
X0174924Y0112824D01*
X0175116Y0112788D01*
X0175309Y0112757D01*
X0175503Y0112731D01*
X0175698Y0112709D01*
X0175893Y0112693D01*
X0176088Y0112681D01*
X0176284Y0112673D01*
X0176479Y0112671D01*
X0152679Y0115671D02*
X0152679Y0125671D01*
X0146479Y0128671D02*
X0146287Y0128669D01*
X0146095Y0128662D01*
X0145903Y0128650D01*
X0145711Y0128634D01*
X0145520Y0128613D01*
X0145330Y0128588D01*
X0145140Y0128558D01*
X0144951Y0128524D01*
X0144763Y0128485D01*
X0144576Y0128441D01*
X0144390Y0128393D01*
X0144205Y0128341D01*
X0144021Y0128284D01*
X0143839Y0128223D01*
X0143659Y0128157D01*
X0143480Y0128087D01*
X0143302Y0128013D01*
X0143127Y0127935D01*
X0142953Y0127852D01*
X0142782Y0127765D01*
X0142613Y0127675D01*
X0142446Y0127580D01*
X0142281Y0127481D01*
X0142118Y0127378D01*
X0141959Y0127271D01*
X0141801Y0127161D01*
X0141647Y0127047D01*
X0141495Y0126929D01*
X0141346Y0126807D01*
X0141200Y0126682D01*
X0141058Y0126554D01*
X0140918Y0126422D01*
X0140781Y0126287D01*
X0140648Y0126148D01*
X0140518Y0126007D01*
X0140392Y0125862D01*
X0140269Y0125714D01*
X0140150Y0125564D01*
X0140034Y0125410D01*
X0139922Y0125254D01*
X0139814Y0125095D01*
X0139709Y0124934D01*
X0139609Y0124770D01*
X0139513Y0124604D01*
X0139420Y0124436D01*
X0139533Y0116702D02*
X0139632Y0116533D01*
X0139736Y0116367D01*
X0139843Y0116203D01*
X0139954Y0116042D01*
X0140069Y0115884D01*
X0140188Y0115729D01*
X0140311Y0115576D01*
X0140437Y0115427D01*
X0140567Y0115281D01*
X0140701Y0115138D01*
X0140838Y0114998D01*
X0140978Y0114862D01*
X0141122Y0114729D01*
X0141269Y0114600D01*
X0141419Y0114474D01*
X0141572Y0114353D01*
X0141728Y0114234D01*
X0141887Y0114120D01*
X0142048Y0114010D01*
X0142213Y0113904D01*
X0142379Y0113801D01*
X0142549Y0113703D01*
X0142720Y0113609D01*
X0142894Y0113519D01*
X0143070Y0113434D01*
X0143248Y0113352D01*
X0143428Y0113276D01*
X0143610Y0113203D01*
X0143793Y0113135D01*
X0143978Y0113072D01*
X0144165Y0113013D01*
X0144353Y0112959D01*
X0144542Y0112909D01*
X0144732Y0112864D01*
X0144924Y0112824D01*
X0145116Y0112788D01*
X0145309Y0112757D01*
X0145503Y0112731D01*
X0145698Y0112709D01*
X0145893Y0112693D01*
X0146088Y0112681D01*
X0146284Y0112673D01*
X0146479Y0112671D01*
X0139666Y0116477D02*
X0139567Y0116642D01*
X0139472Y0116809D01*
X0139382Y0116978D01*
X0139295Y0117149D01*
X0139213Y0117323D01*
X0139135Y0117498D01*
X0139061Y0117675D01*
X0138991Y0117854D01*
X0138926Y0118034D01*
X0138865Y0118216D01*
X0138808Y0118399D01*
X0138756Y0118584D01*
X0138708Y0118770D01*
X0138665Y0118957D01*
X0138626Y0119145D01*
X0138591Y0119333D01*
X0138562Y0119523D01*
X0138536Y0119713D01*
X0138516Y0119904D01*
X0138500Y0120095D01*
X0138488Y0120287D01*
X0138481Y0120478D01*
X0138479Y0120670D01*
X0138479Y0120671D02*
X0138481Y0120859D01*
X0138488Y0121047D01*
X0138499Y0121235D01*
X0138514Y0121423D01*
X0138534Y0121610D01*
X0138559Y0121796D01*
X0138587Y0121982D01*
X0138620Y0122168D01*
X0138658Y0122352D01*
X0138699Y0122535D01*
X0138745Y0122718D01*
X0138796Y0122899D01*
X0138850Y0123079D01*
X0138909Y0123258D01*
X0138972Y0123435D01*
X0139039Y0123611D01*
X0139110Y0123785D01*
X0139185Y0123958D01*
X0139265Y0124128D01*
X0139348Y0124297D01*
X0139435Y0124464D01*
X0146479Y0128671D02*
X0146674Y0128669D01*
X0146868Y0128662D01*
X0147062Y0128650D01*
X0147256Y0128633D01*
X0147450Y0128612D01*
X0147643Y0128586D01*
X0147835Y0128555D01*
X0148027Y0128520D01*
X0148217Y0128480D01*
X0148407Y0128435D01*
X0148595Y0128386D01*
X0148782Y0128332D01*
X0148968Y0128274D01*
X0149152Y0128211D01*
X0149335Y0128144D01*
X0149516Y0128072D01*
X0149695Y0127996D01*
X0149872Y0127916D01*
X0150047Y0127831D01*
X0150221Y0127742D01*
X0150391Y0127649D01*
X0150560Y0127552D01*
X0150726Y0127450D01*
X0150890Y0127345D01*
X0151051Y0127236D01*
X0151210Y0127123D01*
X0151365Y0127006D01*
X0151518Y0126885D01*
X0151667Y0126760D01*
X0151814Y0126632D01*
X0151958Y0126501D01*
X0152098Y0126366D01*
X0152235Y0126227D01*
X0152368Y0126086D01*
X0152498Y0125941D01*
X0152625Y0125793D01*
X0152586Y0115503D02*
X0152459Y0115357D01*
X0152330Y0115215D01*
X0152196Y0115075D01*
X0152060Y0114939D01*
X0151920Y0114806D01*
X0151777Y0114676D01*
X0151630Y0114550D01*
X0151481Y0114428D01*
X0151329Y0114309D01*
X0151174Y0114194D01*
X0151017Y0114082D01*
X0150857Y0113975D01*
X0150694Y0113871D01*
X0150528Y0113772D01*
X0150361Y0113676D01*
X0150191Y0113584D01*
X0150019Y0113497D01*
X0149845Y0113413D01*
X0149669Y0113334D01*
X0149491Y0113260D01*
X0149311Y0113189D01*
X0149130Y0113123D01*
X0148947Y0113061D01*
X0148763Y0113004D01*
X0148577Y0112951D01*
X0148390Y0112903D01*
X0148202Y0112859D01*
X0148013Y0112820D01*
X0147823Y0112785D01*
X0147633Y0112755D01*
X0147442Y0112729D01*
X0147250Y0112708D01*
X0147057Y0112692D01*
X0146865Y0112680D01*
X0146672Y0112673D01*
X0146479Y0112671D01*
X0168479Y0120670D02*
X0168481Y0120478D01*
X0168488Y0120287D01*
X0168500Y0120095D01*
X0168516Y0119904D01*
X0168536Y0119713D01*
X0168562Y0119523D01*
X0168591Y0119333D01*
X0168626Y0119145D01*
X0168665Y0118957D01*
X0168708Y0118770D01*
X0168756Y0118584D01*
X0168808Y0118399D01*
X0168865Y0118216D01*
X0168926Y0118034D01*
X0168991Y0117854D01*
X0169061Y0117675D01*
X0169135Y0117498D01*
X0169213Y0117323D01*
X0169295Y0117149D01*
X0169382Y0116978D01*
X0169472Y0116809D01*
X0169567Y0116642D01*
X0169666Y0116477D01*
X0168479Y0120671D02*
X0168481Y0120859D01*
X0168488Y0121047D01*
X0168499Y0121235D01*
X0168514Y0121423D01*
X0168534Y0121610D01*
X0168559Y0121796D01*
X0168587Y0121982D01*
X0168620Y0122168D01*
X0168658Y0122352D01*
X0168699Y0122535D01*
X0168745Y0122718D01*
X0168796Y0122899D01*
X0168850Y0123079D01*
X0168909Y0123258D01*
X0168972Y0123435D01*
X0169039Y0123611D01*
X0169110Y0123785D01*
X0169185Y0123958D01*
X0169265Y0124128D01*
X0169348Y0124297D01*
X0169435Y0124464D01*
X0176479Y0128671D02*
X0176674Y0128669D01*
X0176868Y0128662D01*
X0177062Y0128650D01*
X0177256Y0128633D01*
X0177450Y0128612D01*
X0177643Y0128586D01*
X0177835Y0128555D01*
X0178027Y0128520D01*
X0178217Y0128480D01*
X0178407Y0128435D01*
X0178595Y0128386D01*
X0178782Y0128332D01*
X0178968Y0128274D01*
X0179152Y0128211D01*
X0179335Y0128144D01*
X0179516Y0128072D01*
X0179695Y0127996D01*
X0179872Y0127916D01*
X0180047Y0127831D01*
X0180221Y0127742D01*
X0180391Y0127649D01*
X0180560Y0127552D01*
X0180726Y0127450D01*
X0180890Y0127345D01*
X0181051Y0127236D01*
X0181210Y0127123D01*
X0181365Y0127006D01*
X0181518Y0126885D01*
X0181667Y0126760D01*
X0181814Y0126632D01*
X0181958Y0126501D01*
X0182098Y0126366D01*
X0182235Y0126227D01*
X0182368Y0126086D01*
X0182498Y0125941D01*
X0182625Y0125793D01*
X0182586Y0115503D02*
X0182459Y0115357D01*
X0182330Y0115215D01*
X0182196Y0115075D01*
X0182060Y0114939D01*
X0181920Y0114806D01*
X0181777Y0114676D01*
X0181630Y0114550D01*
X0181481Y0114428D01*
X0181329Y0114309D01*
X0181174Y0114194D01*
X0181017Y0114082D01*
X0180857Y0113975D01*
X0180694Y0113871D01*
X0180528Y0113772D01*
X0180361Y0113676D01*
X0180191Y0113584D01*
X0180019Y0113497D01*
X0179845Y0113413D01*
X0179669Y0113334D01*
X0179491Y0113260D01*
X0179311Y0113189D01*
X0179130Y0113123D01*
X0178947Y0113061D01*
X0178763Y0113004D01*
X0178577Y0112951D01*
X0178390Y0112903D01*
X0178202Y0112859D01*
X0178013Y0112820D01*
X0177823Y0112785D01*
X0177633Y0112755D01*
X0177442Y0112729D01*
X0177250Y0112708D01*
X0177057Y0112692D01*
X0176865Y0112680D01*
X0176672Y0112673D01*
X0176479Y0112671D01*
X0198479Y0120670D02*
X0198481Y0120478D01*
X0198488Y0120287D01*
X0198500Y0120095D01*
X0198516Y0119904D01*
X0198536Y0119713D01*
X0198562Y0119523D01*
X0198591Y0119333D01*
X0198626Y0119145D01*
X0198665Y0118957D01*
X0198708Y0118770D01*
X0198756Y0118584D01*
X0198808Y0118399D01*
X0198865Y0118216D01*
X0198926Y0118034D01*
X0198991Y0117854D01*
X0199061Y0117675D01*
X0199135Y0117498D01*
X0199213Y0117323D01*
X0199295Y0117149D01*
X0199382Y0116978D01*
X0199472Y0116809D01*
X0199567Y0116642D01*
X0199666Y0116477D01*
X0198479Y0120671D02*
X0198481Y0120859D01*
X0198488Y0121047D01*
X0198499Y0121235D01*
X0198514Y0121423D01*
X0198534Y0121610D01*
X0198559Y0121796D01*
X0198587Y0121982D01*
X0198620Y0122168D01*
X0198658Y0122352D01*
X0198699Y0122535D01*
X0198745Y0122718D01*
X0198796Y0122899D01*
X0198850Y0123079D01*
X0198909Y0123258D01*
X0198972Y0123435D01*
X0199039Y0123611D01*
X0199110Y0123785D01*
X0199185Y0123958D01*
X0199265Y0124128D01*
X0199348Y0124297D01*
X0199435Y0124464D01*
X0206479Y0128671D02*
X0206674Y0128669D01*
X0206868Y0128662D01*
X0207062Y0128650D01*
X0207256Y0128633D01*
X0207450Y0128612D01*
X0207643Y0128586D01*
X0207835Y0128555D01*
X0208027Y0128520D01*
X0208217Y0128480D01*
X0208407Y0128435D01*
X0208595Y0128386D01*
X0208782Y0128332D01*
X0208968Y0128274D01*
X0209152Y0128211D01*
X0209335Y0128144D01*
X0209516Y0128072D01*
X0209695Y0127996D01*
X0209872Y0127916D01*
X0210047Y0127831D01*
X0210221Y0127742D01*
X0210391Y0127649D01*
X0210560Y0127552D01*
X0210726Y0127450D01*
X0210890Y0127345D01*
X0211051Y0127236D01*
X0211210Y0127123D01*
X0211365Y0127006D01*
X0211518Y0126885D01*
X0211667Y0126760D01*
X0211814Y0126632D01*
X0211958Y0126501D01*
X0212098Y0126366D01*
X0212235Y0126227D01*
X0212368Y0126086D01*
X0212498Y0125941D01*
X0212625Y0125793D01*
X0212586Y0115503D02*
X0212459Y0115357D01*
X0212330Y0115215D01*
X0212196Y0115075D01*
X0212060Y0114939D01*
X0211920Y0114806D01*
X0211777Y0114676D01*
X0211630Y0114550D01*
X0211481Y0114428D01*
X0211329Y0114309D01*
X0211174Y0114194D01*
X0211017Y0114082D01*
X0210857Y0113975D01*
X0210694Y0113871D01*
X0210528Y0113772D01*
X0210361Y0113676D01*
X0210191Y0113584D01*
X0210019Y0113497D01*
X0209845Y0113413D01*
X0209669Y0113334D01*
X0209491Y0113260D01*
X0209311Y0113189D01*
X0209130Y0113123D01*
X0208947Y0113061D01*
X0208763Y0113004D01*
X0208577Y0112951D01*
X0208390Y0112903D01*
X0208202Y0112859D01*
X0208013Y0112820D01*
X0207823Y0112785D01*
X0207633Y0112755D01*
X0207442Y0112729D01*
X0207250Y0112708D01*
X0207057Y0112692D01*
X0206865Y0112680D01*
X0206672Y0112673D01*
X0206479Y0112671D01*
M02*
