G75*
%MOIN*%
%OFA0B0*%
%FSLAX25Y25*%
%IPPOS*%
%LPD*%
%AMOC8*
5,1,8,0,0,1.08239X$1,22.5*
%
%ADD10C,0.00500*%
D10*
X0326723Y0058829D02*
X0327774Y0057778D01*
X0326723Y0058829D02*
X0326723Y0060930D01*
X0327774Y0061981D01*
X0331978Y0061981D01*
X0333029Y0060930D01*
X0333029Y0058829D01*
X0331978Y0057778D01*
X0329876Y0057778D01*
X0329876Y0059880D01*
X0333029Y0064039D02*
X0326723Y0064039D01*
X0326723Y0068243D02*
X0333029Y0064039D01*
X0347123Y0063025D02*
X0353429Y0063025D01*
X0353429Y0065083D02*
X0353429Y0068235D01*
X0352378Y0069286D01*
X0350276Y0069286D01*
X0349225Y0068235D01*
X0349225Y0065083D01*
X0351327Y0063025D02*
X0349225Y0059872D01*
X0351327Y0063025D02*
X0353429Y0059872D01*
X0359425Y0066126D02*
X0363629Y0070330D01*
X0363629Y0072388D02*
X0363629Y0075540D01*
X0362578Y0076591D01*
X0361527Y0075540D01*
X0361527Y0072388D01*
X0360476Y0072388D02*
X0363629Y0072388D01*
X0360476Y0072388D02*
X0359425Y0073438D01*
X0359425Y0075540D01*
X0353429Y0075533D02*
X0352378Y0076584D01*
X0348174Y0076584D01*
X0349225Y0077635D02*
X0349225Y0075533D01*
X0349225Y0073461D02*
X0349225Y0072410D01*
X0353429Y0072410D01*
X0353429Y0073461D02*
X0353429Y0071359D01*
X0359425Y0070330D02*
X0363629Y0066126D01*
X0347123Y0072410D02*
X0346072Y0072410D01*
X0333029Y0072417D02*
X0333029Y0070315D01*
X0333029Y0071366D02*
X0326723Y0071366D01*
X0326723Y0072417D02*
X0326723Y0070315D01*
X0326723Y0068243D02*
X0333029Y0068243D01*
X0333029Y0074475D02*
X0326723Y0074475D01*
X0329876Y0074475D02*
X0329876Y0078678D01*
X0333029Y0078678D02*
X0326723Y0078678D01*
X0326723Y0080736D02*
X0326723Y0084940D01*
X0326723Y0082838D02*
X0333029Y0082838D01*
X0336923Y0082853D02*
X0336923Y0079700D01*
X0337974Y0078649D01*
X0340076Y0078649D01*
X0341127Y0079700D01*
X0341127Y0082853D01*
X0343229Y0082853D02*
X0336923Y0082853D01*
X0339025Y0084910D02*
X0343229Y0084910D01*
X0340076Y0084910D02*
X0340076Y0089114D01*
X0339025Y0089114D02*
X0336923Y0087012D01*
X0339025Y0084910D01*
X0347123Y0082845D02*
X0348174Y0083896D01*
X0349225Y0083896D01*
X0350276Y0082845D01*
X0350276Y0080743D01*
X0351327Y0079692D01*
X0352378Y0079692D01*
X0353429Y0080743D01*
X0353429Y0082845D01*
X0352378Y0083896D01*
X0357323Y0082853D02*
X0359425Y0080751D01*
X0357323Y0078649D01*
X0363629Y0078649D01*
X0363629Y0082853D02*
X0357323Y0082853D01*
X0348174Y0079692D02*
X0347123Y0080743D01*
X0347123Y0082845D01*
X0343229Y0078649D02*
X0341127Y0080751D01*
X0343229Y0089114D02*
X0339025Y0089114D01*
X0343229Y0091172D02*
X0343229Y0095375D01*
X0336923Y0095375D01*
X0333029Y0096411D02*
X0333029Y0094310D01*
X0331978Y0093259D01*
X0327774Y0093259D02*
X0326723Y0094310D01*
X0326723Y0096411D01*
X0327774Y0097462D01*
X0331978Y0097462D01*
X0333029Y0096411D01*
X0336923Y0097433D02*
X0342178Y0097433D01*
X0343229Y0098484D01*
X0343229Y0100586D01*
X0342178Y0101637D01*
X0336923Y0101637D01*
X0337974Y0103694D02*
X0336923Y0104745D01*
X0336923Y0107898D01*
X0343229Y0107898D01*
X0343229Y0104745D01*
X0342178Y0103694D01*
X0337974Y0103694D01*
X0333029Y0104745D02*
X0333029Y0106847D01*
X0331978Y0107898D01*
X0329876Y0106847D02*
X0329876Y0104745D01*
X0330927Y0103694D01*
X0331978Y0103694D01*
X0333029Y0104745D01*
X0329876Y0106847D02*
X0328825Y0107898D01*
X0327774Y0107898D01*
X0326723Y0106847D01*
X0326723Y0104745D01*
X0327774Y0103694D01*
X0326723Y0101637D02*
X0326723Y0099535D01*
X0326723Y0100586D02*
X0333029Y0100586D01*
X0333029Y0101637D02*
X0333029Y0099535D01*
X0349225Y0100586D02*
X0349225Y0098484D01*
X0350276Y0097433D01*
X0351327Y0097433D01*
X0351327Y0101637D01*
X0352378Y0101637D02*
X0350276Y0101637D01*
X0349225Y0100586D01*
X0352378Y0101637D02*
X0353429Y0100586D01*
X0353429Y0098484D01*
X0359425Y0098484D02*
X0360476Y0097433D01*
X0363629Y0097433D01*
X0363629Y0099535D02*
X0360476Y0099535D01*
X0359425Y0098484D01*
X0360476Y0099535D02*
X0359425Y0100586D01*
X0359425Y0101637D01*
X0363629Y0101637D01*
X0362578Y0103694D02*
X0363629Y0104745D01*
X0363629Y0106847D01*
X0362578Y0107898D01*
X0360476Y0107898D02*
X0359425Y0105796D01*
X0359425Y0104745D01*
X0360476Y0103694D01*
X0362578Y0103694D01*
X0357323Y0103694D02*
X0357323Y0107898D01*
X0360476Y0107898D01*
X0359425Y0109956D02*
X0358374Y0109956D01*
X0357323Y0111007D01*
X0357323Y0113108D01*
X0358374Y0114159D01*
X0359425Y0109956D02*
X0363629Y0114159D01*
X0363629Y0109956D01*
X0353429Y0111007D02*
X0353429Y0113108D01*
X0352378Y0114159D01*
X0350276Y0114159D01*
X0349225Y0113108D01*
X0349225Y0111007D01*
X0350276Y0109956D01*
X0352378Y0109956D01*
X0353429Y0111007D01*
X0343229Y0111007D02*
X0342178Y0109956D01*
X0337974Y0109956D01*
X0336923Y0111007D01*
X0336923Y0113108D01*
X0337974Y0114159D01*
X0342178Y0114159D01*
X0343229Y0113108D01*
X0343229Y0111007D01*
X0349225Y0107898D02*
X0352378Y0107898D01*
X0353429Y0106847D01*
X0352378Y0105796D01*
X0353429Y0104745D01*
X0352378Y0103694D01*
X0349225Y0103694D01*
X0333029Y0111007D02*
X0331978Y0109956D01*
X0326723Y0109956D01*
X0333029Y0111007D02*
X0333029Y0113108D01*
X0331978Y0114159D01*
X0326723Y0114159D01*
X0326723Y0116217D02*
X0333029Y0116217D01*
X0336923Y0116217D02*
X0343229Y0116217D01*
X0347123Y0117268D02*
X0348174Y0116217D01*
X0350276Y0116217D01*
X0351327Y0117268D01*
X0351327Y0120421D01*
X0353429Y0120421D02*
X0347123Y0120421D01*
X0347123Y0117268D01*
X0339025Y0118319D02*
X0336923Y0116217D01*
X0328825Y0118319D02*
X0326723Y0116217D01*
X0328825Y0118319D02*
X0326723Y0120421D01*
X0333029Y0120421D01*
X0336923Y0120421D02*
X0339025Y0118319D01*
X0336923Y0120421D02*
X0343229Y0120421D01*
X0357323Y0118319D02*
X0363629Y0118319D01*
X0363629Y0120421D02*
X0363629Y0116217D01*
X0359425Y0120421D02*
X0357323Y0118319D01*
X0398123Y0117268D02*
X0398123Y0120421D01*
X0404429Y0120421D01*
X0404429Y0117268D01*
X0403378Y0116217D01*
X0399174Y0116217D01*
X0398123Y0117268D01*
X0401276Y0114159D02*
X0400225Y0113108D01*
X0400225Y0111007D01*
X0401276Y0109956D01*
X0402327Y0109956D01*
X0402327Y0114159D01*
X0403378Y0114159D02*
X0401276Y0114159D01*
X0403378Y0114159D02*
X0404429Y0113108D01*
X0404429Y0111007D01*
X0410425Y0111007D02*
X0410425Y0113108D01*
X0411476Y0114159D01*
X0413578Y0114159D01*
X0414629Y0113108D01*
X0414629Y0111007D01*
X0413578Y0109956D01*
X0411476Y0109956D01*
X0410425Y0111007D01*
X0410425Y0107898D02*
X0410425Y0106847D01*
X0411476Y0105796D01*
X0410425Y0104745D01*
X0411476Y0103694D01*
X0414629Y0103694D01*
X0418523Y0103724D02*
X0424829Y0103724D01*
X0421676Y0103724D02*
X0421676Y0099520D01*
X0421676Y0097462D02*
X0420625Y0096411D01*
X0420625Y0094310D01*
X0421676Y0093259D01*
X0422727Y0093259D01*
X0422727Y0097462D01*
X0423778Y0097462D02*
X0421676Y0097462D01*
X0423778Y0097462D02*
X0424829Y0096411D01*
X0424829Y0094310D01*
X0430825Y0094324D02*
X0431876Y0095375D01*
X0433978Y0095375D01*
X0435029Y0094324D01*
X0435029Y0092223D01*
X0433978Y0091172D01*
X0431876Y0091172D01*
X0430825Y0092223D01*
X0430825Y0094324D01*
X0430825Y0097433D02*
X0430825Y0100586D01*
X0431876Y0101637D01*
X0433978Y0101637D01*
X0435029Y0100586D01*
X0435029Y0097433D01*
X0428723Y0097433D01*
X0424829Y0099520D02*
X0418523Y0099520D01*
X0404429Y0099535D02*
X0404429Y0101637D01*
X0404429Y0100586D02*
X0400225Y0100586D01*
X0400225Y0101637D01*
X0400225Y0103694D02*
X0400225Y0106847D01*
X0401276Y0107898D01*
X0402327Y0106847D01*
X0402327Y0104745D01*
X0403378Y0103694D01*
X0404429Y0104745D01*
X0404429Y0107898D01*
X0410425Y0107898D02*
X0414629Y0107898D01*
X0414629Y0105796D02*
X0411476Y0105796D01*
X0430825Y0104745D02*
X0431876Y0103694D01*
X0435029Y0103694D01*
X0430825Y0104745D02*
X0430825Y0107898D01*
X0435029Y0107898D01*
X0433978Y0109956D02*
X0431876Y0109956D01*
X0430825Y0111007D01*
X0430825Y0113108D01*
X0431876Y0114159D01*
X0433978Y0114159D01*
X0435029Y0113108D01*
X0435029Y0111007D01*
X0433978Y0109956D01*
X0424829Y0112043D02*
X0421676Y0112043D01*
X0420625Y0113094D01*
X0420625Y0116246D01*
X0424829Y0116246D01*
X0424829Y0118319D02*
X0424829Y0120421D01*
X0424829Y0119370D02*
X0418523Y0119370D01*
X0418523Y0120421D02*
X0418523Y0118319D01*
X0414629Y0118319D02*
X0408323Y0118319D01*
X0408323Y0120421D02*
X0408323Y0116217D01*
X0428723Y0120421D02*
X0435029Y0120421D01*
X0435029Y0116217D01*
X0459323Y0116217D02*
X0459323Y0118319D01*
X0459323Y0117268D02*
X0464578Y0117268D01*
X0465629Y0118319D01*
X0465629Y0119370D01*
X0464578Y0120421D01*
X0469523Y0120421D02*
X0469523Y0117268D01*
X0470574Y0116217D01*
X0472676Y0116217D01*
X0473727Y0117268D01*
X0473727Y0120421D01*
X0475829Y0120421D02*
X0469523Y0120421D01*
X0470574Y0114159D02*
X0474778Y0114159D01*
X0475829Y0113108D01*
X0475829Y0111007D01*
X0474778Y0109956D01*
X0470574Y0109956D02*
X0469523Y0111007D01*
X0469523Y0113108D01*
X0470574Y0114159D01*
X0465629Y0113108D02*
X0465629Y0109956D01*
X0461425Y0109956D01*
X0459323Y0107898D02*
X0459323Y0106847D01*
X0465629Y0106847D01*
X0465629Y0107898D02*
X0465629Y0105796D01*
X0469523Y0104745D02*
X0470574Y0103694D01*
X0471625Y0103694D01*
X0472676Y0104745D01*
X0472676Y0107898D01*
X0469523Y0107898D02*
X0469523Y0104745D01*
X0472676Y0104745D02*
X0473727Y0103694D01*
X0474778Y0103694D01*
X0475829Y0104745D01*
X0475829Y0107898D01*
X0469523Y0107898D01*
X0464578Y0103724D02*
X0465629Y0102673D01*
X0465629Y0099520D01*
X0466680Y0099520D02*
X0467731Y0100571D01*
X0467731Y0101622D01*
X0464578Y0103724D02*
X0461425Y0103724D01*
X0461425Y0099520D02*
X0466680Y0099520D01*
X0469523Y0095375D02*
X0469523Y0092223D01*
X0470574Y0091172D01*
X0472676Y0091172D01*
X0473727Y0092223D01*
X0473727Y0095375D01*
X0473727Y0093273D02*
X0475829Y0091172D01*
X0474778Y0089114D02*
X0472676Y0089114D01*
X0471625Y0088063D01*
X0471625Y0085961D01*
X0472676Y0084910D01*
X0473727Y0084910D01*
X0473727Y0089114D01*
X0474778Y0089114D02*
X0475829Y0088063D01*
X0475829Y0085961D01*
X0475829Y0080751D02*
X0471625Y0082853D01*
X0465629Y0083889D02*
X0465629Y0081787D01*
X0464578Y0080736D01*
X0460374Y0080736D01*
X0464578Y0084940D01*
X0465629Y0083889D01*
X0464578Y0084940D02*
X0460374Y0084940D01*
X0459323Y0083889D01*
X0459323Y0081787D01*
X0460374Y0080736D01*
X0461425Y0078678D02*
X0459323Y0076577D01*
X0465629Y0076577D01*
X0465629Y0078678D02*
X0465629Y0074475D01*
X0464578Y0072417D02*
X0465629Y0071366D01*
X0465629Y0069264D01*
X0464578Y0068213D01*
X0462476Y0068213D01*
X0461425Y0069264D01*
X0461425Y0070315D01*
X0462476Y0072417D01*
X0459323Y0072417D01*
X0459323Y0068213D01*
X0469523Y0068228D02*
X0475829Y0068228D01*
X0475829Y0070330D02*
X0475829Y0066126D01*
X0475829Y0064069D02*
X0474778Y0064069D01*
X0474778Y0063018D01*
X0475829Y0063018D01*
X0475829Y0064069D01*
X0475829Y0060938D02*
X0475829Y0056734D01*
X0475829Y0058836D02*
X0469523Y0058836D01*
X0471625Y0060938D01*
X0469523Y0068228D02*
X0471625Y0070330D01*
X0471625Y0078649D02*
X0475829Y0080751D01*
X0465629Y0086997D02*
X0465629Y0091201D01*
X0461425Y0086997D01*
X0460374Y0086997D01*
X0459323Y0088048D01*
X0459323Y0090150D01*
X0460374Y0091201D01*
X0469523Y0095375D02*
X0475829Y0095375D01*
X0435029Y0089114D02*
X0430825Y0089114D01*
X0430825Y0085961D01*
X0431876Y0084910D01*
X0435029Y0084910D01*
X0435029Y0082853D02*
X0435029Y0081802D01*
X0433978Y0081802D01*
X0433978Y0082853D01*
X0435029Y0082853D01*
X0424829Y0081780D02*
X0421676Y0081780D01*
X0420625Y0082831D01*
X0420625Y0085983D01*
X0424829Y0085983D01*
X0420625Y0088048D02*
X0420625Y0089099D01*
X0422727Y0091201D01*
X0424829Y0091201D02*
X0420625Y0091201D01*
X0414629Y0091172D02*
X0408323Y0091172D01*
X0408323Y0089114D02*
X0414629Y0089114D01*
X0414629Y0091172D02*
X0412527Y0093273D01*
X0414629Y0095375D01*
X0408323Y0095375D01*
X0406531Y0095361D02*
X0406531Y0094310D01*
X0405480Y0093259D01*
X0400225Y0093259D01*
X0400225Y0096411D01*
X0401276Y0097462D01*
X0403378Y0097462D01*
X0404429Y0096411D01*
X0404429Y0093259D01*
X0404429Y0091201D02*
X0400225Y0091201D01*
X0400225Y0088048D01*
X0401276Y0086997D01*
X0404429Y0086997D01*
X0410425Y0085961D02*
X0411476Y0084910D01*
X0414629Y0084910D01*
X0414629Y0082853D02*
X0414629Y0080751D01*
X0414629Y0081802D02*
X0410425Y0081802D01*
X0410425Y0082853D01*
X0408323Y0081802D02*
X0407272Y0081802D01*
X0404429Y0081787D02*
X0404429Y0083889D01*
X0403378Y0084940D01*
X0401276Y0084940D01*
X0400225Y0083889D01*
X0400225Y0081787D01*
X0401276Y0080736D01*
X0402327Y0080736D01*
X0402327Y0084940D01*
X0410425Y0085961D02*
X0410425Y0088063D01*
X0411476Y0089114D01*
X0410425Y0078678D02*
X0410425Y0076577D01*
X0409374Y0077627D02*
X0413578Y0077627D01*
X0414629Y0076577D01*
X0413578Y0074504D02*
X0414629Y0073453D01*
X0413578Y0072402D01*
X0414629Y0071351D01*
X0413578Y0070300D01*
X0410425Y0070300D01*
X0411476Y0068243D02*
X0410425Y0067192D01*
X0410425Y0065090D01*
X0411476Y0064039D01*
X0412527Y0064039D01*
X0412527Y0068243D01*
X0413578Y0068243D02*
X0411476Y0068243D01*
X0413578Y0068243D02*
X0414629Y0067192D01*
X0414629Y0065090D01*
X0418523Y0062996D02*
X0424829Y0062996D01*
X0421676Y0062996D02*
X0421676Y0067199D01*
X0424829Y0067199D02*
X0418523Y0067199D01*
X0404429Y0066156D02*
X0404429Y0063003D01*
X0403378Y0061952D01*
X0401276Y0061952D01*
X0400225Y0063003D01*
X0400225Y0066156D01*
X0398123Y0066156D02*
X0404429Y0066156D01*
X0408323Y0061981D02*
X0408323Y0060930D01*
X0414629Y0060930D01*
X0414629Y0059880D02*
X0414629Y0061981D01*
X0417472Y0059887D02*
X0418523Y0059887D01*
X0420625Y0059887D02*
X0424829Y0059887D01*
X0424829Y0060938D02*
X0424829Y0058836D01*
X0420625Y0059887D02*
X0420625Y0060938D01*
X0414629Y0057807D02*
X0414629Y0055705D01*
X0414629Y0056756D02*
X0408323Y0056756D01*
X0408323Y0057807D01*
X0406531Y0057792D02*
X0406531Y0056742D01*
X0405480Y0055691D01*
X0400225Y0055691D01*
X0404429Y0055691D02*
X0404429Y0058843D01*
X0403378Y0059894D01*
X0400225Y0059894D01*
X0418523Y0056764D02*
X0418523Y0055713D01*
X0424829Y0055713D01*
X0424829Y0056764D02*
X0424829Y0054662D01*
X0424829Y0052589D02*
X0424829Y0050488D01*
X0424829Y0051538D02*
X0418523Y0051538D01*
X0418523Y0052589D01*
X0423778Y0047364D02*
X0424829Y0047364D01*
X0424829Y0046313D01*
X0423778Y0046313D01*
X0423778Y0047364D01*
X0424829Y0046313D02*
X0426931Y0048415D01*
X0413578Y0074504D02*
X0410425Y0074504D01*
X0404429Y0074475D02*
X0404429Y0077627D01*
X0403378Y0078678D01*
X0401276Y0078678D01*
X0400225Y0077627D01*
X0400225Y0074475D01*
X0398123Y0074475D02*
X0404429Y0074475D01*
X0420625Y0076569D02*
X0420625Y0078671D01*
X0421676Y0079722D01*
X0423778Y0079722D01*
X0424829Y0078671D01*
X0424829Y0076569D01*
X0422727Y0075518D02*
X0422727Y0079722D01*
X0420625Y0076569D02*
X0421676Y0075518D01*
X0422727Y0075518D01*
X0363629Y0091172D02*
X0363629Y0094324D01*
X0362578Y0095375D01*
X0361527Y0094324D01*
X0361527Y0091172D01*
X0360476Y0091172D02*
X0363629Y0091172D01*
X0360476Y0091172D02*
X0359425Y0092223D01*
X0359425Y0094324D01*
X0353429Y0095375D02*
X0349225Y0095375D01*
X0351327Y0095375D02*
X0349225Y0093273D01*
X0349225Y0092223D01*
X0397072Y0100586D02*
X0398123Y0100586D01*
X0461425Y0114159D02*
X0464578Y0114159D01*
X0465629Y0113108D01*
M02*
