%
M48
M72
T01C0.0276
T02C0.0315
T03C0.0320
T04C0.0354
T05C0.0360
T06C0.0400
T07C0.0433
T08C0.0827
T09C0.0866
%
T01
X9398Y4923
X9398Y5711
T02
X15648Y4444
X17439Y5743
X14605Y6964
X13660Y7515
X17223Y8775
T03
X11148Y8767
X9648Y9067
X11148Y9767
X11148Y10767
X9648Y12067
X14148Y12067
X15148Y12067
X17148Y12067
X18148Y12067
X20148Y12067
X21148Y12067
X22648Y12067
X25648Y12067
X26648Y12067
X26648Y9067
X11148Y6767
X11148Y5767
T04
X21148Y9067
T05
X8093Y8711
X8093Y9645
X8093Y7823
X8093Y6889
T06
X30648Y6567
X31648Y6567
X31648Y5567
X30648Y5567
X30648Y4567
X31648Y4567
X37648Y4567
X38648Y4567
X38648Y5567
X37648Y5567
X37648Y6567
X38648Y6567
X38648Y7567
X37648Y7567
X37648Y8567
X38648Y8567
X38648Y9567
X37648Y9567
X37648Y10567
X38648Y10567
X38648Y11567
X37648Y11567
X31648Y11567
X30648Y11567
X30648Y10567
X31648Y10567
X31648Y9567
X30648Y9567
X30648Y8567
X31648Y8567
X31648Y7567
X30648Y7567
X44148Y7567
X45148Y7567
X45148Y6567
X44148Y6567
X44148Y5567
X45148Y5567
X45148Y4567
X44148Y4567
X51148Y4567
X52148Y4567
X52148Y5567
X51148Y5567
X51148Y6567
X52148Y6567
X52148Y7567
X51148Y7567
X51148Y8567
X52148Y8567
X52148Y9567
X51148Y9567
X51148Y10567
X52148Y10567
X52148Y11567
X51148Y11567
X45148Y11567
X44148Y11567
X44148Y10567
X45148Y10567
X45148Y9567
X44148Y9567
X44148Y8567
X45148Y8567
T07
X25398Y8626
X25398Y7445
X21632Y4311
X20648Y4311
X19664Y4311
X25398Y4099
X7109Y7381
X7109Y9153
T08
X18876Y7067
X22420Y7067
T09
X7148Y5984
X7148Y10551
M30
